<svg width="796" height="323" viewBox="0 0 796 323" fill="none" xmlns="http://www.w3.org/2000/svg">
<path d="M270.845 1.83006H271.862V2.05955H270.845V1.83006Z" fill="#00FFFF"/>
<path d="M272.375 1.82982V0.911861V1.60033V1.82982ZM272.629 0.452881H273.647V0.682371H272.629V0.452881ZM272.629 2.97727H273.647V3.20676H272.629V2.97727ZM273.647 1.82982V0.911861V1.60033V1.82982Z" fill="#00FFFF"/>
<path d="M274.406 1.82982V0.911861V1.60033V1.82982ZM274.661 0.452881H275.678V0.682371H274.661V0.452881ZM274.661 2.97727H275.678V3.20676H274.661V2.97727ZM275.678 1.82982V0.911861V1.60033V1.82982Z" fill="#00FFFF"/>
<path d="M276.442 2.05931V2.74778H276.188V2.05931H276.442ZM276.696 2.97727H277.968V3.20676H276.442H276.696V2.97727ZM276.696 0.452881H277.713V0.682371H276.696V0.452881ZM276.696 1.82982H277.713V2.05931H276.696V1.82982Z" fill="#00FFFF"/>
<path d="M286.102 0.452881H287.627V0.682371H286.356L286.102 0.452881ZM286.356 1.82982H287.373V2.05931H286.356V1.82982Z" fill="#00FFFF"/>
<path d="M288.388 3.21189H287.625V2.9824H288.388V3.21189ZM288.388 0.91699H287.879V0.6875H288.388H288.134L288.388 0.91699ZM288.642 1.83495V0.91699H288.897V1.60546L288.642 1.83495ZM288.642 2.9824H289.151V3.21189H288.388L288.642 2.9824Z" fill="#00FFFF"/>
<path d="M289.664 1.83495V0.91699V1.60546V1.83495ZM289.918 0.91699V0.6875H290.936V0.91699H289.918ZM289.918 2.06444V1.83495H290.936V2.06444H289.918ZM289.918 3.21189V2.9824H290.936V3.21189H289.918Z" fill="#00FFFF"/>
<path d="M291.695 1.82982V0.911861V1.60033V1.82982ZM291.95 0.452881H292.967V0.682371H291.95V0.452881ZM291.95 2.97727H292.967V3.20676H291.95V2.97727ZM292.967 1.82982V0.911861V1.60033V1.82982Z" fill="#00FFFF"/>
<path d="M294.239 3.21189H293.477V2.9824H294.239V3.21189ZM294.239 0.91699H293.731V0.6875H294.239H293.985L294.239 0.91699ZM294.494 1.83495V0.91699H294.748V1.60546L294.494 1.83495ZM294.494 2.9824H295.002V3.21189H294.239L294.494 2.9824Z" fill="#00FFFF"/>
<path d="M304.161 2.05931V2.74778H303.906V2.05931H304.161ZM304.669 2.97727H305.941V3.20676H304.415H304.669V2.97727ZM304.669 0.452881H305.686V0.682371H304.669V0.452881ZM304.669 1.82982H305.686V2.05931H304.669V1.82982Z" fill="#00FFFF"/>
<path d="M306.192 2.05931V2.74778H305.938V2.05931H306.192ZM306.446 2.97727H307.718V3.20676H306.192H306.446V2.97727ZM306.446 0.452881H307.463V0.682371H306.446V0.452881ZM306.446 1.82982H307.463V2.05931H306.446V1.82982Z" fill="#00FFFF"/>
<path d="M308.74 3.21189H307.977V2.9824H308.74V3.21189ZM308.74 0.91699H308.231V0.6875H308.74H308.485L308.74 0.91699ZM309.248 1.83495V0.91699H309.502V1.60546L309.248 1.83495ZM308.994 2.9824H309.502V3.21189H308.74L308.994 2.9824Z" fill="#00FFFF"/>
<path d="M311.279 0.91699H310.008V0.6875H311.534H311.279V0.91699ZM311.534 1.83495H311.279V1.60546H311.788L311.534 1.83495ZM311.534 1.83495V0.91699H311.788V1.60546L311.534 1.83495Z" fill="#00FFFF"/>
<path d="M312.548 0.452881H313.565V0.682371H312.548V0.452881ZM312.548 1.82982H313.565V2.05931H312.548V1.82982ZM312.548 2.97727H313.565V3.20676H312.548V2.97727Z" fill="#00FFFF"/>
<path d="M314.078 1.83495V0.91699V1.60546V1.83495ZM314.332 0.91699V0.6875H315.35V0.91699H314.332ZM314.332 2.06444V1.83495H315.35V2.06444H314.332ZM314.332 3.21189V2.9824H315.35V3.21189H314.332Z" fill="#00FFFF"/>
<path d="M316.622 3.21189H315.859V2.9824H316.622V3.21189ZM316.622 0.91699H316.114V0.6875H316.622H316.368L316.622 0.91699ZM317.131 1.83495V0.91699H317.385V1.60546L317.131 1.83495ZM316.877 2.9824H317.385V3.21189H316.622L316.877 2.9824Z" fill="#00FFFF"/>
<path d="M318.148 1.83495V0.6875H318.403V1.83495H318.148ZM319.42 2.9824H318.403V2.75291H319.674L319.42 2.9824ZM318.403 0.91699H318.148L319.674 0.6875H319.42L318.403 0.91699ZM318.403 2.06444V1.83495H319.42V2.06444H318.403Z" fill="#00FFFF"/>
<path d="M320.438 0.452881H321.456V0.682371H320.438V0.452881ZM320.438 1.82982H321.456V2.05931H320.438V1.82982ZM320.438 2.97727H321.456V3.20676H320.438V2.97727Z" fill="#00FFFF"/>
<path d="M322.47 0.452881H323.487V0.682371H322.47V0.452881ZM322.47 1.82982H323.487V2.05931H322.47V1.82982ZM322.47 2.97727H323.487V3.20676H322.47V2.97727Z" fill="#00FFFF"/>
<path d="M334.676 0.452881H336.202V0.682371H334.931L334.676 0.452881ZM334.931 1.82982H335.948V2.05931H334.931V1.82982Z" fill="#00FFFF"/>
<path d="M335.953 3.66406H338.496V3.89355H335.953V3.66406Z" fill="#00FFFF"/>
<path d="M339.763 3.21189H339V2.9824H339.763V3.21189ZM339.763 0.91699H339.254V0.6875H339.763H339.509L339.763 0.91699ZM340.017 1.83495V0.91699H340.272V1.60546L340.017 1.83495ZM340.017 2.9824H340.526V3.21189H339.763L340.017 2.9824Z" fill="#00FFFF"/>
<path d="M341.544 3.21189H340.781V2.9824H341.544V3.21189ZM341.544 0.91699H341.036V0.6875H341.544H341.29L341.544 0.91699ZM342.053 1.83495V0.91699H342.307V1.60546L342.053 1.83495ZM341.799 2.9824H342.307V3.21189H341.544L341.799 2.9824Z" fill="#00FFFF"/>
<path d="M390.625 2.05873V1.59992V0.911695V1.82932V2.28814V2.05873ZM390.879 0.452881H392.151V0.911695H390.879V0.452881ZM390.879 2.97636H392.151V3.43517H390.879V2.97636ZM391.642 0.911695H391.897L391.134 2.97636H390.879L391.642 0.911695ZM391.897 2.05873V1.82932V2.28814V2.05873Z" fill="#00FFFF"/>
<path d="M392.656 1.59992V0.911695V1.82932V1.59992ZM393.165 0.911695V0.452881H394.436V0.911695H393.419H393.165ZM393.165 2.05873V1.59992H394.436V2.05873H393.419H393.165ZM393.165 3.43517V2.97636H394.436V3.43517H393.419H393.165Z" fill="#00FFFF"/>
<path d="M395.708 3.43541H394.945V2.9766H395.708V3.43541ZM395.708 0.911939H395.2V0.453125H395.963L395.454 0.911939H395.708ZM396.217 1.82957V0.911939L396.725 0.453125V1.60016L396.217 1.82957ZM395.963 3.20601H396.725V3.66482H395.963V3.20601Z" fill="#00FFFF"/>
<path d="M398.005 3.43517H397.242V2.97636H398.005V3.43517ZM398.005 0.911695H397.497V0.452881H398.259V0.911695H398.005ZM398.259 1.82932V0.911695L398.768 0.452881V1.59992L398.259 1.82932ZM398.259 3.20576H399.022V3.66458H398.259V3.20576Z" fill="#00FFFF"/>
<path d="M399.531 1.83007H401.057V2.28905H399.531V1.83007ZM400.548 0.453125H401.057L399.786 1.60058H399.531L400.548 0.453125Z" fill="#00FFFF"/>
<path d="M403.083 3.43541H402.32V2.9766H403.083V3.43541ZM403.083 0.911939H402.575V0.453125H403.338L402.829 0.911939H403.083ZM403.592 1.82957V0.453125L403.846 1.60016L403.592 1.82957ZM403.338 3.20601H404.1V3.66482H403.338V3.20601Z" fill="#00FFFF"/>
<path d="M405.126 0.452881H406.397V0.911695H405.126V0.452881ZM405.126 1.82932H406.397V2.28814H405.126V1.82932ZM405.126 2.97636H406.397V3.43517H405.126V2.97636Z" fill="#00FFFF"/>
<path d="M408.427 3.43517H407.664V2.97636H408.427V3.43517ZM408.427 0.911695H407.918V0.452881H408.681L408.173 0.911695H408.427ZM408.936 1.82932V0.911695L409.444 0.452881V1.59992L408.936 1.82932ZM408.681 3.20576H409.444V3.66458H408.681V3.20576Z" fill="#00FFFF"/>
<path d="M409.953 1.60016V0.911939V1.82957V1.60016ZM410.462 0.911939V0.453125H411.733V0.911939H410.716H410.462ZM410.462 2.05897V1.60016H411.733V2.05897H410.716H410.462ZM410.462 3.43541V2.9766H411.733V3.43541H410.716H410.462Z" fill="#00FFFF"/>
<path d="M416.563 0.452881L417.072 0.911695V1.82932V0.452881H416.563ZM416.563 2.05873V2.97636L416.055 3.43517V2.28814L416.563 2.05873ZM416.563 0.452881H418.089V0.911695H417.072L416.563 0.452881ZM417.072 2.97636H418.344V3.43517H416.818L417.326 2.97636H417.072ZM417.072 1.82932H418.344V2.28814H417.072V1.82932Z" fill="#00FFFF"/>
<path d="M419.622 3.43517H418.859V2.97636H419.622V3.43517ZM419.622 0.911695H419.114V0.452881H419.877L419.368 0.911695H419.622ZM419.877 1.82932V0.452881L420.131 1.59992L419.877 1.82932ZM419.877 3.20576H420.64V3.66458H419.877V3.20576Z" fill="#00FFFF"/>
<path d="M422.165 0.452881L422.674 0.911695V1.82932V0.452881H422.165ZM422.165 2.05873V2.97636L421.656 3.43517V2.28814L422.165 2.05873ZM422.165 0.452881H423.691V0.911695H422.674L422.165 0.452881ZM422.419 2.97636H423.691V3.43517H422.165L422.674 2.97636H422.419ZM422.419 1.82932H423.691V2.28814H422.419V1.82932Z" fill="#00FFFF"/>
<path d="M424.454 2.05897V2.9766L423.945 3.43541V2.28838L424.454 2.05897ZM424.708 2.9766H426.234V3.43541H424.708L425.217 2.9766H424.708ZM424.708 0.453125H425.98V0.911939H424.708V0.453125ZM424.708 1.82957H425.98V2.28838H424.708V1.82957Z" fill="#00FFFF"/>
<path d="M427.759 0.452881L428.267 0.911695V1.82932V0.452881H427.759ZM427.759 2.05873V2.97636L427.25 3.43517V2.28814L427.759 2.05873ZM427.759 0.452881H429.285V0.911695H428.267L427.759 0.452881ZM428.013 2.97636H429.285V3.43517H427.759L428.267 2.97636H428.013ZM428.013 1.82932H429.285V2.28814H428.013V1.82932Z" fill="#00FFFF"/>
<path d="M430.047 2.98229H431.573V3.4411H430.047V2.98229ZM431.827 0.458814H430.301V0H431.827V0.458814ZM430.301 1.83525H431.573V2.29407H430.301V1.83525ZM431.064 0.917627H431.573L430.555 1.83525H430.301L431.064 0.917627Z" fill="#00FFFF"/>
<path d="M433.352 1.83594H434.623V2.29492H433.352V1.83594Z" fill="#00FFFF"/>
<path d="M435.891 2.05873V1.59992V0.911695V1.82932V2.28814V2.05873ZM436.145 0.452881H437.416V0.911695H436.145V0.452881ZM436.145 2.97636H437.416V3.43517H436.145V2.97636ZM437.416 2.05873V1.82932V2.28814V2.05873Z" fill="#00FFFF"/>
<path d="M438.438 1.82932V0.452881V1.59992V1.82932ZM439.455 1.82932L438.692 0.911695L438.946 0.682288L439.709 1.59992L439.455 1.82932Z" fill="#00FFFF"/>
<path d="M443.271 3.43517H442.508V2.97636H443.271V3.43517ZM443.271 0.911695H442.762V0.452881H443.525V0.911695H443.271ZM443.525 1.82932V0.911695L444.034 0.452881V1.59992L443.525 1.82932ZM443.525 3.20576H444.288V3.66458H443.525V3.20576Z" fill="#00FFFF"/>
<path d="M445.56 3.43541H444.797V2.9766H445.56V3.43541ZM445.56 0.911939H445.051V0.453125H445.814V0.911939H445.56ZM445.814 1.82957V0.911939L446.323 0.453125V1.60016L445.814 1.82957ZM445.814 3.20601H446.577V3.66482H445.814V3.20601Z" fill="#00FFFF"/>
<path d="M447.086 2.98229H448.612V3.4411H447.086V2.98229ZM448.866 0.458814H447.34V0H448.866V0.458814ZM447.34 1.83525H448.612V2.29407H447.34V1.83525ZM448.103 0.917627H448.612L447.595 1.83525H447.34L448.103 0.917627Z" fill="#00FFFF"/>
<path d="M449.883 2.05873V1.59992V0.911695V1.82932V2.28814V2.05873ZM450.391 0.452881H451.663V0.911695H450.391V0.452881ZM450.391 2.97636H451.663V3.43517H450.391V2.97636ZM451.154 0.911695H451.409L450.646 2.97636H450.391L451.154 0.911695ZM451.409 2.05873V1.82932V2.28814V2.05873Z" fill="#00FFFF"/>
<path d="M453.438 1.375H454.709V1.83398H453.438V1.375ZM453.438 2.06347H454.709V2.52245H453.438V2.06347Z" fill="#00FFFF"/>
<path d="M456.242 2.05873V1.59992V0.911695V1.82932V2.28814V2.05873ZM456.497 0.452881H457.768V0.911695H456.497V0.452881ZM456.497 2.97636H457.768V3.43517H456.497V2.97636ZM457.259 0.911695H457.514L456.751 2.97636H456.497L457.259 0.911695ZM457.768 2.05873V1.82932V2.28814V2.05873Z" fill="#00FFFF"/>
<path d="M458.523 2.05897V1.60016V0.911939V1.82957V2.28838V2.05897ZM458.778 0.453125H460.049V0.911939H458.778V0.453125ZM458.778 2.9766H460.049V3.43541H458.778V2.9766ZM459.541 0.911939H459.795L459.032 2.9766H458.778L459.541 0.911939ZM459.795 2.05897V1.82957V2.28838V2.05897Z" fill="#00FFFF"/>
<path d="M460.562 2.05897V1.60016V0.911939V1.82957V2.28838V2.05897ZM461.071 0.453125H462.343V0.911939H461.071V0.453125ZM461.071 2.9766H462.343V3.43541H461.071V2.9766ZM461.834 0.911939H462.088L461.325 2.9766H461.071L461.834 0.911939ZM462.088 2.05897V1.82957V2.28838V2.05897Z" fill="#00FFFF"/>
<path d="M462.852 2.05873V1.59992V0.911695V1.82932V2.28814V2.05873ZM463.36 0.452881H464.632V0.911695H463.36V0.452881ZM463.36 2.97636H464.632V3.43517H463.36V2.97636ZM464.123 0.911695H464.377L463.615 2.97636H463.36L464.123 0.911695ZM464.377 2.05873V1.82932V2.28814V2.05873Z" fill="#00FFFF"/>
<path d="M465.141 2.05897V1.60016V0.911939V1.82957V2.28838V2.05897ZM465.649 0.453125H466.921V0.911939H465.649V0.453125ZM465.649 2.9766H466.921V3.43541H465.649V2.9766ZM466.412 0.911939H466.666L465.904 2.9766H465.649L466.412 0.911939ZM466.666 2.05897V1.82957V2.28838V2.05897Z" fill="#00FFFF"/>
<path d="M467.43 2.05873V1.59992V0.911695V1.82932V2.28814V2.05873ZM467.684 0.452881H468.956V0.911695H467.684V0.452881ZM467.684 2.97636H468.956V3.43517H467.684V2.97636ZM468.447 0.911695H468.701L467.938 2.97636H467.684L468.447 0.911695ZM468.956 2.05873V1.82932V2.28814V2.05873Z" fill="#00FFFF"/>
<path d="M469.719 2.05873V1.59992V0.911695V1.82932V2.28814V2.05873ZM469.973 0.452881H471.245V0.911695H469.973V0.452881ZM469.973 2.97636H471.245V3.43517H469.973V2.97636ZM470.736 0.911695H470.99L470.227 2.97636H469.973L470.736 0.911695ZM470.99 2.05873V1.82932V2.28814V2.05873Z" fill="#00FFFF"/>
<path d="M471.75 2.05897V1.60016V0.911939V1.82957V2.28838V2.05897ZM472.259 0.453125H473.53V0.911939H472.259V0.453125ZM472.259 2.9766H473.53V3.43541H472.259V2.9766ZM473.022 0.911939H473.276L472.513 2.9766H472.259L473.022 0.911939ZM473.276 2.05897V1.82957V2.28838V2.05897Z" fill="#00FFFF"/>
<path d="M474.039 2.05873V1.59992V0.911695V1.82932V2.28814V2.05873ZM474.548 0.452881H475.819V0.911695H474.548V0.452881ZM474.548 2.97636H475.819V3.43517H474.548V2.97636ZM475.311 0.911695H475.565L474.802 2.97636H474.548L475.311 0.911695ZM475.565 2.05873V1.82932V2.28814V2.05873Z" fill="#00FFFF"/>
<path d="M476.328 2.05873V1.59992V0.911695V1.82932V2.28814V2.05873ZM476.837 0.452881H478.108V0.911695H476.837V0.452881ZM476.837 2.97636H478.108V3.43517H476.837V2.97636ZM477.6 0.911695H477.854L477.091 2.97636H476.837L477.6 0.911695ZM477.854 2.05873V1.82932V2.28814V2.05873Z" fill="#00FFFF"/>
<path d="M478.617 2.05897V1.60016V0.911939V1.82957V2.28838V2.05897ZM478.871 0.453125H480.143V0.911939H478.871V0.453125ZM478.871 2.9766H480.143V3.43541H478.871V2.9766ZM479.634 0.911939H479.889L479.126 2.9766H478.871L479.634 0.911939ZM480.143 2.05897V1.82957V2.28838V2.05897Z" fill="#00FFFF"/>
<path d="M480.906 2.05873V1.59992V0.911695V1.82932V2.28814V2.05873ZM481.161 0.452881H482.432V0.911695H481.161V0.452881ZM481.161 2.97636H482.432V3.43517H481.161V2.97636ZM481.923 0.911695H482.178L481.415 2.97636H481.161L481.923 0.911695ZM482.178 2.05873V1.82932V2.28814V2.05873Z" fill="#00FFFF"/>
<path d="M482.938 2.05897V1.60016V0.911939V1.82957V2.28838V2.05897ZM483.446 0.453125H484.718V0.911939H483.446V0.453125ZM483.446 2.9766H484.718V3.43541H483.446V2.9766ZM484.209 0.911939H484.463L483.7 2.9766H483.446L484.209 0.911939ZM484.463 2.05897V1.82957V2.28838V2.05897Z" fill="#00FFFF"/>
<path d="M485.227 2.05897V1.60016V0.911939V1.82957V2.28838V2.05897ZM485.735 0.453125H487.007V0.911939H485.735V0.453125ZM485.735 2.9766H487.007V3.43541H485.735V2.9766ZM486.498 0.911939H486.752L485.99 2.9766H485.735L486.498 0.911939ZM486.752 2.05897V1.82957V2.28838V2.05897Z" fill="#00FFFF"/>
<path d="M487.523 2.05873V1.59992V0.911695V1.82932V2.28814V2.05873ZM488.032 0.452881H489.304V0.911695H488.032V0.452881ZM488.032 2.97636H489.304V3.43517H488.032V2.97636ZM488.795 0.911695H489.049L488.286 2.97636H488.032L488.795 0.911695ZM489.049 2.05873V1.82932V2.28814V2.05873Z" fill="#00FFFF"/>
<path d="M489.812 2.05897V1.60016V0.911939V1.82957V2.28838V2.05897ZM490.067 0.453125H491.338V0.911939H490.067V0.453125ZM490.067 2.9766H491.338V3.43541H490.067V2.9766ZM490.83 0.911939H491.084L490.321 2.9766H490.067L490.83 0.911939ZM491.338 2.05897V1.82957V2.28838V2.05897Z" fill="#00FFFF"/>
<path d="M492.094 2.05873V1.59992V0.911695V1.82932V2.28814V2.05873ZM492.348 0.452881H493.62V0.911695H492.348V0.452881ZM492.348 2.97636H493.62V3.43517H492.348V2.97636ZM493.111 0.911695H493.365L492.602 2.97636H492.348L493.111 0.911695ZM493.365 2.05873V1.82932V2.28814V2.05873Z" fill="#00FFFF"/>
<path d="M494.133 2.05873V1.59992V0.911695V1.82932V2.28814V2.05873ZM494.641 0.452881H495.913V0.911695H494.641V0.452881ZM494.641 2.97636H495.913V3.43517H494.641V2.97636ZM495.404 0.911695H495.659L494.896 2.97636H494.641L495.404 0.911695ZM495.659 2.05873V1.82932V2.28814V2.05873Z" fill="#00FFFF"/>
<path d="M497.188 0.682532L497.442 0.453125L498.205 1.60016L497.95 1.82957L497.188 0.682532ZM497.188 3.20601L497.95 2.05897H498.205L497.442 3.43541H497.188V3.20601ZM498.205 1.60016L498.968 0.453125H499.222L498.459 1.82957H498.205V1.60016ZM498.205 2.05897L498.459 1.82957L499.222 2.9766L498.968 3.20601L498.205 2.05897Z" fill="#00FFFF"/>
<path d="M499.727 0.682288L499.981 0.452881L500.744 1.59992L500.489 1.82932L499.727 0.682288ZM499.727 3.20576L500.489 2.05873H500.744L499.981 3.43517H499.727V3.20576ZM500.744 1.59992L501.507 0.452881H501.761L500.998 1.82932H500.744V1.59992ZM500.744 2.05873L500.998 1.82932L501.761 2.97636L501.507 3.20576L500.744 2.05873Z" fill="#00FFFF"/>
<path d="M502.779 3.43541H502.016V2.9766H502.779V3.43541ZM502.779 0.911939H502.27V0.453125H503.033L502.524 0.911939H502.779ZM503.033 1.82957V0.453125L503.287 1.60016L503.033 1.82957ZM503.033 3.20601H503.796V3.66482H503.033V3.20601Z" fill="#00FFFF"/>
<path d="M504.305 1.82982H505.831V2.2888H504.305V1.82982ZM505.322 0.452881H505.831L504.559 1.60033H504.305L505.322 0.452881Z" fill="#00FFFF"/>
<path d="M508.372 3.43541H507.609V2.9766H508.372V3.43541ZM508.372 0.911939H507.864V0.453125H508.627L508.118 0.911939H508.372ZM508.627 1.82957V0.911939L509.135 0.453125V1.60016L508.627 1.82957ZM508.627 3.20601H509.39V3.66482H508.627V3.20601Z" fill="#00FFFF"/>
<path d="M511.166 0.911861H509.641V0.452881H511.166L510.658 0.911861H511.166ZM511.421 1.82982H511.166V1.37084H511.675L511.421 1.82982ZM511.421 1.82982V0.452881L511.675 1.60033L511.421 1.82982Z" fill="#00FFFF"/>
<path d="M512.446 0.452881H513.718V0.911695H512.446V0.452881ZM512.446 1.82932H513.718V2.28814H512.446V1.82932ZM512.446 2.97636H513.718V3.43517H512.446V2.97636Z" fill="#00FFFF"/>
<path d="M514.735 0.453125H516.007V0.911939H514.735V0.453125ZM514.735 1.82957H516.007V2.28838H514.735V1.82957ZM514.735 2.9766H516.007V3.43541H514.735V2.9766Z" fill="#00FFFF"/>
<path d="M518.034 0.911861H516.508V0.452881H518.034V0.911861ZM518.034 1.82982H517.779V1.37084H518.288L518.034 1.82982ZM518.034 1.82982V0.911861L518.542 0.452881V1.60033L518.034 1.82982Z" fill="#00FFFF"/>
<path d="M519.56 3.43541H518.797V2.9766H519.56V3.43541ZM519.56 0.911939H519.051V0.453125H519.814V0.911939H519.56ZM519.814 1.82957V0.911939L520.323 0.453125V1.60016L519.814 1.82957ZM519.814 3.20601H520.577V3.66482H519.814V3.20601Z" fill="#00FFFF"/>
<path d="M521.852 2.05873V2.97636L521.344 3.43517V2.28814L521.852 2.05873ZM522.107 2.97636H523.633V3.43517H522.107L522.615 2.97636H522.107ZM522.107 0.452881H523.378V0.911695H522.107V0.452881ZM522.107 1.82932H523.378V2.28814H522.107V1.82932Z" fill="#00FFFF"/>
<path d="M524.141 2.98229H525.666V3.4411H524.141V2.98229ZM525.921 0.458814H524.395V0H525.921V0.458814ZM524.395 1.83525H525.666V2.29407H524.395V1.83525ZM525.158 0.917627H525.666L524.649 1.83525H524.395L525.158 0.917627Z" fill="#00FFFF"/>
<path d="M406.645 318.64H407.662V318.869H406.645V318.64Z" fill="#00FFFF"/>
<path d="M408.676 317.492H409.693V317.722H408.676V317.492ZM408.676 319.787H409.693V320.017H408.676V319.787Z" fill="#00FFFF"/>
<path d="M410.712 317.492H411.729V317.722H410.712V317.492ZM410.712 319.787H411.729V320.017H410.712V319.787Z" fill="#00FFFF"/>
<path d="M412.239 318.869V319.558H411.984V318.869H412.239ZM412.747 319.787H414.019V320.017H412.493H412.747V319.787ZM412.747 317.492H413.765V317.722H412.747V317.492ZM412.747 318.64H413.765V318.869H412.747V318.64Z" fill="#00FFFF"/>
<path d="M421.906 317.492H423.432V317.722H422.161L421.906 317.492ZM422.415 318.64H423.432V318.869H422.415V318.64Z" fill="#00FFFF"/>
<path d="M424.193 320.017H423.43V319.787H424.193V320.017ZM424.193 317.722H423.684V317.492H424.193H423.938L424.193 317.722ZM424.701 318.64V317.951H424.956V318.64H424.701ZM424.447 320.017H424.956V320.246H424.193L424.447 320.017Z" fill="#00FFFF"/>
<path d="M425.973 317.722V317.492H426.99V317.722H425.973ZM425.973 318.869V318.64H426.99V318.869H425.973ZM425.973 320.017V319.787H426.99V320.017H425.973Z" fill="#00FFFF"/>
<path d="M428.009 317.492H429.026V317.722H428.009V317.492ZM428.009 319.787H429.026V320.017H428.009V319.787Z" fill="#00FFFF"/>
<path d="M430.294 320.017H429.531V319.787H430.294V320.017ZM430.294 317.722H429.786V317.492H430.294H430.04L430.294 317.722ZM430.548 318.64V317.951H430.803V318.64H430.548ZM430.294 320.017H430.803V320.246H430.04L430.294 320.017Z" fill="#00FFFF"/>
<path d="M440.215 318.869V319.558H439.961V318.869H440.215ZM440.47 319.787H441.741V320.017H440.215H440.47V319.787ZM440.47 317.492H441.487V317.722H440.47V317.492ZM440.47 318.64H441.487V318.869H440.47V318.64Z" fill="#00FFFF"/>
<path d="M442.247 318.869V319.558H441.992V318.869H442.247ZM442.501 319.787H443.772V320.017H442.247H442.501V319.787ZM442.501 317.492H443.518V317.722H442.501V317.492ZM442.501 318.64H443.518V318.869H442.501V318.64Z" fill="#00FFFF"/>
<path d="M444.794 320.017H444.031V319.787H444.794V320.017ZM444.794 317.722H444.286V317.492H444.794H444.54L444.794 317.722ZM445.048 318.64V317.951H445.303V318.64H445.048ZM445.048 320.017H445.557V320.246H444.794L445.048 320.017Z" fill="#00FFFF"/>
<path d="M447.334 317.722H446.062V317.492H447.588H447.334V317.722ZM447.588 318.869H447.334V318.64H447.843L447.588 318.869ZM447.588 318.869V317.951H447.843V318.64L447.588 318.869Z" fill="#00FFFF"/>
<path d="M448.348 317.492H449.365V317.722H448.348V317.492ZM448.348 318.64H449.365V318.869H448.348V318.64ZM448.348 319.787H449.365V320.017H448.348V319.787Z" fill="#00FFFF"/>
<path d="M450.387 317.722V317.492H451.404V317.722H450.387ZM450.387 318.869V318.64H451.404V318.869H450.387ZM450.387 320.017V319.787H451.404V320.017H450.387Z" fill="#00FFFF"/>
<path d="M452.677 320.017H451.914V319.787H452.677V320.017ZM452.677 317.722H452.168V317.492H452.677H452.423L452.677 317.722ZM452.931 318.64V317.951H453.186V318.64H452.931ZM452.931 320.017H453.44V320.246H452.677L452.931 320.017Z" fill="#00FFFF"/>
<path d="M453.945 318.64V317.492H454.2V318.64H453.945ZM455.471 320.017H454.454V319.787H455.725L455.471 320.017ZM454.454 317.722H454.2L455.725 317.492H455.471L454.454 317.722ZM454.454 318.869V318.64H455.471V318.869H454.454Z" fill="#00FFFF"/>
<path d="M456.239 317.492H457.256V317.722H456.239V317.492ZM456.239 318.64H457.256V318.869H456.239V318.64ZM456.239 319.787H457.256V320.017H456.239V319.787Z" fill="#00FFFF"/>
<path d="M458.27 317.492H459.287V317.722H458.27V317.492ZM458.27 318.64H459.287V318.869H458.27V318.64ZM458.27 319.787H459.287V320.017H458.27V319.787Z" fill="#00FFFF"/>
<path d="M337.22 317.727H338.491V318.185H337.22V317.727ZM337.22 320.25H338.491V320.709H337.22V320.25ZM337.728 317.956H337.983L337.22 320.021H336.965L337.728 317.956ZM338.237 319.332V319.103V319.562V319.332Z" fill="#00FFFF"/>
<path d="M339.254 317.951V317.492H340.526V317.951H339.509H339.254ZM339.254 319.327V318.869H340.526V319.327H339.509H339.254ZM339.254 320.474V320.016H340.526V320.474H339.509H339.254Z" fill="#00FFFF"/>
<path d="M341.794 320.474H341.031V320.016H341.794V320.474ZM341.794 317.951H341.286V317.492H342.049L341.54 317.951H341.794ZM342.303 318.869V317.951L342.811 317.492V318.639L342.303 318.869ZM342.049 320.474H342.811V320.933H342.049V320.474Z" fill="#00FFFF"/>
<path d="M344.083 320.474H343.32V320.016H344.083V320.474ZM344.083 317.951H343.575V317.492H344.338L343.829 317.951H344.083ZM344.592 318.869V317.951L345.1 317.492V318.639L344.592 318.869ZM344.338 320.474H345.1V320.933H344.338V320.474Z" fill="#00FFFF"/>
<path d="M345.609 318.874H347.135V319.333H345.609V318.874ZM346.881 317.727H347.39L346.118 318.874L347.135 317.727H346.881Z" fill="#00FFFF"/>
<path d="M349.427 320.474H348.664V320.016H349.427V320.474ZM349.427 317.951H348.918V317.492H349.681L349.173 317.951H349.427ZM349.681 318.869V317.951L350.19 317.492V318.639L349.681 318.869ZM349.681 320.474H350.444V320.933H349.681V320.474Z" fill="#00FFFF"/>
<path d="M351.207 317.727H352.479V318.185H351.207V317.727ZM351.207 318.874H352.479V319.332H351.207V318.874ZM351.207 320.25H352.479V320.709H351.207V320.25Z" fill="#00FFFF"/>
<path d="M354.513 320.474H353.75V320.016H354.513V320.474ZM354.513 317.951H354.004V317.492H354.767L354.259 317.951H354.513ZM355.022 318.869V317.951L355.53 317.492V318.639L355.022 318.869ZM354.767 320.474H355.53V320.933H354.767V320.474Z" fill="#00FFFF"/>
<path d="M356.548 317.951V317.492H357.819V317.951H356.802H356.548ZM356.548 319.327V318.869H357.819V319.327H356.802H356.548ZM356.548 320.474V320.016H357.819V320.474H356.802H356.548Z" fill="#00FFFF"/>
<path d="M362.653 317.727V318.185L362.907 319.103V317.956L362.653 317.727ZM362.653 319.332V320.479L362.398 319.332H362.653ZM362.653 317.727H364.179V318.185H363.161V317.727H362.653ZM363.161 320.25H364.433V320.709H362.907V320.25H363.161ZM363.161 318.874H364.433V319.332H363.161V318.874Z" fill="#00FFFF"/>
<path d="M365.7 320.474H364.938V320.016H365.7V320.474ZM365.7 317.951H365.192V317.492H365.955L365.446 317.951H365.7ZM366.209 318.869V317.722L366.463 318.869H366.209ZM365.955 320.474H366.718V320.933H365.955V320.474Z" fill="#00FFFF"/>
<path d="M368.243 317.727L368.752 318.185V319.103V317.956L368.243 317.727ZM368.243 319.332V320.25L367.734 320.709V319.562L368.243 319.332ZM368.243 317.727H369.769V318.185H368.752L368.243 317.727ZM368.752 320.25H370.023V320.709H368.497L369.006 320.25H368.752ZM368.752 318.874H370.023V319.332H368.752V318.874Z" fill="#00FFFF"/>
<path d="M370.532 319.332V320.25L370.023 320.709V319.562L370.532 319.332ZM371.041 320.25H372.567V320.709H371.041L371.549 320.25H371.041ZM371.041 317.727H372.312V318.185H371.041V317.727ZM371.041 318.874H372.312V319.332H371.041V318.874Z" fill="#00FFFF"/>
<path d="M373.845 317.727L374.353 318.185V319.103V317.956L373.845 317.727ZM373.845 319.332V320.25L373.336 320.709V319.562L373.845 319.332ZM373.845 317.727H375.37V318.185H374.353L373.845 317.727ZM374.353 320.25H375.625V320.709H374.099L374.607 320.25H374.353ZM374.353 318.874H375.625V319.332H374.353V318.874Z" fill="#00FFFF"/>
<path d="M376.125 320.248H377.651V320.707H376.125V320.248ZM377.905 317.724H376.379V317.266H377.905V317.724ZM376.634 318.871H377.905V319.33H376.634V318.871ZM377.142 317.954H377.651L376.634 318.871H376.379L377.142 317.954Z" fill="#00FFFF"/>
<path d="M379.438 318.867H380.709V319.326H379.438V318.867Z" fill="#00FFFF"/>
<path d="M382.485 317.727H383.757V318.185H382.485V317.727ZM382.485 320.25H383.757V320.709H382.485V320.25ZM383.502 319.332V319.103V319.562V319.332Z" fill="#00FFFF"/>
<path d="M385.795 318.874H385.541L384.778 317.956V317.727L385.541 318.645L385.795 318.874Z" fill="#00FFFF"/>
<path d="M0.254313 125.711C0.254313 125.711 1.27157 123.647 2.54313 123.647C3.81469 123.647 4.83195 124.564 4.83195 125.711C4.83195 126.629 4.06901 127.547 2.79744 127.776V175.493L9.66389 178.246V174.575L6.35782 172.969V114.241L11.9527 109.194V81.2064L8.39233 77.9947V36.9309L2.79744 41.9779V81.2064L8.64664 85.5652V93.1356C8.64664 93.1356 10.6811 94.0532 10.6811 95.2002C10.6811 96.3473 9.66389 97.2649 8.39233 97.2649C7.12076 97.2649 6.10351 96.3473 6.10351 95.2002C6.10351 94.2826 6.86645 93.365 8.13802 93.1356V85.7946L2.28882 81.4358V41.7484L8.64664 36.0133V31.6545L42.7246 4.12572H62.0524L63.3239 5.96098H77.0568L78.3284 4.12572H95.3674L101.725 8.25504L107.32 5.27275H178.273C178.273 4.35513 179.291 3.4375 180.562 3.4375C181.834 3.4375 182.851 4.35513 182.851 5.50216C182.851 6.6492 181.834 7.56682 180.562 7.56682C179.545 7.56682 178.528 6.8786 178.273 5.73157H107.32L102.234 8.71386L95.113 13.5314H46.285L38.9099 19.496H35.0952L15.7674 35.0956V61.248L18.3105 63.5421V78.2241L13.9872 82.124V109.423L19.5821 114.47V119.288L15.7674 121.353V190.633L19.5821 192.698V200.498L13.9872 206.463V237.662L17.8019 241.332V256.014L15.2588 258.309V284.461L34.5866 300.061H38.4013L45.7763 306.025H94.6044L101.725 310.613L94.6044 315.201H77.5655L76.2939 313.366H62.561L61.2894 315.201H41.9616L12.7156 291.573V300.061L40.9444 322.542H108.337L118.256 316.348H186.92C186.92 314.972 188.192 314.054 189.463 314.054C190.989 314.054 192.261 315.201 192.261 316.578C192.261 317.954 190.989 319.101 189.463 319.101C187.937 319.101 186.92 318.184 186.666 316.807H118.256L108.337 323.001H40.6901L12.207 300.29V291.114L7.8837 287.443V241.103L11.6984 237.432V206.004L6.10351 199.81V194.533L9.40958 192.928V178.934L2.0345 175.951V127.776C2.0345 127.776 0 126.858 0 125.711H0.254313Z" fill="#00FFFF"/>
<path style="mix-blend-mode:color-dodge" opacity="0.15" d="M770.313 112.184V122.048L774.127 124.113V187.429L770.313 189.494V202.341L775.908 208.305V235.375L772.093 239.046V258.087L774.636 260.381V282.174L758.869 294.792H755.054L747.679 300.756H699.359L692.239 305.345H677.997L674.945 302.362H601.957L600.432 303.968H561.267L559.742 305.345H236.51L234.984 303.968H195.82L194.294 302.362H121.306L118.254 305.345H104.013L96.892 300.756H48.5725L41.1974 294.792H37.3827L21.6153 282.174V260.381L24.1584 258.087V239.046L20.3438 235.375V208.305L25.9386 202.341V189.494L22.1239 187.429V124.113L25.9386 122.048V112.184L20.3438 107.137V84.1963L24.4128 80.2964V61.2556L22.1239 58.9615V37.1679L37.8913 24.5505H41.706L48.8268 18.5859H95.3661H117.237L121.306 22.2564H194.294L195.82 20.88H234.984L237.527 18.5859H558.724L561.267 20.6506H600.177L601.957 22.027H674.691L678.76 18.5859H700.885H747.424L754.545 24.5505H758.36L774.127 37.1679V58.9615L771.839 61.2556V80.2964L775.908 84.1963V107.137L770.313 112.184Z" fill="url(#paint0_linear_2304_87298)"/>
<path d="M88.2246 144.398V124.793H91.1641V144.398H88.2246ZM104.904 144.398V136.086C104.904 134.755 104.667 133.753 104.193 133.078C103.719 132.395 102.949 132.053 101.883 132.053C101.418 132.053 100.99 132.135 100.598 132.299C100.206 132.463 99.8776 132.718 99.6133 133.064C99.349 133.411 99.1576 133.821 99.0391 134.295C98.9206 134.76 98.8613 135.261 98.8613 135.799V144.398H95.9766V129.701H98.8613V131.096C99.0436 130.831 99.2669 130.594 99.5312 130.385C99.7956 130.166 100.087 129.984 100.406 129.838C100.725 129.692 101.067 129.583 101.432 129.51C101.796 129.428 102.17 129.387 102.553 129.387C103.437 129.387 104.202 129.533 104.85 129.824C105.506 130.107 106.048 130.517 106.477 131.055C106.914 131.592 107.242 132.271 107.461 133.092C107.68 133.912 107.789 134.874 107.789 135.977V144.398H104.904ZM121.625 131.014L120.367 133.229C119.766 132.8 119.155 132.486 118.535 132.285C117.924 132.076 117.268 131.971 116.566 131.971C115.855 131.971 115.34 132.098 115.021 132.354C114.702 132.6 114.543 132.919 114.543 133.311C114.543 133.493 114.579 133.666 114.652 133.83C114.734 133.994 114.876 134.158 115.076 134.322C115.277 134.486 115.55 134.66 115.896 134.842C116.252 135.024 116.708 135.225 117.264 135.443C118.084 135.762 118.799 136.068 119.41 136.359C120.03 136.651 120.545 136.979 120.955 137.344C121.374 137.699 121.689 138.118 121.898 138.602C122.108 139.085 122.213 139.673 122.213 140.365C122.213 141.176 122.058 141.86 121.748 142.416C121.447 142.972 121.042 143.423 120.531 143.77C120.03 144.107 119.447 144.348 118.781 144.494C118.116 144.64 117.423 144.713 116.703 144.713C115.773 144.713 114.794 144.544 113.764 144.207C112.743 143.861 111.845 143.4 111.07 142.826L112.383 140.652C113.076 141.126 113.791 141.486 114.529 141.732C115.268 141.979 115.983 142.102 116.676 142.102C117.587 142.102 118.262 141.96 118.699 141.678C119.137 141.395 119.355 140.994 119.355 140.475C119.355 140.192 119.278 139.946 119.123 139.736C118.968 139.518 118.74 139.317 118.439 139.135C118.148 138.943 117.792 138.761 117.373 138.588C116.954 138.406 116.48 138.214 115.951 138.014C115.158 137.704 114.484 137.398 113.928 137.098C113.381 136.797 112.934 136.469 112.588 136.113C112.251 135.758 112.005 135.361 111.85 134.924C111.704 134.486 111.631 133.976 111.631 133.393C111.631 132.736 111.754 132.158 112 131.656C112.246 131.155 112.592 130.74 113.039 130.412C113.486 130.075 114.014 129.82 114.625 129.646C115.236 129.473 115.91 129.387 116.648 129.387C117.578 129.387 118.476 129.537 119.342 129.838C120.208 130.139 120.969 130.531 121.625 131.014ZM134.736 144.398V143.004C134.372 143.505 133.861 143.915 133.205 144.234C132.549 144.553 131.824 144.713 131.031 144.713C129.318 144.713 128.014 144.161 127.121 143.059C126.237 141.956 125.795 140.311 125.795 138.123V129.701H128.68V138.014C128.68 139.363 128.917 140.374 129.391 141.049C129.874 141.714 130.648 142.047 131.715 142.047C132.681 142.047 133.424 141.723 133.943 141.076C134.472 140.42 134.736 139.495 134.736 138.301V129.701H137.621V144.398H134.736ZM149.857 132.75C149.548 132.577 149.219 132.445 148.873 132.354C148.536 132.262 148.13 132.217 147.656 132.217C146.736 132.217 146.025 132.536 145.523 133.174C145.022 133.803 144.771 134.746 144.771 136.004V144.398H141.887V129.701H144.771V131.096C144.936 130.85 145.136 130.626 145.373 130.426C145.61 130.216 145.87 130.034 146.152 129.879C146.444 129.724 146.754 129.605 147.082 129.523C147.41 129.432 147.757 129.387 148.121 129.387C148.714 129.387 149.206 129.441 149.598 129.551C149.99 129.66 150.331 129.811 150.623 130.002L149.857 132.75ZM161.027 144.398V142.949C160.654 143.296 160.344 143.551 160.098 143.715C159.852 143.87 159.596 144.02 159.332 144.166C159.068 144.303 158.73 144.426 158.32 144.535C157.919 144.654 157.477 144.713 156.994 144.713C156.402 144.713 155.8 144.622 155.189 144.439C154.588 144.266 154.041 143.984 153.549 143.592C153.066 143.191 152.669 142.676 152.359 142.047C152.049 141.418 151.895 140.652 151.895 139.75C151.895 138.93 152.04 138.223 152.332 137.631C152.633 137.029 153.043 136.533 153.562 136.141C154.091 135.749 154.711 135.462 155.422 135.279C156.142 135.088 156.917 134.992 157.746 134.992C158.521 134.992 159.173 135.047 159.701 135.156C160.23 135.257 160.672 135.389 161.027 135.553V134.459C161.027 133.657 160.79 133.042 160.316 132.613C159.842 132.185 159.154 131.971 158.252 131.971C157.495 131.971 156.812 132.044 156.201 132.189C155.59 132.335 154.998 132.568 154.424 132.887L153.303 130.713C154.005 130.275 154.757 129.947 155.559 129.729C156.37 129.501 157.295 129.387 158.334 129.387C159.154 129.387 159.902 129.487 160.576 129.688C161.26 129.888 161.843 130.193 162.326 130.604C162.809 131.014 163.183 131.529 163.447 132.148C163.721 132.768 163.857 133.493 163.857 134.322V144.398H161.027ZM161.027 138.123C160.754 137.995 160.508 137.9 160.289 137.836C160.07 137.763 159.842 137.704 159.605 137.658C159.368 137.604 159.081 137.562 158.744 137.535C158.416 137.499 158.056 137.48 157.664 137.48C156.734 137.48 155.996 137.676 155.449 138.068C154.911 138.46 154.643 138.993 154.643 139.668C154.643 140.105 154.72 140.479 154.875 140.789C155.03 141.09 155.226 141.336 155.463 141.527C155.7 141.719 155.978 141.865 156.297 141.965C156.625 142.056 157.017 142.102 157.473 142.102C157.855 142.102 158.225 142.047 158.58 141.938C158.936 141.828 159.268 141.687 159.578 141.514C159.888 141.331 160.166 141.131 160.412 140.912C160.658 140.684 160.863 140.456 161.027 140.229V138.123ZM176.928 144.398V136.086C176.928 134.755 176.691 133.753 176.217 133.078C175.743 132.395 174.973 132.053 173.906 132.053C173.441 132.053 173.013 132.135 172.621 132.299C172.229 132.463 171.901 132.718 171.637 133.064C171.372 133.411 171.181 133.821 171.062 134.295C170.944 134.76 170.885 135.261 170.885 135.799V144.398H168V129.701H170.885V131.096C171.067 130.831 171.29 130.594 171.555 130.385C171.819 130.166 172.111 129.984 172.43 129.838C172.749 129.692 173.09 129.583 173.455 129.51C173.82 129.428 174.193 129.387 174.576 129.387C175.46 129.387 176.226 129.533 176.873 129.824C177.529 130.107 178.072 130.517 178.5 131.055C178.938 131.592 179.266 132.271 179.484 133.092C179.703 133.912 179.812 134.874 179.812 135.977V144.398H176.928ZM194.879 141.965C194.587 142.329 194.273 142.68 193.936 143.018C193.607 143.346 193.234 143.637 192.814 143.893C192.395 144.139 191.921 144.335 191.393 144.48C190.873 144.635 190.281 144.713 189.615 144.713C188.722 144.713 187.888 144.531 187.113 144.166C186.339 143.801 185.664 143.286 185.09 142.621C184.525 141.956 184.078 141.154 183.75 140.215C183.422 139.276 183.258 138.232 183.258 137.084C183.258 135.872 183.422 134.787 183.75 133.83C184.087 132.873 184.548 132.066 185.131 131.41C185.714 130.754 186.398 130.253 187.182 129.906C187.965 129.56 188.804 129.387 189.697 129.387C190.782 129.387 191.748 129.601 192.596 130.029C193.452 130.449 194.223 131.068 194.906 131.889L193.197 133.926C192.851 133.579 192.555 133.311 192.309 133.119C192.062 132.919 191.789 132.741 191.488 132.586C191.197 132.431 190.896 132.317 190.586 132.244C190.285 132.171 189.962 132.135 189.615 132.135C189.096 132.135 188.622 132.249 188.193 132.477C187.774 132.704 187.414 133.028 187.113 133.447C186.812 133.867 186.58 134.377 186.416 134.979C186.252 135.58 186.17 136.255 186.17 137.002C186.17 137.722 186.247 138.387 186.402 138.998C186.557 139.6 186.781 140.124 187.072 140.57C187.373 141.008 187.742 141.35 188.18 141.596C188.617 141.842 189.123 141.965 189.697 141.965C190.044 141.965 190.358 141.928 190.641 141.855C190.923 141.773 191.192 141.66 191.447 141.514C191.712 141.359 191.967 141.167 192.213 140.939C192.468 140.712 192.742 140.447 193.033 140.146L194.879 141.965ZM210.027 136.756C210.027 137.02 210.018 137.266 210 137.494C209.982 137.722 209.964 137.913 209.945 138.068H200.225C200.307 138.779 200.462 139.39 200.689 139.9C200.917 140.402 201.195 140.816 201.523 141.145C201.852 141.473 202.221 141.714 202.631 141.869C203.05 142.024 203.483 142.102 203.93 142.102C204.249 142.102 204.549 142.074 204.832 142.02C205.115 141.965 205.383 141.883 205.639 141.773C205.903 141.664 206.135 141.555 206.336 141.445C206.536 141.327 206.796 141.154 207.115 140.926L208.824 142.771C208.46 143.118 208.109 143.4 207.771 143.619C207.443 143.829 207.083 144.02 206.691 144.193C206.309 144.357 205.871 144.485 205.379 144.576C204.887 144.667 204.344 144.713 203.752 144.713C203.114 144.713 202.517 144.622 201.961 144.439C201.405 144.266 200.913 144.038 200.484 143.756C200.056 143.464 199.669 143.136 199.322 142.771C198.985 142.398 198.661 141.924 198.352 141.35C198.042 140.766 197.805 140.119 197.641 139.408C197.477 138.688 197.395 137.904 197.395 137.057C197.395 135.817 197.549 134.719 197.859 133.762C198.178 132.805 198.62 132.003 199.186 131.355C199.751 130.708 200.43 130.221 201.223 129.893C202.016 129.555 202.886 129.387 203.834 129.387C204.882 129.387 205.794 129.587 206.568 129.988C207.343 130.38 207.986 130.913 208.496 131.588C209.007 132.253 209.389 133.033 209.645 133.926C209.9 134.819 210.027 135.762 210.027 136.756ZM207.115 135.689C207.079 135.188 206.988 134.714 206.842 134.268C206.705 133.821 206.495 133.429 206.213 133.092C205.939 132.755 205.589 132.49 205.16 132.299C204.741 132.098 204.235 131.998 203.643 131.998C203.132 131.998 202.686 132.085 202.303 132.258C201.92 132.422 201.592 132.659 201.318 132.969C201.045 133.279 200.817 133.661 200.635 134.117C200.462 134.564 200.343 135.088 200.279 135.689H207.115ZM232.121 141.965C231.829 142.329 231.515 142.68 231.178 143.018C230.85 143.346 230.476 143.637 230.057 143.893C229.637 144.139 229.163 144.335 228.635 144.48C228.115 144.635 227.523 144.713 226.857 144.713C225.964 144.713 225.13 144.531 224.355 144.166C223.581 143.801 222.906 143.286 222.332 142.621C221.767 141.956 221.32 141.154 220.992 140.215C220.664 139.276 220.5 138.232 220.5 137.084C220.5 135.872 220.664 134.787 220.992 133.83C221.329 132.873 221.79 132.066 222.373 131.41C222.956 130.754 223.64 130.253 224.424 129.906C225.208 129.56 226.046 129.387 226.939 129.387C228.024 129.387 228.99 129.601 229.838 130.029C230.695 130.449 231.465 131.068 232.148 131.889L230.439 133.926C230.093 133.579 229.797 133.311 229.551 133.119C229.305 132.919 229.031 132.741 228.73 132.586C228.439 132.431 228.138 132.317 227.828 132.244C227.527 132.171 227.204 132.135 226.857 132.135C226.338 132.135 225.864 132.249 225.436 132.477C225.016 132.704 224.656 133.028 224.355 133.447C224.055 133.867 223.822 134.377 223.658 134.979C223.494 135.58 223.412 136.255 223.412 137.002C223.412 137.722 223.49 138.387 223.645 138.998C223.799 139.6 224.023 140.124 224.314 140.57C224.615 141.008 224.984 141.35 225.422 141.596C225.859 141.842 226.365 141.965 226.939 141.965C227.286 141.965 227.6 141.928 227.883 141.855C228.165 141.773 228.434 141.66 228.689 141.514C228.954 141.359 229.209 141.167 229.455 140.939C229.71 140.712 229.984 140.447 230.275 140.146L232.121 141.965ZM247.748 136.975C247.748 138.196 247.579 139.285 247.242 140.242C246.905 141.199 246.44 142.01 245.848 142.676C245.255 143.341 244.553 143.847 243.742 144.193C242.931 144.54 242.056 144.713 241.117 144.713C240.188 144.713 239.326 144.531 238.533 144.166C237.749 143.801 237.066 143.286 236.482 142.621C235.908 141.947 235.457 141.14 235.129 140.201C234.801 139.253 234.637 138.205 234.637 137.057C234.637 135.854 234.805 134.778 235.143 133.83C235.48 132.882 235.94 132.08 236.523 131.424C237.116 130.758 237.809 130.253 238.602 129.906C239.404 129.56 240.27 129.387 241.199 129.387C242.138 129.387 243.004 129.569 243.797 129.934C244.599 130.289 245.292 130.799 245.875 131.465C246.458 132.121 246.914 132.919 247.242 133.857C247.579 134.787 247.748 135.826 247.748 136.975ZM244.836 137.057C244.836 136.309 244.749 135.635 244.576 135.033C244.403 134.423 244.152 133.903 243.824 133.475C243.505 133.046 243.113 132.718 242.648 132.49C242.184 132.253 241.66 132.135 241.076 132.135C240.529 132.135 240.037 132.253 239.6 132.49C239.171 132.718 238.802 133.046 238.492 133.475C238.191 133.894 237.959 134.4 237.795 134.992C237.631 135.585 237.549 136.245 237.549 136.975C237.549 137.786 237.635 138.501 237.809 139.121C237.991 139.741 238.242 140.26 238.561 140.68C238.889 141.099 239.276 141.418 239.723 141.637C240.178 141.855 240.68 141.965 241.227 141.965C241.773 141.965 242.266 141.837 242.703 141.582C243.15 141.318 243.528 140.967 243.838 140.529C244.157 140.083 244.403 139.563 244.576 138.971C244.749 138.369 244.836 137.731 244.836 137.057ZM257.742 144.398H254.857L249.594 129.701H252.615L256.334 140.953L259.861 129.701H262.91L257.742 144.398ZM277.375 136.756C277.375 137.02 277.366 137.266 277.348 137.494C277.329 137.722 277.311 137.913 277.293 138.068H267.572C267.654 138.779 267.809 139.39 268.037 139.9C268.265 140.402 268.543 140.816 268.871 141.145C269.199 141.473 269.568 141.714 269.979 141.869C270.398 142.024 270.831 142.102 271.277 142.102C271.596 142.102 271.897 142.074 272.18 142.02C272.462 141.965 272.731 141.883 272.986 141.773C273.251 141.664 273.483 141.555 273.684 141.445C273.884 141.327 274.144 141.154 274.463 140.926L276.172 142.771C275.807 143.118 275.456 143.4 275.119 143.619C274.791 143.829 274.431 144.02 274.039 144.193C273.656 144.357 273.219 144.485 272.727 144.576C272.234 144.667 271.692 144.713 271.1 144.713C270.462 144.713 269.865 144.622 269.309 144.439C268.753 144.266 268.26 144.038 267.832 143.756C267.404 143.464 267.016 143.136 266.67 142.771C266.333 142.398 266.009 141.924 265.699 141.35C265.389 140.766 265.152 140.119 264.988 139.408C264.824 138.688 264.742 137.904 264.742 137.057C264.742 135.817 264.897 134.719 265.207 133.762C265.526 132.805 265.968 132.003 266.533 131.355C267.098 130.708 267.777 130.221 268.57 129.893C269.363 129.555 270.234 129.387 271.182 129.387C272.23 129.387 273.141 129.587 273.916 129.988C274.691 130.38 275.333 130.913 275.844 131.588C276.354 132.253 276.737 133.033 276.992 133.926C277.247 134.819 277.375 135.762 277.375 136.756ZM274.463 135.689C274.426 135.188 274.335 134.714 274.189 134.268C274.053 133.821 273.843 133.429 273.561 133.092C273.287 132.755 272.936 132.49 272.508 132.299C272.089 132.098 271.583 131.998 270.99 131.998C270.48 131.998 270.033 132.085 269.65 132.258C269.268 132.422 268.939 132.659 268.666 132.969C268.393 133.279 268.165 133.661 267.982 134.117C267.809 134.564 267.691 135.088 267.627 135.689H274.463ZM288.955 132.75C288.645 132.577 288.317 132.445 287.971 132.354C287.633 132.262 287.228 132.217 286.754 132.217C285.833 132.217 285.122 132.536 284.621 133.174C284.12 133.803 283.869 134.746 283.869 136.004V144.398H280.984V129.701H283.869V131.096C284.033 130.85 284.234 130.626 284.471 130.426C284.708 130.216 284.967 130.034 285.25 129.879C285.542 129.724 285.852 129.605 286.18 129.523C286.508 129.432 286.854 129.387 287.219 129.387C287.811 129.387 288.303 129.441 288.695 129.551C289.087 129.66 289.429 129.811 289.721 130.002L288.955 132.75ZM300.125 144.398V142.949C299.751 143.296 299.441 143.551 299.195 143.715C298.949 143.87 298.694 144.02 298.43 144.166C298.165 144.303 297.828 144.426 297.418 144.535C297.017 144.654 296.575 144.713 296.092 144.713C295.499 144.713 294.898 144.622 294.287 144.439C293.686 144.266 293.139 143.984 292.646 143.592C292.163 143.191 291.767 142.676 291.457 142.047C291.147 141.418 290.992 140.652 290.992 139.75C290.992 138.93 291.138 138.223 291.43 137.631C291.73 137.029 292.141 136.533 292.66 136.141C293.189 135.749 293.809 135.462 294.52 135.279C295.24 135.088 296.014 134.992 296.844 134.992C297.618 134.992 298.27 135.047 298.799 135.156C299.327 135.257 299.77 135.389 300.125 135.553V134.459C300.125 133.657 299.888 133.042 299.414 132.613C298.94 132.185 298.252 131.971 297.35 131.971C296.593 131.971 295.91 132.044 295.299 132.189C294.688 132.335 294.096 132.568 293.521 132.887L292.4 130.713C293.102 130.275 293.854 129.947 294.656 129.729C295.467 129.501 296.393 129.387 297.432 129.387C298.252 129.387 298.999 129.487 299.674 129.688C300.357 129.888 300.941 130.193 301.424 130.604C301.907 131.014 302.281 131.529 302.545 132.148C302.818 132.768 302.955 133.493 302.955 134.322V144.398H300.125ZM300.125 138.123C299.852 137.995 299.605 137.9 299.387 137.836C299.168 137.763 298.94 137.704 298.703 137.658C298.466 137.604 298.179 137.562 297.842 137.535C297.514 137.499 297.154 137.48 296.762 137.48C295.832 137.48 295.094 137.676 294.547 138.068C294.009 138.46 293.74 138.993 293.74 139.668C293.74 140.105 293.818 140.479 293.973 140.789C294.128 141.09 294.324 141.336 294.561 141.527C294.798 141.719 295.076 141.865 295.395 141.965C295.723 142.056 296.115 142.102 296.57 142.102C296.953 142.102 297.322 142.047 297.678 141.938C298.033 141.828 298.366 141.687 298.676 141.514C298.986 141.331 299.264 141.131 299.51 140.912C299.756 140.684 299.961 140.456 300.125 140.229V138.123ZM318.801 143.004C318.801 144.016 318.696 144.904 318.486 145.67C318.286 146.445 317.953 147.115 317.488 147.68C316.914 148.363 316.13 148.883 315.137 149.238C314.143 149.594 312.881 149.79 311.35 149.826L310.516 147.475C311.637 147.438 312.607 147.315 313.428 147.105C314.257 146.896 314.836 146.6 315.164 146.217C315.465 145.898 315.665 145.492 315.766 145C315.866 144.517 315.916 143.934 315.916 143.25V143.004C315.652 143.25 315.374 143.478 315.082 143.688C314.799 143.888 314.499 144.066 314.18 144.221C313.87 144.376 313.542 144.494 313.195 144.576C312.849 144.667 312.484 144.713 312.102 144.713C311.318 144.713 310.584 144.567 309.9 144.275C309.217 143.975 308.62 143.505 308.109 142.867C307.599 142.229 307.193 141.413 306.893 140.42C306.601 139.417 306.455 138.214 306.455 136.811C306.455 135.553 306.615 134.459 306.934 133.529C307.253 132.59 307.676 131.816 308.205 131.205C308.743 130.594 309.358 130.139 310.051 129.838C310.753 129.537 311.482 129.387 312.238 129.387C312.612 129.387 312.977 129.432 313.332 129.523C313.688 129.615 314.02 129.738 314.33 129.893C314.649 130.048 314.941 130.23 315.205 130.439C315.479 130.64 315.715 130.85 315.916 131.068V129.701H318.801V143.004ZM312.635 142.047C313.255 142.047 313.842 141.878 314.398 141.541C314.964 141.204 315.488 140.748 315.971 140.174V133.98C315.807 133.762 315.602 133.538 315.355 133.311C315.118 133.083 314.85 132.878 314.549 132.695C314.248 132.504 313.924 132.349 313.578 132.23C313.241 132.112 312.89 132.053 312.525 132.053C311.477 132.053 310.68 132.445 310.133 133.229C309.595 134.003 309.326 135.17 309.326 136.729C309.326 138.451 309.595 139.768 310.133 140.68C310.68 141.591 311.514 142.047 312.635 142.047ZM334.988 136.756C334.988 137.02 334.979 137.266 334.961 137.494C334.943 137.722 334.924 137.913 334.906 138.068H325.186C325.268 138.779 325.423 139.39 325.65 139.9C325.878 140.402 326.156 140.816 326.484 141.145C326.812 141.473 327.182 141.714 327.592 141.869C328.011 142.024 328.444 142.102 328.891 142.102C329.21 142.102 329.51 142.074 329.793 142.02C330.076 141.965 330.344 141.883 330.6 141.773C330.864 141.664 331.096 141.555 331.297 141.445C331.497 141.327 331.757 141.154 332.076 140.926L333.785 142.771C333.421 143.118 333.07 143.4 332.732 143.619C332.404 143.829 332.044 144.02 331.652 144.193C331.27 144.357 330.832 144.485 330.34 144.576C329.848 144.667 329.305 144.713 328.713 144.713C328.075 144.713 327.478 144.622 326.922 144.439C326.366 144.266 325.874 144.038 325.445 143.756C325.017 143.464 324.63 143.136 324.283 142.771C323.946 142.398 323.622 141.924 323.312 141.35C323.003 140.766 322.766 140.119 322.602 139.408C322.438 138.688 322.355 137.904 322.355 137.057C322.355 135.817 322.51 134.719 322.82 133.762C323.139 132.805 323.581 132.003 324.146 131.355C324.712 130.708 325.391 130.221 326.184 129.893C326.977 129.555 327.847 129.387 328.795 129.387C329.843 129.387 330.755 129.587 331.529 129.988C332.304 130.38 332.947 130.913 333.457 131.588C333.967 132.253 334.35 133.033 334.605 133.926C334.861 134.819 334.988 135.762 334.988 136.756ZM332.076 135.689C332.04 135.188 331.949 134.714 331.803 134.268C331.666 133.821 331.456 133.429 331.174 133.092C330.9 132.755 330.549 132.49 330.121 132.299C329.702 132.098 329.196 131.998 328.604 131.998C328.093 131.998 327.646 132.085 327.264 132.258C326.881 132.422 326.553 132.659 326.279 132.969C326.006 133.279 325.778 133.661 325.596 134.117C325.423 134.564 325.304 135.088 325.24 135.689H332.076Z" fill="#F6F6FA"/>
<path d="M111.566 189.054C111.566 190.342 111.364 191.51 110.959 192.558C110.57 193.591 110.001 194.497 109.252 195.276C108.503 196.04 107.597 196.669 106.534 197.163C105.471 197.657 104.28 198.009 102.962 198.219V202.869H96.5156V198.309C95.6171 198.159 94.771 197.972 93.9773 197.747C93.1986 197.522 92.3974 197.223 91.5738 196.848C90.7651 196.474 90.0163 196.077 89.3275 195.658C88.6536 195.224 88.0171 194.759 87.4181 194.265L91.0571 189.436C91.6711 189.93 92.33 190.394 93.0339 190.828C93.7527 191.248 94.4865 191.615 95.2352 191.929C95.999 192.229 96.7627 192.468 97.5264 192.648C98.2902 192.828 99.0314 192.917 99.7503 192.917C101.472 192.917 102.768 192.64 103.636 192.086C104.505 191.517 104.939 190.649 104.939 189.481C104.939 188.986 104.842 188.545 104.647 188.155C104.467 187.766 104.138 187.399 103.659 187.055C103.195 186.695 102.558 186.351 101.749 186.021C100.956 185.692 99.9375 185.34 98.6945 184.966C96.8525 184.412 95.2727 183.85 93.9548 183.281C92.652 182.712 91.5813 182.06 90.7426 181.327C89.919 180.578 89.3125 179.709 88.9231 178.721C88.5338 177.718 88.3391 176.52 88.3391 175.127C88.3391 173.959 88.5263 172.888 88.9007 171.915C89.29 170.926 89.8366 170.065 90.5405 169.331C91.2593 168.583 92.1279 167.954 93.1462 167.445C94.1645 166.935 95.3101 166.569 96.583 166.344V161.739H102.962V166.277C103.801 166.396 104.587 166.561 105.321 166.771C106.055 166.98 106.766 167.25 107.455 167.579C108.159 167.894 108.773 168.216 109.297 168.545C109.836 168.875 110.428 169.287 111.072 169.781L107.477 174.655C106.804 174.161 106.145 173.727 105.501 173.352C104.872 172.978 104.228 172.671 103.569 172.431C102.925 172.177 102.259 171.99 101.57 171.87C100.881 171.735 100.147 171.668 99.3684 171.668C98.5597 171.668 97.8709 171.75 97.3018 171.915C96.7327 172.064 96.2685 172.282 95.9091 172.566C95.5647 172.836 95.3101 173.158 95.1454 173.532C94.9956 173.891 94.9207 174.281 94.9207 174.7C94.9207 175.164 95.0031 175.576 95.1678 175.936C95.3475 176.295 95.662 176.639 96.1113 176.969C96.5755 177.298 97.212 177.628 98.0206 177.957C98.8293 178.272 99.8626 178.616 101.12 178.99C103.022 179.56 104.632 180.151 105.95 180.765C107.283 181.364 108.361 182.053 109.185 182.832C110.023 183.61 110.63 184.501 111.004 185.505C111.379 186.508 111.566 187.691 111.566 189.054ZM117.699 198.398V193.165H125.089V174.835H118.328V170.477C119.556 170.432 120.612 170.327 121.495 170.163C122.379 169.983 123.128 169.728 123.742 169.399C124.356 169.054 124.842 168.62 125.202 168.096C125.576 167.572 125.861 166.935 126.055 166.187H131.581V193.165H138.297V198.398H117.699ZM167.298 182.248C167.298 184.958 166.998 187.354 166.399 189.436C165.8 191.502 164.954 193.239 163.861 194.647C162.783 196.055 161.488 197.118 159.975 197.837C158.463 198.556 156.793 198.915 154.966 198.915C153.139 198.915 151.477 198.563 149.979 197.859C148.482 197.141 147.194 196.085 146.115 194.692C145.037 193.299 144.199 191.57 143.6 189.503C143.016 187.437 142.724 185.048 142.724 182.337C142.724 179.627 143.023 177.238 143.622 175.172C144.221 173.09 145.06 171.353 146.138 169.96C147.231 168.553 148.534 167.489 150.046 166.771C151.559 166.052 153.229 165.692 155.056 165.692C156.868 165.692 158.522 166.052 160.02 166.771C161.532 167.475 162.828 168.523 163.906 169.915C164.984 171.308 165.815 173.038 166.399 175.104C166.998 177.171 167.298 179.552 167.298 182.248ZM160.761 182.248C160.761 180.181 160.612 178.444 160.312 177.036C160.013 175.629 159.601 174.513 159.077 173.689C158.552 172.851 157.946 172.237 157.257 171.847C156.568 171.458 155.804 171.263 154.966 171.263C154.127 171.263 153.363 171.458 152.675 171.847C152.001 172.237 151.402 172.851 150.878 173.689C150.368 174.513 149.972 175.629 149.687 177.036C149.403 178.444 149.26 180.181 149.26 182.248C149.26 184.254 149.395 185.969 149.665 187.392C149.949 188.799 150.346 189.93 150.855 190.784C151.364 191.622 151.963 192.259 152.652 192.693C153.341 193.127 154.142 193.344 155.056 193.344C155.909 193.344 156.681 193.127 157.369 192.693C158.058 192.259 158.657 191.622 159.166 190.784C159.676 189.93 160.065 188.799 160.334 187.392C160.619 185.969 160.761 184.254 160.761 182.248ZM176.037 204.014H171.567L172.218 190.447H179.901L176.037 204.014ZM208.272 182.248C208.272 184.958 207.973 187.354 207.374 189.436C206.775 191.502 205.928 193.239 204.835 194.647C203.757 196.055 202.462 197.118 200.949 197.837C199.437 198.556 197.767 198.915 195.94 198.915C194.113 198.915 192.451 198.563 190.953 197.859C189.456 197.141 188.168 196.085 187.09 194.692C186.011 193.299 185.173 191.57 184.574 189.503C183.99 187.437 183.698 185.048 183.698 182.337C183.698 179.627 183.997 177.238 184.596 175.172C185.195 173.09 186.034 171.353 187.112 169.96C188.205 168.553 189.508 167.489 191.021 166.771C192.533 166.052 194.203 165.692 196.03 165.692C197.842 165.692 199.497 166.052 200.994 166.771C202.507 167.475 203.802 168.523 204.88 169.915C205.958 171.308 206.79 173.038 207.374 175.104C207.973 177.171 208.272 179.552 208.272 182.248ZM201.735 182.248C201.735 180.181 201.586 178.444 201.286 177.036C200.987 175.629 200.575 174.513 200.051 173.689C199.527 172.851 198.92 172.237 198.231 171.847C197.542 171.458 196.779 171.263 195.94 171.263C195.101 171.263 194.338 171.458 193.649 171.847C192.975 172.237 192.376 172.851 191.852 173.689C191.343 174.513 190.946 175.629 190.661 177.036C190.377 178.444 190.234 180.181 190.234 182.248C190.234 184.254 190.369 185.969 190.639 187.392C190.923 188.799 191.32 189.93 191.829 190.784C192.338 191.622 192.937 192.259 193.626 192.693C194.315 193.127 195.116 193.344 196.03 193.344C196.883 193.344 197.655 193.127 198.343 192.693C199.032 192.259 199.631 191.622 200.141 190.784C200.65 189.93 201.039 188.799 201.309 187.392C201.593 185.969 201.735 184.254 201.735 182.248ZM235.88 182.248C235.88 184.958 235.58 187.354 234.981 189.436C234.382 191.502 233.536 193.239 232.443 194.647C231.365 196.055 230.069 197.118 228.557 197.837C227.044 198.556 225.375 198.915 223.548 198.915C221.721 198.915 220.059 198.563 218.561 197.859C217.063 197.141 215.776 196.085 214.697 194.692C213.619 193.299 212.781 191.57 212.182 189.503C211.597 187.437 211.305 185.048 211.305 182.337C211.305 179.627 211.605 177.238 212.204 175.172C212.803 173.09 213.642 171.353 214.72 169.96C215.813 168.553 217.116 167.489 218.628 166.771C220.141 166.052 221.811 165.692 223.638 165.692C225.45 165.692 227.104 166.052 228.602 166.771C230.114 167.475 231.41 168.523 232.488 169.915C233.566 171.308 234.397 173.038 234.981 175.104C235.58 177.171 235.88 179.552 235.88 182.248ZM229.343 182.248C229.343 180.181 229.193 178.444 228.894 177.036C228.594 175.629 228.183 174.513 227.658 173.689C227.134 172.851 226.528 172.237 225.839 171.847C225.15 171.458 224.386 171.263 223.548 171.263C222.709 171.263 221.945 171.458 221.257 171.847C220.583 172.237 219.984 172.851 219.459 173.689C218.95 174.513 218.553 175.629 218.269 177.036C217.984 178.444 217.842 180.181 217.842 182.248C217.842 184.254 217.977 185.969 218.247 187.392C218.531 188.799 218.928 189.93 219.437 190.784C219.946 191.622 220.545 192.259 221.234 192.693C221.923 193.127 222.724 193.344 223.638 193.344C224.491 193.344 225.262 193.127 225.951 192.693C226.64 192.259 227.239 191.622 227.748 190.784C228.257 189.93 228.647 188.799 228.916 187.392C229.201 185.969 229.343 184.254 229.343 182.248ZM263.488 182.248C263.488 184.958 263.188 187.354 262.589 189.436C261.99 191.502 261.144 193.239 260.051 194.647C258.973 196.055 257.677 197.118 256.165 197.837C254.652 198.556 252.983 198.915 251.156 198.915C249.329 198.915 247.666 198.563 246.169 197.859C244.671 197.141 243.383 196.085 242.305 194.692C241.227 193.299 240.388 191.57 239.789 189.503C239.205 187.437 238.913 185.048 238.913 182.337C238.913 179.627 239.213 177.238 239.812 175.172C240.411 173.09 241.249 171.353 242.328 169.96C243.421 168.553 244.724 167.489 246.236 166.771C247.749 166.052 249.418 165.692 251.245 165.692C253.057 165.692 254.712 166.052 256.21 166.771C257.722 167.475 259.018 168.523 260.096 169.915C261.174 171.308 262.005 173.038 262.589 175.104C263.188 177.171 263.488 179.552 263.488 182.248ZM256.951 182.248C256.951 180.181 256.801 178.444 256.502 177.036C256.202 175.629 255.79 174.513 255.266 173.689C254.742 172.851 254.136 172.237 253.447 171.847C252.758 171.458 251.994 171.263 251.156 171.263C250.317 171.263 249.553 171.458 248.864 171.847C248.19 172.237 247.591 172.851 247.067 173.689C246.558 174.513 246.161 175.629 245.877 177.036C245.592 178.444 245.45 180.181 245.45 182.248C245.45 184.254 245.585 185.969 245.854 187.392C246.139 188.799 246.536 189.93 247.045 190.784C247.554 191.622 248.153 192.259 248.842 192.693C249.531 193.127 250.332 193.344 251.245 193.344C252.099 193.344 252.87 193.127 253.559 192.693C254.248 192.259 254.847 191.622 255.356 190.784C255.865 189.93 256.255 188.799 256.524 187.392C256.809 185.969 256.951 184.254 256.951 182.248Z" fill="white"/>
<path d="M497.504 129.783C497.249 129.382 496.989 129.036 496.725 128.744C496.46 128.443 496.169 128.197 495.85 128.006C495.531 127.814 495.175 127.673 494.783 127.582C494.391 127.482 493.945 127.432 493.443 127.432C492.587 127.432 491.83 127.6 491.174 127.938C490.518 128.266 489.966 128.744 489.52 129.373C489.082 129.993 488.749 130.745 488.521 131.629C488.294 132.513 488.18 133.502 488.18 134.596C488.18 135.699 488.294 136.692 488.521 137.576C488.749 138.46 489.082 139.212 489.52 139.832C489.966 140.452 490.518 140.93 491.174 141.268C491.83 141.596 492.587 141.76 493.443 141.76C494.464 141.76 495.312 141.555 495.986 141.145C496.661 140.734 497.249 140.128 497.75 139.326L500.197 140.953C499.742 141.682 499.309 142.243 498.898 142.635C498.497 143.018 498.042 143.364 497.531 143.674C497.03 143.975 496.438 144.221 495.754 144.412C495.079 144.613 494.309 144.713 493.443 144.713C492.514 144.713 491.675 144.59 490.928 144.344C490.189 144.098 489.52 143.76 488.918 143.332C488.316 142.904 487.77 142.37 487.277 141.732C486.794 141.085 486.407 140.415 486.115 139.723C485.824 139.03 485.591 138.255 485.418 137.398C485.245 136.542 485.158 135.607 485.158 134.596C485.158 133.11 485.35 131.752 485.732 130.521C486.124 129.282 486.68 128.215 487.4 127.322C488.12 126.429 488.991 125.736 490.012 125.244C491.033 124.743 492.176 124.492 493.443 124.492C495.038 124.492 496.378 124.807 497.463 125.436C498.548 126.064 499.427 126.971 500.102 128.156L497.504 129.783ZM511.982 132.75C511.673 132.577 511.344 132.445 510.998 132.354C510.661 132.262 510.255 132.217 509.781 132.217C508.861 132.217 508.15 132.536 507.648 133.174C507.147 133.803 506.896 134.746 506.896 136.004V144.398H504.012V129.701H506.896V131.096C507.061 130.85 507.261 130.626 507.498 130.426C507.735 130.216 507.995 130.034 508.277 129.879C508.569 129.724 508.879 129.605 509.207 129.523C509.535 129.432 509.882 129.387 510.246 129.387C510.839 129.387 511.331 129.441 511.723 129.551C512.115 129.66 512.456 129.811 512.748 130.002L511.982 132.75ZM526.926 136.756C526.926 137.02 526.917 137.266 526.898 137.494C526.88 137.722 526.862 137.913 526.844 138.068H517.123C517.205 138.779 517.36 139.39 517.588 139.9C517.816 140.402 518.094 140.816 518.422 141.145C518.75 141.473 519.119 141.714 519.529 141.869C519.949 142.024 520.382 142.102 520.828 142.102C521.147 142.102 521.448 142.074 521.73 142.02C522.013 141.965 522.282 141.883 522.537 141.773C522.801 141.664 523.034 141.555 523.234 141.445C523.435 141.327 523.695 141.154 524.014 140.926L525.723 142.771C525.358 143.118 525.007 143.4 524.67 143.619C524.342 143.829 523.982 144.02 523.59 144.193C523.207 144.357 522.77 144.485 522.277 144.576C521.785 144.667 521.243 144.713 520.65 144.713C520.012 144.713 519.415 144.622 518.859 144.439C518.303 144.266 517.811 144.038 517.383 143.756C516.954 143.464 516.567 143.136 516.221 142.771C515.883 142.398 515.56 141.924 515.25 141.35C514.94 140.766 514.703 140.119 514.539 139.408C514.375 138.688 514.293 137.904 514.293 137.057C514.293 135.817 514.448 134.719 514.758 133.762C515.077 132.805 515.519 132.003 516.084 131.355C516.649 130.708 517.328 130.221 518.121 129.893C518.914 129.555 519.785 129.387 520.732 129.387C521.781 129.387 522.692 129.587 523.467 129.988C524.242 130.38 524.884 130.913 525.395 131.588C525.905 132.253 526.288 133.033 526.543 133.926C526.798 134.819 526.926 135.762 526.926 136.756ZM524.014 135.689C523.977 135.188 523.886 134.714 523.74 134.268C523.604 133.821 523.394 133.429 523.111 133.092C522.838 132.755 522.487 132.49 522.059 132.299C521.639 132.098 521.133 131.998 520.541 131.998C520.031 131.998 519.584 132.085 519.201 132.258C518.818 132.422 518.49 132.659 518.217 132.969C517.943 133.279 517.715 133.661 517.533 134.117C517.36 134.564 517.242 135.088 517.178 135.689H524.014ZM539.381 144.398V143.004C539.107 143.25 538.825 143.478 538.533 143.688C538.242 143.897 537.927 144.084 537.59 144.248C537.253 144.412 536.915 144.531 536.578 144.604C536.241 144.676 535.895 144.713 535.539 144.713C534.746 144.713 534.008 144.567 533.324 144.275C532.641 143.975 532.044 143.505 531.533 142.867C531.023 142.229 530.622 141.413 530.33 140.42C530.038 139.417 529.893 138.214 529.893 136.811C529.893 135.553 530.048 134.459 530.357 133.529C530.676 132.59 531.1 131.816 531.629 131.205C532.167 130.594 532.782 130.139 533.475 129.838C534.176 129.537 534.91 129.387 535.676 129.387C536.049 129.387 536.414 129.432 536.77 129.523C537.125 129.615 537.462 129.738 537.781 129.893C538.1 130.048 538.392 130.23 538.656 130.439C538.93 130.64 539.171 130.85 539.381 131.068V125.477L542.238 123.986V144.398H539.381ZM539.408 133.98C539.244 133.762 539.039 133.538 538.793 133.311C538.556 133.083 538.287 132.878 537.986 132.695C537.686 132.504 537.362 132.349 537.016 132.23C536.678 132.112 536.327 132.053 535.963 132.053C534.915 132.053 534.117 132.445 533.57 133.229C533.033 134.003 532.764 135.17 532.764 136.729C532.764 137.649 532.837 138.447 532.982 139.121C533.128 139.786 533.342 140.338 533.625 140.775C533.908 141.204 534.254 141.523 534.664 141.732C535.074 141.942 535.544 142.047 536.072 142.047C536.419 142.047 536.751 141.997 537.07 141.896C537.389 141.787 537.69 141.646 537.973 141.473C538.255 141.29 538.515 141.09 538.752 140.871C538.998 140.643 539.217 140.411 539.408 140.174V133.98ZM549.949 125.941C549.949 126.197 549.899 126.438 549.799 126.666C549.699 126.885 549.562 127.081 549.389 127.254C549.225 127.418 549.029 127.55 548.801 127.65C548.582 127.751 548.345 127.801 548.09 127.801C547.835 127.801 547.593 127.751 547.365 127.65C547.137 127.55 546.937 127.418 546.764 127.254C546.6 127.081 546.467 126.885 546.367 126.666C546.267 126.438 546.217 126.197 546.217 125.941C546.217 125.686 546.267 125.445 546.367 125.217C546.467 124.989 546.6 124.793 546.764 124.629C546.937 124.456 547.137 124.319 547.365 124.219C547.593 124.118 547.835 124.068 548.09 124.068C548.345 124.068 548.582 124.118 548.801 124.219C549.029 124.319 549.225 124.456 549.389 124.629C549.562 124.793 549.699 124.989 549.799 125.217C549.899 125.445 549.949 125.686 549.949 125.941ZM546.641 144.398V129.701H549.525V144.398H546.641ZM560.969 144.029C560.613 144.23 560.194 144.394 559.711 144.521C559.237 144.649 558.713 144.713 558.139 144.713C557.637 144.713 557.195 144.64 556.812 144.494C556.439 144.357 556.097 144.139 555.787 143.838C555.477 143.528 555.24 143.127 555.076 142.635C554.912 142.133 554.83 141.527 554.83 140.816V132.326H552.738V129.701H554.83V125.504L557.66 123.986V129.701H561.297V132.326H557.66V140.311C557.66 140.657 557.688 140.944 557.742 141.172C557.806 141.391 557.897 141.568 558.016 141.705C558.143 141.842 558.303 141.938 558.494 141.992C558.686 142.047 558.913 142.074 559.178 142.074C559.551 142.074 559.93 142.015 560.312 141.896C560.704 141.778 561.033 141.641 561.297 141.486L560.969 144.029ZM584.73 136.756C584.73 137.02 584.721 137.266 584.703 137.494C584.685 137.722 584.667 137.913 584.648 138.068H574.928C575.01 138.779 575.165 139.39 575.393 139.9C575.62 140.402 575.898 140.816 576.227 141.145C576.555 141.473 576.924 141.714 577.334 141.869C577.753 142.024 578.186 142.102 578.633 142.102C578.952 142.102 579.253 142.074 579.535 142.02C579.818 141.965 580.087 141.883 580.342 141.773C580.606 141.664 580.839 141.555 581.039 141.445C581.24 141.327 581.499 141.154 581.818 140.926L583.527 142.771C583.163 143.118 582.812 143.4 582.475 143.619C582.146 143.829 581.786 144.02 581.395 144.193C581.012 144.357 580.574 144.485 580.082 144.576C579.59 144.667 579.048 144.713 578.455 144.713C577.817 144.713 577.22 144.622 576.664 144.439C576.108 144.266 575.616 144.038 575.188 143.756C574.759 143.464 574.372 143.136 574.025 142.771C573.688 142.398 573.365 141.924 573.055 141.35C572.745 140.766 572.508 140.119 572.344 139.408C572.18 138.688 572.098 137.904 572.098 137.057C572.098 135.817 572.253 134.719 572.562 133.762C572.882 132.805 573.324 132.003 573.889 131.355C574.454 130.708 575.133 130.221 575.926 129.893C576.719 129.555 577.589 129.387 578.537 129.387C579.585 129.387 580.497 129.587 581.271 129.988C582.046 130.38 582.689 130.913 583.199 131.588C583.71 132.253 584.092 133.033 584.348 133.926C584.603 134.819 584.73 135.762 584.73 136.756ZM581.818 135.689C581.782 135.188 581.691 134.714 581.545 134.268C581.408 133.821 581.199 133.429 580.916 133.092C580.643 132.755 580.292 132.49 579.863 132.299C579.444 132.098 578.938 131.998 578.346 131.998C577.835 131.998 577.389 132.085 577.006 132.258C576.623 132.422 576.295 132.659 576.021 132.969C575.748 133.279 575.52 133.661 575.338 134.117C575.165 134.564 575.046 135.088 574.982 135.689H581.818ZM595.777 144.398L592.838 139.08L589.803 144.398H586.562L591.184 136.783L586.863 129.701H590.199L592.893 134.568L595.572 129.701H598.881L594.547 136.783L599.195 144.398H595.777ZM609.477 144.029C609.121 144.23 608.702 144.394 608.219 144.521C607.745 144.649 607.221 144.713 606.646 144.713C606.145 144.713 605.703 144.64 605.32 144.494C604.947 144.357 604.605 144.139 604.295 143.838C603.985 143.528 603.748 143.127 603.584 142.635C603.42 142.133 603.338 141.527 603.338 140.816V132.326H601.246V129.701H603.338V125.504L606.168 123.986V129.701H609.805V132.326H606.168V140.311C606.168 140.657 606.195 140.944 606.25 141.172C606.314 141.391 606.405 141.568 606.523 141.705C606.651 141.842 606.811 141.938 607.002 141.992C607.193 142.047 607.421 142.074 607.686 142.074C608.059 142.074 608.438 142.015 608.82 141.896C609.212 141.778 609.54 141.641 609.805 141.486L609.477 144.029ZM625.09 136.756C625.09 137.02 625.081 137.266 625.062 137.494C625.044 137.722 625.026 137.913 625.008 138.068H615.287C615.369 138.779 615.524 139.39 615.752 139.9C615.98 140.402 616.258 140.816 616.586 141.145C616.914 141.473 617.283 141.714 617.693 141.869C618.113 142.024 618.546 142.102 618.992 142.102C619.311 142.102 619.612 142.074 619.895 142.02C620.177 141.965 620.446 141.883 620.701 141.773C620.965 141.664 621.198 141.555 621.398 141.445C621.599 141.327 621.859 141.154 622.178 140.926L623.887 142.771C623.522 143.118 623.171 143.4 622.834 143.619C622.506 143.829 622.146 144.02 621.754 144.193C621.371 144.357 620.934 144.485 620.441 144.576C619.949 144.667 619.407 144.713 618.814 144.713C618.176 144.713 617.579 144.622 617.023 144.439C616.467 144.266 615.975 144.038 615.547 143.756C615.118 143.464 614.731 143.136 614.385 142.771C614.048 142.398 613.724 141.924 613.414 141.35C613.104 140.766 612.867 140.119 612.703 139.408C612.539 138.688 612.457 137.904 612.457 137.057C612.457 135.817 612.612 134.719 612.922 133.762C613.241 132.805 613.683 132.003 614.248 131.355C614.813 130.708 615.492 130.221 616.285 129.893C617.078 129.555 617.949 129.387 618.896 129.387C619.945 129.387 620.856 129.587 621.631 129.988C622.406 130.38 623.048 130.913 623.559 131.588C624.069 132.253 624.452 133.033 624.707 133.926C624.962 134.819 625.09 135.762 625.09 136.756ZM622.178 135.689C622.141 135.188 622.05 134.714 621.904 134.268C621.768 133.821 621.558 133.429 621.275 133.092C621.002 132.755 620.651 132.49 620.223 132.299C619.803 132.098 619.298 131.998 618.705 131.998C618.195 131.998 617.748 132.085 617.365 132.258C616.982 132.422 616.654 132.659 616.381 132.969C616.107 133.279 615.88 133.661 615.697 134.117C615.524 134.564 615.406 135.088 615.342 135.689H622.178ZM637.627 144.398V136.086C637.627 134.755 637.39 133.753 636.916 133.078C636.442 132.395 635.672 132.053 634.605 132.053C634.141 132.053 633.712 132.135 633.32 132.299C632.928 132.463 632.6 132.718 632.336 133.064C632.072 133.411 631.88 133.821 631.762 134.295C631.643 134.76 631.584 135.261 631.584 135.799V144.398H628.699V129.701H631.584V131.096C631.766 130.831 631.99 130.594 632.254 130.385C632.518 130.166 632.81 129.984 633.129 129.838C633.448 129.692 633.79 129.583 634.154 129.51C634.519 129.428 634.893 129.387 635.275 129.387C636.16 129.387 636.925 129.533 637.572 129.824C638.229 130.107 638.771 130.517 639.199 131.055C639.637 131.592 639.965 132.271 640.184 133.092C640.402 133.912 640.512 134.874 640.512 135.977V144.398H637.627ZM654.348 131.014L653.09 133.229C652.488 132.8 651.878 132.486 651.258 132.285C650.647 132.076 649.991 131.971 649.289 131.971C648.578 131.971 648.063 132.098 647.744 132.354C647.425 132.6 647.266 132.919 647.266 133.311C647.266 133.493 647.302 133.666 647.375 133.83C647.457 133.994 647.598 134.158 647.799 134.322C647.999 134.486 648.273 134.66 648.619 134.842C648.975 135.024 649.43 135.225 649.986 135.443C650.807 135.762 651.522 136.068 652.133 136.359C652.753 136.651 653.268 136.979 653.678 137.344C654.097 137.699 654.411 138.118 654.621 138.602C654.831 139.085 654.936 139.673 654.936 140.365C654.936 141.176 654.781 141.86 654.471 142.416C654.17 142.972 653.764 143.423 653.254 143.77C652.753 144.107 652.169 144.348 651.504 144.494C650.839 144.64 650.146 144.713 649.426 144.713C648.496 144.713 647.516 144.544 646.486 144.207C645.465 143.861 644.568 143.4 643.793 142.826L645.105 140.652C645.798 141.126 646.514 141.486 647.252 141.732C647.99 141.979 648.706 142.102 649.398 142.102C650.31 142.102 650.984 141.96 651.422 141.678C651.859 141.395 652.078 140.994 652.078 140.475C652.078 140.192 652.001 139.946 651.846 139.736C651.691 139.518 651.463 139.317 651.162 139.135C650.87 138.943 650.515 138.761 650.096 138.588C649.676 138.406 649.202 138.214 648.674 138.014C647.881 137.704 647.206 137.398 646.65 137.098C646.104 136.797 645.657 136.469 645.311 136.113C644.973 135.758 644.727 135.361 644.572 134.924C644.426 134.486 644.354 133.976 644.354 133.393C644.354 132.736 644.477 132.158 644.723 131.656C644.969 131.155 645.315 130.74 645.762 130.412C646.208 130.075 646.737 129.82 647.348 129.646C647.958 129.473 648.633 129.387 649.371 129.387C650.301 129.387 651.199 129.537 652.064 129.838C652.93 130.139 653.691 130.531 654.348 131.014ZM662.086 125.941C662.086 126.197 662.036 126.438 661.936 126.666C661.835 126.885 661.699 127.081 661.525 127.254C661.361 127.418 661.165 127.55 660.938 127.65C660.719 127.751 660.482 127.801 660.227 127.801C659.971 127.801 659.73 127.751 659.502 127.65C659.274 127.55 659.074 127.418 658.9 127.254C658.736 127.081 658.604 126.885 658.504 126.666C658.404 126.438 658.354 126.197 658.354 125.941C658.354 125.686 658.404 125.445 658.504 125.217C658.604 124.989 658.736 124.793 658.9 124.629C659.074 124.456 659.274 124.319 659.502 124.219C659.73 124.118 659.971 124.068 660.227 124.068C660.482 124.068 660.719 124.118 660.938 124.219C661.165 124.319 661.361 124.456 661.525 124.629C661.699 124.793 661.835 124.989 661.936 125.217C662.036 125.445 662.086 125.686 662.086 125.941ZM658.777 144.398V129.701H661.662V144.398H658.777ZM678.479 136.975C678.479 138.196 678.31 139.285 677.973 140.242C677.635 141.199 677.171 142.01 676.578 142.676C675.986 143.341 675.284 143.847 674.473 144.193C673.661 144.54 672.786 144.713 671.848 144.713C670.918 144.713 670.057 144.531 669.264 144.166C668.48 143.801 667.796 143.286 667.213 142.621C666.639 141.947 666.188 141.14 665.859 140.201C665.531 139.253 665.367 138.205 665.367 137.057C665.367 135.854 665.536 134.778 665.873 133.83C666.21 132.882 666.671 132.08 667.254 131.424C667.846 130.758 668.539 130.253 669.332 129.906C670.134 129.56 671 129.387 671.93 129.387C672.868 129.387 673.734 129.569 674.527 129.934C675.329 130.289 676.022 130.799 676.605 131.465C677.189 132.121 677.645 132.919 677.973 133.857C678.31 134.787 678.479 135.826 678.479 136.975ZM675.566 137.057C675.566 136.309 675.48 135.635 675.307 135.033C675.133 134.423 674.883 133.903 674.555 133.475C674.236 133.046 673.844 132.718 673.379 132.49C672.914 132.253 672.39 132.135 671.807 132.135C671.26 132.135 670.768 132.253 670.33 132.49C669.902 132.718 669.533 133.046 669.223 133.475C668.922 133.894 668.689 134.4 668.525 134.992C668.361 135.585 668.279 136.245 668.279 136.975C668.279 137.786 668.366 138.501 668.539 139.121C668.721 139.741 668.972 140.26 669.291 140.68C669.619 141.099 670.007 141.418 670.453 141.637C670.909 141.855 671.41 141.965 671.957 141.965C672.504 141.965 672.996 141.837 673.434 141.582C673.88 141.318 674.258 140.967 674.568 140.529C674.887 140.083 675.133 139.563 675.307 138.971C675.48 138.369 675.566 137.731 675.566 137.057ZM690.975 144.398V136.086C690.975 134.755 690.738 133.753 690.264 133.078C689.79 132.395 689.02 132.053 687.953 132.053C687.488 132.053 687.06 132.135 686.668 132.299C686.276 132.463 685.948 132.718 685.684 133.064C685.419 133.411 685.228 133.821 685.109 134.295C684.991 134.76 684.932 135.261 684.932 135.799V144.398H682.047V129.701H684.932V131.096C685.114 130.831 685.337 130.594 685.602 130.385C685.866 130.166 686.158 129.984 686.477 129.838C686.796 129.692 687.137 129.583 687.502 129.51C687.867 129.428 688.24 129.387 688.623 129.387C689.507 129.387 690.273 129.533 690.92 129.824C691.576 130.107 692.118 130.517 692.547 131.055C692.984 131.592 693.312 132.271 693.531 133.092C693.75 133.912 693.859 134.874 693.859 135.977V144.398H690.975Z" fill="#F6F6FA"/>
<path d="M509.566 189.054C509.566 190.342 509.364 191.51 508.959 192.558C508.57 193.591 508.001 194.497 507.252 195.276C506.503 196.04 505.597 196.669 504.534 197.163C503.471 197.657 502.28 198.009 500.962 198.219V202.869H494.516V198.309C493.617 198.159 492.771 197.972 491.977 197.747C491.199 197.522 490.397 197.223 489.574 196.848C488.765 196.474 488.016 196.077 487.327 195.658C486.654 195.224 486.017 194.759 485.418 194.265L489.057 189.436C489.671 189.93 490.33 190.394 491.034 190.828C491.753 191.248 492.486 191.615 493.235 191.929C493.999 192.229 494.763 192.468 495.526 192.648C496.29 192.828 497.031 192.917 497.75 192.917C499.472 192.917 500.768 192.64 501.636 192.086C502.505 191.517 502.939 190.649 502.939 189.481C502.939 188.986 502.842 188.545 502.647 188.155C502.467 187.766 502.138 187.399 501.659 187.055C501.195 186.695 500.558 186.351 499.749 186.021C498.956 185.692 497.937 185.34 496.695 184.966C494.853 184.412 493.273 183.85 491.955 183.281C490.652 182.712 489.581 182.06 488.743 181.327C487.919 180.578 487.313 179.709 486.923 178.721C486.534 177.718 486.339 176.52 486.339 175.127C486.339 173.959 486.526 172.888 486.901 171.915C487.29 170.926 487.837 170.065 488.54 169.331C489.259 168.583 490.128 167.954 491.146 167.445C492.164 166.935 493.31 166.569 494.583 166.344V161.739H500.962V166.277C501.801 166.396 502.587 166.561 503.321 166.771C504.055 166.98 504.766 167.25 505.455 167.579C506.159 167.894 506.773 168.216 507.297 168.545C507.836 168.875 508.428 169.287 509.072 169.781L505.477 174.655C504.804 174.161 504.145 173.727 503.501 173.352C502.872 172.978 502.228 172.671 501.569 172.431C500.925 172.177 500.259 171.99 499.57 171.87C498.881 171.735 498.147 171.668 497.368 171.668C496.56 171.668 495.871 171.75 495.302 171.915C494.733 172.064 494.269 172.282 493.909 172.566C493.565 172.836 493.31 173.158 493.145 173.532C492.996 173.891 492.921 174.281 492.921 174.7C492.921 175.164 493.003 175.576 493.168 175.936C493.348 176.295 493.662 176.639 494.111 176.969C494.576 177.298 495.212 177.628 496.021 177.957C496.829 178.272 497.863 178.616 499.12 178.99C501.022 179.56 502.632 180.151 503.95 180.765C505.283 181.364 506.361 182.053 507.185 182.832C508.023 183.61 508.63 184.501 509.004 185.505C509.379 186.508 509.566 187.691 509.566 189.054ZM536.949 188.694C536.949 190.387 536.664 191.869 536.095 193.142C535.526 194.415 534.703 195.478 533.624 196.332C532.561 197.185 531.266 197.829 529.738 198.264C528.211 198.698 526.489 198.915 524.572 198.915C523.329 198.915 522.153 198.795 521.045 198.556C519.937 198.316 518.889 197.979 517.9 197.545C516.927 197.111 516.021 196.594 515.182 195.995C514.344 195.381 513.565 194.707 512.846 193.973L516.755 189.885C517.863 190.948 519.068 191.802 520.371 192.446C521.674 193.075 523.119 193.389 524.707 193.389C526.728 193.389 528.211 192.992 529.154 192.199C530.113 191.39 530.592 190.252 530.592 188.784C530.592 188.066 530.48 187.414 530.255 186.83C530.03 186.246 529.678 185.774 529.199 185.415C528.72 185.041 528.114 184.756 527.38 184.561C526.661 184.367 525.8 184.269 524.796 184.269H521.584V178.99H524.662C526.324 178.99 527.522 178.654 528.256 177.98C528.99 177.306 529.356 176.325 529.356 175.037C529.356 174.453 529.259 173.921 529.064 173.442C528.885 172.963 528.593 172.551 528.188 172.207C527.784 171.862 527.26 171.6 526.616 171.421C525.987 171.226 525.216 171.128 524.302 171.128C522.955 171.128 521.727 171.391 520.618 171.915C519.525 172.424 518.484 173.128 517.496 174.026L513.902 169.915C514.501 169.361 515.167 168.83 515.901 168.321C516.635 167.796 517.436 167.347 518.305 166.973C519.188 166.583 520.139 166.277 521.157 166.052C522.191 165.812 523.299 165.692 524.482 165.692C526.144 165.692 527.664 165.865 529.042 166.209C530.42 166.539 531.603 167.055 532.591 167.759C533.594 168.463 534.373 169.361 534.927 170.455C535.481 171.548 535.758 172.843 535.758 174.341C535.758 175.284 535.646 176.123 535.421 176.857C535.197 177.575 534.882 178.219 534.478 178.788C534.089 179.342 533.624 179.822 533.085 180.226C532.561 180.63 531.992 180.982 531.378 181.282C532.097 181.476 532.793 181.768 533.467 182.158C534.141 182.532 534.733 183.019 535.242 183.618C535.766 184.217 536.178 184.936 536.477 185.774C536.792 186.613 536.949 187.586 536.949 188.694ZM546.429 204.014H541.959L542.61 190.447H550.293L546.429 204.014ZM578.664 182.248C578.664 184.958 578.365 187.354 577.766 189.436C577.167 191.502 576.321 193.239 575.227 194.647C574.149 196.055 572.854 197.118 571.341 197.837C569.829 198.556 568.159 198.915 566.332 198.915C564.505 198.915 562.843 198.563 561.345 197.859C559.848 197.141 558.56 196.085 557.482 194.692C556.404 193.299 555.565 191.57 554.966 189.503C554.382 187.437 554.09 185.048 554.09 182.337C554.09 179.627 554.389 177.238 554.988 175.172C555.587 173.09 556.426 171.353 557.504 169.96C558.597 168.553 559.9 167.489 561.413 166.771C562.925 166.052 564.595 165.692 566.422 165.692C568.234 165.692 569.889 166.052 571.386 166.771C572.899 167.475 574.194 168.523 575.272 169.915C576.351 171.308 577.182 173.038 577.766 175.104C578.365 177.171 578.664 179.552 578.664 182.248ZM572.128 182.248C572.128 180.181 571.978 178.444 571.678 177.036C571.379 175.629 570.967 174.513 570.443 173.689C569.919 172.851 569.312 172.237 568.623 171.847C567.935 171.458 567.171 171.263 566.332 171.263C565.494 171.263 564.73 171.458 564.041 171.847C563.367 172.237 562.768 172.851 562.244 173.689C561.735 174.513 561.338 175.629 561.053 177.036C560.769 178.444 560.627 180.181 560.627 182.248C560.627 184.254 560.761 185.969 561.031 187.392C561.315 188.799 561.712 189.93 562.221 190.784C562.731 191.622 563.33 192.259 564.018 192.693C564.707 193.127 565.509 193.344 566.422 193.344C567.276 193.344 568.047 193.127 568.736 192.693C569.425 192.259 570.024 191.622 570.533 190.784C571.042 189.93 571.431 188.799 571.701 187.392C571.985 185.969 572.128 184.254 572.128 182.248ZM606.272 182.248C606.272 184.958 605.973 187.354 605.374 189.436C604.775 191.502 603.928 193.239 602.835 194.647C601.757 196.055 600.462 197.118 598.949 197.837C597.437 198.556 595.767 198.915 593.94 198.915C592.113 198.915 590.451 198.563 588.953 197.859C587.456 197.141 586.168 196.085 585.09 194.692C584.011 193.299 583.173 191.57 582.574 189.503C581.99 187.437 581.698 185.048 581.698 182.337C581.698 179.627 581.997 177.238 582.596 175.172C583.195 173.09 584.034 171.353 585.112 169.96C586.205 168.553 587.508 167.489 589.021 166.771C590.533 166.052 592.203 165.692 594.03 165.692C595.842 165.692 597.497 166.052 598.994 166.771C600.507 167.475 601.802 168.523 602.88 169.915C603.958 171.308 604.79 173.038 605.374 175.104C605.973 177.171 606.272 179.552 606.272 182.248ZM599.735 182.248C599.735 180.181 599.586 178.444 599.286 177.036C598.987 175.629 598.575 174.513 598.051 173.689C597.527 172.851 596.92 172.237 596.231 171.847C595.542 171.458 594.779 171.263 593.94 171.263C593.101 171.263 592.338 171.458 591.649 171.847C590.975 172.237 590.376 172.851 589.852 173.689C589.343 174.513 588.946 175.629 588.661 177.036C588.377 178.444 588.234 180.181 588.234 182.248C588.234 184.254 588.369 185.969 588.639 187.392C588.923 188.799 589.32 189.93 589.829 190.784C590.338 191.622 590.937 192.259 591.626 192.693C592.315 193.127 593.116 193.344 594.03 193.344C594.883 193.344 595.655 193.127 596.343 192.693C597.032 192.259 597.631 191.622 598.141 190.784C598.65 189.93 599.039 188.799 599.309 187.392C599.593 185.969 599.735 184.254 599.735 182.248ZM633.88 182.248C633.88 184.958 633.58 187.354 632.981 189.436C632.382 191.502 631.536 193.239 630.443 194.647C629.365 196.055 628.069 197.118 626.557 197.837C625.044 198.556 623.375 198.915 621.548 198.915C619.721 198.915 618.059 198.563 616.561 197.859C615.063 197.141 613.776 196.085 612.697 194.692C611.619 193.299 610.781 191.57 610.182 189.503C609.597 187.437 609.305 185.048 609.305 182.337C609.305 179.627 609.605 177.238 610.204 175.172C610.803 173.09 611.642 171.353 612.72 169.96C613.813 168.553 615.116 167.489 616.628 166.771C618.141 166.052 619.811 165.692 621.638 165.692C623.45 165.692 625.104 166.052 626.602 166.771C628.114 167.475 629.41 168.523 630.488 169.915C631.566 171.308 632.397 173.038 632.981 175.104C633.58 177.171 633.88 179.552 633.88 182.248ZM627.343 182.248C627.343 180.181 627.193 178.444 626.894 177.036C626.594 175.629 626.183 174.513 625.658 173.689C625.134 172.851 624.528 172.237 623.839 171.847C623.15 171.458 622.386 171.263 621.548 171.263C620.709 171.263 619.945 171.458 619.257 171.847C618.583 172.237 617.984 172.851 617.459 173.689C616.95 174.513 616.553 175.629 616.269 177.036C615.984 178.444 615.842 180.181 615.842 182.248C615.842 184.254 615.977 185.969 616.247 187.392C616.531 188.799 616.928 189.93 617.437 190.784C617.946 191.622 618.545 192.259 619.234 192.693C619.923 193.127 620.724 193.344 621.638 193.344C622.491 193.344 623.262 193.127 623.951 192.693C624.64 192.259 625.239 191.622 625.748 190.784C626.257 189.93 626.647 188.799 626.916 187.392C627.201 185.969 627.343 184.254 627.343 182.248Z" fill="#00C864"/>
<path d="M795.999 125.711C795.999 125.711 794.982 123.647 793.71 123.647C792.439 123.647 791.422 124.564 791.422 125.711C791.422 126.629 792.185 127.547 793.456 127.776V175.493L786.59 178.246V174.575L789.896 172.969V114.241L784.301 109.194V81.2064L787.861 77.9947V36.9309L793.456 41.9779V81.2064L787.607 85.5652V93.1356C787.607 93.1356 785.572 94.0532 785.572 95.2002C785.572 96.3473 786.59 97.2649 787.861 97.2649C789.133 97.2649 790.15 96.3473 790.15 95.2002C790.15 94.2826 789.387 93.365 788.116 93.1356V85.7946L793.965 81.4358V41.7484L787.607 36.0133V31.6545L753.275 4.12572H733.947L732.675 5.96098H718.942L717.671 4.12572H700.632L694.274 8.25504L688.679 5.27275H617.726C617.726 4.35513 616.709 3.4375 615.437 3.4375C614.166 3.4375 613.148 4.35513 613.148 5.50216C613.148 6.6492 614.166 7.56682 615.437 7.56682C616.454 7.56682 617.472 6.8786 617.726 5.73157H688.679L693.765 8.71386H693.511L700.632 13.5314H749.46L756.835 19.496H760.65L779.978 35.0956V61.248L777.434 63.5421V78.2241L781.758 82.124V109.423L776.163 114.47V119.288L779.978 121.353V190.633L776.163 192.698V200.498L781.758 206.463V237.662L777.943 241.332V256.014L780.486 258.309V284.461L761.158 300.061H757.344L749.969 306.025H701.141L694.02 310.613L701.141 315.201H718.18L719.451 313.366H733.184L734.456 315.201H753.783L783.029 291.573V300.061L754.801 322.542H687.408L677.489 316.348H608.825C608.825 314.972 607.553 314.054 606.282 314.054C604.756 314.054 603.484 315.201 603.484 316.578C603.484 317.954 604.756 319.101 606.282 319.101C607.808 319.101 608.825 318.184 609.079 316.807H677.489L687.408 323.001H755.055L783.538 300.29V291.114L787.861 287.443V241.103L784.047 237.432V206.004L789.641 199.81V194.533L786.335 192.928V178.934L793.71 175.951V127.776C793.71 127.776 795.745 126.858 795.745 125.711H795.999Z" fill="#00FFFF"/>
<defs>
<linearGradient id="paint0_linear_2304_87298" x1="20.3438" y1="161.965" x2="775.908" y2="161.965" gradientUnits="userSpaceOnUse">
<stop stop-color="#81DDF2"/>
<stop offset="1" stop-color="#60C7D8"/>
</linearGradient>
</defs>
</svg>
