<svg width="24" height="24" viewBox="0 0 24 24" fill="none" xmlns="http://www.w3.org/2000/svg">
<path fill-rule="evenodd" clip-rule="evenodd" d="M11.7496 9.49951C10.507 9.49951 9.49963 10.5069 9.49963 11.7495C9.49963 12.9921 10.507 13.9995 11.7496 13.9995C12.9923 13.9995 13.9996 12.9921 13.9996 11.7495C13.9996 10.5069 12.9923 9.49951 11.7496 9.49951ZM7.99963 11.7495C7.99963 9.67844 9.67856 7.99951 11.7496 7.99951C13.8207 7.99951 15.4996 9.67844 15.4996 11.7495C15.4996 13.8206 13.8207 15.4995 11.7496 15.4995C9.67856 15.4995 7.99963 13.8206 7.99963 11.7495Z" fill="#52D051"/>
<path fill-rule="evenodd" clip-rule="evenodd" d="M12.2803 0.21967L11.75 0.75L11.2197 0.21967C11.5126 -0.0732233 11.9874 -0.0732233 12.2803 0.21967ZM12.0792 8.41459L12.0799 8.41307L12.0861 8.40038C12.092 8.38828 12.1012 8.36899 12.1133 8.34299C12.1376 8.29098 12.1734 8.2123 12.2169 8.11081C12.304 7.90746 12.4212 7.61462 12.5385 7.26283C12.776 6.55026 13 5.63656 13 4.75C13 3.97544 12.6011 3.12867 12.126 2.41603C11.9976 2.22342 11.8688 2.04832 11.75 1.89608C11.6312 2.04832 11.5024 2.22342 11.374 2.41603C10.8989 3.12867 10.5 3.97544 10.5 4.75C10.5 5.63656 10.724 6.55026 10.9615 7.26283C11.0788 7.61462 11.196 7.90746 11.2831 8.11081C11.3266 8.2123 11.3624 8.29098 11.3867 8.34299C11.3988 8.36899 11.408 8.38828 11.4139 8.40038L11.4201 8.41307L11.4208 8.41459C11.4208 8.41459 11.4208 8.41459 10.75 8.75L10.0792 9.08541C10.2644 9.45589 10.7149 9.60606 11.0854 9.42082C11.4558 9.23562 11.6059 8.78503 11.4208 8.41459M10.75 8.75C10.0792 9.08541 10.0792 9.08541 10.0792 9.08541L10.0785 9.08399L10.0774 9.08183L10.0742 9.07533L10.0637 9.05372C10.0549 9.03555 10.0426 9.00992 10.0274 8.97732C9.99698 8.91215 9.95465 8.81895 9.90439 8.70169C9.80404 8.46754 9.67122 8.13538 9.53849 7.73717C9.27601 6.94974 9 5.86344 9 4.75C9 3.52456 9.60106 2.37133 10.126 1.58397C10.3965 1.1781 10.666 0.841352 10.8681 0.605656C10.9694 0.487417 11.0547 0.393583 11.1158 0.328105C11.1464 0.295341 11.171 0.269603 11.1886 0.251383L11.2097 0.229728L11.2161 0.223227L11.2183 0.221078L11.2197 0.21967C11.2197 0.21967 11.2197 0.21967 11.75 0.75C12.2803 0.21967 12.2803 0.21967 12.2803 0.21967L12.2817 0.221078L12.2839 0.223227L12.2903 0.229728L12.3114 0.251383C12.329 0.269603 12.3536 0.295341 12.3842 0.328105C12.4453 0.393583 12.5306 0.487417 12.6319 0.605656C12.834 0.841352 13.1035 1.1781 13.374 1.58397C13.8989 2.37133 14.5 3.52456 14.5 4.75C14.5 5.86344 14.224 6.94974 13.9615 7.73717C13.8288 8.13538 13.696 8.46754 13.5956 8.70169C13.5454 8.81895 13.503 8.91215 13.4726 8.97732C13.4574 9.00992 13.4451 9.03555 13.4363 9.05372L13.4258 9.07533L13.4226 9.08183L13.4215 9.08399L13.421 9.08512C13.421 9.08512 13.4208 9.08541 12.75 8.75L13.421 9.08512C13.2357 9.45561 12.7851 9.60606 12.4146 9.42082C12.0443 9.23569 11.8945 8.78494 12.0792 8.41459" fill="#52D051"/>
<path fill-rule="evenodd" clip-rule="evenodd" d="M0.21967 11.2197L0.75 11.75L0.21967 12.2803C-0.0732233 11.9874 -0.0732233 11.5126 0.21967 11.2197ZM8.41459 11.4208L8.41307 11.4201L8.40038 11.4139C8.38828 11.408 8.36899 11.3988 8.34299 11.3867C8.29098 11.3624 8.2123 11.3266 8.11081 11.2831C7.90746 11.196 7.61462 11.0788 7.26283 10.9615C6.55026 10.724 5.63656 10.5 4.75 10.5C3.97544 10.5 3.12867 10.8989 2.41603 11.374C2.22342 11.5024 2.04832 11.6312 1.89608 11.75C2.04832 11.8688 2.22342 11.9976 2.41603 12.126C3.12867 12.6011 3.97544 13 4.75 13C5.63656 13 6.55026 12.776 7.26283 12.5385C7.61462 12.4212 7.90746 12.304 8.11081 12.2169C8.2123 12.1734 8.29098 12.1376 8.34299 12.1133C8.36899 12.1012 8.38828 12.092 8.40038 12.0861L8.41307 12.0799L8.41459 12.0792C8.41459 12.0792 8.41459 12.0792 8.75 12.75L9.08541 13.4208C9.45589 13.2356 9.60606 12.7851 9.42082 12.4146C9.23562 12.0442 8.78503 11.8941 8.41459 12.0792M8.75 12.75C9.08541 13.4208 9.08541 13.4208 9.08541 13.4208L9.08399 13.4215L9.08183 13.4226L9.07533 13.4258L9.05372 13.4363C9.03555 13.4451 9.00992 13.4574 8.97732 13.4726C8.91215 13.503 8.81895 13.5454 8.70169 13.5956C8.46754 13.696 8.13538 13.8288 7.73717 13.9615C6.94974 14.224 5.86344 14.5 4.75 14.5C3.52456 14.5 2.37133 13.8989 1.58397 13.374C1.1781 13.1035 0.841352 12.834 0.605656 12.6319C0.487417 12.5306 0.393583 12.4453 0.328105 12.3842C0.295341 12.3536 0.269603 12.329 0.251383 12.3114L0.229728 12.2903L0.223227 12.2839L0.221078 12.2817L0.21967 12.2803C0.21967 12.2803 0.21967 12.2803 0.75 11.75C0.21967 11.2197 0.21967 11.2197 0.21967 11.2197L0.221078 11.2183L0.223227 11.2161L0.229728 11.2097L0.251383 11.1886C0.269603 11.171 0.295341 11.1464 0.328105 11.1158C0.393583 11.0547 0.487417 10.9694 0.605656 10.8681C0.841352 10.666 1.1781 10.3965 1.58397 10.126C2.37133 9.60106 3.52456 9 4.75 9C5.86344 9 6.94974 9.27601 7.73717 9.53849C8.13538 9.67122 8.46754 9.80404 8.70169 9.90439C8.81895 9.95465 8.91215 9.99698 8.97732 10.0274C9.00992 10.0426 9.03555 10.0549 9.05372 10.0637L9.07533 10.0742L9.08183 10.0774L9.08399 10.0785L9.08512 10.079C9.08512 10.079 9.08541 10.0792 8.75 10.75L9.08512 10.079C9.45561 10.2643 9.60606 10.7149 9.42082 11.0854C9.23569 11.4557 8.78494 11.6055 8.41459 11.4208" fill="#52D051"/>
<path fill-rule="evenodd" clip-rule="evenodd" d="M12.2803 23.2803L11.75 22.75L11.2197 23.2803C11.5126 23.5732 11.9874 23.5732 12.2803 23.2803ZM12.0792 15.0854L12.0799 15.0869L12.0861 15.0996C12.092 15.1117 12.1012 15.131 12.1133 15.157C12.1376 15.209 12.1734 15.2877 12.2169 15.3892C12.304 15.5925 12.4212 15.8854 12.5385 16.2372C12.776 16.9497 13 17.8634 13 18.75C13 19.5246 12.6011 20.3713 12.126 21.084C11.9976 21.2766 11.8688 21.4517 11.75 21.6039C11.6312 21.4517 11.5024 21.2766 11.374 21.084C10.8989 20.3713 10.5 19.5246 10.5 18.75C10.5 17.8634 10.724 16.9497 10.9615 16.2372C11.0788 15.8854 11.196 15.5925 11.2831 15.3892C11.3266 15.2877 11.3624 15.209 11.3867 15.157C11.3988 15.131 11.408 15.1117 11.4139 15.0996L11.4201 15.0869L11.4208 15.0854C11.4208 15.0854 11.4208 15.0854 10.75 14.75L10.0792 14.4146C10.2644 14.0441 10.7149 13.8939 11.0854 14.0792C11.4558 14.2644 11.6059 14.715 11.4208 15.0854M10.75 14.75C10.0792 14.4146 10.0792 14.4146 10.0792 14.4146L10.0785 14.416L10.0774 14.4182L10.0742 14.4247L10.0637 14.4463C10.0549 14.4644 10.0426 14.4901 10.0274 14.5227C9.99698 14.5879 9.95465 14.681 9.90439 14.7983C9.80404 15.0325 9.67122 15.3646 9.53849 15.7628C9.27601 16.5503 9 17.6366 9 18.75C9 19.9754 9.60106 21.1287 10.126 21.916C10.3965 22.3219 10.666 22.6586 10.8681 22.8943C10.9694 23.0126 11.0547 23.1064 11.1158 23.1719C11.1464 23.2047 11.171 23.2304 11.1886 23.2486L11.2097 23.2703L11.2161 23.2768L11.2183 23.2789L11.2197 23.2803C11.2197 23.2803 11.2197 23.2803 11.75 22.75C12.2803 23.2803 12.2803 23.2803 12.2803 23.2803L12.2817 23.2789L12.2839 23.2768L12.2903 23.2703L12.3114 23.2486C12.329 23.2304 12.3536 23.2047 12.3842 23.1719C12.4453 23.1064 12.5306 23.0126 12.6319 22.8943C12.834 22.6586 13.1035 22.3219 13.374 21.916C13.8989 21.1287 14.5 19.9754 14.5 18.75C14.5 17.6366 14.224 16.5503 13.9615 15.7628C13.8288 15.3646 13.696 15.0325 13.5956 14.7983C13.5454 14.681 13.503 14.5879 13.4726 14.5227C13.4574 14.4901 13.4451 14.4644 13.4363 14.4463L13.4258 14.4247L13.4226 14.4182L13.4215 14.416L13.421 14.4149C13.421 14.4149 13.4208 14.4146 12.75 14.75L13.421 14.4149C13.2357 14.0444 12.7851 13.8939 12.4146 14.0792C12.0443 14.2643 11.8945 14.7151 12.0792 15.0854" fill="#52D051"/>
<path fill-rule="evenodd" clip-rule="evenodd" d="M23.2803 11.2197L22.75 11.75L23.2803 12.2803C23.5732 11.9874 23.5732 11.5126 23.2803 11.2197ZM15.0854 11.4208L15.0869 11.4201L15.0996 11.4139C15.1117 11.408 15.131 11.3988 15.157 11.3867C15.209 11.3624 15.2877 11.3266 15.3892 11.2831C15.5925 11.196 15.8854 11.0788 16.2372 10.9615C16.9497 10.724 17.8634 10.5 18.75 10.5C19.5246 10.5 20.3713 10.8989 21.084 11.374C21.2766 11.5024 21.4517 11.6312 21.6039 11.75C21.4517 11.8688 21.2766 11.9976 21.084 12.126C20.3713 12.6011 19.5246 13 18.75 13C17.8634 13 16.9497 12.776 16.2372 12.5385C15.8854 12.4212 15.5925 12.304 15.3892 12.2169C15.2877 12.1734 15.209 12.1376 15.157 12.1133C15.131 12.1012 15.1117 12.092 15.0996 12.0861L15.0869 12.0799L15.0854 12.0792C15.0854 12.0792 15.0854 12.0792 14.75 12.75L14.4146 13.4208C14.0441 13.2356 13.8939 12.7851 14.0792 12.4146C14.2644 12.0442 14.715 11.8941 15.0854 12.0792M14.75 12.75C14.4146 13.4208 14.4146 13.4208 14.4146 13.4208L14.416 13.4215L14.4182 13.4226L14.4247 13.4258L14.4463 13.4363C14.4644 13.4451 14.4901 13.4574 14.5227 13.4726C14.5879 13.503 14.681 13.5454 14.7983 13.5956C15.0325 13.696 15.3646 13.8288 15.7628 13.9615C16.5503 14.224 17.6366 14.5 18.75 14.5C19.9754 14.5 21.1287 13.8989 21.916 13.374C22.3219 13.1035 22.6586 12.834 22.8943 12.6319C23.0126 12.5306 23.1064 12.4453 23.1719 12.3842C23.2047 12.3536 23.2304 12.329 23.2486 12.3114L23.2703 12.2903L23.2768 12.2839L23.2789 12.2817L23.2803 12.2803C23.2803 12.2803 23.2803 12.2803 22.75 11.75C23.2803 11.2197 23.2803 11.2197 23.2803 11.2197L23.2789 11.2183L23.2768 11.2161L23.2703 11.2097L23.2486 11.1886C23.2304 11.171 23.2047 11.1464 23.1719 11.1158C23.1064 11.0547 23.0126 10.9694 22.8943 10.8681C22.6586 10.666 22.3219 10.3965 21.916 10.126C21.1287 9.60106 19.9754 9 18.75 9C17.6366 9 16.5503 9.27601 15.7628 9.53849C15.3646 9.67122 15.0325 9.80404 14.7983 9.90439C14.681 9.95465 14.5879 9.99698 14.5227 10.0274C14.4901 10.0426 14.4644 10.0549 14.4463 10.0637L14.4247 10.0742L14.4182 10.0774L14.416 10.0785L14.4149 10.079C14.4149 10.079 14.4146 10.0792 14.75 10.75L14.4149 10.079C14.0444 10.2643 13.8939 10.7149 14.0792 11.0854C14.2643 11.4557 14.7151 11.6055 15.0854 11.4208" fill="#52D051"/>
<path fill-rule="evenodd" clip-rule="evenodd" d="M3.97183 3.22202V3.97202L3.22183 3.97202C3.22183 3.5578 3.55762 3.22202 3.97183 3.22202ZM9.62428 9.15894L9.62373 9.15733L9.61913 9.14399C9.61472 9.13128 9.6076 9.11112 9.5978 9.08416C9.57818 9.03022 9.54786 8.94927 9.50685 8.84675C9.42468 8.64134 9.30048 8.35141 9.13464 8.01974C8.79873 7.34792 8.31104 6.54345 7.68414 5.91656C7.13644 5.36886 6.25559 5.0522 5.41573 4.88423C5.18875 4.83883 4.97389 4.80605 4.78223 4.78241C4.80587 4.97408 4.83864 5.18893 4.88404 5.41592C5.05201 6.25578 5.36867 7.13663 5.91637 7.68433C6.54327 8.31122 7.34774 8.79892 8.01955 9.13483C8.35122 9.30066 8.64115 9.42487 8.84657 9.50704C8.94909 9.54805 9.03003 9.57837 9.08397 9.59799C9.11093 9.60779 9.1311 9.6149 9.1438 9.61932L9.15715 9.62392L9.15875 9.62447C9.15875 9.62447 9.15875 9.62446 8.92158 10.336L8.68441 11.0475C9.07736 11.1785 9.5021 10.9661 9.63309 10.5731C9.76405 10.1803 9.55154 9.75555 9.15875 9.62447M8.92158 10.336C8.68441 11.0475 8.68441 11.0475 8.68441 11.0475L8.6829 11.047L8.68062 11.0462L8.67375 11.0439L8.65102 11.0361C8.63196 11.0294 8.60517 11.02 8.57136 11.0077C8.50377 10.9831 8.40793 10.9471 8.28948 10.8998C8.05295 10.8051 7.72417 10.6642 7.34873 10.4765C6.60633 10.1053 5.64303 9.53231 4.85571 8.74499C3.9892 7.87847 3.59875 6.638 3.41317 5.71009C3.31751 5.23177 3.26995 4.80309 3.24614 4.49358C3.23419 4.33831 3.22812 4.21167 3.22504 4.12216C3.22349 4.07737 3.22269 4.04177 3.22228 4.01642L3.2219 3.98617L3.22184 3.97704L3.22183 3.97401L3.22183 3.97202C3.22183 3.97202 3.22183 3.97202 3.97183 3.97202C3.97183 3.22202 3.97183 3.22202 3.97183 3.22202L3.97382 3.22202L3.97685 3.22203L3.98599 3.22208L4.01623 3.22246C4.04159 3.22288 4.07718 3.22368 4.12197 3.22522C4.21149 3.22831 4.33812 3.23438 4.49339 3.24632C4.80291 3.27013 5.23158 3.31769 5.70991 3.41336C6.63781 3.59894 7.87829 3.98939 8.7448 4.8559C9.53212 5.64322 10.1051 6.60652 10.4763 7.34892C10.664 7.72435 10.805 8.05314 10.8996 8.28967C10.9469 8.40812 10.9829 8.50395 11.0075 8.57154C11.0198 8.60535 11.0292 8.63214 11.0359 8.65121L11.0437 8.67394L11.046 8.68081L11.0468 8.68309L11.0472 8.68429C11.0472 8.68429 11.0473 8.68459 10.3358 8.92176L11.0472 8.68429C11.1782 9.07725 10.9659 9.50229 10.573 9.63328C10.1802 9.76418 9.75554 9.55143 9.62428 9.15894" fill="#52D051"/>
<path fill-rule="evenodd" clip-rule="evenodd" d="M3.22177 19.5282H3.97177L3.97177 20.2782C3.55756 20.2782 3.22177 19.9424 3.22177 19.5282ZM9.15869 13.8757L9.15709 13.8763L9.14374 13.8809C9.13104 13.8853 9.11087 13.8924 9.08391 13.9022C9.02997 13.9218 8.94903 13.9521 8.84651 13.9931C8.64109 14.0753 8.35116 14.1995 8.01949 14.3654C7.34768 14.7013 6.54321 15.189 5.91632 15.8159C5.36862 16.3636 5.05196 17.2444 4.88399 18.0843C4.83859 18.3113 4.80581 18.5261 4.78217 18.7178C4.97383 18.6941 5.18869 18.6614 5.41568 18.616C6.25554 18.448 7.13638 18.1313 7.68408 17.5836C8.31098 16.9567 8.79868 16.1523 9.13458 15.4804C9.30042 15.1488 9.42463 14.8588 9.50679 14.6534C9.5478 14.5509 9.57813 14.47 9.59774 14.416C9.60755 14.3891 9.61466 14.3689 9.61907 14.3562L9.62367 14.3429L9.62422 14.3413C9.62422 14.3413 9.62422 14.3413 10.3357 14.5784L11.0472 14.8156C11.1782 14.4226 10.9659 13.9979 10.5729 13.8669C10.18 13.736 9.75531 13.9485 9.62422 14.3413M10.3357 14.5784C11.0472 14.8156 11.0472 14.8156 11.0472 14.8156L11.0467 14.8171L11.046 14.8194L11.0436 14.8262L11.0358 14.849C11.0292 14.868 11.0197 14.8948 11.0074 14.9286C10.9829 14.9962 10.9469 15.0921 10.8995 15.2105C10.8049 15.447 10.6639 15.7758 10.4762 16.1513C10.105 16.8937 9.53206 17.857 8.74474 18.6443C7.87823 19.5108 6.63776 19.9012 5.70985 20.0868C5.23152 20.1825 4.80285 20.2301 4.49333 20.2539C4.33806 20.2658 4.21143 20.2719 4.12192 20.275C4.07713 20.2765 4.04153 20.2773 4.01618 20.2777L3.98593 20.2781L3.97679 20.2782L3.97376 20.2782L3.97177 20.2782C3.97177 20.2782 3.97177 20.2782 3.97177 19.5282C3.22177 19.5282 3.22177 19.5282 3.22177 19.5282L3.22178 19.5262L3.22178 19.5231L3.22184 19.514L3.22222 19.4838C3.22263 19.4584 3.22344 19.4228 3.22498 19.378C3.22807 19.2885 3.23413 19.1619 3.24608 19.0066C3.26989 18.6971 3.31745 18.2684 3.41311 17.7901C3.5987 16.8622 3.98914 15.6217 4.85566 14.7552C5.64298 13.9679 6.60627 13.3949 7.34867 13.0237C7.72411 12.836 8.0529 12.695 8.28942 12.6004C8.40788 12.5531 8.50371 12.5171 8.5713 12.4925C8.60511 12.4802 8.6319 12.4708 8.65096 12.4641L8.67369 12.4563L8.68056 12.454L8.68285 12.4532L8.68405 12.4528C8.68405 12.4528 8.68435 12.4527 8.92152 13.1642L8.68405 12.4528C9.077 12.3218 9.50205 12.5341 9.63303 12.927C9.76394 13.3198 9.55119 13.7445 9.15869 13.8757" fill="#52D051"/>
<path fill-rule="evenodd" clip-rule="evenodd" d="M20.2782 19.5282H19.5282V20.2782C19.9424 20.2782 20.2782 19.9424 20.2782 19.5282ZM14.3413 13.8757L14.3429 13.8763L14.3563 13.8809C14.369 13.8853 14.3891 13.8924 14.4161 13.9022C14.47 13.9218 14.551 13.9521 14.6535 13.9931C14.8589 14.0753 15.1488 14.1995 15.4805 14.3654C16.1523 14.7013 16.9568 15.189 17.5837 15.8159C18.1314 16.3636 18.448 17.2444 18.616 18.0843C18.6614 18.3113 18.6942 18.5261 18.7178 18.7178C18.5262 18.6941 18.3113 18.6614 18.0843 18.616C17.2445 18.448 16.3636 18.1313 15.8159 17.5836C15.189 16.9567 14.7013 16.1523 14.3654 15.4804C14.1996 15.1488 14.0754 14.8588 13.9932 14.6534C13.9522 14.5509 13.9219 14.47 13.9023 14.416C13.8925 14.3891 13.8853 14.3689 13.8809 14.3562L13.8763 14.3429L13.8758 14.3413C13.8758 14.3413 13.8758 14.3413 13.1643 14.5784L12.4528 14.8156C12.3218 14.4226 12.5341 13.9979 12.9271 13.8669C13.32 13.736 13.7447 13.9485 13.8758 14.3413M13.1643 14.5784C12.4528 14.8156 12.4528 14.8156 12.4528 14.8156L12.4533 14.8171L12.454 14.8194L12.4564 14.8262L12.4642 14.849C12.4708 14.868 12.4803 14.8948 12.4926 14.9286C12.5171 14.9962 12.5531 15.0921 12.6005 15.2105C12.6951 15.447 12.8361 15.7758 13.0238 16.1513C13.395 16.8937 13.9679 17.857 14.7553 18.6443C15.6218 19.5108 16.8622 19.9012 17.7901 20.0868C18.2685 20.1825 18.6972 20.2301 19.0067 20.2539C19.1619 20.2658 19.2886 20.2719 19.3781 20.275C19.4229 20.2765 19.4585 20.2773 19.4838 20.2777L19.5141 20.2781L19.5232 20.2782L19.5262 20.2782L19.5282 20.2782C19.5282 20.2782 19.5282 20.2782 19.5282 19.5282C20.2782 19.5282 20.2782 19.5282 20.2782 19.5282L20.2782 19.5262L20.2782 19.5231L20.2782 19.514L20.2778 19.4838C20.2774 19.4584 20.2766 19.4228 20.275 19.378C20.2719 19.2885 20.2659 19.1619 20.2539 19.0066C20.2301 18.6971 20.1826 18.2684 20.0869 17.7901C19.9013 16.8622 19.5109 15.6217 18.6443 14.7552C17.857 13.9679 16.8937 13.3949 16.1513 13.0237C15.7759 12.836 15.4471 12.695 15.2106 12.6004C15.0921 12.5531 14.9963 12.5171 14.9287 12.4925C14.8949 12.4802 14.8681 12.4708 14.849 12.4641L14.8263 12.4563L14.8194 12.454L14.8172 12.4532L14.816 12.4528C14.816 12.4528 14.8157 12.4527 14.5785 13.1642L14.816 12.4528C14.423 12.3218 13.998 12.5341 13.867 12.927C13.7361 13.3198 13.9488 13.7445 14.3413 13.8757" fill="#52D051"/>
<path fill-rule="evenodd" clip-rule="evenodd" d="M19.5282 3.22202V3.97202L20.2782 3.97202C20.2782 3.5578 19.9424 3.22202 19.5282 3.22202ZM13.8757 9.15894L13.8763 9.15733L13.8809 9.14399C13.8853 9.13128 13.8924 9.11112 13.9022 9.08416C13.9218 9.03022 13.9521 8.94927 13.9931 8.84675C14.0753 8.64134 14.1995 8.35141 14.3654 8.01974C14.7013 7.34792 15.189 6.54345 15.8159 5.91656C16.3636 5.36886 17.2444 5.0522 18.0843 4.88423C18.3113 4.83883 18.5261 4.80605 18.7178 4.78241C18.6941 4.97408 18.6614 5.18893 18.616 5.41592C18.448 6.25578 18.1313 7.13663 17.5836 7.68433C16.9567 8.31122 16.1523 8.79892 15.4804 9.13483C15.1488 9.30066 14.8588 9.42487 14.6534 9.50704C14.5509 9.54805 14.47 9.57837 14.416 9.59799C14.3891 9.60779 14.3689 9.6149 14.3562 9.61932L14.3429 9.62392L14.3413 9.62447C14.3413 9.62447 14.3413 9.62446 14.5784 10.336L14.8156 11.0475C14.4226 11.1785 13.9979 10.9661 13.8669 10.5731C13.736 10.1803 13.9485 9.75555 14.3413 9.62447M14.5784 10.336C14.8156 11.0475 14.8156 11.0475 14.8156 11.0475L14.8171 11.047L14.8194 11.0462L14.8262 11.0439L14.849 11.0361C14.868 11.0294 14.8948 11.02 14.9286 11.0077C14.9962 10.9831 15.0921 10.9471 15.2105 10.8998C15.447 10.8051 15.7758 10.6642 16.1513 10.4765C16.8937 10.1053 17.857 9.53231 18.6443 8.74499C19.5108 7.87847 19.9012 6.638 20.0868 5.71009C20.1825 5.23177 20.2301 4.80309 20.2539 4.49358C20.2658 4.33831 20.2719 4.21167 20.275 4.12216C20.2765 4.07737 20.2773 4.04177 20.2777 4.01642L20.2781 3.98617L20.2782 3.97704L20.2782 3.97401L20.2782 3.97202C20.2782 3.97202 20.2782 3.97202 19.5282 3.97202C19.5282 3.22202 19.5282 3.22202 19.5282 3.22202L19.5262 3.22202L19.5231 3.22203L19.514 3.22208L19.4838 3.22246C19.4584 3.22288 19.4228 3.22368 19.378 3.22522C19.2885 3.22831 19.1619 3.23438 19.0066 3.24632C18.6971 3.27013 18.2684 3.31769 17.7901 3.41336C16.8622 3.59894 15.6217 3.98939 14.7552 4.8559C13.9679 5.64322 13.3949 6.60652 13.0237 7.34892C12.836 7.72435 12.695 8.05314 12.6004 8.28967C12.5531 8.40812 12.5171 8.50395 12.4925 8.57154C12.4802 8.60535 12.4708 8.63214 12.4641 8.65121L12.4563 8.67394L12.454 8.68081L12.4532 8.68309L12.4528 8.68429C12.4528 8.68429 12.4527 8.68459 13.1642 8.92176L12.4528 8.68429C12.3218 9.07725 12.5341 9.50229 12.927 9.63328C13.3198 9.76418 13.7445 9.55143 13.8757 9.15894" fill="#52D051"/>
</svg>
