<svg width="288" height="66" viewBox="0 0 288 66" fill="none" xmlns="http://www.w3.org/2000/svg">
<g opacity="0.35">
<path d="M260.306 7.1875C274.8 7.18755 286.637 19.0093 286.638 33.4814C286.638 47.787 275.071 59.5013 260.806 59.7695V59.5303H76.9219V7.1875H260.306Z" fill="url(#paint0_linear_5190_9393)" stroke="#FFE600"/>
</g>
<path d="M123.201 36.7266C123.201 37.3581 123.097 37.9342 122.889 38.4551C122.687 38.9759 122.374 39.4251 121.951 39.8027C121.528 40.1738 120.991 40.4635 120.34 40.6719C119.689 40.8737 118.914 40.9746 118.016 40.9746C117.508 40.9746 117.016 40.9193 116.541 40.8086C116.072 40.7044 115.626 40.5547 115.203 40.3594C114.786 40.1641 114.393 39.9264 114.021 39.6465C113.657 39.3665 113.328 39.054 113.035 38.709L114.539 37.2539C114.773 37.5078 115.034 37.7389 115.32 37.9473C115.607 38.1491 115.906 38.3216 116.219 38.4648C116.531 38.6081 116.854 38.7188 117.186 38.7969C117.518 38.875 117.85 38.9141 118.182 38.9141C119.171 38.9141 119.9 38.7448 120.369 38.4063C120.844 38.0677 121.082 37.5566 121.082 36.8731C121.082 36.5996 121.027 36.3587 120.916 36.1504C120.805 35.9421 120.626 35.75 120.379 35.5742C120.132 35.3919 119.806 35.2194 119.402 35.0566C118.999 34.8939 118.504 34.7246 117.918 34.5488C117.176 34.3275 116.531 34.1061 115.984 33.8848C115.437 33.6634 114.982 33.403 114.617 33.1035C114.259 32.7975 113.989 32.433 113.807 32.0098C113.631 31.5801 113.543 31.0527 113.543 30.4277C113.543 29.8223 113.663 29.2787 113.904 28.7969C114.145 28.3151 114.471 27.9082 114.881 27.5762C115.298 27.2376 115.786 26.9805 116.346 26.8047C116.912 26.6224 117.518 26.5313 118.162 26.5313C118.696 26.5378 119.165 26.5833 119.568 26.668C119.979 26.7526 120.372 26.8828 120.75 27.0586C121.134 27.2344 121.479 27.4297 121.785 27.6445C122.091 27.8529 122.41 28.1133 122.742 28.4258L121.258 29.9297C120.991 29.6628 120.75 29.4577 120.535 29.3145C120.32 29.1712 120.096 29.0475 119.861 28.9434C119.633 28.8392 119.363 28.7546 119.051 28.6895C118.745 28.6244 118.393 28.5918 117.996 28.5918C117.586 28.5918 117.234 28.6406 116.941 28.7383C116.648 28.8294 116.404 28.9531 116.209 29.1094C116.02 29.2656 115.88 29.4512 115.789 29.666C115.704 29.8744 115.662 30.0957 115.662 30.3301C115.662 30.5775 115.708 30.7956 115.799 30.9844C115.89 31.1732 116.049 31.3522 116.277 31.5215C116.512 31.6843 116.824 31.8438 117.215 32C117.612 32.1563 118.113 32.3255 118.719 32.5078C119.409 32.7162 120.031 32.9375 120.584 33.1719C121.137 33.3997 121.606 33.6732 121.99 33.9922C122.381 34.3112 122.68 34.6921 122.889 35.1348C123.097 35.571 123.201 36.1016 123.201 36.7266ZM138.24 40.75V34.8125C138.24 34.2852 138.198 33.8392 138.113 33.4746C138.029 33.1035 137.902 32.804 137.732 32.5762C137.57 32.3483 137.361 32.1856 137.107 32.0879C136.853 31.9837 136.557 31.9316 136.219 31.9316C135.854 31.9316 135.545 31.9935 135.291 32.1172C135.037 32.2409 134.829 32.4232 134.666 32.6641C134.503 32.905 134.383 33.1947 134.305 33.5332C134.233 33.8718 134.197 34.2298 134.197 34.6074V40.75H132.137V34.8125C132.137 34.2852 132.094 33.8392 132.01 33.4746C131.932 33.1035 131.808 32.804 131.639 32.5762C131.469 32.3483 131.258 32.1856 131.004 32.0879C130.75 31.9837 130.454 31.9316 130.115 31.9316C129.777 31.9316 129.474 31.9935 129.207 32.1172C128.947 32.2344 128.735 32.4134 128.572 32.6543C128.416 32.8952 128.299 33.1751 128.221 33.4941C128.143 33.8066 128.103 34.1777 128.103 34.6074V40.75H126.043V30.252H128.103V31.2481C128.364 30.8639 128.709 30.5645 129.139 30.3496C129.568 30.1348 130.057 30.0274 130.603 30.0274C131.313 30.0274 131.899 30.1608 132.361 30.4277C132.824 30.6882 133.198 31.069 133.484 31.5703C133.673 31.3359 133.868 31.1244 134.07 30.9356C134.279 30.7468 134.506 30.584 134.754 30.4473C135.008 30.3106 135.291 30.2064 135.603 30.1348C135.923 30.0632 136.287 30.0274 136.697 30.0274C137.264 30.0274 137.765 30.1152 138.201 30.291C138.637 30.4603 139.015 30.7402 139.334 31.1309C139.659 31.515 139.9 32.0163 140.057 32.6348C140.219 33.2468 140.301 33.9466 140.301 34.7344V40.75H138.24ZM149.285 40.75V39.7148C149.018 39.9622 148.797 40.1445 148.621 40.2617C148.445 40.3724 148.263 40.4798 148.074 40.584C147.885 40.6816 147.644 40.7695 147.352 40.8477C147.065 40.9323 146.749 40.9746 146.404 40.9746C145.981 40.9746 145.551 40.9095 145.115 40.7793C144.686 40.6556 144.295 40.4538 143.943 40.1738C143.598 39.8874 143.315 39.5195 143.094 39.0703C142.872 38.6211 142.762 38.0742 142.762 37.4297C142.762 36.8438 142.866 36.3392 143.074 35.916C143.289 35.4863 143.582 35.1315 143.953 34.8516C144.331 34.5716 144.773 34.3665 145.281 34.2363C145.796 34.0996 146.349 34.0313 146.941 34.0313C147.495 34.0313 147.96 34.0703 148.338 34.1484C148.715 34.2201 149.031 34.3145 149.285 34.4316V33.6504C149.285 33.0775 149.116 32.638 148.777 32.332C148.439 32.026 147.947 31.8731 147.303 31.8731C146.762 31.8731 146.274 31.9251 145.838 32.0293C145.402 32.1335 144.978 32.2995 144.568 32.5274L143.768 30.9746C144.269 30.6621 144.806 30.4277 145.379 30.2715C145.958 30.1087 146.619 30.0274 147.361 30.0274C147.947 30.0274 148.481 30.099 148.963 30.2422C149.451 30.3854 149.868 30.6035 150.213 30.8965C150.558 31.1895 150.825 31.5573 151.014 32C151.209 32.4427 151.307 32.9603 151.307 33.5527V40.75H149.285ZM149.285 36.2676C149.09 36.1764 148.914 36.1081 148.758 36.0625C148.602 36.0104 148.439 35.9681 148.269 35.9356C148.1 35.8965 147.895 35.8672 147.654 35.8477C147.42 35.8216 147.163 35.8086 146.883 35.8086C146.219 35.8086 145.691 35.9486 145.301 36.2285C144.917 36.5085 144.725 36.8893 144.725 37.3711C144.725 37.6836 144.78 37.9505 144.891 38.1719C145.001 38.3867 145.141 38.5625 145.311 38.6992C145.48 38.8359 145.678 38.9401 145.906 39.0117C146.141 39.0768 146.421 39.1094 146.746 39.1094C147.019 39.1094 147.283 39.0703 147.537 38.9922C147.791 38.9141 148.029 38.8132 148.25 38.6895C148.471 38.5592 148.67 38.416 148.846 38.2598C149.021 38.097 149.168 37.9342 149.285 37.7715V36.2676ZM159.959 32.4297C159.738 32.306 159.503 32.2116 159.256 32.1465C159.015 32.0814 158.725 32.0488 158.387 32.0488C157.729 32.0488 157.221 32.2767 156.863 32.7324C156.505 33.1816 156.326 33.8555 156.326 34.7539V40.75H154.266V30.252H156.326V31.2481C156.443 31.0723 156.587 30.9128 156.756 30.7695C156.925 30.6198 157.111 30.4896 157.312 30.3789C157.521 30.2682 157.742 30.1836 157.977 30.125C158.211 30.0599 158.458 30.0274 158.719 30.0274C159.142 30.0274 159.493 30.0664 159.773 30.1445C160.053 30.2227 160.297 30.3301 160.506 30.4668L159.959 32.4297ZM167.84 40.4863C167.586 40.6296 167.286 40.7467 166.941 40.8379C166.603 40.929 166.228 40.9746 165.818 40.9746C165.46 40.9746 165.144 40.9225 164.871 40.8184C164.604 40.7207 164.36 40.5645 164.139 40.3496C163.917 40.1283 163.748 39.8418 163.631 39.4902C163.514 39.1322 163.455 38.6992 163.455 38.1914V32.127H161.961V30.252H163.455V27.2539L165.477 26.1699V30.252H168.074V32.127H165.477V37.8301C165.477 38.0775 165.496 38.2826 165.535 38.4453C165.581 38.6016 165.646 38.7285 165.73 38.8262C165.822 38.9238 165.935 38.9922 166.072 39.0313C166.209 39.0703 166.372 39.0898 166.56 39.0898C166.827 39.0898 167.098 39.0475 167.371 38.9629C167.651 38.8783 167.885 38.7806 168.074 38.6699L167.84 40.4863ZM189.109 40.75H187.049V31.082L182.791 40.9746L178.572 31.082V40.75H176.59V26.7461H178.758L182.859 36.4922L186.873 26.7461H189.109V40.75ZM201.326 35.4473C201.326 36.3197 201.206 37.0977 200.965 37.7813C200.724 38.4648 200.392 39.0443 199.969 39.5195C199.545 39.9948 199.044 40.3561 198.465 40.6035C197.885 40.8509 197.26 40.9746 196.59 40.9746C195.926 40.9746 195.31 40.8444 194.744 40.584C194.184 40.3236 193.696 39.9557 193.279 39.4805C192.869 38.9987 192.547 38.4225 192.312 37.752C192.078 37.0749 191.961 36.3262 191.961 35.5059C191.961 34.6465 192.081 33.8783 192.322 33.2012C192.563 32.5241 192.892 31.9512 193.309 31.4824C193.732 31.0072 194.226 30.6458 194.793 30.3984C195.366 30.1511 195.984 30.0274 196.648 30.0274C197.319 30.0274 197.937 30.1576 198.504 30.418C199.077 30.6719 199.572 31.0365 199.988 31.5117C200.405 31.9805 200.73 32.5501 200.965 33.2207C201.206 33.8848 201.326 34.627 201.326 35.4473ZM199.246 35.5059C199.246 34.972 199.184 34.4902 199.06 34.0606C198.937 33.6244 198.758 33.2533 198.523 32.9473C198.295 32.6413 198.016 32.4069 197.684 32.2441C197.351 32.0749 196.977 31.9902 196.56 31.9902C196.17 31.9902 195.818 32.0749 195.506 32.2441C195.2 32.4069 194.936 32.6413 194.715 32.9473C194.5 33.2468 194.334 33.6081 194.217 34.0313C194.1 34.4544 194.041 34.9264 194.041 35.4473C194.041 36.0267 194.103 36.5378 194.226 36.9805C194.357 37.4232 194.536 37.7943 194.764 38.0938C194.998 38.3932 195.275 38.6211 195.594 38.7773C195.919 38.9336 196.277 39.0117 196.668 39.0117C197.059 39.0117 197.41 38.9206 197.723 38.7383C198.042 38.5495 198.312 38.2988 198.533 37.9863C198.761 37.6673 198.937 37.2962 199.06 36.8731C199.184 36.4434 199.246 35.9876 199.246 35.5059ZM212.693 35.6719C212.693 36.5703 212.579 37.3516 212.351 38.0156C212.124 38.6797 211.818 39.2331 211.434 39.6758C211.056 40.112 210.616 40.4375 210.115 40.6523C209.62 40.8672 209.1 40.9746 208.553 40.9746C208.045 40.9746 207.553 40.8574 207.078 40.623C206.603 40.3887 206.215 40.1055 205.916 39.7734V40.75H203.875V27.2344L205.916 26.1699V31.2481C206.131 31.0527 206.326 30.8932 206.502 30.7695C206.678 30.6458 206.863 30.5287 207.059 30.418C207.254 30.3073 207.482 30.2162 207.742 30.1445C208.003 30.0664 208.305 30.0274 208.65 30.0274C209.217 30.0274 209.744 30.1348 210.232 30.3496C210.727 30.558 211.157 30.89 211.521 31.3457C211.886 31.8014 212.172 32.3874 212.381 33.1035C212.589 33.8132 212.693 34.6693 212.693 35.6719ZM210.633 35.7305C210.633 34.4154 210.428 33.4551 210.017 32.8496C209.614 32.2376 209.031 31.9316 208.269 31.9316C208.022 31.9316 207.784 31.9707 207.557 32.0488C207.335 32.1205 207.12 32.2181 206.912 32.3418C206.71 32.4655 206.521 32.6087 206.346 32.7715C206.176 32.9343 206.023 33.1003 205.887 33.2695V37.6934C206.004 37.8496 206.147 38.0091 206.316 38.1719C206.492 38.3346 206.687 38.4844 206.902 38.6211C207.117 38.7513 207.345 38.8587 207.586 38.9434C207.833 39.028 208.087 39.0703 208.348 39.0703C209.096 39.0703 209.663 38.7936 210.047 38.2402C210.437 37.6803 210.633 36.8438 210.633 35.7305ZM217.742 27.5664C217.742 27.7487 217.706 27.9212 217.635 28.084C217.563 28.2402 217.465 28.3802 217.342 28.5039C217.225 28.6211 217.085 28.7155 216.922 28.7871C216.766 28.8587 216.596 28.8945 216.414 28.8945C216.232 28.8945 216.059 28.8587 215.896 28.7871C215.734 28.7155 215.59 28.6211 215.467 28.5039C215.35 28.3802 215.255 28.2402 215.183 28.084C215.112 27.9212 215.076 27.7487 215.076 27.5664C215.076 27.3841 215.112 27.2116 215.183 27.0488C215.255 26.8861 215.35 26.7461 215.467 26.6289C215.59 26.5052 215.734 26.4076 215.896 26.336C216.059 26.2643 216.232 26.2285 216.414 26.2285C216.596 26.2285 216.766 26.2643 216.922 26.336C217.085 26.4076 217.225 26.5052 217.342 26.6289C217.465 26.7461 217.563 26.8861 217.635 27.0488C217.706 27.2116 217.742 27.3841 217.742 27.5664ZM215.379 40.75V30.252H217.439V40.75H215.379ZM220.691 40.75V27.2539L222.752 26.1699V40.75H220.691ZM228.367 27.5664C228.367 27.7487 228.331 27.9212 228.26 28.084C228.188 28.2402 228.09 28.3802 227.967 28.5039C227.849 28.6211 227.71 28.7155 227.547 28.7871C227.391 28.8587 227.221 28.8945 227.039 28.8945C226.857 28.8945 226.684 28.8587 226.521 28.7871C226.359 28.7155 226.215 28.6211 226.092 28.5039C225.975 28.3802 225.88 28.2402 225.808 28.084C225.737 27.9212 225.701 27.7487 225.701 27.5664C225.701 27.3841 225.737 27.2116 225.808 27.0488C225.88 26.8861 225.975 26.7461 226.092 26.6289C226.215 26.5052 226.359 26.4076 226.521 26.336C226.684 26.2643 226.857 26.2285 227.039 26.2285C227.221 26.2285 227.391 26.2643 227.547 26.336C227.71 26.4076 227.849 26.5052 227.967 26.6289C228.09 26.7461 228.188 26.8861 228.26 27.0488C228.331 27.2116 228.367 27.3841 228.367 27.5664ZM226.004 40.75V30.252H228.064V40.75H226.004ZM236.238 40.4863C235.984 40.6296 235.685 40.7467 235.34 40.8379C235.001 40.929 234.627 40.9746 234.217 40.9746C233.859 40.9746 233.543 40.9225 233.269 40.8184C233.002 40.7207 232.758 40.5645 232.537 40.3496C232.316 40.1283 232.146 39.8418 232.029 39.4902C231.912 39.1322 231.853 38.6992 231.853 38.1914V32.127H230.359V30.252H231.853V27.2539L233.875 26.1699V30.252H236.473V32.127H233.875V37.8301C233.875 38.0775 233.894 38.2826 233.933 38.4453C233.979 38.6016 234.044 38.7285 234.129 38.8262C234.22 38.9238 234.334 38.9922 234.471 39.0313C234.607 39.0703 234.77 39.0898 234.959 39.0898C235.226 39.0898 235.496 39.0475 235.769 38.9629C236.049 38.8783 236.284 38.7806 236.473 38.6699L236.238 40.4863ZM242.527 44.4512H240.349L241.873 40.5547L238.016 30.252H240.271L242.908 38.1621L245.633 30.252H247.81L242.527 44.4512Z" fill="#FFE600"/>
<path d="M76.2827 65.8796C58.0667 65.8796 43.2969 51.1304 43.2969 32.9398C43.2969 14.7492 58.0667 0 76.2827 0V0.737458C58.559 0.737458 44.0354 15.2408 44.0354 32.9398C44.0354 50.6388 58.559 65.1421 76.2827 65.1421V65.8796Z" fill="url(#paint1_linear_5190_9393)"/>
<path d="M49.946 32.6859C49.946 17.9367 61.7618 6.13738 76.5316 6.13738C91.3014 6.13738 103.117 18.1825 103.117 32.6859C103.117 47.1892 91.3014 59.2344 76.5316 59.2344C61.7618 59.2344 49.946 47.1892 49.946 32.6859Z" fill="url(#paint2_linear_5190_9393)"/>
<path d="M83.6538 38.1889C83.0626 38.2576 67.567 38.2549 67.0486 38.1893C67.0793 38.0215 67.1076 37.8545 67.141 37.6886C67.4801 36.0037 67.0211 34.5675 65.7167 33.4638C63.3015 31.4203 59.5362 32.6314 58.8314 35.8757C58.7495 36.2528 58.7794 36.6544 58.757 37.045C58.7527 37.1208 58.744 37.1966 58.7377 37.2681C58.5293 37.3739 58.3389 37.2977 58.1528 37.2669C57.8067 37.2092 57.4656 37.1097 57.1175 37.0762C56.2289 36.9909 55.4737 36.087 55.4249 35.2325C55.3914 34.6464 55.391 34.0565 55.4162 33.4697C55.4257 33.2454 55.5224 33.0136 55.6227 32.8067C55.7549 32.5346 55.8218 32.2574 55.8202 31.9585C55.8182 31.5861 55.819 31.2137 55.821 30.8414C55.8218 30.6846 55.8194 30.527 55.8344 30.3714C55.8894 29.7977 56.1931 29.4273 56.7556 29.3041C57.3456 29.1746 57.942 29.0695 58.5387 28.974C59.3738 28.8405 60.1692 28.5874 60.9335 28.2292C62.2237 27.625 63.5139 27.0209 64.8045 26.4171C66.5341 25.6084 68.3479 25.084 70.2415 24.8696C73.9382 24.4506 77.4301 25.131 80.6894 26.9403C81.9867 27.6606 83.2648 28.416 84.5447 29.1678C84.8582 29.3519 85.1714 29.4261 85.538 29.4308C86.3373 29.4415 87.137 29.496 87.9339 29.5604C89.1793 29.6611 90.4168 29.8249 91.6287 30.1432C92.5205 30.3774 93.376 30.6992 94.1517 31.2102C94.6607 31.5454 95.0195 31.9909 95.1725 32.5919C95.2661 32.9599 95.2677 33.3327 95.1921 33.6991C94.9896 34.6808 94.6226 35.6108 94.2733 36.545C94.1497 36.8756 93.9043 37.1046 93.5652 37.1966C93.0594 37.3336 92.5468 37.4454 91.9882 37.5796C91.9737 37.4039 91.9477 37.2772 91.956 37.1524C91.9981 36.519 91.9359 35.901 91.7219 35.3004C91.1272 33.628 89.4487 32.3008 87.3191 32.4837C85.7063 32.6223 84.02 33.7588 83.5511 35.8319C83.4072 36.4692 83.4225 37.1156 83.5767 37.7554C83.6082 37.8857 83.6239 38.0195 83.653 38.1882L83.6538 38.1889Z" fill="black"/>
<path d="M87.6923 39.7449C86.2801 39.7915 84.7106 38.6349 84.7031 36.7146C84.6961 34.9246 86.2195 33.7269 87.6769 33.7111C89.2559 33.6937 90.7196 34.9992 90.7247 36.7545C90.729 38.2649 89.4714 39.7785 87.6927 39.7449H87.6923Z" fill="black"/>
<path d="M63.0305 39.6909C61.4807 39.7399 60.05 38.4762 60.0469 36.7162C60.0437 35.0348 61.4795 33.7882 62.9664 33.7736C64.5343 33.7582 65.9528 35.0644 65.9512 36.7613C65.9496 38.3254 64.6401 39.7166 63.0305 39.6913V39.6909Z" fill="black"/>
<path d="M75.2804 34.1282C74.5098 35.0206 73.7451 35.9182 72.9867 36.8213C72.9211 36.8995 72.8577 36.98 72.7956 37.0614C72.7023 37.1842 72.5092 37.0803 72.5592 36.9342C72.9179 35.8842 73.6448 33.9596 74.1692 32.7315H71.3472C71.232 32.7315 71.1686 32.5964 71.243 32.5076C71.9691 31.6385 74.6817 28.4786 75.7635 27.2651C75.863 27.1534 76.0427 27.2612 75.9928 27.4022L74.675 31.1034C75.0621 31.1034 75.3744 31.0955 75.686 31.105C76.2536 31.1227 76.8212 31.1476 77.3888 31.1709C77.4974 31.1753 77.5576 31.2996 77.493 31.3877C77.0954 31.9303 75.92 33.3878 75.2808 34.1286L75.2804 34.1282Z" fill="url(#paint3_linear_5190_9393)"/>
<g opacity="0.35">
<path d="M13.6956 51.4155C8.36304 51.4155 4 46.9908 4 41.5828H4.24239C4.24239 36.1747 8.60543 31.75 13.938 31.75C19.2706 31.75 23.6337 36.1747 23.6337 41.5828C23.6337 46.9908 19.2706 51.4155 13.938 51.4155H13.6956Z" fill="url(#paint4_linear_5190_9393)"/>
</g>
<g opacity="0.35">
<path d="M10.9403 54.9551C8.55333 54.1464 6.16635 52.9332 4.17721 51.3156C2.58589 49.698 1.3924 47.2716 0.596744 45.2496C-0.198915 42.8233 -0.198915 40.3969 0.596744 37.9705C0.994573 35.9485 1.79023 34.331 2.98372 32.7134L5.76852 35.1397C5.76852 35.1397 4.17721 37.5661 3.77938 39.1837C2.98372 42.8233 3.77938 46.4628 6.56418 49.2936C7.75767 50.5068 9.74681 51.72 11.3381 52.1244C16.9077 53.3376 22.8752 50.1024 24.0687 44.0365C24.8643 41.2057 24.0687 38.3749 22.8752 35.9485L26.0578 33.9266C28.047 37.1617 28.4448 41.2057 27.6491 44.8453C26.8535 48.4848 24.4665 51.72 21.2839 53.7419C18.1012 55.7639 14.1229 56.1683 10.5425 55.3595L10.9403 54.9551Z" fill="url(#paint5_linear_5190_9393)"/>
<path d="M7.74635 32.7148L5.35938 29.8841C5.35938 29.8841 8.93984 27.4577 10.929 27.0533C12.9181 26.6489 15.3051 26.6489 17.2943 27.0533L16.4986 30.6928C13.316 29.8841 10.1333 30.6929 7.34852 32.7148H7.74635Z" fill="url(#paint6_linear_5190_9393)"/>
</g>
<defs>
<linearGradient id="paint0_linear_5190_9393" x1="76.1757" y1="33.236" x2="286.891" y2="33.236" gradientUnits="userSpaceOnUse">
<stop stop-color="#1A1A24"/>
<stop offset="1" stop-color="#1A1A24"/>
</linearGradient>
<linearGradient id="paint1_linear_5190_9393" x1="43.2969" y1="32.694" x2="76.2827" y2="32.694" gradientUnits="userSpaceOnUse">
<stop stop-color="white"/>
<stop offset="1" stop-color="white"/>
</linearGradient>
<linearGradient id="paint2_linear_5190_9393" x1="103.363" y1="32.6859" x2="49.946" y2="32.6859" gradientUnits="userSpaceOnUse">
<stop stop-color="#FFE600"/>
<stop offset="1" stop-color="#FFE600"/>
</linearGradient>
<linearGradient id="paint3_linear_5190_9393" x1="64.6898" y1="32.1672" x2="85.606" y2="32.1672" gradientUnits="userSpaceOnUse">
<stop stop-color="white"/>
<stop offset="1" stop-color="white"/>
</linearGradient>
<linearGradient id="paint4_linear_5190_9393" x1="4.24239" y1="41.5828" x2="23.3913" y2="41.5828" gradientUnits="userSpaceOnUse">
<stop stop-color="#FFE600"/>
<stop offset="1" stop-color="#FFE600"/>
</linearGradient>
<linearGradient id="paint5_linear_5190_9393" x1="0.198915" y1="43.6321" x2="28.4448" y2="43.6321" gradientUnits="userSpaceOnUse">
<stop stop-color="#FFE600"/>
<stop offset="1" stop-color="#FFE600"/>
</linearGradient>
<linearGradient id="paint6_linear_5190_9393" x1="5.35938" y1="29.4797" x2="17.6921" y2="29.4797" gradientUnits="userSpaceOnUse">
<stop stop-color="#FFE600"/>
<stop offset="1" stop-color="#FFE600"/>
</linearGradient>
</defs>
</svg>
