<svg width="319" height="66" viewBox="0 0 319 66" fill="none" xmlns="http://www.w3.org/2000/svg">
<g opacity="0.35">
<path d="M291.306 7.1875C305.8 7.18755 317.637 19.0093 317.638 33.4814C317.638 47.787 306.071 59.5013 291.806 59.7695V59.5303H67.9219V7.1875H291.306Z" fill="url(#paint0_linear_5190_9405)" stroke="#FFE600"/>
</g>
<path d="M111.143 41H101.816V26.9961H110.84V29.0371H103.916V32.5039H109.541V34.5352H103.916V38.959H111.143V41ZM117.793 41H115.732L111.973 30.502H114.131L116.787 38.5391L119.307 30.502H121.484L117.793 41ZM131.816 35.541C131.816 35.7298 131.81 35.9056 131.797 36.0684C131.784 36.2311 131.771 36.3678 131.758 36.4785H124.814C124.873 36.9863 124.984 37.4225 125.146 37.7871C125.309 38.1452 125.508 38.4414 125.742 38.6758C125.977 38.9102 126.24 39.0827 126.533 39.1934C126.833 39.304 127.142 39.3594 127.461 39.3594C127.689 39.3594 127.904 39.3398 128.105 39.3008C128.307 39.2617 128.499 39.2031 128.682 39.125C128.87 39.0469 129.036 38.9688 129.18 38.8906C129.323 38.806 129.508 38.6823 129.736 38.5195L130.957 39.8379C130.697 40.0853 130.446 40.2871 130.205 40.4434C129.971 40.5931 129.714 40.7298 129.434 40.8535C129.16 40.9707 128.848 41.0618 128.496 41.127C128.145 41.1921 127.757 41.2246 127.334 41.2246C126.878 41.2246 126.452 41.1595 126.055 41.0293C125.658 40.9056 125.306 40.7428 125 40.541C124.694 40.3327 124.417 40.0983 124.17 39.8379C123.929 39.571 123.698 39.2324 123.477 38.8223C123.255 38.4056 123.086 37.9434 122.969 37.4356C122.852 36.9212 122.793 36.3613 122.793 35.7559C122.793 34.8704 122.904 34.0859 123.125 33.4024C123.353 32.7188 123.669 32.1458 124.072 31.6836C124.476 31.2214 124.961 30.8731 125.527 30.6387C126.094 30.3978 126.715 30.2774 127.393 30.2774C128.141 30.2774 128.792 30.4206 129.346 30.707C129.899 30.987 130.358 31.3678 130.723 31.8496C131.087 32.3249 131.361 32.8815 131.543 33.5195C131.725 34.1576 131.816 34.8314 131.816 35.541ZM129.736 34.7793C129.71 34.4212 129.645 34.0827 129.541 33.7637C129.443 33.4447 129.294 33.1647 129.092 32.9238C128.896 32.683 128.646 32.4941 128.34 32.3574C128.04 32.2142 127.679 32.1426 127.256 32.1426C126.891 32.1426 126.572 32.2044 126.299 32.3281C126.025 32.4453 125.791 32.6146 125.596 32.8359C125.4 33.0573 125.238 33.3307 125.107 33.6563C124.984 33.9753 124.899 34.3496 124.853 34.7793H129.736ZM140.088 32.6797C139.866 32.556 139.632 32.4616 139.385 32.3965C139.144 32.3314 138.854 32.2988 138.516 32.2988C137.858 32.2988 137.35 32.5267 136.992 32.9824C136.634 33.4316 136.455 34.1055 136.455 35.0039V41H134.394V30.502H136.455V31.4981C136.572 31.3223 136.715 31.1628 136.885 31.0195C137.054 30.8698 137.24 30.7396 137.441 30.6289C137.65 30.5182 137.871 30.4336 138.105 30.375C138.34 30.3099 138.587 30.2774 138.848 30.2774C139.271 30.2774 139.622 30.3164 139.902 30.3945C140.182 30.4727 140.426 30.5801 140.635 30.7168L140.088 32.6797ZM146.406 44.7012H144.228L145.752 40.8047L141.894 30.502H144.15L146.787 38.4121L149.512 30.502H151.689L146.406 44.7012ZM159.795 41V40.0039C159.6 40.1797 159.398 40.3424 159.189 40.4922C158.981 40.6419 158.756 40.7754 158.516 40.8926C158.275 41.0098 158.034 41.0944 157.793 41.1465C157.552 41.1986 157.305 41.2246 157.051 41.2246C156.484 41.2246 155.957 41.1204 155.469 40.9121C154.98 40.6973 154.554 40.362 154.189 39.9063C153.825 39.4505 153.538 38.8678 153.33 38.1582C153.122 37.4421 153.018 36.5827 153.018 35.5801C153.018 34.6816 153.128 33.9004 153.35 33.2363C153.577 32.5658 153.88 32.0124 154.258 31.5762C154.642 31.14 155.081 30.8145 155.576 30.5996C156.077 30.3848 156.602 30.2774 157.148 30.2774C157.415 30.2774 157.676 30.3099 157.93 30.375C158.184 30.4401 158.424 30.528 158.652 30.6387C158.88 30.7494 159.088 30.8796 159.277 31.0293C159.473 31.1725 159.645 31.3223 159.795 31.4785V27.4844L161.836 26.4199V41H159.795ZM159.814 33.5586C159.697 33.4024 159.551 33.2428 159.375 33.0801C159.206 32.9173 159.014 32.7708 158.799 32.6406C158.584 32.5039 158.353 32.3932 158.105 32.3086C157.865 32.224 157.614 32.1816 157.353 32.1816C156.605 32.1816 156.035 32.4616 155.644 33.0215C155.26 33.5749 155.068 34.4082 155.068 35.5215C155.068 36.179 155.12 36.7487 155.225 37.2305C155.329 37.7057 155.482 38.0996 155.684 38.4121C155.885 38.7181 156.133 38.946 156.426 39.0957C156.719 39.2454 157.054 39.3203 157.432 39.3203C157.679 39.3203 157.917 39.2845 158.144 39.2129C158.372 39.1348 158.587 39.0339 158.789 38.9102C158.991 38.78 159.176 38.6367 159.346 38.4805C159.521 38.3177 159.678 38.1517 159.814 37.9824V33.5586ZM170.898 41V39.9648C170.631 40.2122 170.41 40.3945 170.234 40.5117C170.059 40.6224 169.876 40.7298 169.687 40.834C169.499 40.9316 169.258 41.0195 168.965 41.0977C168.678 41.1823 168.363 41.2246 168.018 41.2246C167.594 41.2246 167.165 41.1595 166.728 41.0293C166.299 40.9056 165.908 40.7038 165.557 40.4238C165.212 40.1374 164.928 39.7695 164.707 39.3203C164.486 38.8711 164.375 38.3242 164.375 37.6797C164.375 37.0938 164.479 36.5892 164.687 36.166C164.902 35.7363 165.195 35.3815 165.566 35.1016C165.944 34.8216 166.387 34.6165 166.894 34.4863C167.409 34.3496 167.962 34.2813 168.555 34.2813C169.108 34.2813 169.574 34.3203 169.951 34.3984C170.329 34.4701 170.644 34.5645 170.898 34.6816V33.9004C170.898 33.3275 170.729 32.888 170.391 32.582C170.052 32.276 169.56 32.1231 168.916 32.1231C168.376 32.1231 167.887 32.1751 167.451 32.2793C167.015 32.3835 166.592 32.5495 166.182 32.7774L165.381 31.2246C165.882 30.9121 166.419 30.6777 166.992 30.5215C167.572 30.3587 168.232 30.2774 168.975 30.2774C169.56 30.2774 170.094 30.349 170.576 30.4922C171.064 30.6354 171.481 30.8535 171.826 31.1465C172.171 31.4395 172.438 31.8073 172.627 32.25C172.822 32.6927 172.92 33.2103 172.92 33.8027V41H170.898ZM170.898 36.5176C170.703 36.4264 170.527 36.3581 170.371 36.3125C170.215 36.2604 170.052 36.2181 169.883 36.1856C169.713 36.1465 169.508 36.1172 169.268 36.0977C169.033 36.0716 168.776 36.0586 168.496 36.0586C167.832 36.0586 167.305 36.1986 166.914 36.4785C166.53 36.7585 166.338 37.1393 166.338 37.6211C166.338 37.9336 166.393 38.2005 166.504 38.4219C166.615 38.6367 166.754 38.8125 166.924 38.9492C167.093 39.0859 167.292 39.1901 167.519 39.2617C167.754 39.3268 168.034 39.3594 168.359 39.3594C168.633 39.3594 168.896 39.3203 169.15 39.2422C169.404 39.1641 169.642 39.0632 169.863 38.9395C170.085 38.8092 170.283 38.666 170.459 38.5098C170.635 38.347 170.781 38.1842 170.898 38.0215V36.5176ZM179.219 44.7012H177.041L178.564 40.8047L174.707 30.502H176.963L179.6 38.4121L182.324 30.502H184.502L179.219 44.7012ZM202.764 31.3809C202.764 32.1035 202.65 32.7383 202.422 33.2852C202.194 33.832 201.875 34.291 201.465 34.6621C201.055 35.0267 200.566 35.3034 200 35.4922C199.434 35.681 198.809 35.7754 198.125 35.7754H194.463V41H192.402V26.9961H198.262C198.906 26.9961 199.502 27.0905 200.049 27.2793C200.602 27.4616 201.077 27.735 201.475 28.0996C201.878 28.4642 202.194 28.9232 202.422 29.4766C202.65 30.0234 202.764 30.6582 202.764 31.3809ZM200.625 31.3809C200.625 30.9968 200.566 30.655 200.449 30.3555C200.338 30.056 200.179 29.8053 199.971 29.6035C199.762 29.3952 199.508 29.2389 199.209 29.1348C198.916 29.0306 198.587 28.9785 198.223 28.9785H194.463V33.8027H198.223C199.03 33.8027 199.632 33.5879 200.029 33.1582C200.426 32.7285 200.625 32.1361 200.625 31.3809ZM210.488 41V39.9648C210.221 40.2122 210 40.3945 209.824 40.5117C209.648 40.6224 209.466 40.7298 209.277 40.834C209.088 40.9316 208.848 41.0195 208.555 41.0977C208.268 41.1823 207.952 41.2246 207.607 41.2246C207.184 41.2246 206.754 41.1595 206.318 41.0293C205.889 40.9056 205.498 40.7038 205.146 40.4238C204.801 40.1374 204.518 39.7695 204.297 39.3203C204.075 38.8711 203.965 38.3242 203.965 37.6797C203.965 37.0938 204.069 36.5892 204.277 36.166C204.492 35.7363 204.785 35.3815 205.156 35.1016C205.534 34.8216 205.976 34.6165 206.484 34.4863C206.999 34.3496 207.552 34.2813 208.144 34.2813C208.698 34.2813 209.163 34.3203 209.541 34.3984C209.919 34.4701 210.234 34.5645 210.488 34.6816V33.9004C210.488 33.3275 210.319 32.888 209.98 32.582C209.642 32.276 209.15 32.1231 208.506 32.1231C207.965 32.1231 207.477 32.1751 207.041 32.2793C206.605 32.3835 206.182 32.5495 205.771 32.7774L204.971 31.2246C205.472 30.9121 206.009 30.6777 206.582 30.5215C207.161 30.3587 207.822 30.2774 208.564 30.2774C209.15 30.2774 209.684 30.349 210.166 30.4922C210.654 30.6354 211.071 30.8535 211.416 31.1465C211.761 31.4395 212.028 31.8073 212.217 32.25C212.412 32.6927 212.51 33.2103 212.51 33.8027V41H210.488ZM210.488 36.5176C210.293 36.4264 210.117 36.3581 209.961 36.3125C209.805 36.2604 209.642 36.2181 209.473 36.1856C209.303 36.1465 209.098 36.1172 208.857 36.0977C208.623 36.0716 208.366 36.0586 208.086 36.0586C207.422 36.0586 206.894 36.1986 206.504 36.4785C206.12 36.7585 205.928 37.1393 205.928 37.6211C205.928 37.9336 205.983 38.2005 206.094 38.4219C206.204 38.6367 206.344 38.8125 206.514 38.9492C206.683 39.0859 206.881 39.1901 207.109 39.2617C207.344 39.3268 207.624 39.3594 207.949 39.3594C208.223 39.3594 208.486 39.3203 208.74 39.2422C208.994 39.1641 209.232 39.0632 209.453 38.9395C209.674 38.8092 209.873 38.666 210.049 38.5098C210.225 38.347 210.371 38.1842 210.488 38.0215V36.5176ZM218.808 44.7012H216.631L218.154 40.8047L214.297 30.502H216.553L219.189 38.4121L221.914 30.502H224.092L218.808 44.7012ZM238.486 41V35.0625C238.486 34.5352 238.444 34.0892 238.359 33.7246C238.275 33.3535 238.148 33.054 237.978 32.8262C237.816 32.5983 237.607 32.4356 237.353 32.3379C237.099 32.2337 236.803 32.1816 236.465 32.1816C236.1 32.1816 235.791 32.2435 235.537 32.3672C235.283 32.4909 235.075 32.6732 234.912 32.9141C234.749 33.155 234.629 33.4447 234.551 33.7832C234.479 34.1218 234.443 34.4798 234.443 34.8574V41H232.383V35.0625C232.383 34.5352 232.34 34.0892 232.256 33.7246C232.178 33.3535 232.054 33.054 231.885 32.8262C231.715 32.5983 231.504 32.4356 231.25 32.3379C230.996 32.2337 230.7 32.1816 230.361 32.1816C230.023 32.1816 229.72 32.2435 229.453 32.3672C229.193 32.4844 228.981 32.6634 228.818 32.9043C228.662 33.1452 228.545 33.4251 228.467 33.7441C228.389 34.0566 228.349 34.4277 228.349 34.8574V41H226.289V30.502H228.349V31.4981C228.61 31.1139 228.955 30.8145 229.385 30.5996C229.814 30.3848 230.303 30.2774 230.849 30.2774C231.559 30.2774 232.145 30.4108 232.607 30.6777C233.07 30.9382 233.444 31.319 233.73 31.8203C233.919 31.5859 234.114 31.3744 234.316 31.1856C234.525 30.9968 234.752 30.834 235 30.6973C235.254 30.5606 235.537 30.4564 235.849 30.3848C236.168 30.3132 236.533 30.2774 236.943 30.2774C237.51 30.2774 238.011 30.3652 238.447 30.541C238.883 30.7103 239.261 30.9902 239.58 31.3809C239.905 31.765 240.146 32.2663 240.303 32.8848C240.465 33.4968 240.547 34.1966 240.547 34.9844V41H238.486ZM252.031 35.541C252.031 35.7298 252.025 35.9056 252.012 36.0684C251.999 36.2311 251.986 36.3678 251.973 36.4785H245.029C245.088 36.9863 245.198 37.4225 245.361 37.7871C245.524 38.1452 245.723 38.4414 245.957 38.6758C246.191 38.9102 246.455 39.0827 246.748 39.1934C247.047 39.304 247.357 39.3594 247.676 39.3594C247.904 39.3594 248.118 39.3398 248.32 39.3008C248.522 39.2617 248.714 39.2031 248.896 39.125C249.085 39.0469 249.251 38.9688 249.394 38.8906C249.538 38.806 249.723 38.6823 249.951 38.5195L251.172 39.8379C250.911 40.0853 250.661 40.2871 250.42 40.4434C250.185 40.5931 249.928 40.7298 249.648 40.8535C249.375 40.9707 249.062 41.0618 248.711 41.127C248.359 41.1921 247.972 41.2246 247.549 41.2246C247.093 41.2246 246.667 41.1595 246.269 41.0293C245.872 40.9056 245.521 40.7428 245.215 40.541C244.909 40.3327 244.632 40.0983 244.385 39.8379C244.144 39.571 243.913 39.2324 243.691 38.8223C243.47 38.4056 243.301 37.9434 243.183 37.4356C243.066 36.9212 243.008 36.3613 243.008 35.7559C243.008 34.8704 243.118 34.0859 243.34 33.4024C243.568 32.7188 243.883 32.1458 244.287 31.6836C244.691 31.2214 245.176 30.8731 245.742 30.6387C246.308 30.3978 246.93 30.2774 247.607 30.2774C248.356 30.2774 249.007 30.4206 249.56 30.707C250.114 30.987 250.573 31.3678 250.937 31.8496C251.302 32.3249 251.575 32.8815 251.758 33.5195C251.94 34.1576 252.031 34.8314 252.031 35.541ZM249.951 34.7793C249.925 34.4212 249.86 34.0827 249.756 33.7637C249.658 33.4447 249.508 33.1647 249.306 32.9238C249.111 32.683 248.861 32.4941 248.555 32.3574C248.255 32.2142 247.894 32.1426 247.471 32.1426C247.106 32.1426 246.787 32.2044 246.514 32.3281C246.24 32.4453 246.006 32.6146 245.81 32.8359C245.615 33.0573 245.452 33.3307 245.322 33.6563C245.198 33.9753 245.114 34.3496 245.068 34.7793H249.951ZM260.986 41V35.0625C260.986 34.112 260.817 33.3958 260.478 32.9141C260.14 32.4258 259.59 32.1816 258.828 32.1816C258.496 32.1816 258.19 32.2402 257.91 32.3574C257.63 32.4746 257.396 32.6569 257.207 32.9043C257.018 33.1517 256.881 33.4447 256.797 33.7832C256.712 34.1152 256.67 34.4733 256.67 34.8574V41H254.609V30.502H256.67V31.4981C256.8 31.3093 256.959 31.14 257.148 30.9902C257.337 30.834 257.545 30.7038 257.773 30.5996C258.001 30.4955 258.245 30.4173 258.506 30.3652C258.766 30.3067 259.033 30.2774 259.306 30.2774C259.938 30.2774 260.485 30.3815 260.947 30.5899C261.416 30.7917 261.803 31.0846 262.109 31.4688C262.422 31.8529 262.656 32.3379 262.812 32.9238C262.969 33.5098 263.047 34.1966 263.047 34.9844V41H260.986ZM270.937 40.7363C270.683 40.8796 270.384 40.9967 270.039 41.0879C269.7 41.179 269.326 41.2246 268.916 41.2246C268.558 41.2246 268.242 41.1725 267.969 41.0684C267.702 40.9707 267.458 40.8145 267.236 40.5996C267.015 40.3783 266.846 40.0918 266.728 39.7402C266.611 39.3822 266.553 38.9492 266.553 38.4414V32.377H265.058V30.502H266.553V27.5039L268.574 26.4199V30.502H271.172V32.377H268.574V38.0801C268.574 38.3275 268.594 38.5326 268.633 38.6953C268.678 38.8516 268.743 38.9785 268.828 39.0762C268.919 39.1738 269.033 39.2422 269.17 39.2813C269.306 39.3203 269.469 39.3398 269.658 39.3398C269.925 39.3398 270.195 39.2975 270.469 39.2129C270.749 39.1283 270.983 39.0306 271.172 38.9199L270.937 40.7363ZM280.762 31.4395L279.863 33.0215C279.433 32.7155 278.997 32.4909 278.555 32.3477C278.118 32.1979 277.65 32.1231 277.148 32.1231C276.64 32.1231 276.273 32.2142 276.045 32.3965C275.817 32.5723 275.703 32.8001 275.703 33.0801C275.703 33.2103 275.729 33.334 275.781 33.4512C275.84 33.5684 275.941 33.6856 276.084 33.8027C276.227 33.9199 276.422 34.0436 276.67 34.1738C276.924 34.304 277.249 34.4473 277.646 34.6035C278.232 34.8314 278.743 35.0495 279.18 35.2578C279.622 35.4662 279.99 35.7005 280.283 35.9609C280.583 36.2148 280.807 36.5143 280.957 36.8594C281.107 37.2044 281.181 37.6244 281.181 38.1191C281.181 38.6986 281.071 39.1869 280.849 39.584C280.635 39.9811 280.345 40.3034 279.98 40.5508C279.622 40.7917 279.206 40.9642 278.73 41.0684C278.255 41.1725 277.76 41.2246 277.246 41.2246C276.582 41.2246 275.882 41.1042 275.146 40.8633C274.417 40.6159 273.776 40.2871 273.222 39.877L274.16 38.3242C274.655 38.6628 275.166 38.9199 275.693 39.0957C276.221 39.2715 276.732 39.3594 277.226 39.3594C277.877 39.3594 278.359 39.2585 278.672 39.0566C278.984 38.8548 279.14 38.5684 279.14 38.1973C279.14 37.9954 279.085 37.8197 278.974 37.6699C278.864 37.5137 278.701 37.3704 278.486 37.2402C278.278 37.1035 278.024 36.9733 277.724 36.8496C277.425 36.7194 277.086 36.5827 276.709 36.4395C276.142 36.2181 275.661 36 275.264 35.7852C274.873 35.5703 274.554 35.3359 274.306 35.082C274.066 34.8281 273.89 34.5449 273.779 34.2324C273.675 33.9199 273.623 33.5553 273.623 33.1387C273.623 32.6699 273.711 32.2565 273.887 31.8984C274.062 31.5404 274.31 31.2441 274.629 31.0098C274.948 30.7689 275.325 30.5866 275.762 30.4629C276.198 30.3392 276.68 30.2774 277.207 30.2774C277.871 30.2774 278.512 30.3848 279.131 30.5996C279.749 30.8145 280.293 31.0944 280.762 31.4395Z" fill="#FFE600"/>
<path d="M67.2827 65.8796C49.0667 65.8796 34.2969 51.1304 34.2969 32.9398C34.2969 14.7492 49.0667 0 67.2827 0V0.737458C49.559 0.737458 35.0354 15.2408 35.0354 32.9398C35.0354 50.6388 49.559 65.1421 67.2827 65.1421V65.8796Z" fill="url(#paint1_linear_5190_9405)"/>
<path d="M40.946 32.6937C40.946 17.9445 52.7618 6.14519 67.5316 6.14519C82.3014 6.14519 94.1172 18.1903 94.1172 32.6937C94.1172 47.197 82.3014 59.2422 67.5316 59.2422C52.7618 59.2422 40.946 47.197 40.946 32.6937Z" fill="url(#paint2_linear_5190_9405)"/>
<g clip-path="url(#clip0_5190_9405)">
<path d="M73.1984 49.8081C74.2984 49.8081 75.1884 48.9181 75.2284 47.8281H51.6484C51.6884 48.9281 52.5784 49.8081 53.6784 49.8081H73.2084H73.1984Z" fill="white"/>
<path d="M82.4 29.8037C80.63 28.8437 77.05 28.8438 75.89 31.8738C75.89 31.8438 75.89 31.8038 75.89 31.7638V29.1938C75.89 28.8638 75.62 28.5938 75.29 28.5938H51.6C51.27 28.5938 51 28.8638 51 29.1938V31.7638C51 36.6637 51.77 42.3638 56.97 46.3838C57.45 46.7538 58.04 46.9338 58.64 46.9338H68.24C68.84 46.9338 69.44 46.7538 69.91 46.3838C71.31 45.2938 72.39 44.0837 73.22 42.8037C76.38 41.9037 82.38 40.6038 84.43 36.5238C86.07 33.2538 84.1 30.7237 82.4 29.8037ZM82.22 35.9637C80.5 38.4737 76.68 39.5937 74.58 40.1337C75.2 38.5337 75.54 36.8837 75.71 35.2437L75.74 35.2638C76.27 35.4437 76.89 34.8938 77.09 34.2038C77.8 31.7338 79.61 31.0038 81.32 31.7938C82.61 32.3838 83.42 34.2037 82.21 35.9637H82.22Z" fill="#1A1A24"/>
<path d="M66.0731 19.3799C65.9231 19.5699 65.7431 19.7499 65.5331 19.9499C65.3131 20.1499 65.0931 20.3599 64.9031 20.6099C63.2231 22.8399 64.8131 25.7199 64.8231 25.7299C64.8631 25.8299 64.9631 25.8899 65.0631 25.8899C65.0831 25.8899 65.1131 25.8899 65.1331 25.8899C65.2631 25.8499 65.3431 25.7299 65.3131 25.5799C65.3131 25.5499 64.3831 22.5299 66.2931 20.7799C66.4831 20.6099 66.7231 20.3799 66.9331 20.0999C67.1431 19.8399 67.3231 19.5599 67.4631 19.2699C67.6231 18.9499 67.7331 18.6199 67.7931 18.2899C68.0531 16.6999 67.0431 15.0299 67.0131 14.9699C66.9631 14.8499 66.8331 14.7899 66.7031 14.8199C66.5731 14.8599 66.4931 14.9799 66.5231 15.1299C66.5231 15.1499 67.1931 17.2399 66.4631 18.7599C66.3631 18.9699 66.2331 19.1699 66.0631 19.3799H66.0731Z" fill="#1A1A24"/>
<path d="M62.2117 17.6478C62.0217 17.9678 61.7717 18.2578 61.5217 18.5578C61.2417 18.8778 60.9617 19.2278 60.7217 19.6178C60.4717 20.0178 60.2717 20.4278 60.1317 20.8578C59.9817 21.2878 59.9017 21.7578 59.8917 22.2478C59.8717 23.0978 60.1217 23.9678 60.6117 24.7678C60.6917 24.8978 60.7717 25.0278 60.8517 25.1478L61.2717 25.7678C61.3217 25.8378 61.4017 25.8778 61.4817 25.8778C61.5217 25.8778 61.5617 25.8778 61.6017 25.8478C61.7217 25.7878 61.7717 25.6578 61.7317 25.5378L61.4917 24.8278C61.4717 24.7778 61.4517 24.7178 61.4317 24.6478C61.2017 24.0278 60.7417 22.7478 61.2217 21.2178C61.3317 20.8778 61.4917 20.5478 61.7017 20.2178C61.8917 19.8978 62.1417 19.6078 62.3917 19.3078C62.6717 18.9878 62.9517 18.6378 63.1917 18.2478C63.4417 17.8478 63.6417 17.4378 63.7817 17.0078C63.9317 16.5778 64.0117 16.1078 64.0217 15.6178C64.0417 14.7678 63.7917 13.8978 63.3017 13.0978C63.2217 12.9678 63.1417 12.8378 63.0617 12.7178L62.6417 12.0978C62.5717 11.9878 62.4317 11.9578 62.3117 12.0078C62.1917 12.0678 62.1417 12.1978 62.1817 12.3178L62.4517 13.1278C62.6417 13.6878 63.1517 15.1778 62.6817 16.6378C62.5717 16.9778 62.4117 17.3078 62.2017 17.6378L62.2117 17.6478Z" fill="#1A1A24"/>
</g>
<g opacity="0.35">
<path d="M13.6956 45.6655C8.36304 45.6655 4 41.2408 4 35.8328H4.24239C4.24239 30.4247 8.60543 26 13.938 26C19.2706 26 23.6337 30.4247 23.6337 35.8328C23.6337 41.2408 19.2706 45.6655 13.938 45.6655H13.6956Z" fill="url(#paint3_linear_5190_9405)"/>
</g>
<g opacity="0.35">
<path d="M10.9403 49.2051C8.55333 48.3964 6.16635 47.1832 4.17721 45.5656C2.58589 43.948 1.3924 41.5216 0.596744 39.4996C-0.198915 37.0733 -0.198915 34.6469 0.596744 32.2205C0.994573 30.1985 1.79023 28.581 2.98372 26.9634L5.76852 29.3897C5.76852 29.3897 4.17721 31.8161 3.77938 33.4337C2.98372 37.0733 3.77938 40.7128 6.56418 43.5436C7.75767 44.7568 9.74681 45.97 11.3381 46.3744C16.9077 47.5876 22.8752 44.3524 24.0687 38.2865C24.8643 35.4557 24.0687 32.6249 22.8752 30.1985L26.0578 28.1766C28.047 31.4117 28.4448 35.4557 27.6491 39.0953C26.8535 42.7348 24.4665 45.97 21.2839 47.9919C18.1012 50.0139 14.1229 50.4183 10.5425 49.6095L10.9403 49.2051Z" fill="url(#paint4_linear_5190_9405)"/>
<path d="M7.74635 26.9648L5.35938 24.1341C5.35938 24.1341 8.93984 21.7077 10.929 21.3033C12.9181 20.8989 15.3051 20.8989 17.2943 21.3033L16.4986 24.9428C13.316 24.1341 10.1333 24.9429 7.34852 26.9648H7.74635Z" fill="url(#paint5_linear_5190_9405)"/>
</g>
<defs>
<linearGradient id="paint0_linear_5190_9405" x1="67.1757" y1="33.236" x2="277.891" y2="33.236" gradientUnits="userSpaceOnUse">
<stop stop-color="#1A1A24"/>
<stop offset="1" stop-color="#1A1A24"/>
</linearGradient>
<linearGradient id="paint1_linear_5190_9405" x1="34.2969" y1="32.694" x2="67.2827" y2="32.694" gradientUnits="userSpaceOnUse">
<stop stop-color="#FFE600"/>
<stop offset="1" stop-color="#FFE600"/>
</linearGradient>
<linearGradient id="paint2_linear_5190_9405" x1="94.3634" y1="32.6937" x2="40.946" y2="32.6937" gradientUnits="userSpaceOnUse">
<stop stop-color="#FFE600"/>
<stop offset="1" stop-color="#FFE600"/>
</linearGradient>
<linearGradient id="paint3_linear_5190_9405" x1="4.24239" y1="35.8328" x2="23.3913" y2="35.8328" gradientUnits="userSpaceOnUse">
<stop stop-color="#FFE600"/>
<stop offset="1" stop-color="#FFE600"/>
</linearGradient>
<linearGradient id="paint4_linear_5190_9405" x1="0.198915" y1="37.8821" x2="28.4448" y2="37.8821" gradientUnits="userSpaceOnUse">
<stop stop-color="#FFE600"/>
<stop offset="1" stop-color="#FFE600"/>
</linearGradient>
<linearGradient id="paint5_linear_5190_9405" x1="5.35938" y1="23.7297" x2="17.6921" y2="23.7297" gradientUnits="userSpaceOnUse">
<stop stop-color="#FFE600"/>
<stop offset="1" stop-color="#FFE600"/>
</linearGradient>
<clipPath id="clip0_5190_9405">
<rect width="34.04" height="37.81" fill="white" transform="translate(51 12)"/>
</clipPath>
</defs>
</svg>
