<svg width="42" height="41" viewBox="0 0 42 41" fill="none" xmlns="http://www.w3.org/2000/svg">
<path d="M28.6538 25.4389C28.0626 25.5076 12.567 25.5049 12.0486 25.4393C12.0793 25.2715 12.1076 25.1045 12.141 24.9386C12.4801 23.2537 12.0211 21.8175 10.7167 20.7138C8.30147 18.6703 4.53625 19.8814 3.83135 23.1257C3.74953 23.5028 3.77943 23.9044 3.75701 24.295C3.75268 24.3708 3.74403 24.4466 3.73773 24.5181C3.52925 24.6239 3.33887 24.5477 3.15281 24.5169C2.80665 24.4592 2.46561 24.3597 2.11749 24.3262C1.2289 24.2409 0.473651 23.337 0.424875 22.4825C0.391439 21.8964 0.391046 21.3065 0.416221 20.7197C0.425661 20.4954 0.522427 20.2636 0.622733 20.0567C0.754902 19.7846 0.821772 19.5074 0.820199 19.2085C0.818232 18.8361 0.819019 18.4637 0.820985 18.0914C0.821772 17.9346 0.819412 17.777 0.834359 17.6214C0.88943 17.0477 1.1931 16.6773 1.7556 16.5541C2.34564 16.4246 2.94197 16.3195 3.53869 16.224C4.37379 16.0905 5.16916 15.8374 5.93345 15.4792C7.22367 14.875 8.51388 14.2709 9.80449 13.6671C11.5341 12.8584 13.3479 12.334 15.2415 12.1196C18.9382 11.7006 22.4301 12.381 25.6894 14.1903C26.9867 14.9106 28.2648 15.666 29.5447 16.4178C29.8582 16.6019 30.1714 16.6761 30.538 16.6808C31.3373 16.6915 32.137 16.746 32.9339 16.8104C34.1793 16.9111 35.4168 17.0749 36.6287 17.3932C37.5205 17.6274 38.376 17.9492 39.1517 18.4602C39.6607 18.7954 40.0195 19.2409 40.1725 19.8419C40.2661 20.2099 40.2677 20.5827 40.1921 20.9491C39.9896 21.9308 39.6226 22.8608 39.2733 23.795C39.1497 24.1256 38.9043 24.3546 38.5652 24.4466C38.0594 24.5836 37.5468 24.6954 36.9882 24.8296C36.9737 24.6539 36.9477 24.5272 36.956 24.4024C36.9981 23.769 36.9359 23.151 36.7219 22.5504C36.1272 20.878 34.4487 19.5508 32.3191 19.7337C30.7063 19.8723 29.02 21.0088 28.5511 23.0819C28.4072 23.7192 28.4225 24.3656 28.5767 25.0054C28.6082 25.1357 28.6239 25.2695 28.653 25.4382L28.6538 25.4389Z" fill="white"/>
<path d="M32.6923 26.9949C31.2801 27.0415 29.7106 25.8849 29.7031 23.9646C29.6961 22.1746 31.2195 20.9769 32.6769 20.9611C34.2559 20.9437 35.7196 22.2492 35.7247 24.0045C35.729 25.5149 34.4714 27.0285 32.6927 26.9949H32.6923Z" fill="white"/>
<path d="M8.02659 26.9409C6.47676 26.9899 5.04612 25.7262 5.04297 23.9662C5.03983 22.2848 6.47558 21.0382 7.96247 21.0236C9.5304 21.0082 10.9488 22.3144 10.9473 24.0113C10.9457 25.5754 9.63621 26.9666 8.02659 26.9413V26.9409Z" fill="white"/>
<path d="M20.2804 21.3782C19.5098 22.2706 18.7451 23.1682 17.9867 24.0713C17.9211 24.1495 17.8577 24.23 17.7956 24.3114C17.7023 24.4342 17.5092 24.3303 17.5592 24.1842C17.9179 23.1342 18.6448 21.2096 19.1692 19.9815H16.3472C16.232 19.9815 16.1686 19.8464 16.243 19.7576C16.9691 18.8885 19.6817 15.7286 20.7635 14.5151C20.863 14.4034 21.0427 14.5112 20.9928 14.6522L19.675 18.3534C20.0621 18.3534 20.3744 18.3455 20.686 18.355C21.2536 18.3727 21.8212 18.3976 22.3888 18.4209C22.4974 18.4253 22.5576 18.5496 22.493 18.6377C22.0954 19.1803 20.92 20.6378 20.2808 21.3786L20.2804 21.3782Z" fill="url(#paint0_linear_2524_54242)"/>
<defs>
<linearGradient id="paint0_linear_2524_54242" x1="9.68984" y1="19.4172" x2="30.606" y2="19.4172" gradientUnits="userSpaceOnUse">
<stop stop-color="#00A4D4"/>
<stop offset="1" stop-color="#00FFFF"/>
</linearGradient>
</defs>
</svg>
