<svg width="153" height="130" viewBox="0 0 153 130" fill="none" xmlns="http://www.w3.org/2000/svg">
<g opacity="0.2">
<path d="M16.1875 51.0104H136.759C136.534 49.6715 136.266 48.3466 135.955 47.0388H16.991C16.6803 48.3466 16.4125 49.6715 16.1875 51.0104Z" fill="url(#paint0_linear_2304_72996)"/>
<path d="M76.4734 122.254C83.8778 122.254 90.9729 120.939 97.5419 118.531H55.4062C61.9738 120.939 69.0699 122.254 76.4734 122.254Z" fill="url(#paint1_linear_2304_72996)"/>
<path d="M15.3828 58.956H137.563C137.515 57.6207 137.428 56.2953 137.296 54.9844H15.6497C15.5181 56.2958 15.4315 57.6207 15.3828 58.956Z" fill="url(#paint2_linear_2304_72996)"/>
<path d="M18.0786 43.0654H134.874C134.456 41.7206 133.991 40.398 133.485 39.0938H19.4673C18.9614 40.398 18.4961 41.7206 18.0781 43.0654H18.0786Z" fill="url(#paint3_linear_2304_72996)"/>
<path d="M21.1801 35.1279H131.776C131.138 33.7764 130.45 32.451 129.715 31.1562H23.242C22.5075 32.4514 21.8208 33.7764 21.1797 35.1279H21.1801Z" fill="url(#paint4_linear_2304_72996)"/>
<path d="M22.9599 90.7294H129.989C130.708 89.4333 131.38 88.1093 132.004 86.7578H20.9453C21.5698 88.1093 22.2421 89.4333 22.9603 90.7294H22.9599Z" fill="url(#paint5_linear_2304_72996)"/>
<path d="M46.7568 114.549H106.202C108.358 113.35 110.434 112.022 112.42 110.578H40.5391C42.5252 112.022 44.5997 113.35 46.7568 114.549Z" fill="url(#paint6_linear_2304_72996)"/>
<path d="M15.6084 66.8935H137.342C137.464 65.5812 137.548 64.2572 137.585 62.9219H15.3672C15.4042 64.2572 15.4876 65.5812 15.6084 66.8935Z" fill="url(#paint7_linear_2304_72996)"/>
<path d="M19.2783 82.7855H133.672C134.166 81.4813 134.615 80.1572 135.021 78.8125H17.9297C18.3337 80.1572 18.7841 81.4813 19.2783 82.7855Z" fill="url(#paint8_linear_2304_72996)"/>
<path d="M28.2136 98.6747H124.74C125.741 97.3899 126.69 96.065 127.587 94.7031H25.3672C26.2644 96.065 27.2136 97.3903 28.2132 98.6747H28.2136Z" fill="url(#paint9_linear_2304_72996)"/>
<path d="M16.8772 74.8388H136.077C136.376 73.5301 136.631 72.2061 136.845 70.8672H16.1094C16.3231 72.2061 16.5783 73.5301 16.8772 74.8388Z" fill="url(#paint10_linear_2304_72996)"/>
<path d="M35.626 106.612H117.33C118.736 105.351 120.079 104.025 121.362 102.641H31.5938C32.8752 104.026 34.2206 105.351 35.626 106.612Z" fill="url(#paint11_linear_2304_72996)"/>
<path d="M76.4733 0.125C69.5951 0.125 62.9829 1.25987 56.8125 3.35173H96.1341C89.9638 1.25987 83.3511 0.125 76.4733 0.125Z" fill="url(#paint12_linear_2304_72996)"/>
<path d="M41.2266 11.2997H111.731C109.676 9.84781 107.526 8.52154 105.294 7.32812H47.6638C45.432 8.52154 43.2821 9.84781 41.227 11.2997H41.2266Z" fill="url(#paint13_linear_2304_72996)"/>
<path d="M25.6953 27.1825H127.261C126.343 25.8184 125.371 24.4944 124.349 23.2109H28.6071C27.5854 24.4944 26.6133 25.8184 25.6953 27.1825Z" fill="url(#paint14_linear_2304_72996)"/>
<path d="M32.0547 19.2363H120.898C119.584 17.8502 118.205 16.5252 116.768 15.2656H36.1834C34.746 16.5248 33.3672 17.8502 32.0547 19.2363Z" fill="url(#paint15_linear_2304_72996)"/>
</g>
<path d="M115.063 8.04688C119.763 10.712 124.104 14.0666 127.979 17.9198C131.653 21.9572 134.848 26.4331 137.436 31.2397C142.635 40.8438 145.362 51.7534 145.361 62.668C145.362 73.5812 142.635 84.4917 137.436 94.0963C134.846 98.9006 131.658 103.383 127.975 107.413C124.073 111.236 119.758 114.614 115.062 117.288C119.353 114.014 123.288 110.333 126.654 106.206C130.239 102.285 133.341 97.9233 135.861 93.2483C140.919 83.9022 143.572 73.2925 143.572 62.668C143.572 52.0434 140.919 41.4333 135.861 32.0877C133.338 27.4149 130.245 23.0461 126.649 19.1344C123.257 15.0344 119.35 11.3303 115.063 8.04733V8.04688Z" fill="url(#paint16_linear_2304_72996)"/>
<path d="M121.168 17.1411C124.421 19.9021 127.354 23.0559 129.96 26.4686C132.447 29.9665 134.577 33.7179 136.298 37.6503C139.748 45.5106 141.521 54.0933 141.523 62.6733C141.521 71.2546 139.746 79.836 136.296 87.6972C134.576 91.6274 132.447 95.3801 129.956 98.8766C127.346 102.286 124.415 105.439 121.164 108.205C124.167 105.176 126.896 101.894 129.228 98.3587C131.683 94.9127 133.781 91.2131 135.477 87.3383C138.878 79.5896 140.626 71.1339 140.629 62.6728C140.626 54.2126 138.878 45.7561 135.478 38.0074C133.782 34.1326 131.685 30.433 129.229 26.9883C126.891 23.4558 124.166 20.1751 121.168 17.1406V17.1411Z" fill="url(#paint17_linear_2304_72996)"/>
<path d="M129.978 113.514C130.676 112.88 131.382 112.263 132.072 111.619C131.955 110.816 131.831 110.021 131.687 109.234L132.679 108.252C133.011 107.921 133.314 107.563 133.637 107.224C134.424 107.331 135.22 107.438 136.034 107.527C136.293 107.25 136.543 106.964 136.785 106.67L134.728 104.892C134.728 104.883 134.737 104.875 134.746 104.875L136.812 106.644C138.332 104.847 139.791 102.998 141.114 101.05C140.837 100.29 140.551 99.5407 140.264 98.8071C140.532 98.4229 140.775 98.0311 141.016 97.6285L141.749 96.4396C142.26 95.6542 142.678 94.8238 143.136 94.0095C143.931 93.9298 144.746 93.8308 145.542 93.7155C146.043 92.6788 146.57 91.6511 147.045 90.6063L147.733 89.0161C147.957 88.4892 148.198 87.9618 148.386 87.4165C147.939 86.7383 147.492 86.0762 147.035 85.425C147.197 84.9869 147.367 84.5577 147.518 84.1114L147.939 82.7806C148.708 82.5478 149.477 82.2974 150.246 82.0389C150.532 81.0378 150.792 80.029 151.06 79.0279C150.55 78.4199 149.995 77.8124 149.45 77.2229L149.745 75.8561L149.897 75.177L150.014 74.4897C150.73 74.1497 151.454 73.8012 152.179 73.4436C152.251 72.9802 152.34 72.5154 152.392 72.0507L152.554 70.6483C151.955 70.1029 151.356 69.585 150.757 69.0671C150.837 68.1376 150.881 67.2081 150.945 66.2786L151.972 65.6364L152.965 64.9663L152.983 63.8314L149.54 63.7864V63.7598L152.983 63.7954C152.983 63.2059 153.01 62.6155 152.992 62.0264L152.93 60.2665C152.903 59.0866 152.786 57.9256 152.688 56.7466C151.981 56.344 151.31 55.9508 150.596 55.5761L150.21 52.806C150.068 51.8855 149.871 50.9745 149.701 50.0544C150.255 49.4834 150.828 48.8849 151.346 48.2855L150.935 46.6156C150.792 46.0527 150.675 45.4902 150.496 44.9444L150.004 43.2826C149.835 42.7291 149.683 42.1743 149.477 41.6393C148.699 41.4064 147.93 41.1835 147.161 40.9786C146.999 40.5404 146.856 40.0941 146.686 39.665L146.159 38.3698C146.589 37.6996 147.018 37.0111 147.438 36.3238C147.027 35.3678 146.561 34.4382 146.132 33.4916C145.345 33.3484 144.54 33.2412 143.743 33.1435C143.297 32.3212 142.885 31.4817 142.402 30.686C142.742 29.9627 143.073 29.2385 143.396 28.4973L142.671 27.2827L141.884 26.1122C141.079 26.0857 140.274 26.0672 139.487 26.0582C138.959 25.2904 138.386 24.5576 137.832 23.7988C138.091 23.0386 138.332 22.2613 138.547 21.5025L137.822 20.618L135.989 22.1186L135.962 22.092L137.796 20.5824C137.419 20.1348 137.061 19.6619 136.669 19.2332L135.488 17.9195C134.719 17.0256 133.86 16.2141 133.036 15.3733C132.25 15.507 131.472 15.6503 130.675 15.8299C130.56 15.7228 130.443 15.6142 130.318 15.507C129.084 14.2384 127.796 13.0243 126.471 11.8534L124.494 10.1916C123.735 9.56653 122.973 8.95902 122.188 8.36951C118.975 6.18984 115.587 4.27767 112.062 2.6875V3.67916C115.255 5.47469 118.287 7.52061 121.114 9.81648C122.276 10.6838 123.395 11.5949 124.494 12.5231V12.5321C124.593 12.6127 124.692 12.6924 124.79 12.764C128.77 16.1866 132.366 20.0722 135.416 24.3424C135.926 25.0215 136.418 25.7182 136.865 26.4414C137.331 27.1656 137.804 27.8713 138.252 28.5959C139.093 30.078 139.978 31.5344 140.721 33.0714C141.526 34.572 142.17 36.1541 142.858 37.7073L143.771 40.1013C144.092 40.8876 144.352 41.701 144.603 42.5138C146.723 48.9997 147.716 55.8256 147.778 62.633C147.725 69.4499 146.749 76.2749 144.63 82.7604C144.156 84.3956 143.493 85.9677 142.903 87.5669C142.205 89.1215 141.571 90.7117 140.766 92.2122C139.254 95.2683 137.455 98.1802 135.479 100.949C131.516 106.507 126.652 111.404 121.203 115.503C118.35 117.827 115.291 119.899 112.063 121.704V122.677C115.613 121.069 119.03 119.139 122.269 116.933C123.028 116.369 124.728 115.253 125.461 114.663C126.213 114.11 126.92 113.493 127.644 112.913C128.422 113.126 129.209 113.342 129.978 113.511V113.514Z" fill="url(#paint18_linear_2304_72996)"/>
<path d="M37.9309 116.318C33.2304 113.654 28.8902 110.299 25.0144 106.447C21.3406 102.409 18.1456 97.9332 15.558 93.1262C10.3598 83.5221 7.63146 72.6125 7.63281 61.6979C7.63146 50.7837 10.3598 39.8741 15.558 30.2696C18.1488 25.4653 21.3356 20.9826 25.0189 16.9533C28.9213 13.1303 33.2354 9.75138 37.9309 7.07812C33.6403 10.3521 29.7054 14.0324 26.3396 18.1598C22.7546 22.0809 19.6529 26.4425 17.1325 31.1176C12.074 40.4636 9.42102 51.0733 9.42102 61.6979C9.42102 72.3224 12.0745 82.9326 17.1325 92.2782C19.6552 96.951 22.7496 101.32 26.3441 105.231C29.7365 109.331 33.6448 113.036 37.9304 116.318L37.9309 116.318Z" fill="url(#paint19_linear_2304_72996)"/>
<path d="M31.834 107.236C28.5791 104.475 25.6461 101.321 23.0404 97.9088C20.5533 94.41 18.4229 90.6582 16.7037 86.7271C13.2526 78.8654 11.4788 70.2854 11.4766 61.7041C11.4788 53.1228 13.2535 44.5414 16.7037 36.6802C18.4251 32.7487 20.5542 28.9959 23.0436 25.4994C25.6542 22.0917 28.5845 18.9374 31.8358 16.1719C28.8325 19.2014 26.1042 22.4826 23.7717 26.0182C21.3171 29.4643 19.2192 33.1639 17.5229 37.0387C14.1224 44.786 12.3734 53.243 12.3711 61.7041C12.3734 70.1643 14.1215 78.6209 17.522 86.3695C19.2182 90.2434 21.3149 93.9439 23.7722 97.3886C26.1091 100.921 28.8338 104.202 31.834 107.236Z" fill="url(#paint20_linear_2304_72996)"/>
<path d="M23.021 10.8594C22.3235 11.4935 21.617 12.1105 20.9276 12.754C21.0444 13.5579 21.1688 14.3523 21.3122 15.139L20.3202 16.1217C19.9888 16.4527 19.6854 16.8103 19.363 17.1494C18.5758 17.0422 17.78 16.935 16.9648 16.8463C16.7059 17.1233 16.4557 17.4092 16.214 17.7033L18.2714 19.4817C18.2714 19.4907 18.2624 19.4988 18.2529 19.4988L16.1861 17.7308C14.6666 19.5254 13.2084 21.375 11.8842 23.3227C12.1615 24.0816 12.4487 24.8323 12.7341 25.5659C12.4663 25.95 12.2251 26.3432 11.9834 26.7445L11.2489 27.9325C10.7398 28.7188 10.3196 29.5492 9.86332 30.3625C9.06661 30.4431 8.25276 30.5413 7.45695 30.658C6.95602 31.6938 6.42803 32.721 5.9537 33.7671L5.26565 35.3573C5.04156 35.8842 4.80034 36.4116 4.61232 36.9556C5.0605 37.6347 5.50733 38.2967 5.96317 38.9484C5.80266 39.3866 5.63177 39.8144 5.48072 40.262L5.0605 41.5928C4.29039 41.8247 3.52118 42.076 2.75242 42.3345C2.46611 43.3356 2.2064 44.3444 1.93858 45.3455C2.44898 45.9522 3.00311 46.5601 3.54823 47.1492L3.25381 48.5169L3.10141 49.196L2.98463 49.8832C2.26998 50.2232 1.54495 50.5718 0.819931 50.928C0.748241 51.3928 0.659416 51.8575 0.606212 52.3223L0.444345 53.7247C1.04357 54.27 1.64415 54.7879 2.24202 55.3058C2.16221 56.2354 2.11713 57.1649 2.0549 58.093L1.02599 58.7366L0.0331379 59.4067L0.0146517 60.5416L3.45896 60.5866V60.6132L0.0146517 60.5776C0.0146517 61.1671 -0.0119505 61.7575 0.00653575 62.3465L0.0687578 64.1065C0.09536 65.2864 0.212139 66.4474 0.309981 67.6264C1.01652 68.029 1.68743 68.4222 2.40344 68.7969L2.78759 71.5669C2.93097 72.4861 3.12711 73.3971 3.29799 74.3185C2.7425 74.8896 2.17123 75.4881 1.65136 76.0866L2.06257 77.7578C2.20595 78.3208 2.32228 78.8832 2.50128 79.4277L2.99319 81.0895C3.16273 81.6443 3.31558 82.1978 3.52073 82.7342C4.29896 82.9661 5.06771 83.1899 5.83692 83.3948C5.99879 83.833 6.14172 84.2793 6.31125 84.7085L6.83879 86.0037C6.41045 86.6738 5.97985 87.3624 5.55963 88.0496C5.97174 89.0057 6.43705 89.9352 6.86539 90.8818C7.65264 91.025 8.45746 91.1322 9.25418 91.2299C9.701 92.0523 10.1122 92.8917 10.596 93.6875C10.2556 94.4107 9.92509 95.1335 9.60316 95.8753L10.3273 97.0907L11.1145 98.2612C11.9194 98.2878 12.7255 98.3062 13.5114 98.3143C14.039 99.0835 14.6116 99.8158 15.1662 100.576C14.9078 101.335 14.6661 102.112 14.4515 102.871L15.1756 103.755L17.0094 102.255L17.036 102.281L15.2022 103.791C15.5787 104.237 15.9367 104.711 16.329 105.14L17.5103 106.453C18.2795 107.347 19.1385 108.159 19.9618 109C20.7481 108.865 21.5264 108.722 22.3231 108.543C22.4398 108.651 22.5553 108.758 22.6811 108.865C23.9151 110.134 25.2029 111.349 26.5271 112.52L28.5038 114.181C29.2635 114.806 30.0246 115.414 30.8105 116.003C34.0226 118.183 37.4128 120.095 40.9365 121.685V120.694C37.7429 118.898 34.7107 116.852 31.8841 114.556C30.7212 113.69 29.6035 112.779 28.5033 111.849V111.84C28.4041 111.76 28.3072 111.68 28.2076 111.608C24.2276 108.187 20.6322 104.301 17.5816 100.03C17.0712 99.351 16.5792 98.6543 16.1324 97.9302C15.6671 97.2069 15.1937 96.5012 14.746 95.7771C13.9051 94.2941 13.0195 92.8386 12.2774 91.3015C11.4725 89.801 10.8282 88.2189 10.1402 86.6657L9.22803 84.2716C8.90609 83.4853 8.64593 82.672 8.39569 81.8591C6.27563 75.3733 5.28279 68.5474 5.22056 61.7399C5.27377 54.923 6.24903 48.0981 8.36909 41.6113C8.84342 39.977 9.50532 38.4053 10.0951 36.8056C10.7926 35.251 11.4274 33.6609 12.2336 32.1603C13.745 29.1043 15.5427 26.191 17.5193 23.4223C21.4822 17.8659 26.3477 12.9693 31.7952 8.86932C34.6484 6.54689 37.7068 4.4744 40.9365 2.66851V1.69531C37.3849 3.30305 33.9685 5.23323 30.7307 7.43947C29.9696 8.00241 28.2702 9.11972 27.538 9.70922C26.785 10.2627 26.0785 10.8797 25.3548 11.4597C24.5766 11.2453 23.7893 11.0319 23.0201 10.8612L23.021 10.8594Z" fill="url(#paint21_linear_2304_72996)"/>
<path d="M98.8212 72.6211C97.4234 72.7821 60.7777 72.7769 59.5523 72.6224C59.6251 72.2276 59.6921 71.8347 59.7707 71.4445C60.573 67.4797 59.4866 64.1006 56.4025 61.5039C50.6914 56.6957 41.7862 59.5455 40.1194 67.1784C39.9256 68.066 39.9965 69.0108 39.9432 69.9296C39.9328 70.1082 39.9126 70.2861 39.8977 70.4542C39.4049 70.7029 38.955 70.5244 38.5143 70.451C37.6958 70.3153 36.889 70.0809 36.066 70.0023C33.9642 69.8017 32.1784 67.6751 32.0626 65.6635C31.9833 64.2843 31.9827 62.8961 32.0418 61.5163C32.0646 60.9883 32.2928 60.4429 32.5307 59.9559C32.8428 59.315 33.0014 58.6638 32.9981 57.9599C32.9936 57.0839 32.9955 56.2074 33.0001 55.3314C33.002 54.9626 32.9962 54.5918 33.0313 54.2263C33.162 52.8763 33.8797 52.0049 35.2098 51.7147C36.6056 51.4101 38.0156 51.1627 39.427 50.9381C41.4014 50.6238 43.2828 50.0284 45.0901 49.1862C48.1417 47.7641 51.1926 46.3428 54.2448 44.9227C58.3346 43.0195 62.6247 41.7858 67.1026 41.2813C75.8452 40.2956 84.1028 41.8962 91.8111 46.1532C94.8796 47.8479 97.9019 49.6258 100.928 51.3945C101.67 51.8276 102.41 52.0023 103.277 52.0133C105.167 52.038 107.058 52.1666 108.943 52.3179C111.889 52.5542 114.815 52.9406 117.681 53.6893C119.79 54.2399 121.813 54.9977 123.648 56.2002C124.852 56.9891 125.7 58.0378 126.062 59.4514C126.284 60.3176 126.287 61.1942 126.109 62.0565C125.629 64.3662 124.762 66.5537 123.935 68.753C123.643 69.5303 123.063 70.0698 122.261 70.2861C121.065 70.6088 119.853 70.8718 118.532 71.1873C118.499 70.7737 118.437 70.475 118.456 70.1822C118.556 68.692 118.408 67.2375 117.903 65.8245C116.496 61.8896 112.527 58.767 107.491 59.1969C103.677 59.5228 99.6884 62.1974 98.5806 67.0751C98.24 68.5744 98.2764 70.0958 98.6411 71.601C98.7152 71.9074 98.7523 72.223 98.8212 72.6191V72.6211Z" fill="#70CDDD"/>
<path d="M108.363 76.9944C104.689 77.1152 100.606 74.1217 100.586 69.1505C100.567 64.5169 104.531 61.4177 108.323 61.3755C112.43 61.33 116.239 64.7104 116.252 69.2531C116.263 73.1627 112.991 77.0807 108.363 76.9944Z" fill="#70CDDD"/>
<path d="M50.0478 76.9943C45.9366 77.1229 42.1419 73.7886 42.1328 69.1426C42.1244 64.7045 45.9327 61.4143 49.8775 61.3754C54.0369 61.3345 57.7997 64.7824 57.7951 69.2608C57.7912 73.3892 54.3177 77.0612 50.0472 76.9936L50.0478 76.9943Z" fill="#70CDDD"/>
<path d="M79.0223 63.0714C77.2001 65.1713 75.3915 67.2836 73.5978 69.4075C73.4425 69.5919 73.2923 69.7809 73.146 69.9724C72.9256 70.2614 72.4693 70.0166 72.5869 69.6731C73.4353 67.203 75.1542 62.674 76.3939 59.7838H69.7206C69.4476 59.7838 69.2987 59.4657 69.4742 59.2566C71.1912 57.2112 77.6057 49.7764 80.1645 46.9213C80.3999 46.659 80.8251 46.9122 80.7067 47.244L77.5901 55.9528C78.5055 55.9528 79.244 55.934 79.9812 55.9567C81.3237 55.9983 82.6655 56.0567 84.008 56.1112C84.2654 56.1216 84.4071 56.4145 84.2544 56.6216C83.3137 57.8982 80.5345 61.3279 79.0223 63.0707V63.0714Z" fill="white"/>
<defs>
<linearGradient id="paint0_linear_2304_72996" x1="16.1875" y1="49.0244" x2="136.759" y2="49.0244" gradientUnits="userSpaceOnUse">
<stop stop-color="#1172BA"/>
<stop offset="1" stop-color="#70CDDD"/>
</linearGradient>
<linearGradient id="paint1_linear_2304_72996" x1="55.4062" y1="120.393" x2="97.5414" y2="120.393" gradientUnits="userSpaceOnUse">
<stop stop-color="#1172BA"/>
<stop offset="1" stop-color="#70CDDD"/>
</linearGradient>
<linearGradient id="paint2_linear_2304_72996" x1="15.3828" y1="56.97" x2="137.563" y2="56.97" gradientUnits="userSpaceOnUse">
<stop stop-color="#1172BA"/>
<stop offset="1" stop-color="#70CDDD"/>
</linearGradient>
<linearGradient id="paint3_linear_2304_72996" x1="18.0786" y1="41.0798" x2="134.874" y2="41.0798" gradientUnits="userSpaceOnUse">
<stop stop-color="#1172BA"/>
<stop offset="1" stop-color="#70CDDD"/>
</linearGradient>
<linearGradient id="paint4_linear_2304_72996" x1="21.1801" y1="33.1418" x2="131.776" y2="33.1418" gradientUnits="userSpaceOnUse">
<stop stop-color="#1172BA"/>
<stop offset="1" stop-color="#70CDDD"/>
</linearGradient>
<linearGradient id="paint5_linear_2304_72996" x1="20.9453" y1="88.7438" x2="132.004" y2="88.7438" gradientUnits="userSpaceOnUse">
<stop stop-color="#1172BA"/>
<stop offset="1" stop-color="#70CDDD"/>
</linearGradient>
<linearGradient id="paint6_linear_2304_72996" x1="40.5391" y1="112.564" x2="112.42" y2="112.564" gradientUnits="userSpaceOnUse">
<stop stop-color="#1172BA"/>
<stop offset="1" stop-color="#70CDDD"/>
</linearGradient>
<linearGradient id="paint7_linear_2304_72996" x1="15.3672" y1="64.9075" x2="137.585" y2="64.9075" gradientUnits="userSpaceOnUse">
<stop stop-color="#1172BA"/>
<stop offset="1" stop-color="#70CDDD"/>
</linearGradient>
<linearGradient id="paint8_linear_2304_72996" x1="17.9297" y1="80.799" x2="135.021" y2="80.799" gradientUnits="userSpaceOnUse">
<stop stop-color="#1172BA"/>
<stop offset="1" stop-color="#70CDDD"/>
</linearGradient>
<linearGradient id="paint9_linear_2304_72996" x1="25.3672" y1="96.6887" x2="127.587" y2="96.6887" gradientUnits="userSpaceOnUse">
<stop stop-color="#1172BA"/>
<stop offset="1" stop-color="#70CDDD"/>
</linearGradient>
<linearGradient id="paint10_linear_2304_72996" x1="16.1094" y1="72.8532" x2="136.845" y2="72.8532" gradientUnits="userSpaceOnUse">
<stop stop-color="#1172BA"/>
<stop offset="1" stop-color="#70CDDD"/>
</linearGradient>
<linearGradient id="paint11_linear_2304_72996" x1="31.5938" y1="104.626" x2="121.362" y2="104.626" gradientUnits="userSpaceOnUse">
<stop stop-color="#1172BA"/>
<stop offset="1" stop-color="#70CDDD"/>
</linearGradient>
<linearGradient id="paint12_linear_2304_72996" x1="56.8125" y1="1.73814" x2="96.1341" y2="1.73814" gradientUnits="userSpaceOnUse">
<stop stop-color="#1172BA"/>
<stop offset="1" stop-color="#70CDDD"/>
</linearGradient>
<linearGradient id="paint13_linear_2304_72996" x1="41.2266" y1="9.3137" x2="111.73" y2="9.3137" gradientUnits="userSpaceOnUse">
<stop stop-color="#1172BA"/>
<stop offset="1" stop-color="#70CDDD"/>
</linearGradient>
<linearGradient id="paint14_linear_2304_72996" x1="25.6953" y1="25.197" x2="127.262" y2="25.197" gradientUnits="userSpaceOnUse">
<stop stop-color="#1172BA"/>
<stop offset="1" stop-color="#70CDDD"/>
</linearGradient>
<linearGradient id="paint15_linear_2304_72996" x1="32.0547" y1="17.2508" x2="120.898" y2="17.2508" gradientUnits="userSpaceOnUse">
<stop stop-color="#1172BA"/>
<stop offset="1" stop-color="#70CDDD"/>
</linearGradient>
<linearGradient id="paint16_linear_2304_72996" x1="187.192" y1="62.6671" x2="115.625" y2="62.6671" gradientUnits="userSpaceOnUse">
<stop stop-color="#1172BA"/>
<stop offset="1" stop-color="#70CDDD"/>
</linearGradient>
<linearGradient id="paint17_linear_2304_72996" x1="187.2" y1="62.6733" x2="115.63" y2="62.6733" gradientUnits="userSpaceOnUse">
<stop stop-color="#1172BA"/>
<stop offset="1" stop-color="#70CDDD"/>
</linearGradient>
<linearGradient id="paint18_linear_2304_72996" x1="187.196" y1="62.6844" x2="115.628" y2="62.6844" gradientUnits="userSpaceOnUse">
<stop stop-color="#1172BA"/>
<stop offset="1" stop-color="#70CDDD"/>
</linearGradient>
<linearGradient id="paint19_linear_2304_72996" x1="-39.77" y1="61.6983" x2="41.1872" y2="61.6983" gradientUnits="userSpaceOnUse">
<stop stop-color="#1172BA"/>
<stop offset="1" stop-color="#70CDDD"/>
</linearGradient>
<linearGradient id="paint20_linear_2304_72996" x1="-39.7714" y1="61.7041" x2="41.1885" y2="61.7041" gradientUnits="userSpaceOnUse">
<stop stop-color="#1172BA"/>
<stop offset="1" stop-color="#70CDDD"/>
</linearGradient>
<linearGradient id="paint21_linear_2304_72996" x1="-39.7696" y1="61.689" x2="41.1899" y2="61.689" gradientUnits="userSpaceOnUse">
<stop stop-color="#1172BA"/>
<stop offset="1" stop-color="#70CDDD"/>
</linearGradient>
</defs>
</svg>
