<svg width="33" height="32" viewBox="0 0 33 32" fill="none" xmlns="http://www.w3.org/2000/svg">
<g clip-path="url(#clip0_2524_54449)">
<path fill-rule="evenodd" clip-rule="evenodd" d="M12.4984 20.7444H10.9084C10.5684 20.7444 10.2584 20.8844 10.0284 21.1144C9.80844 21.3344 9.66844 21.6544 9.66844 21.9944C9.66844 22.3344 9.80844 22.6444 10.0284 22.8744C10.2584 23.0944 10.5684 23.2344 10.9084 23.2344H29.0584C29.4684 23.2344 29.8184 23.5744 29.8184 23.9944C29.8184 24.4144 29.4784 24.7544 29.0584 24.7544H10.9084C10.1484 24.7544 9.45844 24.4444 8.95844 23.9444C8.45844 23.4444 8.14844 22.7544 8.14844 21.9944C8.14844 21.2344 8.45844 20.5444 8.95844 20.0444C9.13844 19.8644 9.34844 19.7044 9.56844 19.5844V19.2344H12.6884V20.7444H12.4984Z" fill="white"/>
<path fill-rule="evenodd" clip-rule="evenodd" d="M26.0811 25.9531C26.4411 25.9531 26.8011 26.0331 27.1211 26.1631C27.4511 26.3031 27.7511 26.5031 28.0011 26.7531C28.2511 27.0031 28.4511 27.3031 28.5911 27.6331C28.7211 27.9531 28.8011 28.3031 28.8011 28.6731C28.8011 29.0431 28.7311 29.3831 28.5911 29.7131C28.4511 30.0431 28.2511 30.3431 28.0011 30.5931C27.7511 30.8431 27.4511 31.0531 27.1211 31.1831C26.8011 31.3131 26.4511 31.3831 26.0811 31.3831C25.7111 31.3831 25.3711 31.3131 25.0411 31.1831C24.7111 31.0431 24.4111 30.8431 24.1611 30.5931C23.9111 30.3431 23.7011 30.0431 23.5711 29.7131C23.4411 29.3831 23.3711 29.0431 23.3711 28.6731C23.3711 28.3031 23.4411 27.9531 23.5711 27.6331C23.7111 27.3031 23.9111 27.0031 24.1611 26.7531C24.4111 26.5031 24.7111 26.2931 25.0411 26.1631C25.3711 26.0331 25.7211 25.9531 26.0811 25.9531ZM26.5511 27.5531C26.4111 27.5031 26.2611 27.4631 26.0811 27.4631C25.9011 27.4631 25.7511 27.4931 25.6111 27.5531C25.4711 27.6131 25.3311 27.7131 25.2211 27.8131C25.1111 27.9231 25.0211 28.0631 24.9611 28.2131C24.9111 28.3531 24.8711 28.5131 24.8711 28.6831C24.8711 28.8531 24.9011 29.0031 24.9611 29.1431C25.0211 29.2931 25.1111 29.4231 25.2211 29.5431C25.3311 29.6531 25.4711 29.7431 25.6211 29.8031C25.7611 29.8631 25.9211 29.8931 26.0911 29.8931C26.2611 29.8931 26.4211 29.8631 26.5611 29.8031C26.7111 29.7431 26.8411 29.6431 26.9511 29.5331C27.0611 29.4231 27.1511 29.2831 27.2111 29.1431C27.2611 29.0031 27.3011 28.8431 27.3011 28.6731C27.3011 28.5031 27.2711 28.3431 27.2111 28.2031C27.1511 28.0631 27.0511 27.9231 26.9511 27.8131C26.8411 27.7031 26.7011 27.6131 26.5611 27.5531H26.5511Z" fill="white"/>
<path fill-rule="evenodd" clip-rule="evenodd" d="M11.8216 25.9531C12.1816 25.9531 12.5316 26.0331 12.8616 26.1631C13.1916 26.3031 13.4916 26.5031 13.7416 26.7531C13.9916 27.0131 14.1916 27.3131 14.3316 27.6431C14.4616 27.9631 14.5416 28.3131 14.5416 28.6831C14.5416 29.0531 14.4716 29.3931 14.3316 29.7231C14.1916 30.0531 13.9916 30.3531 13.7416 30.6031C13.4916 30.8531 13.1916 31.0631 12.8616 31.1931C12.5316 31.3231 12.1816 31.3931 11.8216 31.3931C11.4616 31.3931 11.1016 31.3231 10.7816 31.1931C10.4516 31.0531 10.1516 30.8531 9.90156 30.6031C9.65156 30.3531 9.44156 30.0531 9.31156 29.7231C9.18156 29.3931 9.10156 29.0531 9.10156 28.6831C9.10156 28.3131 9.17156 27.9631 9.31156 27.6431C9.44156 27.3131 9.65156 27.0131 9.90156 26.7631C10.1516 26.5131 10.4516 26.3131 10.7816 26.1731C11.1016 26.0431 11.4616 25.9631 11.8216 25.9631V25.9531ZM12.2816 27.5531C12.1416 27.5031 11.9816 27.4631 11.8116 27.4631C11.6416 27.4631 11.4816 27.4931 11.3416 27.5531C11.1916 27.6131 11.0616 27.7131 10.9516 27.8131C10.8416 27.9231 10.7516 28.0631 10.6916 28.2131C10.6316 28.3531 10.6016 28.5131 10.6016 28.6831C10.6016 28.8531 10.6316 29.0031 10.6916 29.1431C10.7516 29.2931 10.8416 29.4231 10.9516 29.5431C11.0616 29.6531 11.1916 29.7431 11.3416 29.8031C11.4816 29.8631 11.6316 29.8931 11.8116 29.8931C11.9916 29.8931 12.1316 29.8631 12.2716 29.8031C12.4216 29.7431 12.5516 29.6431 12.6716 29.5331C12.7816 29.4231 12.8716 29.2831 12.9316 29.1431C12.9916 29.0031 13.0216 28.8431 13.0216 28.6731C13.0216 28.5031 12.9916 28.3431 12.9316 28.2031C12.8716 28.0631 12.7816 27.9231 12.6716 27.8131C12.5616 27.7031 12.4216 27.6131 12.2816 27.5431V27.5531Z" fill="white"/>
<path fill-rule="evenodd" clip-rule="evenodd" d="M19.3416 6.375H31.8316C31.8916 6.375 31.9616 6.375 32.0316 6.395C32.2616 6.435 32.4616 6.545 32.6216 6.705C32.8116 6.895 32.9316 7.145 32.9316 7.435C32.9316 7.485 32.9316 7.545 32.9116 7.615C32.2216 11.315 31.5316 15.005 30.8516 18.695C30.7416 19.255 30.5016 19.775 30.1216 20.155C29.7416 20.525 29.2516 20.765 28.6616 20.765H11.3316C10.7416 20.765 10.2416 20.525 9.87156 20.155C9.50156 19.775 9.25156 19.265 9.15156 18.695C8.55156 15.475 7.95156 12.255 7.35156 9.035H8.88156C9.46156 12.165 10.0416 15.295 10.6316 18.425C10.6816 18.685 10.7916 18.925 10.9516 19.085C11.0516 19.185 11.1816 19.255 11.3416 19.255H28.6716C28.8316 19.255 28.9616 19.195 29.0616 19.085C29.2216 18.925 29.3316 18.685 29.3816 18.425C30.0316 14.915 30.6916 11.405 31.3416 7.895H9.72156V6.385H19.3416V6.375Z" fill="white"/>
<path fill-rule="evenodd" clip-rule="evenodd" d="M8.97 9.50438C8.5 7.02438 8.04 4.53438 7.58 2.05437C7.47 1.49437 7.23 0.974375 6.85 0.594375C6.47 0.214375 5.98 -0.015625 5.39 -0.015625H0.76C0.35 -0.015625 0 0.324375 0 0.744375C0 1.16437 0.34 1.50437 0.76 1.50437H5.39C5.55 1.50437 5.68 1.56437 5.78 1.67437C5.94 1.83437 6.05 2.07437 6.1 2.33437C6.54 4.72437 6.99 7.12438 7.44 9.51438H8.97V9.50438Z" fill="white"/>
<path fill-rule="evenodd" clip-rule="evenodd" d="M8.43969 6.375H21.5297C21.9497 6.375 22.2897 6.715 22.2897 7.135C22.2897 7.545 21.9497 7.895 21.5297 7.895H8.43969C8.02969 7.895 7.67969 7.555 7.67969 7.135C7.67969 6.715 8.01969 6.375 8.43969 6.375Z" fill="white"/>
<path fill-rule="evenodd" clip-rule="evenodd" d="M23.4487 7.55976C23.2687 10.0698 22.8287 17.1898 22.6487 19.6998C22.6187 20.1098 22.2587 20.4298 21.8387 20.3998C21.4287 20.3698 21.1087 20.0098 21.1387 19.5898C21.3187 17.0798 21.7587 9.96976 21.9387 7.45976C21.9687 7.04976 22.3287 6.72976 22.7487 6.75976C23.1587 6.78976 23.4787 7.14976 23.4487 7.55976Z" fill="white"/>
<path fill-rule="evenodd" clip-rule="evenodd" d="M28.6692 7.88061C28.1892 10.3906 27.0092 17.1406 26.5292 19.6406C26.4592 20.0506 26.0592 20.3206 25.6492 20.2406C25.2392 20.1606 24.9692 19.7606 25.0492 19.3606C25.5292 16.8506 26.7092 10.1006 27.1892 7.59061C27.2692 7.18061 27.6592 6.91061 28.0692 6.99061C28.4792 7.07061 28.7492 7.47061 28.6792 7.88061H28.6692Z" fill="white"/>
<path fill-rule="evenodd" clip-rule="evenodd" d="M16.4981 7.55976C16.6781 10.0698 17.1181 17.1898 17.2981 19.6998C17.3281 20.1098 17.6981 20.4298 18.1081 20.3998C18.5281 20.3698 18.8381 20.0098 18.8081 19.5898C18.6281 17.0798 18.1881 9.96976 18.0081 7.45976C17.9781 7.04976 17.6081 6.72976 17.1981 6.75976C16.7781 6.78976 16.4681 7.14976 16.4981 7.55976Z" fill="white"/>
<path fill-rule="evenodd" clip-rule="evenodd" d="M11.2875 7.88061C11.7675 10.3906 12.9475 17.1406 13.4175 19.6406C13.4975 20.0506 13.8975 20.3206 14.2975 20.2406C14.7075 20.1606 14.9775 19.7606 14.8975 19.3606C14.4175 16.8506 13.2375 10.1006 12.7675 7.59061C12.6875 7.18061 12.2875 6.91061 11.8875 6.99061C11.4775 7.07061 11.2075 7.47061 11.2875 7.88061Z" fill="white"/>
<path d="M31.7784 10.7656H8.39844V12.2856H31.7784V10.7656Z" fill="white"/>
<path d="M30.9888 14.8438H8.96875V16.3538H30.9888V14.8438Z" fill="white"/>
</g>
<defs>
<clipPath id="clip0_2524_54449">
<rect width="32.93" height="31.4" fill="white"/>
</clipPath>
</defs>
</svg>
