<svg width="137" height="117" viewBox="0 0 137 117" fill="none" xmlns="http://www.w3.org/2000/svg">
<g opacity="0.2">
<path d="M14.5 45.9109H122.455C122.261 44.709 122.01 43.507 121.74 42.3438H15.2145C14.9442 43.5264 14.6931 44.709 14.5 45.9109Z" fill="url(#paint0_linear_2304_73197)"/>
<path d="M68.4773 110.026C75.1013 110.026 81.455 108.843 87.3452 106.672H49.6094C55.4803 108.843 61.8532 110.026 68.4773 110.026Z" fill="url(#paint1_linear_2304_73197)"/>
<path d="M13.7656 53.0672H123.169C123.13 51.8652 123.053 50.6632 122.937 49.5H14.0167C13.9008 50.6826 13.8236 51.8652 13.7849 53.0672H13.7656Z" fill="url(#paint2_linear_2304_73197)"/>
<path d="M16.1797 38.7547H120.755C120.388 37.5527 119.963 36.3507 119.519 35.1875H17.4157C16.9715 36.3701 16.5466 37.5527 16.1797 38.7547Z" fill="url(#paint3_linear_2304_73197)"/>
<path d="M18.9646 31.6219H117.997C117.418 30.4005 116.8 29.2179 116.143 28.0547H20.7993C20.1427 29.2179 19.5247 30.4199 18.9453 31.6219H18.9646Z" fill="url(#paint4_linear_2304_73197)"/>
<path d="M20.546 81.6609H116.373C117.01 80.4977 117.628 79.2957 118.169 78.0938H18.75C19.3101 79.3151 19.9087 80.4977 20.546 81.6609Z" fill="url(#paint5_linear_2304_73197)"/>
<path d="M41.8703 103.098H95.0944C97.0256 102.013 98.8796 100.83 100.656 99.5312H36.2891C38.0658 100.83 39.9197 102.032 41.8509 103.098H41.8703Z" fill="url(#paint6_linear_2304_73197)"/>
<path d="M13.9817 60.2156H122.979C123.095 59.033 123.172 57.8504 123.192 56.6484H13.75C13.7886 57.8504 13.8659 59.033 13.9624 60.2156H13.9817Z" fill="url(#paint7_linear_2304_73197)"/>
<path d="M17.2635 74.5047H119.695C120.139 73.3221 120.545 72.1395 120.912 70.9375H16.0469C16.4138 72.1395 16.8194 73.3415 17.2635 74.5047Z" fill="url(#paint8_linear_2304_73197)"/>
<path d="M25.2601 88.7938H111.682C112.57 87.6305 113.42 86.4479 114.231 85.2266H22.7109C23.522 86.4479 24.3718 87.6499 25.2601 88.7938Z" fill="url(#paint9_linear_2304_73197)"/>
<path d="M15.0978 67.3484H121.836C122.106 66.1658 122.338 64.9832 122.531 63.7812H14.4219C14.615 64.9832 14.8467 66.1852 15.1171 67.3484H15.0978Z" fill="url(#paint10_linear_2304_73197)"/>
<path d="M31.9004 95.9422H105.055C106.31 94.7984 107.507 93.6158 108.666 92.375H28.2891C29.4285 93.6158 30.6451 94.8178 31.9004 95.9422Z" fill="url(#paint11_linear_2304_73197)"/>
<path d="M68.4798 0.117188C62.3193 0.117188 56.4098 1.14469 50.8672 3.02522H86.0731C80.5499 1.14469 74.6404 0.117188 68.4798 0.117188Z" fill="url(#paint12_linear_2304_73197)"/>
<path d="M36.9062 10.1766H100.037C98.2028 8.87764 96.2716 7.67566 94.2825 6.60938H42.6806C40.6914 7.67566 38.7602 8.87764 36.9256 10.1766H36.9062Z" fill="url(#paint13_linear_2304_73197)"/>
<path d="M23 24.4656H113.941C113.11 23.2443 112.241 22.0423 111.334 20.8984H25.6071C24.6995 22.0617 23.8304 23.2443 23 24.4656Z" fill="url(#paint14_linear_2304_73197)"/>
<path d="M28.6953 17.3172H108.242C107.064 16.0764 105.828 14.8744 104.553 13.75H32.4032C31.1093 14.8744 29.8734 16.0764 28.7146 17.3172H28.6953Z" fill="url(#paint15_linear_2304_73197)"/>
</g>
<path d="M103.035 7.25376C107.245 9.65774 111.127 12.6627 114.603 16.133C117.886 19.7583 120.744 23.7908 123.062 28.1141C127.716 36.7606 130.168 46.5704 130.149 56.3996C130.149 66.2287 127.716 76.0385 123.062 84.6851C120.744 89.0084 117.886 93.0408 114.584 96.6662C111.088 100.098 107.226 103.141 103.016 105.545C106.859 102.599 110.374 99.2834 113.386 95.5805C116.592 92.0521 119.373 88.136 121.632 83.929C126.171 75.5151 128.546 65.9767 128.546 56.3996C128.546 46.8224 126.171 37.2841 121.632 28.8702C119.373 24.6632 116.611 20.7277 113.386 17.2186C110.354 13.5351 106.859 10.2006 103.016 7.23438L103.035 7.25376Z" fill="url(#paint16_linear_2304_73197)"/>
<path d="M108.5 15.4299C111.416 17.9115 114.043 20.7613 116.379 23.8245C118.6 26.9651 120.512 30.3579 122.057 33.8863C125.147 40.9625 126.731 48.6785 126.731 56.4139C126.731 64.1299 125.147 71.8652 122.057 78.9415C120.512 82.4699 118.62 85.8626 116.379 89.0033C114.043 92.0664 111.416 94.9163 108.5 97.3978C111.184 94.6642 113.637 91.7174 115.723 88.538C117.924 85.4361 119.798 82.1015 121.323 78.6119C124.375 71.6326 125.939 64.0329 125.939 56.4139C125.939 48.7948 124.375 41.1951 121.323 34.2158C119.798 30.7262 117.924 27.3917 115.723 24.2897C113.637 21.1103 111.184 18.1635 108.5 15.4299Z" fill="url(#paint17_linear_2304_73197)"/>
<path d="M116.376 102.148C116.994 101.585 117.631 101.023 118.249 100.442C118.153 99.7242 118.037 99.0069 117.902 98.2896L118.79 97.3978C119.08 97.107 119.35 96.7774 119.64 96.4672C120.335 96.5641 121.05 96.6611 121.783 96.7386C122.015 96.4866 122.247 96.2346 122.459 95.9631L120.625 94.354L122.479 95.9438C123.83 94.3346 125.144 92.6674 126.322 90.9032C126.071 90.2246 125.82 89.5461 125.569 88.8869C125.8 88.5379 126.032 88.189 126.245 87.8206L126.901 86.7544C127.365 86.0564 127.732 85.3003 128.137 84.5636C128.852 84.4861 129.586 84.4085 130.3 84.2922C130.744 83.3616 131.227 82.4311 131.652 81.5005L132.27 80.0659C132.463 79.6006 132.695 79.1159 132.849 78.6312C132.444 78.0303 132.057 77.4293 131.633 76.8476C131.768 76.4599 131.922 76.0722 132.057 75.665L132.444 74.4631C133.139 74.2498 133.815 74.0365 134.51 73.8039C134.761 72.9121 134.993 72.0009 135.244 71.0897C134.78 70.5469 134.298 70.0041 133.796 69.4612L134.066 68.2399L134.201 67.6195L134.298 66.9991C134.935 66.6889 135.592 66.3787 136.229 66.0491C136.287 65.6226 136.364 65.2155 136.422 64.789L136.557 63.5288C136.016 63.0442 135.476 62.5789 134.954 62.1136C135.032 61.28 135.07 60.4463 135.128 59.6127L136.055 59.0311L136.943 58.4301V57.4026L133.873 57.3638H136.963C136.963 56.8404 136.982 56.2975 136.963 55.7741L136.905 54.1844C136.885 53.1181 136.77 52.0712 136.692 51.0243C136.055 50.6559 135.456 50.307 134.819 49.9774L134.471 47.4765C134.336 46.6428 134.162 45.8286 134.008 44.995C134.51 44.4909 135.012 43.9481 135.476 43.4052L135.109 41.8931C134.974 41.389 134.877 40.8849 134.723 40.3809L134.278 38.8881C134.124 38.384 133.989 37.8993 133.815 37.4147C133.12 37.2014 132.424 37.0075 131.748 36.8137C131.613 36.4259 131.478 36.0188 131.324 35.6311L130.86 34.4679C131.246 33.8669 131.633 33.2465 132 32.6261C131.633 31.7731 131.208 30.9201 130.821 30.0864C130.107 29.9507 129.392 29.8538 128.678 29.7762C128.272 29.0395 127.905 28.2834 127.48 27.5661C127.789 26.907 128.079 26.2672 128.369 25.5887L127.712 24.503L126.998 23.4561C126.283 23.4367 125.549 23.4173 124.854 23.3979C124.391 22.7 123.869 22.0409 123.367 21.3623C123.599 20.6838 123.811 19.9858 124.004 19.2879L123.348 18.493L121.706 19.8501H121.687L123.328 18.4737C123 18.0665 122.672 17.64 122.324 17.2523L121.262 16.0697C120.567 15.2748 119.814 14.5381 119.06 13.782C118.365 13.8983 117.651 14.0341 116.955 14.1892C116.859 14.0922 116.743 13.9953 116.627 13.8983C115.526 12.7545 114.368 11.6689 113.19 10.6026L111.413 9.10978C110.737 8.54756 110.042 8.00473 109.346 7.46189C106.469 5.50382 103.437 3.77838 100.289 2.34375V3.23555C103.147 4.84466 105.87 6.68642 108.4 8.76082C109.443 9.53629 110.447 10.3699 111.432 11.2036C111.432 11.2036 111.606 11.3587 111.703 11.4168C115.275 14.4993 118.481 17.989 121.223 21.8276C121.687 22.448 122.112 23.0684 122.517 23.7081C122.942 24.3673 123.367 24.9877 123.753 25.6468C124.506 26.9845 125.298 28.2834 125.955 29.6793C126.669 31.0364 127.249 32.4516 127.867 33.8475L128.678 35.9994C128.968 36.7167 129.199 37.4341 129.431 38.1708C131.324 44.0062 132.212 50.1519 132.27 56.2781C132.231 62.4044 131.343 68.55 129.45 74.3855C129.025 75.8589 128.427 77.2742 127.905 78.7088C127.287 80.1046 126.708 81.5393 125.993 82.8964C124.642 85.6493 123.039 88.2665 121.262 90.7674C117.709 95.7693 113.363 100.17 108.477 103.873C105.928 105.967 103.186 107.828 100.289 109.456V110.329C103.476 108.875 106.527 107.149 109.424 105.153C110.1 104.648 111.625 103.64 112.282 103.117C112.958 102.613 113.595 102.07 114.232 101.547C114.928 101.74 115.642 101.934 116.318 102.089L116.376 102.148Z" fill="url(#paint18_linear_2304_73197)"/>
<path d="M33.9737 104.667C29.7636 102.263 25.8819 99.2577 22.4057 95.7874C19.1227 92.1621 16.2645 88.1296 13.947 83.8063C9.29281 75.1598 6.84018 65.35 6.85949 55.5208C6.85949 45.6917 9.29281 35.8819 13.947 27.2353C16.2645 22.912 19.1227 18.8796 22.425 15.2542C25.9205 11.8227 29.7829 8.77898 33.993 6.375C30.1499 9.32181 26.6351 12.637 23.6224 16.3399C20.4166 19.8683 17.6356 23.7844 15.3761 27.9914C10.8378 36.4053 8.46239 45.9437 8.46239 55.5208C8.46239 65.0979 10.8378 74.6363 15.3761 83.0502C17.6356 87.2572 20.3973 91.1927 23.6224 94.7018C26.6544 98.3853 30.1499 101.72 33.993 104.686L33.9737 104.667Z" fill="url(#paint19_linear_2304_73197)"/>
<path d="M28.5041 96.4835C25.5879 94.002 22.9615 91.1521 20.6247 88.089C18.4038 84.9483 16.4919 81.5556 14.947 78.0271C11.857 70.9509 10.2734 63.2349 10.2734 55.4996C10.2734 47.7836 11.857 40.0482 14.947 32.972C16.4919 29.4435 18.4038 26.0508 20.6247 22.9102C22.9615 19.847 25.5879 16.9971 28.5041 14.5156C25.8197 17.2492 23.367 20.196 21.2813 23.3754C19.0798 26.4774 17.2065 29.8119 15.6808 33.3015C12.6295 40.2808 11.0652 47.8805 11.0652 55.4996C11.0652 63.1186 12.6295 70.7183 15.6808 77.6976C17.2065 81.1872 19.0798 84.5218 21.2813 87.6237C23.367 90.8031 25.8197 93.7499 28.5041 96.4835Z" fill="url(#paint20_linear_2304_73197)"/>
<path d="M20.6072 9.76721C19.9892 10.3294 19.3519 10.8917 18.7339 11.4733C18.8305 12.1906 18.9464 12.9079 19.0816 13.6252L18.1932 14.517C17.9035 14.8078 17.6332 15.1374 17.3435 15.4476C16.6289 15.3506 15.9337 15.2537 15.1998 15.1762C14.9681 15.4282 14.7363 15.6802 14.5239 15.9516L16.3586 17.5608L14.5046 15.971C13.1527 17.5801 11.8395 19.2474 10.6615 21.0116C10.9125 21.6902 11.1636 22.3687 11.4147 23.0279C11.1829 23.3768 10.9512 23.7258 10.7387 24.0941L10.0821 25.1604C9.61863 25.8777 9.2517 26.6144 8.84615 27.3511C8.1316 27.4287 7.39774 27.5062 6.68319 27.6226C6.23902 28.5531 5.75621 29.4837 5.33135 30.4143L4.71336 31.8489C4.52024 32.3142 4.28849 32.7989 4.134 33.2835C4.53955 33.9039 4.92579 34.4855 5.35066 35.0865C5.21547 35.4743 5.06098 35.862 4.92579 36.2691L4.55886 37.4711C3.86363 37.6844 3.1877 37.8976 2.49247 38.1303C2.24141 39.0221 2.00967 39.9332 1.75861 40.8444C2.2221 41.3873 2.7049 41.9301 3.20702 42.4729L2.93665 43.6943L2.80146 44.3147L2.7049 44.9351C2.0676 45.2453 1.41099 45.5555 0.773693 45.885C0.715756 46.3115 0.638508 46.7187 0.580572 47.1452L0.445387 48.4053C0.986126 48.89 1.52686 49.3553 2.04829 49.8206C1.97104 50.6542 1.93242 51.4878 1.87448 52.3215L0.947502 52.9031L0.0591452 53.5041V54.5316L3.12977 54.5704H0.0398332C0.0398332 55.0938 0.0205211 55.6366 0.0398332 56.1601L0.0977694 57.7498C0.117082 58.8161 0.232954 59.863 0.310202 60.9099C0.947502 61.2782 1.54618 61.6272 2.18348 61.9568L2.53109 64.4577C2.66628 65.2913 2.84009 66.1056 2.99458 66.9392C2.49247 67.4433 1.99035 67.9861 1.52686 68.5289L1.89379 70.0411C2.02898 70.5452 2.12554 71.0492 2.28004 71.5533L2.72421 73.0461C2.87871 73.5501 3.0139 74.0348 3.1877 74.5195C3.88294 74.7327 4.57818 74.9266 5.2541 75.1205C5.38928 75.5082 5.52447 75.9154 5.67896 76.3031L6.14245 77.4663C5.75621 78.0673 5.36997 78.6877 5.00304 79.3081C5.36997 80.1611 5.79484 81.0141 6.18108 81.8477C6.89563 81.9835 7.61017 82.0804 8.32472 82.1579C8.73028 82.8946 9.09721 83.6507 9.52207 84.368C9.21308 85.0272 8.9234 85.667 8.63371 86.3455L9.29033 87.4312L10.0049 88.4781C10.7194 88.4975 11.4533 88.5168 12.1485 88.5168C12.612 89.2148 13.1334 89.8739 13.6355 90.5525C13.4038 91.231 13.1914 91.9289 12.9982 92.6269L13.6549 93.4217L15.2964 92.0647H15.3157L13.6742 93.4411C14.0025 93.8482 14.3308 94.2748 14.6784 94.6625L15.7406 95.8451C16.4358 96.6593 17.189 97.3767 17.9421 98.1328C18.6374 98.0164 19.3519 97.8807 20.0472 97.7256C20.1437 97.8226 20.2596 97.9195 20.3755 98.0164C21.4763 99.1603 22.635 100.246 23.813 101.312L25.5897 102.805C26.2657 103.367 26.9609 103.91 27.6561 104.453C30.5336 106.411 33.5656 108.136 36.7135 109.571V108.679C33.8553 107.07 31.1323 105.228 28.6024 103.154C27.5596 102.378 26.5553 101.564 25.5704 100.711C25.5704 100.711 25.3966 100.556 25.3001 100.498C21.7273 97.4154 18.5215 93.9258 15.7792 90.0872C15.3157 89.4668 14.8908 88.8464 14.4853 88.2066C14.0604 87.5475 13.6355 86.9271 13.2493 86.268C12.4961 84.9303 11.7043 83.6313 11.0477 82.2355C10.3332 80.8784 9.75382 79.4632 9.13583 78.0673L8.32472 75.9154C8.03504 75.198 7.80329 74.4807 7.57155 73.744C5.67896 67.9086 4.79061 61.7629 4.73267 55.6366C4.7713 49.5104 5.65965 43.3647 7.55224 37.5293C7.9771 36.0559 8.57578 34.6406 9.09721 33.206C9.71519 31.8101 10.2946 30.3755 11.0091 29.0184C12.3609 26.2655 13.9639 23.6482 15.7406 21.1473C19.294 16.1455 23.6392 11.7447 28.5252 8.04178C31.0744 5.94799 33.8167 4.08685 36.7135 2.45835V1.58594C33.527 3.03996 30.4757 4.76539 27.5789 6.76224C26.903 7.2663 25.3773 8.27442 24.7207 8.79787C24.0448 9.30193 23.4075 9.84476 22.7702 10.3682C22.0749 10.1743 21.3604 9.98047 20.6845 9.82537L20.6072 9.76721Z" fill="url(#paint21_linear_2304_73197)"/>
<path fill-rule="evenodd" clip-rule="evenodd" d="M56.932 69.7321H53.8614C53.2048 69.7321 52.6061 70.0035 52.1619 70.4494C51.7371 70.8759 51.4667 71.4963 51.4667 72.1555C51.4667 72.8146 51.7371 73.4156 52.1619 73.8615C52.6061 74.288 53.2048 74.5595 53.8614 74.5595H88.9128C89.7046 74.5595 90.3806 75.2186 90.3806 76.0329C90.3806 76.8471 89.7239 77.5063 88.9128 77.5063H53.8614C52.3937 77.5063 51.0611 76.9053 50.0955 75.9359C49.1299 74.9666 48.5312 73.6289 48.5312 72.1555C48.5312 70.6821 49.1299 69.3444 50.0955 68.375C50.4431 68.0261 50.8487 67.7159 51.2736 67.4832V66.8047H57.2989V69.7321H56.932Z" fill="#00FFFF"/>
<path fill-rule="evenodd" clip-rule="evenodd" d="M83.1555 79.8125C83.8507 79.8125 84.5459 79.9676 85.1639 80.2196C85.8012 80.491 86.3806 80.8788 86.8634 81.3635C87.3462 81.8481 87.7324 82.4297 88.0028 83.0695C88.2538 83.6899 88.4083 84.3684 88.4083 85.0857C88.4083 85.8031 88.2732 86.4622 88.0028 87.102C87.7324 87.7418 87.3462 88.3234 86.8634 88.808C86.3806 89.2927 85.8012 89.6998 85.1639 89.9519C84.5459 90.2039 83.87 90.3396 83.1555 90.3396C82.4409 90.3396 81.7843 90.2039 81.147 89.9519C80.5097 89.6804 79.9303 89.2927 79.4475 88.808C78.9647 88.3234 78.5592 87.7418 78.3081 87.102C78.0571 86.4622 77.9219 85.8031 77.9219 85.0857C77.9219 84.3684 78.0571 83.6899 78.3081 83.0695C78.5785 82.4297 78.9647 81.8481 79.4475 81.3635C79.9303 80.8788 80.5097 80.4717 81.147 80.2196C81.7843 79.9676 82.4602 79.8125 83.1555 79.8125ZM84.0438 82.9144C83.7734 82.8175 83.4838 82.7399 83.1361 82.7399C82.7885 82.7399 82.4988 82.7981 82.2285 82.9144C81.9581 83.0307 81.6877 83.2246 81.4753 83.4185C81.2629 83.6317 81.0891 83.9031 80.9732 84.1939C80.8766 84.4654 80.7994 84.7756 80.7994 85.1051C80.7994 85.4347 80.8573 85.7255 80.9732 85.9969C81.0891 86.2877 81.2629 86.5398 81.4753 86.7724C81.6877 86.9857 81.9581 87.1601 82.2478 87.2765C82.5182 87.3928 82.8272 87.4509 83.1555 87.4509C83.4838 87.4509 83.7928 87.3928 84.0631 87.2765C84.3528 87.1601 84.6039 86.9663 84.8163 86.753C85.0287 86.5398 85.2025 86.2683 85.3184 85.9969C85.415 85.7255 85.4922 85.4153 85.4922 85.0857C85.4922 84.7562 85.4343 84.446 85.3184 84.1746C85.2025 83.9031 85.0094 83.6317 84.8163 83.4185C84.6039 83.2052 84.3335 83.0307 84.0631 82.9144H84.0438Z" fill="#00FFFF"/>
<path fill-rule="evenodd" clip-rule="evenodd" d="M55.5966 79.8125C56.2919 79.8125 56.9678 79.9676 57.6051 80.2196C58.2424 80.491 58.8218 80.8788 59.3046 81.3635C59.7874 81.8675 60.1736 82.4491 60.444 83.0889C60.695 83.7093 60.8495 84.3878 60.8495 85.1051C60.8495 85.8224 60.7143 86.4816 60.444 87.1214C60.1736 87.7611 59.7874 88.3427 59.3046 88.8274C58.8218 89.3121 58.2424 89.7192 57.6051 89.9712C56.9678 90.2233 56.2919 90.359 55.5966 90.359C54.9014 90.359 54.2062 90.2233 53.5882 89.9712C52.9509 89.6998 52.3715 89.3121 51.8887 88.8274C51.4059 88.3427 51.0004 87.7611 50.7493 87.1214C50.4982 86.4816 50.3438 85.8224 50.3438 85.1051C50.3438 84.3878 50.4789 83.7093 50.7493 83.0889C51.0004 82.4491 51.4059 81.8675 51.8887 81.3828C52.3715 80.8982 52.9509 80.5104 53.5882 80.239C54.2062 79.987 54.9014 79.8319 55.5966 79.8319V79.8125ZM56.5043 82.9144C56.2339 82.8175 55.9249 82.7399 55.5966 82.7399C55.2683 82.7399 54.9593 82.7981 54.689 82.9144C54.3993 83.0307 54.1482 83.2246 53.9358 83.4185C53.7234 83.6317 53.5496 83.9031 53.4337 84.1939C53.3178 84.4654 53.2599 84.7756 53.2599 85.1051C53.2599 85.4347 53.3178 85.7255 53.4337 85.9969C53.5496 86.2877 53.7234 86.5398 53.9358 86.7724C54.1482 86.9857 54.3993 87.1601 54.689 87.2765C54.9593 87.3928 55.249 87.4509 55.5966 87.4509C55.9443 87.4509 56.2146 87.3928 56.485 87.2765C56.7747 87.1601 57.0257 86.9663 57.2575 86.753C57.4699 86.5398 57.6437 86.2683 57.7596 85.9969C57.8755 85.7255 57.9334 85.4153 57.9334 85.0857C57.9334 84.7562 57.8755 84.446 57.7596 84.1746C57.6437 83.9031 57.4699 83.6317 57.2575 83.4185C57.045 83.2052 56.7747 83.0307 56.5043 82.895V82.9144Z" fill="#00FFFF"/>
<path fill-rule="evenodd" clip-rule="evenodd" d="M70.1396 41.8516H94.2604C94.3763 41.8516 94.5114 41.8516 94.6466 41.8903C95.0908 41.9679 95.477 42.1811 95.786 42.4913C96.153 42.8597 96.3847 43.3444 96.3847 43.9066C96.3847 44.0035 96.3847 44.1198 96.3461 44.2555C95.0136 51.4287 93.681 58.5825 92.3678 65.7362C92.1554 66.8219 91.6919 67.83 90.958 68.5667C90.2242 69.284 89.2779 69.7493 88.1384 69.7493H54.6706C53.5312 69.7493 52.5656 69.284 51.851 68.5667C51.1365 67.83 50.6537 66.8413 50.4606 65.7362C49.3018 59.4937 48.1431 53.2511 46.9844 47.0085H49.9391C51.0592 53.0766 52.1793 59.1447 53.3187 65.2128C53.4153 65.7168 53.6277 66.1821 53.9367 66.4923C54.1299 66.6862 54.3809 66.8219 54.6899 66.8219H88.1578C88.4668 66.8219 88.7178 66.7056 88.9109 66.4923C89.2199 66.1821 89.4324 65.7168 89.5289 65.2128C90.7842 58.408 92.0588 51.6032 93.3141 44.7984H51.5807V41.8709H70.1589L70.1396 41.8516Z" fill="#00FFFF"/>
<path fill-rule="evenodd" clip-rule="evenodd" d="M50.0964 47.9407C49.1887 43.1328 48.3004 38.3054 47.412 33.4975C47.1996 32.4118 46.7361 31.4037 46.0022 30.667C45.2684 29.9303 44.3221 29.4844 43.1827 29.4844H34.2412C33.4494 29.4844 32.7734 30.1435 32.7734 30.9578C32.7734 31.772 33.43 32.4312 34.2412 32.4312H43.1827C43.4917 32.4312 43.7427 32.5475 43.9358 32.7608C44.2448 33.071 44.4573 33.5362 44.5538 34.0403C45.4035 38.6738 46.2726 43.3266 47.1416 47.9601H50.0964V47.9407Z" fill="#00FFFF"/>
<path fill-rule="evenodd" clip-rule="evenodd" d="M49.0693 41.8516H74.3488C75.1599 41.8516 75.8165 42.5107 75.8165 43.325C75.8165 44.1198 75.1599 44.7984 74.3488 44.7984H49.0693C48.2775 44.7984 47.6016 44.1392 47.6016 43.325C47.6016 42.5107 48.2582 41.8516 49.0693 41.8516Z" fill="#00FFFF"/>
<path fill-rule="evenodd" clip-rule="evenodd" d="M78.082 44.1641C77.7344 49.0302 76.8847 62.8337 76.5371 67.6998C76.4791 68.4947 75.7839 69.1151 74.9728 69.0569C74.181 68.9987 73.563 68.3008 73.621 67.4866C73.9686 62.6205 74.8183 48.8364 75.1659 43.9702C75.2239 43.1754 75.9191 42.555 76.7302 42.6132C77.522 42.6713 78.14 43.3692 78.082 44.1641Z" fill="#00FFFF"/>
<path fill-rule="evenodd" clip-rule="evenodd" d="M88.1587 44.7839C87.2318 49.65 84.9529 62.7362 84.0259 67.5829C83.8908 68.3778 83.1183 68.9012 82.3265 68.7461C81.5347 68.591 81.0133 67.8156 81.1677 67.0401C82.0947 62.174 84.3736 49.0878 85.3005 44.2217C85.455 43.4268 86.2082 42.9034 87 43.0585C87.7918 43.2136 88.3132 43.9891 88.178 44.7839H88.1587Z" fill="#00FFFF"/>
<path fill-rule="evenodd" clip-rule="evenodd" d="M64.6601 44.1641C65.0077 49.0302 65.8575 62.8337 66.2051 67.6998C66.263 68.4947 66.9776 69.1151 67.7694 69.0569C68.5805 68.9987 69.1792 68.3008 69.1212 67.4866C68.7736 62.6205 67.9239 48.8364 67.5763 43.9702C67.5183 43.1754 66.8038 42.555 66.012 42.6132C65.2009 42.6713 64.6022 43.3692 64.6601 44.1641Z" fill="#00FFFF"/>
<path fill-rule="evenodd" clip-rule="evenodd" d="M54.574 44.7839C55.501 49.65 57.7798 62.7362 58.6875 67.5829C58.842 68.3778 59.6145 68.9012 60.3869 68.7461C61.1787 68.591 61.7002 67.8156 61.5457 67.0401C60.6187 62.174 58.3399 49.0878 57.4322 44.2217C57.2777 43.4268 56.5052 42.9034 55.7327 43.0585C54.9409 43.2136 54.4195 43.9891 54.574 44.7839Z" fill="#00FFFF"/>
<path d="M94.1673 50.3828H49.0156V53.3296H94.1673V50.3828Z" fill="#00FFFF"/>
<path d="M92.619 58.25H50.0938V61.1774H92.619V58.25Z" fill="#00FFFF"/>
<defs>
<linearGradient id="paint0_linear_2304_73197" x1="14.5" y1="44.1273" x2="122.455" y2="44.1273" gradientUnits="userSpaceOnUse">
<stop stop-color="#0071BC"/>
<stop offset="1" stop-color="#00FFFF"/>
</linearGradient>
<linearGradient id="paint1_linear_2304_73197" x1="49.6094" y1="108.359" x2="87.3259" y2="108.359" gradientUnits="userSpaceOnUse">
<stop stop-color="#0071BC"/>
<stop offset="1" stop-color="#00FFFF"/>
</linearGradient>
<linearGradient id="paint2_linear_2304_73197" x1="13.7656" y1="51.2836" x2="123.169" y2="51.2836" gradientUnits="userSpaceOnUse">
<stop stop-color="#0071BC"/>
<stop offset="1" stop-color="#00FFFF"/>
</linearGradient>
<linearGradient id="paint3_linear_2304_73197" x1="16.1797" y1="36.9711" x2="120.755" y2="36.9711" gradientUnits="userSpaceOnUse">
<stop stop-color="#0071BC"/>
<stop offset="1" stop-color="#00FFFF"/>
</linearGradient>
<linearGradient id="paint4_linear_2304_73197" x1="18.9646" y1="29.8189" x2="117.978" y2="29.8189" gradientUnits="userSpaceOnUse">
<stop stop-color="#0071BC"/>
<stop offset="1" stop-color="#00FFFF"/>
</linearGradient>
<linearGradient id="paint5_linear_2304_73197" x1="18.75" y1="79.858" x2="118.188" y2="79.858" gradientUnits="userSpaceOnUse">
<stop stop-color="#0071BC"/>
<stop offset="1" stop-color="#00FFFF"/>
</linearGradient>
<linearGradient id="paint6_linear_2304_73197" x1="36.2891" y1="101.315" x2="100.656" y2="101.315" gradientUnits="userSpaceOnUse">
<stop stop-color="#0071BC"/>
<stop offset="1" stop-color="#00FFFF"/>
</linearGradient>
<linearGradient id="paint7_linear_2304_73197" x1="13.75" y1="58.4126" x2="123.192" y2="58.4126" gradientUnits="userSpaceOnUse">
<stop stop-color="#0071BC"/>
<stop offset="1" stop-color="#00FFFF"/>
</linearGradient>
<linearGradient id="paint8_linear_2304_73197" x1="16.0469" y1="72.7211" x2="120.892" y2="72.7211" gradientUnits="userSpaceOnUse">
<stop stop-color="#0071BC"/>
<stop offset="1" stop-color="#00FFFF"/>
</linearGradient>
<linearGradient id="paint9_linear_2304_73197" x1="22.7109" y1="87.0102" x2="114.231" y2="87.0102" gradientUnits="userSpaceOnUse">
<stop stop-color="#0071BC"/>
<stop offset="1" stop-color="#00FFFF"/>
</linearGradient>
<linearGradient id="paint10_linear_2304_73197" x1="14.4219" y1="65.5648" x2="122.531" y2="65.5648" gradientUnits="userSpaceOnUse">
<stop stop-color="#0071BC"/>
<stop offset="1" stop-color="#00FFFF"/>
</linearGradient>
<linearGradient id="paint11_linear_2304_73197" x1="28.2891" y1="94.1586" x2="108.666" y2="94.1586" gradientUnits="userSpaceOnUse">
<stop stop-color="#0071BC"/>
<stop offset="1" stop-color="#00FFFF"/>
</linearGradient>
<linearGradient id="paint12_linear_2304_73197" x1="50.8672" y1="1.57121" x2="86.0731" y2="1.57121" gradientUnits="userSpaceOnUse">
<stop stop-color="#0071BC"/>
<stop offset="1" stop-color="#00FFFF"/>
</linearGradient>
<linearGradient id="paint13_linear_2304_73197" x1="36.9062" y1="8.37358" x2="100.037" y2="8.37358" gradientUnits="userSpaceOnUse">
<stop stop-color="#0071BC"/>
<stop offset="1" stop-color="#00FFFF"/>
</linearGradient>
<linearGradient id="paint14_linear_2304_73197" x1="23" y1="22.682" x2="113.941" y2="22.682" gradientUnits="userSpaceOnUse">
<stop stop-color="#0071BC"/>
<stop offset="1" stop-color="#00FFFF"/>
</linearGradient>
<linearGradient id="paint15_linear_2304_73197" x1="28.6953" y1="15.5336" x2="108.242" y2="15.5336" gradientUnits="userSpaceOnUse">
<stop stop-color="#0071BC"/>
<stop offset="1" stop-color="#00FFFF"/>
</linearGradient>
<linearGradient id="paint16_linear_2304_73197" x1="167.615" y1="56.3996" x2="103.537" y2="56.3996" gradientUnits="userSpaceOnUse">
<stop stop-color="#0071BC"/>
<stop offset="1" stop-color="#00FFFF"/>
</linearGradient>
<linearGradient id="paint17_linear_2304_73197" x1="167.614" y1="56.3945" x2="103.537" y2="56.3945" gradientUnits="userSpaceOnUse">
<stop stop-color="#0071BC"/>
<stop offset="1" stop-color="#00FFFF"/>
</linearGradient>
<linearGradient id="paint18_linear_2304_73197" x1="167.611" y1="56.4138" x2="103.533" y2="56.4138" gradientUnits="userSpaceOnUse">
<stop stop-color="#0071BC"/>
<stop offset="1" stop-color="#00FFFF"/>
</linearGradient>
<linearGradient id="paint19_linear_2304_73197" x1="-35.6078" y1="55.5208" x2="36.8898" y2="55.5208" gradientUnits="userSpaceOnUse">
<stop stop-color="#0071BC"/>
<stop offset="1" stop-color="#00FFFF"/>
</linearGradient>
<linearGradient id="paint20_linear_2304_73197" x1="-35.6121" y1="55.5189" x2="36.8855" y2="55.5189" gradientUnits="userSpaceOnUse">
<stop stop-color="#0071BC"/>
<stop offset="1" stop-color="#00FFFF"/>
</linearGradient>
<linearGradient id="paint21_linear_2304_73197" x1="-35.6103" y1="55.5009" x2="36.8873" y2="55.5009" gradientUnits="userSpaceOnUse">
<stop stop-color="#0071BC"/>
<stop offset="1" stop-color="#00FFFF"/>
</linearGradient>
</defs>
</svg>
