<svg width="701" height="76" viewBox="0 0 701 76" fill="none" xmlns="http://www.w3.org/2000/svg">
<g clip-path="url(#clip0_2524_67841)">
<path fill-rule="evenodd" clip-rule="evenodd" d="M29.2917 3.16927C29.2917 1.8576 30.355 0.794273 31.6667 0.794273L44.3333 0.794272C45.645 0.794272 46.7083 1.8576 46.7083 3.16927C46.7083 4.48095 45.645 5.54427 44.3333 5.54427L31.6667 5.54427C30.355 5.54427 29.2917 4.48095 29.2917 3.16927Z" fill="#23BB20"/>
<path fill-rule="evenodd" clip-rule="evenodd" d="M21.375 66.5026C21.375 68.6887 23.1472 70.4609 25.3333 70.4609L50.6667 70.4609C52.8528 70.4609 54.625 68.6887 54.625 66.5026L54.625 19.0026C54.625 16.8165 52.8528 15.0443 50.6667 15.0443L25.3333 15.0443C23.1472 15.0443 21.375 16.8165 21.375 19.0026L21.375 66.5026ZM25.3333 75.2109C20.5239 75.2109 16.625 71.3121 16.625 66.5026L16.625 19.0026C16.625 14.1931 20.5239 10.2943 25.3333 10.2943L50.6667 10.2943C55.4761 10.2943 59.375 14.1931 59.375 19.0026L59.375 66.5026C59.375 71.3121 55.4761 75.2109 50.6667 75.2109L25.3333 75.2109Z" fill="#23BB20"/>
<path fill-rule="evenodd" clip-rule="evenodd" d="M30.875 60.9609L45.125 60.9609L45.125 56.2109L30.875 56.2109L30.875 60.9609ZM30.4 65.7109C28.039 65.7109 26.125 63.797 26.125 61.4359L26.125 55.7359C26.125 53.3749 28.039 51.4609 30.4 51.4609L45.6 51.4609C47.961 51.4609 49.875 53.3749 49.875 55.7359L49.875 61.4359C49.875 63.797 47.961 65.7109 45.6 65.7109L30.4 65.7109Z" fill="#23BB20"/>
</g>
<rect x="188.5" y="1.5" width="123" height="73" rx="36.5" fill="url(#paint0_linear_2524_67841)" fill-opacity="0.5"/>
<rect x="188.5" y="1.5" width="123" height="73" rx="36.5" stroke="url(#paint1_linear_2524_67841)" stroke-width="3"/>
<path fill-rule="evenodd" clip-rule="evenodd" d="M266.499 23.7917C267.259 23.7917 267.874 24.4073 267.874 25.1667V32.5C267.874 33.2594 267.259 33.875 266.499 33.875C265.74 33.875 265.124 33.2594 265.124 32.5V25.1667C265.124 24.4073 265.74 23.7917 266.499 23.7917Z" fill="white"/>
<path fill-rule="evenodd" clip-rule="evenodd" d="M240.833 30.2083C239.567 30.2083 238.541 31.2343 238.541 32.5V50.8333C238.541 52.099 239.567 53.125 240.833 53.125H257.333C258.598 53.125 259.624 52.099 259.624 50.8333V32.5C259.624 31.2343 258.598 30.2083 257.333 30.2083H240.833ZM235.791 32.5C235.791 29.7156 238.048 27.4583 240.833 27.4583H257.333C260.117 27.4583 262.374 29.7156 262.374 32.5V50.8333C262.374 53.6178 260.117 55.875 257.333 55.875H240.833C238.048 55.875 235.791 53.6178 235.791 50.8333V32.5Z" fill="white"/>
<path fill-rule="evenodd" clip-rule="evenodd" d="M240.833 22.875C239.567 22.875 238.541 23.901 238.541 25.1667V34.3333H235.791V25.1667C235.791 22.3822 238.048 20.125 240.833 20.125H257.333C260.117 20.125 262.374 22.3822 262.374 25.1667V34.3333H259.624V25.1667C259.624 23.901 258.598 22.875 257.333 22.875H240.833Z" fill="white"/>
<path fill-rule="evenodd" clip-rule="evenodd" d="M249.139 34.9647C249.803 35.3335 250.042 36.1706 249.674 36.8344L247.753 40.2917H252.749C253.237 40.2917 253.687 40.5495 253.934 40.9694C254.181 41.3893 254.188 41.9085 253.951 42.3344L250.896 47.8344C250.527 48.4983 249.69 48.7374 249.026 48.3686C248.362 47.9998 248.123 47.1627 248.492 46.4989L250.413 43.0417H245.416C244.929 43.0417 244.478 42.7839 244.231 42.364C243.984 41.9441 243.977 41.4248 244.214 40.9989L247.27 35.4989C247.638 34.8351 248.476 34.5959 249.139 34.9647Z" fill="white"/>
<line x1="320" y1="36" x2="374" y2="36" stroke="url(#paint2_linear_2524_67841)" stroke-width="4" stroke-linecap="round" stroke-dasharray="18 18"/>
<rect x="382.5" y="1.5" width="123" height="73" rx="36.5" fill="url(#paint3_linear_2524_67841)" fill-opacity="0.5"/>
<rect x="382.5" y="1.5" width="123" height="73" rx="36.5" stroke="url(#paint4_linear_2524_67841)" stroke-width="3"/>
<path fill-rule="evenodd" clip-rule="evenodd" d="M444.301 31.2702C444.98 30.9306 445.806 31.2059 446.146 31.8851L450.416 40.4254L454.686 31.8851C455.026 31.2059 455.852 30.9306 456.531 31.2702C457.21 31.6098 457.485 32.4357 457.146 33.1149L451.646 44.1149C451.413 44.5807 450.937 44.875 450.416 44.875C449.895 44.875 449.419 44.5807 449.186 44.1149L443.686 33.1149C443.347 32.4357 443.622 31.6098 444.301 31.2702Z" fill="white"/>
<path fill-rule="evenodd" clip-rule="evenodd" d="M432.027 44.4723C431.769 44.2144 431.624 43.8647 431.624 43.5V32.5C431.624 31.7406 432.24 31.125 432.999 31.125H440.333C441.092 31.125 441.708 31.7406 441.708 32.5C441.708 33.2594 441.092 33.875 440.333 33.875H434.374V42.125H440.333C441.092 42.125 441.708 42.7406 441.708 43.5C441.708 44.2594 441.092 44.875 440.333 44.875H432.999C432.635 44.875 432.285 44.7301 432.027 44.4723Z" fill="white"/>
<path fill-rule="evenodd" clip-rule="evenodd" d="M431.624 38C431.624 37.2406 432.24 36.625 432.999 36.625H438.499C439.259 36.625 439.874 37.2406 439.874 38C439.874 38.7594 439.259 39.375 438.499 39.375H432.999C432.24 39.375 431.624 38.7594 431.624 38Z" fill="white"/>
<path fill-rule="evenodd" clip-rule="evenodd" d="M436.666 22.875C431.35 22.875 427.041 27.1843 427.041 32.5V43.5C427.041 48.8157 431.35 53.125 436.666 53.125H451.333C456.648 53.125 460.958 48.8157 460.958 43.5V32.5C460.958 27.1843 456.648 22.875 451.333 22.875H436.666ZM424.291 32.5C424.291 25.6655 429.831 20.125 436.666 20.125H451.333C458.167 20.125 463.708 25.6655 463.708 32.5V43.5C463.708 50.3345 458.167 55.875 451.333 55.875H436.666C429.831 55.875 424.291 50.3345 424.291 43.5V32.5Z" fill="white"/>
<line x1="514" y1="36" x2="568" y2="36" stroke="url(#paint5_linear_2524_67841)" stroke-width="4" stroke-linecap="round" stroke-dasharray="18 18"/>
<rect x="576.5" y="1.5" width="123" height="73" rx="36.5" fill="url(#paint6_linear_2524_67841)" fill-opacity="0.5"/>
<rect x="576.5" y="1.5" width="123" height="73" rx="36.5" stroke="url(#paint7_linear_2524_67841)" stroke-width="3"/>
<path fill-rule="evenodd" clip-rule="evenodd" d="M629.555 24.4965C628.404 26.4141 628.376 28.7801 628.376 30.6641C628.376 31.4235 627.76 32.0391 627.001 32.0391C625.693 32.0391 623.701 32.4427 622.075 33.6133C620.519 34.7333 619.209 36.6122 619.209 39.8307C619.209 42.0224 619.817 43.5677 620.653 44.6694C621.499 45.7856 622.645 46.5307 623.835 46.9971C624.543 47.2741 624.891 48.0718 624.614 48.7789C624.337 49.486 623.54 49.8346 622.832 49.5576C621.284 48.9513 619.68 47.9379 618.462 46.3314C617.232 44.7103 616.459 42.5687 616.459 39.8307C616.459 35.7159 618.204 33.0115 620.468 31.3815C622.144 30.1752 624.051 29.591 625.637 29.3822C625.685 27.5886 625.932 25.1888 627.197 23.0816C628.888 20.2629 632.166 18.2891 638.001 18.2891C643.835 18.2891 647.113 20.2629 648.805 23.0816C650.069 25.1888 650.316 27.5886 650.364 29.3823C651.951 29.591 653.858 30.1752 655.533 31.3815C657.797 33.0115 659.542 35.7159 659.542 39.8307C659.542 42.5687 658.769 44.7103 657.54 46.3314C656.321 47.9379 654.717 48.9513 653.169 49.5576C652.462 49.8346 651.664 49.486 651.387 48.7789C651.11 48.0718 651.459 47.2741 652.166 46.9971C653.356 46.5307 654.502 45.7856 655.349 44.6694C656.184 43.5677 656.792 42.0224 656.792 39.8307C656.792 36.6122 655.482 34.7333 653.926 33.6133C652.301 32.4427 650.308 32.0391 649.001 32.0391C648.241 32.0391 647.626 31.4235 647.626 30.6641C647.626 28.7801 647.597 26.4141 646.447 24.4965C645.388 22.7319 643.166 21.0391 638.001 21.0391C632.835 21.0391 630.613 22.7319 629.555 24.4965ZM641.331 44.4033L640.371 45.3633C640.003 45.7316 639.874 46.2763 640.039 46.7704C640.203 47.2645 640.633 47.6231 641.149 47.6968L645.686 48.3449C646.114 48.4061 646.547 48.262 646.853 47.956C647.159 47.65 647.303 47.2177 647.242 46.7893L646.593 42.252C646.52 41.7365 646.161 41.3067 645.667 41.142C645.173 40.9774 644.628 41.1059 644.26 41.4742L643.279 42.4549C639.861 39.3732 634.588 39.4784 631.296 42.7706L630.648 43.4187C630.111 43.9557 630.111 44.8263 630.648 45.3633C631.185 45.9002 632.056 45.9002 632.593 45.3633L633.241 44.7151C635.459 42.4973 638.99 42.3933 641.331 44.4033ZM628.926 50.7521C629.232 50.4461 629.664 50.302 630.093 50.3632L634.63 51.0113C635.146 51.085 635.575 51.4436 635.74 51.9377C635.905 52.4318 635.776 52.9765 635.408 53.3448L634.448 54.3048C636.789 56.3148 640.32 56.2108 642.538 53.993L643.186 53.3448C643.723 52.8078 644.594 52.8078 645.131 53.3448C645.668 53.8818 645.668 54.7524 645.131 55.2894L644.482 55.9375C641.19 59.2297 635.918 59.3349 632.499 56.2532L631.519 57.2339C631.151 57.6021 630.606 57.7307 630.112 57.566C629.618 57.4013 629.259 56.9716 629.185 56.456L628.537 51.9188C628.476 51.4904 628.62 51.0581 628.926 50.7521Z" fill="white"/>
<defs>
<linearGradient id="paint0_linear_2524_67841" x1="250" y1="0" x2="250" y2="76" gradientUnits="userSpaceOnUse">
<stop stop-color="#4BC74A"/>
<stop offset="1" stop-color="#256124"/>
</linearGradient>
<linearGradient id="paint1_linear_2524_67841" x1="250" y1="0" x2="250" y2="76" gradientUnits="userSpaceOnUse">
<stop stop-color="#4BC74A"/>
<stop offset="1" stop-color="#76FF75"/>
</linearGradient>
<linearGradient id="paint2_linear_2524_67841" x1="347" y1="38" x2="347" y2="39" gradientUnits="userSpaceOnUse">
<stop stop-color="#4BC74A"/>
<stop offset="1" stop-color="#76FF75"/>
</linearGradient>
<linearGradient id="paint3_linear_2524_67841" x1="444" y1="0" x2="444" y2="76" gradientUnits="userSpaceOnUse">
<stop stop-color="#4BC74A"/>
<stop offset="1" stop-color="#256124"/>
</linearGradient>
<linearGradient id="paint4_linear_2524_67841" x1="444" y1="0" x2="444" y2="76" gradientUnits="userSpaceOnUse">
<stop stop-color="#4BC74A"/>
<stop offset="1" stop-color="#76FF75"/>
</linearGradient>
<linearGradient id="paint5_linear_2524_67841" x1="541" y1="38" x2="541" y2="39" gradientUnits="userSpaceOnUse">
<stop stop-color="#4BC74A"/>
<stop offset="1" stop-color="#76FF75"/>
</linearGradient>
<linearGradient id="paint6_linear_2524_67841" x1="638" y1="0" x2="638" y2="76" gradientUnits="userSpaceOnUse">
<stop stop-color="#4BC74A"/>
<stop offset="1" stop-color="#256124"/>
</linearGradient>
<linearGradient id="paint7_linear_2524_67841" x1="638" y1="0" x2="638" y2="76" gradientUnits="userSpaceOnUse">
<stop stop-color="#4BC74A"/>
<stop offset="1" stop-color="#76FF75"/>
</linearGradient>
<clipPath id="clip0_2524_67841">
<rect width="76" height="76" fill="white" transform="translate(0 76) rotate(-90)"/>
</clipPath>
</defs>
</svg>
