<svg width="154" height="131" viewBox="0 0 154 131" fill="none" xmlns="http://www.w3.org/2000/svg">
<g opacity="0.2">
<path d="M16.2969 51.3925H137.647C137.43 50.0467 137.148 48.7008 136.844 47.3984H17.1001C16.7962 48.7225 16.514 50.0467 16.2969 51.3925Z" fill="url(#paint0_linear_2304_73124)"/>
<path d="M76.9748 123.177C84.4208 123.177 91.5629 121.853 98.184 119.422H55.7656C62.365 121.853 69.5288 123.177 76.9748 123.177Z" fill="url(#paint1_linear_2304_73124)"/>
<path d="M15.4766 59.4003H138.455C138.412 58.0545 138.325 56.7087 138.195 55.4062H15.7588C15.6285 56.7304 15.5417 58.0545 15.4983 59.4003H15.4766Z" fill="url(#paint2_linear_2304_73124)"/>
<path d="M18.1875 43.3847H135.739C135.326 42.0388 134.849 40.693 134.35 39.3906H19.5768C19.0775 40.7147 18.6 42.0388 18.1875 43.3847Z" fill="url(#paint3_linear_2304_73124)"/>
<path d="M21.3108 35.4003H132.632C131.981 34.0328 131.286 32.7087 130.548 31.4062H23.3731C22.635 32.7087 21.9403 34.0545 21.2891 35.4003H21.3108Z" fill="url(#paint4_linear_2304_73124)"/>
<path d="M23.097 91.4237H130.815C131.531 90.1213 132.226 88.7755 132.833 87.4297H21.0781C21.7077 88.7972 22.3806 90.1213 23.097 91.4237Z" fill="url(#paint5_linear_2304_73124)"/>
<path d="M47.0628 115.432H106.891C109.062 114.216 111.146 112.892 113.143 111.438H40.7891C42.7862 112.892 44.8703 114.238 47.0411 115.432H47.0628Z" fill="url(#paint6_linear_2304_73124)"/>
<path d="M15.7136 67.4159H138.236C138.367 66.0918 138.453 64.7677 138.475 63.4219H15.4531C15.4965 64.7677 15.5834 66.0918 15.6919 67.4159H15.7136Z" fill="url(#paint7_linear_2304_73124)"/>
<path d="M19.4067 83.4159H134.549C135.048 82.0918 135.504 80.7677 135.916 79.4219H18.0391C18.4515 80.7677 18.9074 82.1135 19.4067 83.4159Z" fill="url(#paint8_linear_2304_73124)"/>
<path d="M28.389 99.4159H125.534C126.533 98.1135 127.488 96.7894 128.4 95.4219H25.5234C26.4352 96.7894 27.3904 98.1352 28.389 99.4159Z" fill="url(#paint9_linear_2304_73124)"/>
<path d="M16.9707 75.4003H136.954C137.257 74.0762 137.518 72.7521 137.735 71.4062H16.2109C16.428 72.7521 16.6885 74.0979 16.9924 75.4003H16.9707Z" fill="url(#paint10_linear_2304_73124)"/>
<path d="M35.8564 107.416H118.088C119.499 106.135 120.845 104.811 122.148 103.422H31.7969C33.0777 104.811 34.4453 106.157 35.8564 107.416Z" fill="url(#paint11_linear_2304_73124)"/>
<path d="M76.9778 0.125C70.0528 0.125 63.41 1.27546 57.1797 3.38101H96.7543C90.5456 1.27546 83.9028 0.125 76.9778 0.125Z" fill="url(#paint12_linear_2304_73124)"/>
<path d="M41.4844 11.3925H112.449C110.387 9.93812 108.216 8.59231 105.98 7.39844H47.9752C45.7392 8.59231 43.5684 9.93812 41.5061 11.3925H41.4844Z" fill="url(#paint13_linear_2304_73124)"/>
<path d="M25.8516 27.3925H128.077C127.143 26.025 126.166 24.6791 125.146 23.3984H28.7822C27.7619 24.7008 26.785 26.025 25.8516 27.3925Z" fill="url(#paint14_linear_2304_73124)"/>
<path d="M32.2578 19.3847H121.675C120.351 17.9954 118.962 16.6496 117.529 15.3906H36.4258C34.9714 16.6496 33.582 17.9954 32.2795 19.3847H32.2578Z" fill="url(#paint15_linear_2304_73124)"/>
</g>
<path d="M115.811 8.11546C120.543 10.8071 124.907 14.1716 128.814 18.0571C132.505 22.1163 135.717 26.6313 138.322 31.4719C143.554 41.1531 146.311 52.1367 146.289 63.142C146.289 74.1473 143.554 85.1309 138.322 94.8121C135.717 99.6527 132.505 104.168 128.792 108.227C124.863 112.069 120.522 115.477 115.789 118.168C120.109 114.869 124.06 111.157 127.447 107.011C131.05 103.061 134.176 98.6759 136.716 93.9655C141.818 84.5448 144.488 73.8651 144.488 63.142C144.488 52.4189 141.818 41.7392 136.716 32.3184C134.176 27.6081 131.072 23.2016 127.447 19.2727C124.038 15.1484 120.109 11.4149 115.789 8.09375L115.811 8.11546Z" fill="url(#paint16_linear_2304_73124)"/>
<path d="M121.953 17.2812C125.231 20.0597 128.183 23.2506 130.81 26.6803C133.307 30.1967 135.456 33.9954 137.192 37.946C140.666 45.869 142.446 54.5083 142.446 63.1692C142.446 71.8085 140.666 80.4695 137.192 88.3924C135.456 92.3431 133.328 96.1417 130.81 99.6582C128.183 103.088 125.231 106.279 121.953 109.057C124.971 105.997 127.728 102.697 130.072 99.1373C132.547 95.6642 134.653 91.9306 136.368 88.0234C139.797 80.209 141.556 71.7 141.556 63.1692C141.556 54.6385 139.797 46.1295 136.368 38.3151C134.653 34.4078 132.547 30.6743 130.072 27.2012C127.728 23.6413 124.971 20.3419 121.953 17.2812Z" fill="url(#paint17_linear_2304_73124)"/>
<path d="M130.81 114.371C131.504 113.742 132.221 113.112 132.915 112.461C132.807 111.658 132.677 110.855 132.525 110.052L133.523 109.053C133.849 108.727 134.153 108.358 134.478 108.011C135.26 108.12 136.063 108.228 136.888 108.315C137.149 108.033 137.409 107.751 137.648 107.447L135.586 105.645L137.67 107.425C139.189 105.623 140.665 103.757 141.99 101.781C141.707 101.022 141.425 100.262 141.143 99.5238C141.403 99.133 141.664 98.7423 141.903 98.3299L142.641 97.136C143.162 96.3546 143.574 95.508 144.03 94.6832C144.833 94.5963 145.658 94.5095 146.462 94.3793C146.961 93.3373 147.504 92.2954 147.981 91.2535L148.676 89.6472C148.893 89.1263 149.153 88.5836 149.327 88.0409C148.871 87.368 148.437 86.6951 147.959 86.0439C148.111 85.6098 148.285 85.1756 148.437 84.7198L148.871 83.374C149.653 83.1352 150.412 82.8964 151.194 82.6359C151.476 81.6374 151.737 80.6172 152.019 79.597C151.498 78.9892 150.955 78.3814 150.391 77.7736L150.695 76.4061L150.847 75.7115L150.955 75.0169C151.672 74.6696 152.41 74.3223 153.126 73.9533C153.191 73.4757 153.278 73.0199 153.343 72.5423L153.495 71.1314C152.887 70.5887 152.279 70.0678 151.693 69.5468C151.78 68.6134 151.824 67.68 151.889 66.7466L152.931 66.0954L153.929 65.4225V64.2721L150.478 64.2287H153.951C153.951 63.6426 153.973 63.0348 153.951 62.4487L153.886 60.6688C153.864 59.4749 153.734 58.3027 153.647 57.1306C152.931 56.7181 152.258 56.3274 151.541 55.9584L151.151 53.1582C150.999 52.2248 150.803 51.3132 150.63 50.3798C151.194 49.8154 151.758 49.2076 152.279 48.5998L151.867 46.9067C151.715 46.3423 151.606 45.7779 151.433 45.2136L150.933 43.5421C150.76 42.9778 150.608 42.4351 150.412 41.8924C149.631 41.6537 148.849 41.4366 148.09 41.2195C147.938 40.7854 147.786 40.3296 147.612 39.8954L147.091 38.593C147.525 37.9201 147.959 37.2255 148.372 36.5309C147.959 35.5758 147.482 34.6207 147.048 33.6873C146.244 33.5354 145.441 33.4268 144.638 33.34C144.182 32.5151 143.77 31.6686 143.292 30.8654C143.639 30.1274 143.965 29.4111 144.291 28.6513L143.553 27.4358L142.749 26.2636C141.946 26.2419 141.121 26.2202 140.34 26.1985C139.819 25.417 139.233 24.679 138.668 23.9193C138.929 23.1596 139.167 22.3781 139.385 21.5967L138.646 20.7067L136.801 22.2262H136.78L138.625 20.685C138.256 20.2291 137.887 19.7516 137.496 19.3175L136.302 17.9934C135.52 17.1034 134.674 16.2785 133.827 15.432C133.046 15.5622 132.242 15.7141 131.461 15.8878C131.352 15.7793 131.222 15.6707 131.092 15.5622C129.855 14.2815 128.552 13.0659 127.228 11.8721L125.231 10.2006C124.471 9.57115 123.689 8.96336 122.908 8.35557C119.673 6.16319 116.265 4.2313 112.727 2.625V3.62351C115.939 5.42517 119 7.4873 121.844 9.80992C123.016 10.6782 124.145 11.6116 125.252 12.545C125.252 12.545 125.448 12.7186 125.556 12.7837C129.572 16.2351 133.176 20.1423 136.259 24.4402C136.78 25.1349 137.257 25.8295 137.713 26.5458C138.191 27.2838 138.668 27.9784 139.102 28.7165C139.949 30.2142 140.839 31.6686 141.577 33.2315C142.38 34.7509 143.032 36.3355 143.726 37.8984L144.638 40.3079C144.964 41.111 145.224 41.9141 145.485 42.739C147.612 49.2727 148.611 56.1538 148.676 63.0131C148.632 69.8724 147.634 76.7534 145.506 83.2871C145.029 84.9369 144.356 86.5214 143.77 88.1277C143.075 89.6906 142.424 91.2969 141.621 92.8164C140.101 95.8987 138.299 98.8291 136.302 101.629C132.308 107.23 127.423 112.157 121.931 116.303C119.065 118.647 115.983 120.731 112.727 122.555V123.531C116.308 121.903 119.738 119.971 122.995 117.736C123.754 117.171 125.469 116.043 126.208 115.456C126.967 114.892 127.684 114.284 128.4 113.698C129.182 113.915 129.985 114.132 130.745 114.306L130.81 114.371Z" fill="url(#paint18_linear_2304_73124)"/>
<path d="M38.182 117.194C33.4495 114.502 29.0861 111.137 25.1786 107.252C21.4881 103.193 18.2753 98.6778 15.6703 93.8372C10.4385 84.156 7.68154 73.1724 7.70325 62.1671C7.70325 51.1618 10.4385 40.1782 15.6703 30.497C18.2753 25.6565 21.4881 21.1415 25.2003 17.0823C29.1295 13.2402 33.4712 9.83226 38.2037 7.14062C33.8837 10.44 29.9327 14.1519 26.5462 18.2979C22.9426 22.2485 19.8166 26.6333 17.2767 31.3436C12.1752 40.7643 9.50506 51.444 9.50506 62.1671C9.50506 72.8903 12.1752 83.57 17.2767 92.9907C19.8166 97.701 22.9209 102.107 26.5462 106.036C29.9545 110.161 33.8837 113.894 38.2037 117.215L38.182 117.194Z" fill="url(#paint19_linear_2304_73124)"/>
<path d="M32.0397 108.034C28.7617 105.255 25.8094 102.064 23.1826 98.6348C20.6861 95.1183 18.537 91.3196 16.8003 87.369C13.327 79.446 11.5469 70.8068 11.5469 62.1458C11.5469 53.5065 13.327 44.8456 16.8003 36.9226C18.537 32.972 20.6861 29.1733 23.1826 25.6568C25.8094 22.2272 28.7617 19.0363 32.0397 16.2578C29.0222 19.3185 26.2652 22.6179 23.9207 26.1778C21.4459 29.6509 19.3402 33.3844 17.6253 37.2916C14.1953 45.106 12.4369 53.6151 12.4369 62.1458C12.4369 70.6765 14.1953 79.1856 17.6253 87C19.3402 90.9072 21.4459 94.6407 23.9207 98.1138C26.2652 101.674 29.0222 104.973 32.0397 108.034Z" fill="url(#paint20_linear_2304_73124)"/>
<path d="M23.1604 10.9415C22.4658 11.571 21.7494 12.2005 21.0547 12.8517C21.1633 13.6548 21.2935 14.458 21.4455 15.2611L20.4469 16.2596C20.1212 16.5852 19.8173 16.9542 19.4917 17.3015C18.6885 17.193 17.907 17.0845 17.0821 16.9977C16.8216 17.2798 16.5611 17.562 16.3223 17.8659L18.3846 19.6676L16.3006 17.8876C14.781 19.6893 13.3048 21.5561 11.9806 23.5314C12.2628 24.2911 12.545 25.0508 12.8272 25.7889C12.5667 26.1796 12.3062 26.5703 12.0674 26.9827L11.3293 28.1766C10.8083 28.9798 10.3958 29.8046 9.93997 30.6295C9.13675 30.7163 8.31183 30.8031 7.50862 30.9334C7.00932 31.9753 6.46661 33.0172 5.98902 34.0591L5.29435 35.6654C5.07727 36.1864 4.81677 36.7291 4.6431 37.2717C5.09898 37.9663 5.53314 38.6175 6.01073 39.2905C5.85877 39.7246 5.6851 40.1587 5.53314 40.6146L5.12068 41.9604C4.33918 42.1992 3.57938 42.4379 2.79788 42.6984C2.51567 43.6969 2.25516 44.7171 1.97295 45.7373C2.49396 46.3451 3.03667 46.9529 3.60109 47.5607L3.29717 48.9282L3.14521 49.6228L3.03667 50.3175C2.32029 50.6648 1.5822 51.0121 0.865821 51.3811C0.800695 51.8586 0.713861 52.3145 0.648736 52.792L0.496776 54.203C1.10461 54.7456 1.71245 55.2666 2.29858 55.7876C2.21175 56.7209 2.16833 57.6543 2.1032 58.5877L1.0612 59.2389L0.0626067 59.9118V61.0623L3.51426 61.1057H0.0408982C0.0408982 61.6918 0.0191897 62.2996 0.0408982 62.8856L0.106024 64.6656C0.127732 65.8595 0.257983 67.0316 0.344817 68.2038C1.0612 68.6162 1.73416 69.0069 2.45054 69.376L2.84129 72.1761C2.99325 73.1095 3.18863 74.0212 3.3623 74.9546C2.79788 75.519 2.23346 76.1267 1.71245 76.7345L2.12491 78.4277C2.27687 78.992 2.38541 79.5564 2.55908 80.1208L3.05838 81.7922C3.23205 82.3566 3.38401 82.8992 3.57938 83.4419C4.36089 83.6807 5.14239 83.8977 5.90219 84.1148C6.05415 84.5489 6.20611 85.0048 6.37978 85.4389L6.90078 86.7413C6.46661 87.4142 6.03244 88.1088 5.61998 88.8035C6.03244 89.7586 6.51003 90.7137 6.9442 91.647C7.74741 91.799 8.55062 91.9075 9.35384 91.9943C9.80972 92.8192 10.2222 93.6658 10.6998 94.4689C10.3524 95.2069 10.0268 95.9233 9.70117 96.683L10.4393 97.8986L11.2425 99.0707C12.0457 99.0924 12.8706 99.1142 13.6521 99.1142C14.1731 99.8956 14.7593 100.634 15.3237 101.393C15.0632 102.153 14.8244 102.935 14.6073 103.716L15.3454 104.606L17.1906 103.086H17.2123L15.3671 104.628C15.7361 105.083 16.1052 105.561 16.4959 105.995L17.6899 107.319C18.4714 108.231 19.318 109.034 20.1647 109.881C20.9462 109.75 21.7494 109.598 22.5309 109.425C22.6394 109.533 22.7697 109.642 22.8999 109.75C24.1373 111.031 25.4398 112.247 26.764 113.441L28.7612 115.112C29.521 115.741 30.3025 116.349 31.084 116.957C34.3186 119.149 37.7268 121.081 41.2653 122.688V121.689C38.0525 119.887 34.9916 117.825 32.1478 115.503C30.9755 114.634 29.8466 113.723 28.7395 112.768C28.7395 112.768 28.5441 112.594 28.4356 112.529C24.4195 109.078 20.8159 105.17 17.7333 100.872C17.2123 100.178 16.7347 99.4832 16.2788 98.7668C15.8013 98.0288 15.3237 97.3342 14.8895 96.5962C14.0429 95.0984 13.1528 93.6441 12.4147 92.0812C11.6115 90.5617 10.9603 88.9771 10.2656 87.4142L9.35384 85.0048C9.02821 84.2016 8.76771 83.3985 8.50721 82.5736C6.37978 76.0399 5.38119 69.1589 5.31606 62.2996C5.35948 55.4402 6.35807 48.5592 8.4855 42.0255C8.96309 40.3758 9.63605 38.7912 10.2222 37.1849C10.9169 35.622 11.5681 34.0157 12.3713 32.4962C13.8909 29.4139 15.6927 26.4835 17.6899 23.6833C21.6843 18.083 26.5687 13.1556 32.0609 9.00959C34.9264 6.66526 38.009 4.58142 41.2653 2.75805V1.78125C37.6834 3.40925 34.2535 5.34115 30.9972 7.57694C30.2374 8.14132 28.5224 9.27007 27.7843 9.85615C27.0245 10.4205 26.3082 11.0283 25.5918 11.6144C24.8103 11.3973 24.0071 11.1803 23.2473 11.0066L23.1604 10.9415Z" fill="url(#paint21_linear_2304_73124)"/>
<path d="M93.7115 100.439C96.0994 100.439 98.0315 98.5067 98.1183 96.1406H46.9297C47.0165 98.5284 48.9486 100.439 51.3365 100.439H93.7332H93.7115Z" fill="#00FFFF"/>
<path d="M113.66 57.025C109.818 54.9411 102.046 54.9411 99.5281 61.5182C99.5281 61.4531 99.5281 61.3663 99.5281 61.2795V55.7008C99.5281 54.9845 98.9419 54.3984 98.2256 54.3984H46.8416C46.1252 54.3984 45.5391 54.9845 45.5391 55.7008V61.2795C45.5391 71.9158 47.2106 84.2886 58.499 93.0147C59.541 93.8178 60.8218 94.2085 62.1243 94.2085H82.9645C84.267 94.2085 85.5695 93.8178 86.5898 93.0147C89.629 90.6486 91.9735 88.0221 93.7753 85.2437C100.635 83.2901 113.66 80.4682 118.111 71.6119C121.671 64.5138 117.394 59.022 113.704 57.025H113.66ZM113.27 70.3963C109.536 75.8447 101.243 78.2758 96.6843 79.448C98.0302 75.9749 98.7683 72.3933 99.1373 68.8334L99.2024 68.8768C100.353 69.2675 101.699 68.0737 102.133 66.5759C103.674 61.2143 107.604 59.6298 111.316 61.3446C114.116 62.6253 115.875 66.5759 113.248 70.3963H113.27Z" fill="#00FFFF"/>
<path d="M78.2121 34.3836C77.8865 34.796 77.4958 35.1868 77.0399 35.6209C76.5623 36.055 76.0847 36.5109 75.6723 37.0535C72.0252 41.8941 75.4769 48.1457 75.4986 48.1674C75.5854 48.3844 75.8025 48.5147 76.0196 48.5147C76.063 48.5147 76.1281 48.5147 76.1716 48.5147C76.4538 48.4278 76.6274 48.1674 76.5623 47.8418C76.5623 47.7766 74.5434 41.2212 78.6897 37.4225C79.1022 37.0535 79.6232 36.5543 80.0791 35.9465C80.535 35.3821 80.9257 34.7743 81.2296 34.1448C81.577 33.4502 81.8158 32.7339 81.946 32.0176C82.5104 28.5662 80.3179 24.9412 80.2527 24.8109C80.1442 24.5505 79.862 24.4202 79.5798 24.4853C79.2976 24.5722 79.1239 24.8327 79.189 25.1583C79.189 25.2017 80.6435 29.7384 79.0588 33.0378C78.8417 33.4936 78.5595 33.9278 78.1904 34.3836H78.2121Z" fill="#00FFFF"/>
<path d="M69.8278 30.6528C69.4154 31.3475 68.8727 31.9769 68.33 32.6281C67.7221 33.3228 67.1143 34.0825 66.5933 34.9291C66.0506 35.7973 65.6164 36.6873 65.3125 37.6207C64.9869 38.5541 64.8132 39.5743 64.7915 40.6379C64.7481 42.483 65.2908 44.3715 66.3545 46.108C66.5282 46.3902 66.7018 46.6724 66.8755 46.9329L67.7872 48.2787C67.8958 48.4306 68.0695 48.5175 68.2431 48.5175C68.33 48.5175 68.4168 48.5175 68.5036 48.4523C68.7641 48.3221 68.8727 48.0399 68.7858 47.7794L68.2648 46.2383C68.2214 46.1297 68.178 45.9995 68.1346 45.8475C67.6353 44.5017 66.6367 41.7233 67.6787 38.4021C67.9175 37.6641 68.2648 36.9478 68.7207 36.2315C69.1332 35.5368 69.6759 34.9074 70.2186 34.2561C70.8264 33.5615 71.4343 32.8018 71.9553 31.9552C72.498 31.087 72.9322 30.197 73.2361 29.2636C73.5617 28.3302 73.7354 27.31 73.7571 26.2464C73.8005 24.4013 73.2578 22.5128 72.1941 20.7763C72.0204 20.4941 71.8467 20.2119 71.6731 19.9514L70.7613 18.6056C70.6093 18.3668 70.3054 18.3017 70.0449 18.4103C69.7844 18.5405 69.6759 18.8227 69.7627 19.0832L70.3488 20.8414C70.7613 22.057 71.8684 25.2913 70.8481 28.4605C70.6093 29.1985 70.262 29.9148 69.8061 30.6311L69.8278 30.6528Z" fill="#00FFFF"/>
<defs>
<linearGradient id="paint0_linear_2304_73124" x1="16.2969" y1="49.3955" x2="137.647" y2="49.3955" gradientUnits="userSpaceOnUse">
<stop stop-color="#0071BC"/>
<stop offset="1" stop-color="#00FFFF"/>
</linearGradient>
<linearGradient id="paint1_linear_2304_73124" x1="55.7656" y1="121.31" x2="98.1623" y2="121.31" gradientUnits="userSpaceOnUse">
<stop stop-color="#0071BC"/>
<stop offset="1" stop-color="#00FFFF"/>
</linearGradient>
<linearGradient id="paint2_linear_2304_73124" x1="15.4766" y1="57.4033" x2="138.455" y2="57.4033" gradientUnits="userSpaceOnUse">
<stop stop-color="#0071BC"/>
<stop offset="1" stop-color="#00FFFF"/>
</linearGradient>
<linearGradient id="paint3_linear_2304_73124" x1="18.1875" y1="41.3876" x2="135.739" y2="41.3876" gradientUnits="userSpaceOnUse">
<stop stop-color="#0071BC"/>
<stop offset="1" stop-color="#00FFFF"/>
</linearGradient>
<linearGradient id="paint4_linear_2304_73124" x1="21.3108" y1="33.3816" x2="132.61" y2="33.3816" gradientUnits="userSpaceOnUse">
<stop stop-color="#0071BC"/>
<stop offset="1" stop-color="#00FFFF"/>
</linearGradient>
<linearGradient id="paint5_linear_2304_73124" x1="21.0781" y1="89.405" x2="132.855" y2="89.405" gradientUnits="userSpaceOnUse">
<stop stop-color="#0071BC"/>
<stop offset="1" stop-color="#00FFFF"/>
</linearGradient>
<linearGradient id="paint6_linear_2304_73124" x1="40.7891" y1="113.435" x2="113.143" y2="113.435" gradientUnits="userSpaceOnUse">
<stop stop-color="#0071BC"/>
<stop offset="1" stop-color="#00FFFF"/>
</linearGradient>
<linearGradient id="paint7_linear_2304_73124" x1="15.4531" y1="65.3972" x2="138.475" y2="65.3972" gradientUnits="userSpaceOnUse">
<stop stop-color="#0071BC"/>
<stop offset="1" stop-color="#00FFFF"/>
</linearGradient>
<linearGradient id="paint8_linear_2304_73124" x1="18.0391" y1="81.4189" x2="135.894" y2="81.4189" gradientUnits="userSpaceOnUse">
<stop stop-color="#0071BC"/>
<stop offset="1" stop-color="#00FFFF"/>
</linearGradient>
<linearGradient id="paint9_linear_2304_73124" x1="25.5234" y1="97.4189" x2="128.4" y2="97.4189" gradientUnits="userSpaceOnUse">
<stop stop-color="#0071BC"/>
<stop offset="1" stop-color="#00FFFF"/>
</linearGradient>
<linearGradient id="paint10_linear_2304_73124" x1="16.2109" y1="73.4033" x2="137.735" y2="73.4033" gradientUnits="userSpaceOnUse">
<stop stop-color="#0071BC"/>
<stop offset="1" stop-color="#00FFFF"/>
</linearGradient>
<linearGradient id="paint11_linear_2304_73124" x1="31.7969" y1="105.419" x2="122.148" y2="105.419" gradientUnits="userSpaceOnUse">
<stop stop-color="#0071BC"/>
<stop offset="1" stop-color="#00FFFF"/>
</linearGradient>
<linearGradient id="paint12_linear_2304_73124" x1="57.1797" y1="1.753" x2="96.7543" y2="1.753" gradientUnits="userSpaceOnUse">
<stop stop-color="#0071BC"/>
<stop offset="1" stop-color="#00FFFF"/>
</linearGradient>
<linearGradient id="paint13_linear_2304_73124" x1="41.4844" y1="9.37375" x2="112.449" y2="9.37375" gradientUnits="userSpaceOnUse">
<stop stop-color="#0071BC"/>
<stop offset="1" stop-color="#00FFFF"/>
</linearGradient>
<linearGradient id="paint14_linear_2304_73124" x1="25.8516" y1="25.3955" x2="128.077" y2="25.3955" gradientUnits="userSpaceOnUse">
<stop stop-color="#0071BC"/>
<stop offset="1" stop-color="#00FFFF"/>
</linearGradient>
<linearGradient id="paint15_linear_2304_73124" x1="32.2578" y1="17.3876" x2="121.675" y2="17.3876" gradientUnits="userSpaceOnUse">
<stop stop-color="#0071BC"/>
<stop offset="1" stop-color="#00FFFF"/>
</linearGradient>
<linearGradient id="paint16_linear_2304_73124" x1="188.404" y1="63.142" x2="116.375" y2="63.142" gradientUnits="userSpaceOnUse">
<stop stop-color="#0071BC"/>
<stop offset="1" stop-color="#00FFFF"/>
</linearGradient>
<linearGradient id="paint17_linear_2304_73124" x1="188.403" y1="63.1475" x2="116.374" y2="63.1475" gradientUnits="userSpaceOnUse">
<stop stop-color="#0071BC"/>
<stop offset="1" stop-color="#00FFFF"/>
</linearGradient>
<linearGradient id="paint18_linear_2304_73124" x1="188.402" y1="63.165" x2="116.374" y2="63.165" gradientUnits="userSpaceOnUse">
<stop stop-color="#0071BC"/>
<stop offset="1" stop-color="#00FFFF"/>
</linearGradient>
<linearGradient id="paint19_linear_2304_73124" x1="-40.0337" y1="62.1671" x2="41.46" y2="62.1671" gradientUnits="userSpaceOnUse">
<stop stop-color="#0071BC"/>
<stop offset="1" stop-color="#00FFFF"/>
</linearGradient>
<linearGradient id="paint20_linear_2304_73124" x1="-40.0325" y1="62.1675" x2="41.4612" y2="62.1675" gradientUnits="userSpaceOnUse">
<stop stop-color="#0071BC"/>
<stop offset="1" stop-color="#00FFFF"/>
</linearGradient>
<linearGradient id="paint21_linear_2304_73124" x1="-40.033" y1="62.1476" x2="41.4607" y2="62.1476" gradientUnits="userSpaceOnUse">
<stop stop-color="#0071BC"/>
<stop offset="1" stop-color="#00FFFF"/>
</linearGradient>
</defs>
</svg>
