<svg width="35" height="38" viewBox="0 0 35 38" fill="none" xmlns="http://www.w3.org/2000/svg">
<g clip-path="url(#clip0_2524_54303)">
<path d="M22.1984 37.8081C23.2984 37.8081 24.1884 36.9181 24.2284 35.8281H0.648438C0.688437 36.9281 1.57844 37.8081 2.67844 37.8081H22.2084H22.1984Z" fill="white"/>
<path d="M31.4 17.8037C29.63 16.8437 26.05 16.8438 24.89 19.8738C24.89 19.8438 24.89 19.8038 24.89 19.7638V17.1938C24.89 16.8638 24.62 16.5938 24.29 16.5938H0.6C0.27 16.5938 0 16.8638 0 17.1938V19.7638C0 24.6637 0.77 30.3638 5.97 34.3838C6.45 34.7538 7.04 34.9338 7.64 34.9338H17.24C17.84 34.9338 18.44 34.7538 18.91 34.3838C20.31 33.2938 21.39 32.0837 22.22 30.8037C25.38 29.9037 31.38 28.6038 33.43 24.5238C35.07 21.2538 33.1 18.7237 31.4 17.8037ZM31.22 23.9637C29.5 26.4737 25.68 27.5937 23.58 28.1337C24.2 26.5337 24.54 24.8837 24.71 23.2437L24.74 23.2638C25.27 23.4437 25.89 22.8938 26.09 22.2038C26.8 19.7338 28.61 19.0038 30.32 19.7938C31.61 20.3838 32.42 22.2037 31.21 23.9637H31.22Z" fill="white"/>
<path d="M15.0692 7.38015C14.9192 7.57015 14.7392 7.75014 14.5292 7.95014C14.3092 8.15014 14.0892 8.36014 13.8992 8.61014C12.2192 10.8401 13.8092 13.7201 13.8192 13.7301C13.8592 13.8301 13.9592 13.8901 14.0592 13.8901C14.0792 13.8901 14.1092 13.8901 14.1292 13.8901C14.2592 13.8501 14.3392 13.7301 14.3092 13.5801C14.3092 13.5501 13.3792 10.5301 15.2892 8.78014C15.4792 8.61014 15.7192 8.38015 15.9292 8.10015C16.1392 7.84015 16.3192 7.56014 16.4592 7.27014C16.6192 6.95014 16.7292 6.62015 16.7892 6.29015C17.0492 4.70015 16.0392 3.03015 16.0092 2.97015C15.9592 2.85015 15.8292 2.79015 15.6992 2.82015C15.5692 2.86015 15.4892 2.98015 15.5192 3.13015C15.5192 3.15015 16.1892 5.24015 15.4592 6.76015C15.3592 6.97015 15.2292 7.17015 15.0592 7.38015H15.0692Z" fill="white"/>
<path d="M11.2078 5.64781C11.0178 5.96781 10.7678 6.25781 10.5178 6.55781C10.2378 6.87781 9.95783 7.22781 9.71783 7.61781C9.46783 8.01781 9.26783 8.42781 9.12783 8.85781C8.97783 9.28781 8.89783 9.75781 8.88783 10.2478C8.86783 11.0978 9.11783 11.9678 9.60783 12.7678C9.68783 12.8978 9.76783 13.0278 9.84783 13.1478L10.2678 13.7678C10.3178 13.8378 10.3978 13.8778 10.4778 13.8778C10.5178 13.8778 10.5578 13.8778 10.5978 13.8478C10.7178 13.7878 10.7678 13.6578 10.7278 13.5378L10.4878 12.8278C10.4678 12.7778 10.4478 12.7178 10.4278 12.6478C10.1978 12.0278 9.73783 10.7478 10.2178 9.21781C10.3278 8.87781 10.4878 8.54781 10.6978 8.21781C10.8878 7.89781 11.1378 7.60781 11.3878 7.30781C11.6678 6.98781 11.9478 6.63781 12.1878 6.24781C12.4378 5.84781 12.6378 5.43781 12.7778 5.00781C12.9278 4.57781 13.0078 4.10781 13.0178 3.61781C13.0378 2.76781 12.7878 1.89781 12.2978 1.09781C12.2178 0.967813 12.1378 0.837813 12.0578 0.717813L11.6378 0.0978125C11.5678 -0.0121875 11.4278 -0.0421875 11.3078 0.0078125C11.1878 0.0678125 11.1378 0.197812 11.1778 0.317813L11.4478 1.12781C11.6378 1.68781 12.1478 3.17781 11.6778 4.63781C11.5678 4.97781 11.4078 5.30781 11.1978 5.63781L11.2078 5.64781Z" fill="white"/>
</g>
<defs>
<clipPath id="clip0_2524_54303">
<rect width="34.04" height="37.81" fill="white"/>
</clipPath>
</defs>
</svg>
