<svg width="400" height="70" viewBox="0 0 400 70" fill="none" xmlns="http://www.w3.org/2000/svg">
<rect x="1" y="1" width="398" height="68" rx="34" fill="url(#paint0_linear_2524_59578)" fill-opacity="0.1"/>
<rect x="1" y="1" width="398" height="68" rx="34" stroke="url(#paint1_linear_2524_59578)" stroke-width="2"/>
<path fill-rule="evenodd" clip-rule="evenodd" d="M325.709 31.1641C325.709 30.3702 326.356 29.7266 327.155 29.7266L342.576 29.7266C343.375 29.7266 344.022 30.3702 344.022 31.1641C344.022 31.958 343.375 32.6016 342.576 32.6016L327.155 32.6016C326.356 32.6016 325.709 31.958 325.709 31.1641Z" fill="white"/>
<path fill-rule="evenodd" clip-rule="evenodd" d="M323.781 38.8307C323.781 38.0368 324.428 37.3932 325.227 37.3932H327.155C327.953 37.3932 328.6 38.0368 328.6 38.8307C328.6 39.6246 327.953 40.2682 327.155 40.2682H325.227C324.428 40.2682 323.781 39.6246 323.781 38.8307Z" fill="white"/>
<path fill-rule="evenodd" clip-rule="evenodd" d="M341.131 38.8307C341.131 38.0368 341.778 37.3932 342.576 37.3932H344.504C345.303 37.3932 345.95 38.0368 345.95 38.8307C345.95 39.6246 345.303 40.2682 344.504 40.2682H342.576C341.778 40.2682 341.131 39.6246 341.131 38.8307Z" fill="white"/>
<path fill-rule="evenodd" clip-rule="evenodd" d="M325.841 21.1016C324.878 21.1016 324.006 21.6727 323.627 22.5536L319.157 32.9238C319.028 33.222 318.962 33.5431 318.962 33.8675V45.0599H350.769V33.8675C350.769 33.5431 350.703 33.222 350.574 32.9238L346.104 22.5536C345.725 21.6727 344.853 21.1016 343.89 21.1016H325.841ZM350.769 47.9349H345.95V50.8099H350.769V47.9349ZM343.058 47.9349V51.0974C343.058 52.5264 344.223 53.6849 345.661 53.6849H351.058C352.496 53.6849 353.661 52.5264 353.661 51.0974V33.8675C353.661 33.1537 353.515 32.4474 353.232 31.7913L348.762 21.4211C347.927 19.4831 346.01 18.2266 343.89 18.2266H325.841C323.721 18.2266 321.804 19.4831 320.969 21.4211L316.499 31.7913C316.216 32.4474 316.07 33.1537 316.07 33.8675V51.0974C316.07 52.5264 317.235 53.6849 318.673 53.6849H324.07C325.508 53.6849 326.673 52.5264 326.673 51.0974V47.9349H343.058ZM323.781 47.9349H318.962V50.8099H323.781V47.9349Z" fill="white"/>
<path fill-rule="evenodd" clip-rule="evenodd" d="M245.18 41.5934C245.774 42.1245 245.822 43.0335 245.288 43.6236L245.268 43.6449C244.734 44.235 243.82 44.2828 243.227 43.7517C242.633 43.2206 242.585 42.3117 243.119 41.7216L243.138 41.7003C243.673 41.1102 244.587 41.0624 245.18 41.5934Z" fill="white"/>
<path fill-rule="evenodd" clip-rule="evenodd" d="M236.001 21.1016V48.8932H252.386V21.1016H236.001ZM233.109 20.8141C233.109 19.385 234.275 18.2266 235.712 18.2266H252.676C254.113 18.2266 255.278 19.385 255.278 20.8141V49.1807C255.278 50.6098 254.113 51.7682 252.676 51.7682H235.712C234.275 51.7682 233.109 50.6098 233.109 49.1807V20.8141Z" fill="white"/>
<path fill-rule="evenodd" clip-rule="evenodd" d="M55.9745 31.1641C55.9745 30.3702 56.6218 29.7266 57.4203 29.7266L72.842 29.7266C73.6404 29.7266 74.2877 30.3702 74.2877 31.1641C74.2877 31.958 73.6404 32.6016 72.842 32.6016L57.4203 32.6016C56.6218 32.6016 55.9745 31.958 55.9745 31.1641Z" fill="white"/>
<path fill-rule="evenodd" clip-rule="evenodd" d="M54.0468 38.8307C54.0468 38.0368 54.6941 37.3932 55.4926 37.3932H57.4203C58.2188 37.3932 58.8661 38.0368 58.8661 38.8307C58.8661 39.6246 58.2188 40.2682 57.4203 40.2682H55.4926C54.6941 40.2682 54.0468 39.6246 54.0468 38.8307Z" fill="white"/>
<path fill-rule="evenodd" clip-rule="evenodd" d="M71.3962 38.8307C71.3962 38.0368 72.0435 37.3932 72.842 37.3932H74.7697C75.5682 37.3932 76.2155 38.0368 76.2155 38.8307C76.2155 39.6246 75.5682 40.2682 74.7697 40.2682H72.842C72.0435 40.2682 71.3962 39.6246 71.3962 38.8307Z" fill="white"/>
<path fill-rule="evenodd" clip-rule="evenodd" d="M56.1071 21.1016C55.1432 21.1016 54.272 21.6727 53.8923 22.5536L49.4223 32.9238C49.2938 33.222 49.2275 33.5431 49.2275 33.8675V45.0599H81.0347V33.8675C81.0347 33.5431 80.9685 33.222 80.8399 32.9238L76.3699 22.5536C75.9902 21.6727 75.1191 21.1016 74.1551 21.1016H56.1071ZM81.0347 47.9349H76.2155V50.8099H81.0347V47.9349ZM73.3239 47.9349V51.0974C73.3239 52.5264 74.489 53.6849 75.9263 53.6849H81.3239C82.7612 53.6849 83.9263 52.5264 83.9263 51.0974V33.8675C83.9263 33.1537 83.7805 32.4474 83.4977 31.7913L79.0277 21.4211C78.1924 19.4831 76.2758 18.2266 74.1551 18.2266H56.1071C53.9865 18.2266 52.0699 19.4831 51.2345 21.4211L46.7646 31.7913C46.4818 32.4474 46.3359 33.1537 46.3359 33.8675V51.0974C46.3359 52.5264 47.5011 53.6849 48.9383 53.6849H54.3359C55.7732 53.6849 56.9383 52.5264 56.9383 51.0974V47.9349H73.3239ZM54.0468 47.9349H49.2275V50.8099H54.0468V47.9349Z" fill="white"/>
<path fill-rule="evenodd" clip-rule="evenodd" d="M150.024 42.1368C150.822 42.1368 151.47 42.7803 151.47 43.5743V50.3358C151.47 51.659 152.548 52.7317 153.879 52.7317H161.59C162.921 52.7317 164 51.659 164 50.3358V43.5743C164 42.7803 164.647 42.1368 165.446 42.1368C166.244 42.1368 166.891 42.7803 166.891 43.5743V50.3358C166.891 53.2468 164.518 55.6067 161.59 55.6067H153.879C150.952 55.6067 148.578 53.2468 148.578 50.3358V43.5743C148.578 42.7803 149.225 42.1368 150.024 42.1368Z" fill="white"/>
<path fill-rule="evenodd" clip-rule="evenodd" d="M153.879 17.2734C152.548 17.2734 151.47 18.3461 151.47 19.6693V26.4309C151.47 27.2248 150.822 27.8684 150.024 27.8684C149.225 27.8684 148.578 27.2248 148.578 26.4309V19.6693C148.578 16.7583 150.952 14.3984 153.879 14.3984H161.59C164.518 14.3984 166.891 16.7583 166.891 19.6693V26.4309C166.891 27.2248 166.244 27.8684 165.446 27.8684C164.647 27.8684 164 27.2248 164 26.4309V19.6693C164 18.3461 162.921 17.2734 161.59 17.2734H153.879Z" fill="white"/>
<path fill-rule="evenodd" clip-rule="evenodd" d="M157.735 24.9401C152.145 24.9401 147.614 29.4452 147.614 35.0026C147.614 40.56 152.145 45.0651 157.735 45.0651C163.324 45.0651 167.855 40.56 167.855 35.0026C167.855 29.4452 163.324 24.9401 157.735 24.9401ZM144.723 35.0026C144.723 27.8574 150.548 22.0651 157.735 22.0651C164.921 22.0651 170.747 27.8574 170.747 35.0026C170.747 42.1478 164.921 47.9401 157.735 47.9401C150.548 47.9401 144.723 42.1478 144.723 35.0026Z" fill="white"/>
<path fill-rule="evenodd" clip-rule="evenodd" d="M157.735 29.7318C158.533 29.7318 159.18 30.3754 159.18 31.1693V33.5651H161.59C162.389 33.5651 163.036 34.2087 163.036 35.0026C163.036 35.7965 162.389 36.4401 161.59 36.4401H157.735C156.936 36.4401 156.289 35.7965 156.289 35.0026V31.1693C156.289 30.3754 156.936 29.7318 157.735 29.7318Z" fill="white"/>
<path d="M176.653 38.8359L178.547 37.7334C193.551 29.0013 212.185 29.4273 226.773 38.8359" stroke="#70CDDD" stroke-width="2" stroke-linecap="round"/>
<path d="M260.614 38.8359L262.508 37.7334C277.512 29.0013 296.146 29.4273 310.734 38.8359" stroke="#70CDDD" stroke-width="2" stroke-linecap="round"/>
<path d="M89.4811 38.8359L91.3755 37.7334C106.379 29.0013 125.013 29.4273 139.602 38.8359" stroke="#70CDDD" stroke-width="2" stroke-linecap="round"/>
<defs>
<linearGradient id="paint0_linear_2524_59578" x1="0" y1="35" x2="399.871" y2="35" gradientUnits="userSpaceOnUse">
<stop stop-color="#81ECF2"/>
<stop offset="1" stop-color="#60B3D8"/>
</linearGradient>
<linearGradient id="paint1_linear_2524_59578" x1="0" y1="35" x2="399.871" y2="35" gradientUnits="userSpaceOnUse">
<stop stop-color="#81ECF2"/>
<stop offset="1" stop-color="#60B3D8"/>
</linearGradient>
</defs>
</svg>
