<svg width="216" height="169" viewBox="0 0 216 169" fill="none" xmlns="http://www.w3.org/2000/svg">
<path fill-rule="evenodd" clip-rule="evenodd" d="M169.828 45.1454H178.6C182.977 45.1544 186.527 48.7116 186.536 53.0972V58.2575C186.527 62.6431 182.986 66.2003 178.6 66.2273H175.482L169.828 45.1454ZM195.883 58.4015C194.481 58.2665 193.402 57.0867 193.402 55.6728C193.402 54.259 194.481 53.0793 195.883 52.9531H201.806C202.57 52.8811 203.325 53.1333 203.9 53.6556C204.466 54.1689 204.79 54.9074 204.79 55.6728C204.79 56.4473 204.466 57.1858 203.9 57.6991C203.325 58.2214 202.57 58.4736 201.806 58.4015L195.883 58.4015ZM187.929 70.8201C187.408 70.3068 187.12 69.6224 187.12 68.893C187.12 68.1725 187.408 67.4791 187.929 66.9748C188.432 66.4614 189.124 66.1733 189.843 66.1733C190.562 66.1733 191.254 66.4614 191.758 66.9748L195.955 71.1803C197.015 72.234 197.015 73.963 195.955 75.0168C194.894 76.0794 193.178 76.0794 192.117 75.0168L187.92 70.8112L187.929 70.8201ZM192.719 43.9735V43.9645C191.659 45.0272 189.942 45.0272 188.882 43.9645C187.83 42.9109 187.83 41.1819 188.882 40.1281L193.079 35.9225C194.139 34.8599 195.856 34.8599 196.917 35.9225C197.968 36.9852 197.968 38.7052 196.917 39.768L192.719 43.9735ZM49.4215 0C58.3821 0 66.9654 3.56625 73.3018 9.90615C79.6291 16.255 83.1883 24.8554 83.1883 33.8341C83.1883 42.8128 79.6291 51.4129 73.3018 57.762C66.9656 64.1019 58.3823 67.6682 49.4215 67.6682C40.4607 67.6682 31.8777 64.1019 25.5413 57.762C19.214 51.4131 15.6548 42.8128 15.6548 33.8341C15.6548 24.8554 19.214 16.2553 25.5413 9.90615C31.8775 3.56625 40.4607 0 49.4215 0ZM42.4742 8.47426C40.7036 8.43823 39.1398 9.63598 38.7084 11.356L32.7677 34.2661C32.4801 35.3918 32.7228 36.5895 33.4238 37.5262C34.1158 38.4538 35.1944 39.0211 36.3626 39.0662L40.9643 39.2103L37.5579 54.5106C37.1984 56.1856 37.9803 57.8968 39.4813 58.7162C40.9822 59.5357 42.8426 59.2745 44.056 58.0678L65.1228 36.5986C66.2104 35.4729 66.5069 33.7979 65.8868 32.3571C65.2577 30.9252 63.8286 30.0067 62.2648 30.0426H58.3102L65.8327 14.0758L65.8417 14.0668C66.327 12.905 66.2192 11.5813 65.5451 10.5185C64.88 9.45584 63.7386 8.78042 62.4804 8.71739L42.5909 8.47424L42.4742 8.47426ZM59.8742 14.1207L43.6515 13.9046L38.5195 33.7348L43.0223 33.8789C44.1727 33.9149 45.2422 34.4553 45.9521 35.3558C46.6621 36.2654 46.9318 37.4361 46.6891 38.5617L44.0558 50.35L58.5798 35.5359H55.9644C54.6343 35.5989 53.367 34.9505 52.6301 33.8428C51.8931 32.7351 51.7852 31.3212 52.3425 30.1145L59.8919 14.0485L59.8742 14.1207ZM162.378 38.1385V38.1295C162.091 37.1479 162.513 36.0943 163.412 35.5899L177.388 27.5209H177.379C178.385 26.8455 178.736 25.5307 178.197 24.4411L172.543 14.6431C172.247 14.1298 171.752 13.7515 171.177 13.5984C170.602 13.4454 169.991 13.5264 169.47 13.8326L145.005 27.9982C144.124 28.5115 143.702 29.5562 143.971 30.5469L170.718 130.634C171.815 134.642 175.904 137.028 179.922 136.02L180.524 135.848C184.568 134.759 186.968 130.589 185.889 126.528L162.377 38.184L162.378 38.1385ZM184.425 99.6194V99.6104C195.147 100.907 204.656 107.13 210.157 116.451C215.658 125.763 216.529 137.109 212.503 147.15C208.477 157.191 200.028 164.792 189.621 167.709C179.222 170.627 168.059 168.538 159.413 162.045C150.776 155.561 145.626 145.412 145.5 134.597C145.374 123.772 150.273 113.506 158.757 106.814L161.3 116.423C153.301 124.96 151.98 137.802 158.074 147.798C164.159 157.785 176.166 162.477 187.4 159.253C198.635 156.038 206.337 145.69 206.229 133.983C206.113 122.276 198.212 112.082 186.924 109.073L184.524 99.7072L184.425 99.6194ZM181.288 87.9482V87.9392C194.797 88.2544 207.46 94.5583 215.872 105.158C216.043 105.446 216.043 105.806 215.872 106.095C215.728 106.41 215.405 106.617 215.054 106.626H209.473C202.525 99.2234 193.034 94.7386 182.914 94.0901L181.287 88.0114L181.288 87.9482ZM157.247 101.295C146.677 108.688 140.305 120.72 140.116 133.642H135.632C135.389 133.633 135.155 133.534 134.985 133.354C134.814 133.183 134.724 132.939 134.742 132.705C135.048 117.522 142.876 103.482 155.62 95.2607L157.247 101.295ZM188.623 115.415C196.505 118.909 201.359 126.969 200.793 135.579C200.226 144.197 194.348 151.546 186.08 153.977C177.811 156.409 168.914 153.41 163.782 146.466C158.659 139.523 158.407 130.112 163.144 122.907L165.543 132.03C167.44 138.973 174.558 143.089 181.505 141.252L182.107 141.107C189.028 139.198 193.126 132.066 191.311 125.114L188.695 115.361L188.623 115.415ZM44.3636 124.132C48.426 124.132 52.093 126.582 53.6479 130.337C55.2028 134.102 54.34 138.433 51.4639 141.306C48.5969 144.188 44.2739 145.043 40.526 143.485C36.7692 141.927 34.3246 138.262 34.3246 134.192C34.3156 131.517 35.3762 128.96 37.2545 127.068C39.1419 125.177 41.7034 124.123 44.3636 124.132ZM76.6742 67.5229C75.4339 67.5229 74.4183 68.5406 74.4183 69.7833V78.4286C74.4183 79.6984 75.4069 80.752 76.6742 80.8332H105.623C106.89 80.7521 107.879 79.6985 107.879 78.4286V74.106C107.879 70.4678 104.94 67.5229 101.309 67.5229L76.6742 67.5229ZM98.9903 86.1373V120.818H83.1721V86.1373H98.9903ZM57.3339 125.763C60.4257 130.527 60.6592 136.605 57.936 141.586H110.666H110.657C111.439 141.613 112.176 141.207 112.581 140.532L151.38 78.8344L145.798 57.8966L103.35 124.708C102.946 125.365 102.227 125.761 101.454 125.761L57.3339 125.763ZM77.7537 120.819H52.203C51.6368 120.495 51.0526 120.207 50.4594 119.954L63.0871 106.887C63.2488 106.698 63.4825 106.59 63.7342 106.599H77.7549L77.7537 120.819ZM44.3641 99.4218C35.9157 99.4128 27.7549 102.502 21.4186 108.094C15.0734 113.687 10.9931 121.413 9.92347 129.807C8.86292 138.209 10.8941 146.71 15.6307 153.707C20.3761 160.713 27.5034 165.747 35.6911 167.863C43.8699 169.98 52.5339 169.025 60.0753 165.198C67.6068 161.362 73.4847 154.905 76.6035 147.043H67.0137C62.43 155.139 53.8649 160.173 44.5716 160.227C35.2694 160.272 26.6503 155.346 21.9678 147.295C17.2944 139.244 17.2583 129.302 21.8959 121.223C26.5245 113.145 35.1167 108.165 44.419 108.156C47.3219 108.156 50.2069 108.642 52.9481 109.597L59.2305 103.086L59.4912 102.843V102.852C54.7906 100.582 49.6317 99.4115 44.4189 99.4205L44.3641 99.4218ZM48.6333 114.02C47.2312 113.732 45.8021 113.587 44.3641 113.587C37.2909 113.578 30.7119 117.217 26.9461 123.214C23.1804 129.221 22.749 136.732 25.8137 143.126C28.8874 149.511 35.008 153.869 42.0364 154.671C49.0737 155.463 56.0121 152.581 60.425 147.043H52.9025C48.8491 149.772 43.753 150.429 39.1514 148.808C34.5497 147.187 30.9726 143.486 29.5166 138.821C28.0607 134.156 28.8785 129.077 31.7366 125.115C34.5946 121.152 39.1515 118.775 44.0317 118.703L48.5345 113.903L48.6333 114.02ZM77.7525 88.4435H39.4024C28.9676 88.4525 18.9556 92.613 11.5669 100.015C4.17922 107.409 0.0179465 117.441 0 127.897V133.282C0 133.778 0.395466 134.183 0.889776 134.192H4.22414C4.2511 124.367 7.87302 114.884 14.4071 107.553C20.9321 100.213 29.9108 95.5306 39.6541 94.3779C49.3967 93.2162 59.2201 95.6837 67.2825 101.294H77.7531L77.7525 88.4435Z" fill="url(#paint0_linear_2524_69356)"/>
<defs>
<linearGradient id="paint0_linear_2524_69356" x1="108" y1="0" x2="108" y2="169" gradientUnits="userSpaceOnUse">
<stop stop-color="#4BC74A"/>
<stop offset="1" stop-color="#76FF75"/>
</linearGradient>
</defs>
</svg>
