<svg width="701" height="138" viewBox="0 0 701 138" fill="none" xmlns="http://www.w3.org/2000/svg">
<rect x="1.5" y="1.5" width="280" height="57" rx="28.5" fill="url(#paint0_linear_2524_67530)" fill-opacity="0.5"/>
<rect x="1.5" y="1.5" width="280" height="57" rx="28.5" stroke="url(#paint1_linear_2524_67530)" stroke-width="3"/>
<path d="M52.1934 25.8613C51.9427 25.5247 51.6921 25.2347 51.4414 24.9912C51.1979 24.7477 50.9365 24.5472 50.6572 24.3896C50.3779 24.2249 50.07 24.1068 49.7334 24.0352C49.404 23.9564 49.0316 23.917 48.6162 23.917C47.9574 23.917 47.3486 24.0745 46.79 24.3896C46.2386 24.6976 45.7624 25.1344 45.3613 25.7002C44.9603 26.2588 44.6452 26.9284 44.416 27.709C44.194 28.4896 44.083 29.3454 44.083 30.2764C44.083 31.2145 44.1976 32.0775 44.4268 32.8652C44.6559 33.6458 44.9746 34.319 45.3828 34.8848C45.791 35.4505 46.2708 35.891 46.8223 36.2061C47.3809 36.5212 47.986 36.6787 48.6377 36.6787C49.4684 36.6787 50.1846 36.5033 50.7861 36.1523C51.3949 35.7943 51.9463 35.2965 52.4404 34.6592L53.6328 35.6904C53.3535 36.07 53.0384 36.4173 52.6875 36.7324C52.3366 37.0404 51.9499 37.3089 51.5273 37.5381C51.112 37.7601 50.6572 37.932 50.1631 38.0537C49.6761 38.1826 49.1533 38.2471 48.5947 38.2471C47.9645 38.2471 47.3737 38.1576 46.8223 37.9785C46.2708 37.7923 45.7624 37.5309 45.2969 37.1943C44.8385 36.8577 44.4268 36.4531 44.0615 35.9805C43.7035 35.5007 43.3955 34.9671 43.1377 34.3799C42.887 33.7926 42.6937 33.1589 42.5576 32.4785C42.4287 31.791 42.3643 31.0713 42.3643 30.3193C42.3643 29.1735 42.5182 28.1172 42.8262 27.1504C43.1341 26.1764 43.5638 25.335 44.1152 24.626C44.6738 23.917 45.3363 23.362 46.1025 22.9609C46.876 22.5599 47.7282 22.3594 48.6592 22.3594C49.7191 22.3594 50.6465 22.5599 51.4414 22.9609C52.2435 23.362 52.9489 23.9814 53.5576 24.8193L52.1934 25.8613ZM65.6748 32.1455C65.6748 33.1266 65.5423 33.9967 65.2773 34.7559C65.0124 35.515 64.6507 36.1523 64.1924 36.668C63.7412 37.1836 63.2077 37.5775 62.5918 37.8496C61.9759 38.1146 61.3135 38.2471 60.6045 38.2471C59.9027 38.2471 59.2474 38.1182 58.6387 37.8604C58.0371 37.6025 57.5143 37.2194 57.0703 36.7109C56.6263 36.2025 56.2754 35.5758 56.0176 34.8311C55.7669 34.0791 55.6416 33.2126 55.6416 32.2314C55.6416 31.2575 55.7705 30.3945 56.0283 29.6426C56.2933 28.8906 56.6549 28.2604 57.1133 27.752C57.5716 27.2435 58.1087 26.8604 58.7246 26.6025C59.3405 26.3376 59.9993 26.2051 60.7012 26.2051C61.403 26.2051 62.0547 26.3304 62.6562 26.5811C63.265 26.8317 63.7913 27.2077 64.2354 27.709C64.6865 28.2103 65.0374 28.8333 65.2881 29.5781C65.5459 30.3158 65.6748 31.1715 65.6748 32.1455ZM64.0205 32.1885C64.0205 31.4294 63.9382 30.7669 63.7734 30.2012C63.6087 29.6283 63.3796 29.152 63.0859 28.7725C62.7923 28.3929 62.4378 28.11 62.0225 27.9238C61.6143 27.7305 61.1595 27.6338 60.6582 27.6338C60.1569 27.6338 59.6986 27.7305 59.2832 27.9238C58.875 28.11 58.5241 28.3929 58.2305 28.7725C57.9368 29.152 57.7077 29.6283 57.543 30.2012C57.3854 30.7669 57.3066 31.4294 57.3066 32.1885C57.3066 32.9476 57.3854 33.6172 57.543 34.1973C57.7077 34.7702 57.9368 35.25 58.2305 35.6367C58.5241 36.0234 58.875 36.3171 59.2832 36.5176C59.6986 36.7109 60.1569 36.8076 60.6582 36.8076C61.1595 36.8076 61.6143 36.7109 62.0225 36.5176C62.4378 36.3171 62.7923 36.0234 63.0859 35.6367C63.3796 35.25 63.6087 34.7702 63.7734 34.1973C63.9382 33.6172 64.0205 32.9476 64.0205 32.1885ZM75.9551 38V31.2432C75.9551 29.9971 75.7331 29.084 75.2891 28.5039C74.8451 27.9238 74.1576 27.6338 73.2266 27.6338C72.8255 27.6338 72.4495 27.7054 72.0986 27.8486C71.7549 27.9847 71.4541 28.1995 71.1963 28.4932C70.9385 28.7868 70.7344 29.1628 70.584 29.6211C70.4408 30.0723 70.3691 30.613 70.3691 31.2432V38H68.7148V26.4521H70.3691V27.8594C70.5339 27.6159 70.7236 27.3939 70.9385 27.1934C71.1533 26.9928 71.3932 26.821 71.6582 26.6777C71.9303 26.5273 72.224 26.4128 72.5391 26.334C72.8542 26.248 73.1943 26.2051 73.5596 26.2051C74.1683 26.2051 74.7197 26.2982 75.2139 26.4844C75.7152 26.6634 76.1413 26.9463 76.4922 27.333C76.8431 27.7197 77.1152 28.2139 77.3086 28.8154C77.502 29.417 77.5986 30.1331 77.5986 30.9639V38H75.9551ZM85.3223 38H83.8721L79.7363 26.4521H81.498L84.624 36.0879L87.7393 26.4521H89.458L85.3223 38ZM100.565 31.8877C100.565 32.0882 100.558 32.2565 100.544 32.3926C100.537 32.5215 100.522 32.654 100.501 32.79H92.7988C92.8418 33.4059 92.9421 33.9609 93.0996 34.4551C93.2643 34.9492 93.4827 35.3717 93.7549 35.7227C94.027 36.0736 94.3529 36.3421 94.7324 36.5283C95.112 36.7145 95.5381 36.8076 96.0107 36.8076C96.3473 36.8076 96.6517 36.7861 96.9238 36.7432C97.2031 36.693 97.4645 36.6214 97.708 36.5283C97.9587 36.4352 98.2021 36.3206 98.4385 36.1846C98.682 36.0485 98.9362 35.891 99.2012 35.7119L99.9746 36.9043C99.6309 37.1263 99.3014 37.3232 98.9863 37.4951C98.6784 37.6598 98.3633 37.7995 98.041 37.9141C97.7188 38.0215 97.3786 38.1038 97.0205 38.1611C96.6696 38.2184 96.2757 38.2471 95.8389 38.2471C95.488 38.2471 95.1263 38.2005 94.7539 38.1074C94.3887 38.0215 94.0306 37.8783 93.6797 37.6777C93.3359 37.4772 93.0101 37.2194 92.7021 36.9043C92.3942 36.5892 92.1257 36.2061 91.8965 35.7549C91.6673 35.3037 91.4847 34.7809 91.3486 34.1865C91.2197 33.5921 91.1553 32.9189 91.1553 32.167C91.1553 31.2503 91.2734 30.4232 91.5098 29.6855C91.7533 28.9479 92.0863 28.3213 92.5088 27.8057C92.9313 27.29 93.4326 26.8962 94.0127 26.624C94.5999 26.3447 95.2373 26.2051 95.9248 26.2051C96.6768 26.2051 97.3428 26.3483 97.9229 26.6348C98.5029 26.9141 98.9863 27.3044 99.373 27.8057C99.7669 28.307 100.064 28.9085 100.265 29.6104C100.465 30.305 100.565 31.0641 100.565 31.8877ZM99.0293 31.4473C98.9935 30.8887 98.904 30.3766 98.7607 29.9111C98.6247 29.4385 98.4277 29.0339 98.1699 28.6973C97.9193 28.3607 97.6042 28.0993 97.2246 27.9131C96.8451 27.7269 96.4046 27.6338 95.9033 27.6338C95.4736 27.6338 95.0798 27.7126 94.7217 27.8701C94.3636 28.0205 94.0485 28.2568 93.7764 28.5791C93.5114 28.8942 93.293 29.2917 93.1211 29.7715C92.9564 30.2441 92.849 30.8027 92.7988 31.4473H99.0293ZM109.546 28.1709C109.317 28.0348 109.066 27.9274 108.794 27.8486C108.522 27.7699 108.192 27.7305 107.806 27.7305C107.004 27.7305 106.384 28.0384 105.947 28.6543C105.518 29.263 105.303 30.1188 105.303 31.2217V38H103.648V26.4521H105.303V27.8809C105.432 27.6517 105.596 27.4368 105.797 27.2363C105.997 27.0286 106.219 26.8496 106.463 26.6992C106.714 26.5488 106.982 26.4307 107.269 26.3447C107.555 26.2516 107.852 26.2051 108.16 26.2051C108.59 26.2051 108.948 26.2337 109.234 26.291C109.521 26.3411 109.764 26.4092 109.965 26.4951L109.546 28.1709ZM117.613 37.8496C117.291 37.9785 116.965 38.0752 116.636 38.1396C116.313 38.2113 115.93 38.2471 115.486 38.2471C115.128 38.2471 114.813 38.2005 114.541 38.1074C114.269 38.0143 114.04 37.8639 113.854 37.6562C113.667 37.4486 113.524 37.18 113.424 36.8506C113.331 36.514 113.284 36.1058 113.284 35.626V27.8379H111.855V26.4521H113.284V22.8857L114.938 21.9619V26.4521H117.796V27.8379H114.938V35.3574C114.938 35.6152 114.956 35.8337 114.992 36.0127C115.035 36.1846 115.1 36.3278 115.186 36.4424C115.279 36.5498 115.397 36.6286 115.54 36.6787C115.69 36.7217 115.877 36.7432 116.099 36.7432C116.435 36.7432 116.725 36.7181 116.969 36.668C117.212 36.6107 117.466 36.5283 117.731 36.4209L117.613 37.8496ZM136.09 25.8613C135.839 25.5247 135.589 25.2347 135.338 24.9912C135.094 24.7477 134.833 24.5472 134.554 24.3896C134.274 24.2249 133.966 24.1068 133.63 24.0352C133.3 23.9564 132.928 23.917 132.513 23.917C131.854 23.917 131.245 24.0745 130.687 24.3896C130.135 24.6976 129.659 25.1344 129.258 25.7002C128.857 26.2588 128.542 26.9284 128.312 27.709C128.09 28.4896 127.979 29.3454 127.979 30.2764C127.979 31.2145 128.094 32.0775 128.323 32.8652C128.552 33.6458 128.871 34.319 129.279 34.8848C129.688 35.4505 130.167 35.891 130.719 36.2061C131.277 36.5212 131.882 36.6787 132.534 36.6787C133.365 36.6787 134.081 36.5033 134.683 36.1523C135.291 35.7943 135.843 35.2965 136.337 34.6592L137.529 35.6904C137.25 36.07 136.935 36.4173 136.584 36.7324C136.233 37.0404 135.846 37.3089 135.424 37.5381C135.008 37.7601 134.554 37.932 134.06 38.0537C133.573 38.1826 133.05 38.2471 132.491 38.2471C131.861 38.2471 131.27 38.1576 130.719 37.9785C130.167 37.7923 129.659 37.5309 129.193 37.1943C128.735 36.8577 128.323 36.4531 127.958 35.9805C127.6 35.5007 127.292 34.9671 127.034 34.3799C126.784 33.7926 126.59 33.1589 126.454 32.4785C126.325 31.791 126.261 31.0713 126.261 30.3193C126.261 29.1735 126.415 28.1172 126.723 27.1504C127.031 26.1764 127.46 25.335 128.012 24.626C128.57 23.917 129.233 23.362 129.999 22.9609C130.772 22.5599 131.625 22.3594 132.556 22.3594C133.616 22.3594 134.543 22.5599 135.338 22.9609C136.14 23.362 136.845 23.9814 137.454 24.8193L136.09 25.8613ZM152.858 30.2764C152.858 31.4365 152.701 32.5036 152.386 33.4775C152.078 34.4515 151.641 35.293 151.075 36.002C150.517 36.7109 149.84 37.2624 149.045 37.6562C148.257 38.0501 147.387 38.2471 146.435 38.2471C145.475 38.2471 144.605 38.0537 143.824 37.667C143.044 37.2731 142.374 36.7253 141.815 36.0234C141.264 35.3216 140.834 34.4873 140.526 33.5205C140.226 32.5465 140.075 31.4795 140.075 30.3193C140.075 29.1592 140.229 28.0921 140.537 27.1182C140.845 26.1442 141.278 25.3063 141.837 24.6045C142.403 23.8955 143.076 23.3441 143.856 22.9502C144.644 22.5563 145.518 22.3594 146.478 22.3594C147.43 22.3594 148.297 22.5563 149.077 22.9502C149.865 23.3369 150.538 23.8812 151.097 24.583C151.655 25.2777 152.089 26.112 152.396 27.0859C152.704 28.0527 152.858 29.1162 152.858 30.2764ZM151.14 30.3193C151.14 29.3525 151.018 28.4753 150.774 27.6875C150.538 26.8997 150.209 26.2266 149.786 25.668C149.364 25.1094 148.862 24.6797 148.282 24.3789C147.709 24.071 147.086 23.917 146.413 23.917C145.747 23.917 145.131 24.0674 144.565 24.3682C144 24.6689 143.513 25.0951 143.104 25.6465C142.696 26.1979 142.374 26.8675 142.138 27.6553C141.909 28.4359 141.794 29.3096 141.794 30.2764C141.794 31.2432 141.912 32.1204 142.148 32.9082C142.392 33.696 142.721 34.3691 143.137 34.9277C143.559 35.4863 144.057 35.9196 144.63 36.2275C145.203 36.5283 145.826 36.6787 146.499 36.6787C147.165 36.6787 147.781 36.5319 148.347 36.2383C148.912 35.9375 149.403 35.5114 149.818 34.96C150.234 34.4014 150.556 33.7318 150.785 32.9512C151.021 32.1634 151.14 31.2861 151.14 30.3193ZM160.955 40.86H154.795V40.024L157.391 37.428C157.948 36.8707 158.403 36.394 158.755 35.998C159.107 35.602 159.363 35.2353 159.525 34.898C159.686 34.5607 159.767 34.2013 159.767 33.82C159.767 33.3067 159.605 32.9033 159.283 32.61C158.975 32.302 158.527 32.148 157.941 32.148C157.486 32.148 157.068 32.2287 156.687 32.39C156.32 32.5367 155.939 32.764 155.543 33.072L155.015 32.324C155.425 31.9867 155.873 31.7227 156.357 31.532C156.855 31.3267 157.391 31.224 157.963 31.224C158.872 31.224 159.576 31.4587 160.075 31.928C160.588 32.3973 160.845 33.0133 160.845 33.776C160.845 34.2747 160.735 34.7367 160.515 35.162C160.309 35.5727 160.009 35.998 159.613 36.438C159.217 36.8633 158.74 37.3547 158.183 37.912L156.137 39.892H160.955V40.86ZM176.083 27.4404L175.159 28.6543C174.665 28.2676 174.207 27.999 173.784 27.8486C173.369 27.6911 172.868 27.6123 172.28 27.6123C171.672 27.6123 171.199 27.7484 170.862 28.0205C170.526 28.2855 170.357 28.6257 170.357 29.041C170.357 29.2845 170.397 29.4993 170.476 29.6855C170.562 29.8646 170.701 30.0365 170.895 30.2012C171.095 30.3659 171.36 30.5342 171.689 30.7061C172.019 30.8708 172.427 31.0641 172.914 31.2861C173.458 31.5368 173.945 31.7731 174.375 31.9951C174.805 32.2171 175.166 32.4642 175.46 32.7363C175.754 33.0085 175.979 33.3236 176.137 33.6816C176.294 34.0326 176.373 34.4658 176.373 34.9814C176.373 35.5472 176.258 36.0378 176.029 36.4531C175.807 36.8613 175.51 37.1979 175.138 37.4629C174.765 37.7279 174.343 37.9248 173.87 38.0537C173.397 38.1826 172.91 38.2471 172.409 38.2471C171.607 38.2471 170.866 38.111 170.186 37.8389C169.505 37.5667 168.889 37.2087 168.338 36.7646L169.305 35.5615C169.77 35.9697 170.268 36.2848 170.798 36.5068C171.328 36.7217 171.879 36.8291 172.452 36.8291C173.247 36.8291 173.834 36.6751 174.214 36.3672C174.593 36.0521 174.783 35.6152 174.783 35.0566C174.783 34.8203 174.737 34.6055 174.644 34.4121C174.55 34.2188 174.396 34.0326 174.182 33.8535C173.974 33.6673 173.695 33.4847 173.344 33.3057C173 33.1195 172.57 32.9154 172.055 32.6934C171.475 32.4499 170.977 32.2135 170.562 31.9844C170.153 31.7552 169.817 31.5117 169.552 31.2539C169.287 30.9889 169.09 30.6917 168.961 30.3623C168.839 30.0257 168.778 29.6247 168.778 29.1592C168.778 28.7223 168.868 28.3213 169.047 27.9561C169.226 27.5908 169.477 27.2793 169.799 27.0215C170.121 26.7637 170.501 26.5632 170.938 26.4199C171.382 26.2767 171.865 26.2051 172.388 26.2051C173.183 26.2051 173.884 26.3197 174.493 26.5488C175.109 26.778 175.639 27.0752 176.083 27.4404ZM185.998 38V36.5928C185.798 36.8148 185.572 37.026 185.321 37.2266C185.078 37.4271 184.806 37.6025 184.505 37.7529C184.211 37.9033 183.889 38.0215 183.538 38.1074C183.187 38.2005 182.808 38.2471 182.399 38.2471C181.948 38.2471 181.501 38.1862 181.057 38.0645C180.613 37.9427 180.215 37.7386 179.864 37.4521C179.521 37.1585 179.238 36.7754 179.016 36.3027C178.801 35.8301 178.693 35.2428 178.693 34.541C178.693 33.8965 178.815 33.3415 179.059 32.876C179.309 32.4105 179.639 32.0273 180.047 31.7266C180.455 31.4258 180.924 31.2038 181.454 31.0605C181.991 30.9173 182.546 30.8457 183.119 30.8457C183.706 30.8457 184.247 30.9102 184.741 31.0391C185.235 31.168 185.654 31.3255 185.998 31.5117V30.1475C185.998 29.2809 185.794 28.64 185.386 28.2246C184.978 27.8021 184.347 27.5908 183.495 27.5908C182.886 27.5908 182.328 27.6696 181.819 27.8271C181.311 27.9847 180.82 28.1995 180.348 28.4717L179.735 27.1289C180.244 26.8568 180.827 26.6348 181.486 26.4629C182.145 26.291 182.851 26.2051 183.603 26.2051C184.226 26.2051 184.788 26.2767 185.289 26.4199C185.79 26.556 186.213 26.7744 186.557 27.0752C186.908 27.376 187.176 27.7627 187.362 28.2354C187.556 28.708 187.652 29.2773 187.652 29.9434V38H185.998ZM185.998 32.833C185.812 32.7256 185.618 32.6325 185.418 32.5537C185.217 32.4678 184.999 32.3962 184.763 32.3389C184.526 32.2816 184.265 32.2386 183.979 32.21C183.699 32.1813 183.384 32.167 183.033 32.167C182.181 32.167 181.515 32.3639 181.035 32.7578C180.562 33.1445 180.326 33.7031 180.326 34.4336C180.326 34.8633 180.383 35.2357 180.498 35.5508C180.613 35.8587 180.77 36.113 180.971 36.3135C181.178 36.514 181.425 36.6644 181.712 36.7646C182.006 36.8577 182.328 36.9043 182.679 36.9043C183.051 36.9043 183.398 36.8613 183.721 36.7754C184.05 36.6823 184.354 36.557 184.634 36.3994C184.913 36.2419 185.167 36.0592 185.396 35.8516C185.626 35.6367 185.826 35.4076 185.998 35.1641V32.833ZM195.537 38H194.087L189.951 26.4521H191.713L194.839 36.0879L197.954 26.4521H199.673L195.537 38ZM204.507 23.2188C204.507 23.3763 204.475 23.5267 204.41 23.6699C204.353 23.806 204.271 23.9277 204.163 24.0352C204.056 24.1426 203.93 24.2285 203.787 24.293C203.651 24.3503 203.508 24.3789 203.357 24.3789C203.186 24.3789 203.024 24.3503 202.874 24.293C202.731 24.2285 202.605 24.1426 202.498 24.0352C202.391 23.9277 202.305 23.806 202.24 23.6699C202.176 23.5267 202.144 23.3763 202.144 23.2188C202.144 23.054 202.176 22.9001 202.24 22.7568C202.305 22.6064 202.391 22.4775 202.498 22.3701C202.605 22.2627 202.731 22.1803 202.874 22.123C203.024 22.0586 203.186 22.0264 203.357 22.0264C203.508 22.0264 203.651 22.0586 203.787 22.123C203.93 22.1803 204.056 22.2627 204.163 22.3701C204.271 22.4775 204.353 22.6064 204.41 22.7568C204.475 22.9001 204.507 23.054 204.507 23.2188ZM202.498 38V26.4521H204.152V38H202.498ZM215.152 38V31.2432C215.152 29.9971 214.93 29.084 214.486 28.5039C214.042 27.9238 213.355 27.6338 212.424 27.6338C212.023 27.6338 211.647 27.7054 211.296 27.8486C210.952 27.9847 210.651 28.1995 210.394 28.4932C210.136 28.7868 209.932 29.1628 209.781 29.6211C209.638 30.0723 209.566 30.613 209.566 31.2432V38H207.912V26.4521H209.566V27.8594C209.731 27.6159 209.921 27.3939 210.136 27.1934C210.351 26.9928 210.59 26.821 210.855 26.6777C211.128 26.5273 211.421 26.4128 211.736 26.334C212.051 26.248 212.392 26.2051 212.757 26.2051C213.366 26.2051 213.917 26.2982 214.411 26.4844C214.912 26.6634 215.339 26.9463 215.689 27.333C216.04 27.7197 216.312 28.2139 216.506 28.8154C216.699 29.417 216.796 30.1331 216.796 30.9639V38H215.152ZM229.085 36.9688C229.085 37.7923 228.981 38.5335 228.773 39.1924C228.566 39.8584 228.222 40.4134 227.742 40.8574C227.298 41.2799 226.679 41.6058 225.884 41.835C225.089 42.0713 224.086 42.2074 222.876 42.2432L222.457 40.9004C223.553 40.9004 224.423 40.8288 225.067 40.6855C225.719 40.5423 226.192 40.3454 226.485 40.0947C226.808 39.8154 227.044 39.4323 227.194 38.9453C227.352 38.4655 227.431 37.8783 227.431 37.1836V36.5928C227.223 36.8148 226.997 37.026 226.754 37.2266C226.518 37.4271 226.256 37.6025 225.97 37.7529C225.69 37.9033 225.382 38.0215 225.046 38.1074C224.709 38.2005 224.348 38.2471 223.961 38.2471C223.381 38.2471 222.84 38.1361 222.339 37.9141C221.838 37.6849 221.401 37.334 221.028 36.8613C220.656 36.3815 220.362 35.7764 220.147 35.0459C219.933 34.3083 219.825 33.431 219.825 32.4141C219.825 31.39 219.936 30.4912 220.158 29.7178C220.387 28.9443 220.699 28.2962 221.093 27.7734C221.487 27.2507 221.949 26.8604 222.479 26.6025C223.008 26.3376 223.574 26.2051 224.176 26.2051C224.541 26.2051 224.878 26.2445 225.186 26.3232C225.493 26.3949 225.78 26.4987 226.045 26.6348C226.31 26.7708 226.553 26.9355 226.775 27.1289C227.005 27.3151 227.223 27.5228 227.431 27.752V26.4521H229.085V36.9688ZM224.38 36.8076C224.996 36.8076 225.554 36.6572 226.056 36.3564C226.564 36.0557 227.022 35.651 227.431 35.1426V29.374C227.273 29.1305 227.083 28.9049 226.861 28.6973C226.646 28.4824 226.407 28.2962 226.142 28.1387C225.877 27.9811 225.59 27.8594 225.282 27.7734C224.974 27.6803 224.648 27.6338 224.305 27.6338C223.345 27.6338 222.629 28.0384 222.156 28.8477C221.684 29.6497 221.447 30.8314 221.447 32.3926C221.447 33.8464 221.705 34.9456 222.221 35.6904C222.743 36.4352 223.463 36.8076 224.38 36.8076ZM239.612 27.4404L238.688 28.6543C238.194 28.2676 237.736 27.999 237.313 27.8486C236.898 27.6911 236.397 27.6123 235.81 27.6123C235.201 27.6123 234.728 27.7484 234.392 28.0205C234.055 28.2855 233.887 28.6257 233.887 29.041C233.887 29.2845 233.926 29.4993 234.005 29.6855C234.091 29.8646 234.23 30.0365 234.424 30.2012C234.624 30.3659 234.889 30.5342 235.219 30.7061C235.548 30.8708 235.956 31.0641 236.443 31.2861C236.988 31.5368 237.475 31.7731 237.904 31.9951C238.334 32.2171 238.696 32.4642 238.989 32.7363C239.283 33.0085 239.508 33.3236 239.666 33.6816C239.824 34.0326 239.902 34.4658 239.902 34.9814C239.902 35.5472 239.788 36.0378 239.559 36.4531C239.337 36.8613 239.039 37.1979 238.667 37.4629C238.295 37.7279 237.872 37.9248 237.399 38.0537C236.927 38.1826 236.44 38.2471 235.938 38.2471C235.136 38.2471 234.395 38.111 233.715 37.8389C233.035 37.5667 232.419 37.2087 231.867 36.7646L232.834 35.5615C233.299 35.9697 233.797 36.2848 234.327 36.5068C234.857 36.7217 235.409 36.8291 235.981 36.8291C236.776 36.8291 237.364 36.6751 237.743 36.3672C238.123 36.0521 238.312 35.6152 238.312 35.0566C238.312 34.8203 238.266 34.6055 238.173 34.4121C238.08 34.2188 237.926 34.0326 237.711 33.8535C237.503 33.6673 237.224 33.4847 236.873 33.3057C236.529 33.1195 236.1 32.9154 235.584 32.6934C235.004 32.4499 234.506 32.2135 234.091 31.9844C233.683 31.7552 233.346 31.5117 233.081 31.2539C232.816 30.9889 232.619 30.6917 232.49 30.3623C232.368 30.0257 232.308 29.6247 232.308 29.1592C232.308 28.7223 232.397 28.3213 232.576 27.9561C232.755 27.5908 233.006 27.2793 233.328 27.0215C233.65 26.7637 234.03 26.5632 234.467 26.4199C234.911 26.2767 235.394 26.2051 235.917 26.2051C236.712 26.2051 237.414 26.3197 238.022 26.5488C238.638 26.778 239.168 27.0752 239.612 27.4404Z" fill="white"/>
<line x1="301" y1="28" x2="363" y2="28" stroke="url(#paint2_linear_2524_67530)" stroke-width="4" stroke-linecap="round" stroke-dasharray="18 18"/>
<rect x="382.5" y="1.5" width="193" height="57" rx="28.5" fill="url(#paint3_linear_2524_67530)" fill-opacity="0.5"/>
<rect x="382.5" y="1.5" width="193" height="57" rx="28.5" stroke="url(#paint4_linear_2524_67530)" stroke-width="3"/>
<path d="M433.655 38H424.02V22.5957H433.333V24.1641H425.738V28.998H431.883V30.5664H425.738V36.4424H433.655V38ZM446.116 33.9502C446.116 34.5518 446.002 35.1139 445.772 35.6367C445.543 36.1595 445.21 36.6143 444.773 37.001C444.337 37.3877 443.799 37.6921 443.162 37.9141C442.532 38.1361 441.816 38.2471 441.014 38.2471C440.491 38.2471 439.982 38.1934 439.488 38.0859C439.001 37.9785 438.536 37.8317 438.092 37.6455C437.655 37.4521 437.247 37.2266 436.867 36.9688C436.488 36.7038 436.147 36.4173 435.847 36.1094L436.985 34.8311C437.573 35.3968 438.203 35.848 438.876 36.1846C439.549 36.514 440.283 36.6787 441.078 36.6787C441.594 36.6787 442.056 36.6178 442.464 36.4961C442.872 36.3743 443.219 36.1989 443.506 35.9697C443.792 35.7406 444.011 35.4648 444.161 35.1426C444.319 34.8132 444.397 34.4443 444.397 34.0361C444.397 33.6781 444.337 33.3558 444.215 33.0693C444.1 32.7757 443.9 32.5036 443.613 32.2529C443.334 31.9951 442.958 31.748 442.485 31.5117C442.013 31.2754 441.425 31.0319 440.724 30.7812C439.893 30.4876 439.195 30.194 438.629 29.9004C438.063 29.5996 437.605 29.2773 437.254 28.9336C436.91 28.5827 436.663 28.196 436.513 27.7734C436.362 27.3438 436.287 26.8496 436.287 26.291C436.287 25.6751 436.402 25.1237 436.631 24.6367C436.867 24.1497 437.193 23.738 437.608 23.4014C438.031 23.0648 438.536 22.807 439.123 22.6279C439.717 22.4489 440.376 22.3594 441.1 22.3594C441.615 22.3594 442.088 22.3988 442.518 22.4775C442.954 22.5492 443.359 22.6566 443.731 22.7998C444.111 22.9359 444.465 23.1077 444.795 23.3154C445.132 23.516 445.461 23.7451 445.783 24.0029L444.688 25.3457C444.408 25.1165 444.129 24.9124 443.85 24.7334C443.57 24.5544 443.284 24.404 442.99 24.2822C442.697 24.1605 442.385 24.071 442.056 24.0137C441.733 23.9492 441.379 23.917 440.992 23.917C440.462 23.917 440.007 23.9779 439.628 24.0996C439.248 24.2214 438.937 24.3896 438.693 24.6045C438.457 24.8122 438.282 25.0521 438.167 25.3242C438.052 25.5964 437.995 25.8828 437.995 26.1836C437.995 26.5059 438.042 26.7959 438.135 27.0537C438.228 27.3115 438.407 27.5622 438.672 27.8057C438.937 28.042 439.306 28.2819 439.778 28.5254C440.258 28.7617 440.881 29.016 441.647 29.2881C442.5 29.596 443.212 29.9076 443.785 30.2227C444.358 30.5306 444.816 30.8672 445.16 31.2324C445.504 31.5905 445.747 31.9915 445.891 32.4355C446.041 32.8724 446.116 33.3773 446.116 33.9502ZM460.94 31.8662C460.94 32.9261 460.797 33.8571 460.511 34.6592C460.224 35.4541 459.827 36.1165 459.318 36.6465C458.81 37.1764 458.208 37.5775 457.514 37.8496C456.819 38.1146 456.063 38.2471 455.247 38.2471C454.259 38.2471 453.367 38.0251 452.572 37.5811C451.777 37.137 451.126 36.5605 450.617 35.8516C450.109 35.1354 449.718 34.3262 449.446 33.4238C449.174 32.5143 449.031 31.4795 449.017 30.3193C449.017 29.1735 449.171 28.1172 449.479 27.1504C449.786 26.1764 450.216 25.335 450.768 24.626C451.326 23.917 451.989 23.362 452.755 22.9609C453.528 22.5599 454.381 22.3594 455.312 22.3594C456.371 22.3594 457.299 22.5599 458.094 22.9609C458.896 23.362 459.601 23.9814 460.21 24.8193L458.846 25.8613C458.595 25.5247 458.344 25.2347 458.094 24.9912C457.85 24.7477 457.589 24.5472 457.31 24.3896C457.03 24.2249 456.722 24.1068 456.386 24.0352C456.056 23.9564 455.684 23.917 455.269 23.917C454.61 23.917 454.001 24.0745 453.442 24.3896C452.891 24.6976 452.415 25.1344 452.014 25.7002C451.613 26.2588 451.298 26.9284 451.068 27.709C450.846 28.4896 450.735 29.3454 450.735 30.2764C450.735 31.2145 450.85 32.0775 451.079 32.8652C451.315 33.6458 451.638 34.319 452.046 34.8848C452.454 35.4505 452.934 35.891 453.485 36.2061C454.044 36.5212 454.646 36.6787 455.29 36.6787C456.579 36.6787 457.564 36.292 458.244 35.5186C458.924 34.7451 459.265 33.5993 459.265 32.0811V31.9521H456.493V30.3623H460.94V31.8662ZM477.655 36.6357C477.412 36.8864 477.158 37.112 476.893 37.3125C476.628 37.5059 476.345 37.6742 476.044 37.8174C475.743 37.9535 475.417 38.0573 475.066 38.1289C474.723 38.2077 474.347 38.2471 473.938 38.2471C473.308 38.2471 472.7 38.1253 472.112 37.8818C471.532 37.6383 471.017 37.2695 470.565 36.7754C470.114 36.2812 469.753 35.6618 469.48 34.917C469.215 34.165 469.083 33.2878 469.083 32.2852C469.083 31.2181 469.226 30.3014 469.513 29.5352C469.806 28.7689 470.186 28.1387 470.651 27.6445C471.124 27.1504 471.658 26.7887 472.252 26.5596C472.846 26.3232 473.444 26.2051 474.046 26.2051C474.834 26.2051 475.525 26.334 476.119 26.5918C476.721 26.8496 477.247 27.1755 477.698 27.5693L476.71 28.8047C476.502 28.6185 476.295 28.4538 476.087 28.3105C475.879 28.1602 475.664 28.0348 475.442 27.9346C475.228 27.8343 474.995 27.7591 474.744 27.709C474.501 27.6589 474.232 27.6338 473.938 27.6338C473.487 27.6338 473.065 27.734 472.671 27.9346C472.284 28.1351 471.948 28.4287 471.661 28.8154C471.382 29.195 471.16 29.6676 470.995 30.2334C470.83 30.792 470.748 31.4294 470.748 32.1455C470.748 32.8545 470.82 33.4954 470.963 34.0684C471.113 34.6413 471.328 35.1318 471.607 35.54C471.887 35.9482 472.227 36.2633 472.628 36.4854C473.036 36.7002 473.494 36.8076 474.003 36.8076C474.282 36.8076 474.54 36.779 474.776 36.7217C475.02 36.6644 475.245 36.5856 475.453 36.4854C475.668 36.3779 475.872 36.249 476.065 36.0986C476.266 35.9482 476.466 35.7764 476.667 35.583L477.655 36.6357ZM486.485 28.1709C486.256 28.0348 486.006 27.9274 485.733 27.8486C485.461 27.7699 485.132 27.7305 484.745 27.7305C483.943 27.7305 483.324 28.0384 482.887 28.6543C482.457 29.263 482.242 30.1188 482.242 31.2217V38H480.588V26.4521H482.242V27.8809C482.371 27.6517 482.536 27.4368 482.736 27.2363C482.937 27.0286 483.159 26.8496 483.402 26.6992C483.653 26.5488 483.922 26.4307 484.208 26.3447C484.494 26.2516 484.792 26.2051 485.1 26.2051C485.529 26.2051 485.887 26.2337 486.174 26.291C486.46 26.3411 486.704 26.4092 486.904 26.4951L486.485 28.1709ZM497.786 31.8877C497.786 32.0882 497.779 32.2565 497.765 32.3926C497.757 32.5215 497.743 32.654 497.722 32.79H490.02C490.062 33.4059 490.163 33.9609 490.32 34.4551C490.485 34.9492 490.703 35.3717 490.976 35.7227C491.248 36.0736 491.574 36.3421 491.953 36.5283C492.333 36.7145 492.759 36.8076 493.231 36.8076C493.568 36.8076 493.872 36.7861 494.145 36.7432C494.424 36.693 494.685 36.6214 494.929 36.5283C495.179 36.4352 495.423 36.3206 495.659 36.1846C495.903 36.0485 496.157 35.891 496.422 35.7119L497.195 36.9043C496.852 37.1263 496.522 37.3232 496.207 37.4951C495.899 37.6598 495.584 37.7995 495.262 37.9141C494.939 38.0215 494.599 38.1038 494.241 38.1611C493.89 38.2184 493.496 38.2471 493.06 38.2471C492.709 38.2471 492.347 38.2005 491.975 38.1074C491.609 38.0215 491.251 37.8783 490.9 37.6777C490.557 37.4772 490.231 37.2194 489.923 36.9043C489.615 36.5892 489.346 36.2061 489.117 35.7549C488.888 35.3037 488.705 34.7809 488.569 34.1865C488.44 33.5921 488.376 32.9189 488.376 32.167C488.376 31.2503 488.494 30.4232 488.73 29.6855C488.974 28.9479 489.307 28.3213 489.729 27.8057C490.152 27.29 490.653 26.8962 491.233 26.624C491.821 26.3447 492.458 26.2051 493.146 26.2051C493.897 26.2051 494.563 26.3483 495.144 26.6348C495.724 26.9141 496.207 27.3044 496.594 27.8057C496.988 28.307 497.285 28.9085 497.485 29.6104C497.686 30.305 497.786 31.0641 497.786 31.8877ZM496.25 31.4473C496.214 30.8887 496.125 30.3766 495.981 29.9111C495.845 29.4385 495.648 29.0339 495.391 28.6973C495.14 28.3607 494.825 28.0993 494.445 27.9131C494.066 27.7269 493.625 27.6338 493.124 27.6338C492.694 27.6338 492.3 27.7126 491.942 27.8701C491.584 28.0205 491.269 28.2568 490.997 28.5791C490.732 28.8942 490.514 29.2917 490.342 29.7715C490.177 30.2441 490.07 30.8027 490.02 31.4473H496.25ZM507.862 38V36.5928C507.655 36.8148 507.429 37.026 507.186 37.2266C506.949 37.4271 506.688 37.6025 506.401 37.7529C506.122 37.9033 505.814 38.0215 505.478 38.1074C505.141 38.2005 504.779 38.2471 504.393 38.2471C503.812 38.2471 503.272 38.1361 502.771 37.9141C502.269 37.6849 501.832 37.334 501.46 36.8613C501.088 36.3815 500.794 35.7764 500.579 35.0459C500.364 34.3083 500.257 33.431 500.257 32.4141C500.257 31.39 500.368 30.4912 500.59 29.7178C500.819 28.9443 501.131 28.2962 501.524 27.7734C501.918 27.2507 502.38 26.8604 502.91 26.6025C503.44 26.3376 504.006 26.2051 504.607 26.2051C504.973 26.2051 505.309 26.2445 505.617 26.3232C505.925 26.3949 506.212 26.4987 506.477 26.6348C506.742 26.7708 506.985 26.9355 507.207 27.1289C507.436 27.3151 507.655 27.5228 507.862 27.752V22.8857L509.517 21.9619V38H507.862ZM507.862 29.374C507.705 29.1305 507.515 28.9049 507.293 28.6973C507.078 28.4824 506.838 28.2962 506.573 28.1387C506.308 27.9811 506.022 27.8594 505.714 27.7734C505.406 27.6803 505.08 27.6338 504.736 27.6338C503.777 27.6338 503.061 28.0384 502.588 28.8477C502.115 29.6497 501.879 30.8314 501.879 32.3926C501.879 33.1445 501.951 33.8034 502.094 34.3691C502.237 34.9349 502.445 35.4004 502.717 35.7656C502.989 36.1309 503.3 36.3958 503.651 36.5605C504.002 36.7253 504.389 36.8076 504.812 36.8076C505.148 36.8076 505.449 36.7682 505.714 36.6895C505.979 36.6107 506.237 36.4997 506.487 36.3564C506.738 36.2132 506.974 36.0413 507.196 35.8408C507.425 35.6403 507.647 35.4076 507.862 35.1426V29.374ZM515.296 23.2188C515.296 23.3763 515.264 23.5267 515.199 23.6699C515.142 23.806 515.06 23.9277 514.952 24.0352C514.845 24.1426 514.719 24.2285 514.576 24.293C514.44 24.3503 514.297 24.3789 514.146 24.3789C513.975 24.3789 513.813 24.3503 513.663 24.293C513.52 24.2285 513.395 24.1426 513.287 24.0352C513.18 23.9277 513.094 23.806 513.029 23.6699C512.965 23.5267 512.933 23.3763 512.933 23.2188C512.933 23.054 512.965 22.9001 513.029 22.7568C513.094 22.6064 513.18 22.4775 513.287 22.3701C513.395 22.2627 513.52 22.1803 513.663 22.123C513.813 22.0586 513.975 22.0264 514.146 22.0264C514.297 22.0264 514.44 22.0586 514.576 22.123C514.719 22.1803 514.845 22.2627 514.952 22.3701C515.06 22.4775 515.142 22.6064 515.199 22.7568C515.264 22.9001 515.296 23.054 515.296 23.2188ZM513.287 38V26.4521H514.941V38H513.287ZM523.492 37.8496C523.17 37.9785 522.844 38.0752 522.515 38.1396C522.192 38.2113 521.809 38.2471 521.365 38.2471C521.007 38.2471 520.692 38.2005 520.42 38.1074C520.148 38.0143 519.919 37.8639 519.732 37.6562C519.546 37.4486 519.403 37.18 519.303 36.8506C519.21 36.514 519.163 36.1058 519.163 35.626V27.8379H517.734V26.4521H519.163V22.8857L520.817 21.9619V26.4521H523.675V27.8379H520.817V35.3574C520.817 35.6152 520.835 35.8337 520.871 36.0127C520.914 36.1846 520.979 36.3278 521.064 36.4424C521.158 36.5498 521.276 36.6286 521.419 36.6787C521.569 36.7217 521.756 36.7432 521.978 36.7432C522.314 36.7432 522.604 36.7181 522.848 36.668C523.091 36.6107 523.345 36.5283 523.61 36.4209L523.492 37.8496ZM533.601 27.4404L532.677 28.6543C532.183 28.2676 531.724 27.999 531.302 27.8486C530.886 27.6911 530.385 27.6123 529.798 27.6123C529.189 27.6123 528.716 27.7484 528.38 28.0205C528.043 28.2855 527.875 28.6257 527.875 29.041C527.875 29.2845 527.914 29.4993 527.993 29.6855C528.079 29.8646 528.219 30.0365 528.412 30.2012C528.613 30.3659 528.878 30.5342 529.207 30.7061C529.536 30.8708 529.945 31.0641 530.432 31.2861C530.976 31.5368 531.463 31.7731 531.893 31.9951C532.322 32.2171 532.684 32.4642 532.978 32.7363C533.271 33.0085 533.497 33.3236 533.654 33.6816C533.812 34.0326 533.891 34.4658 533.891 34.9814C533.891 35.5472 533.776 36.0378 533.547 36.4531C533.325 36.8613 533.028 37.1979 532.655 37.4629C532.283 37.7279 531.86 37.9248 531.388 38.0537C530.915 38.1826 530.428 38.2471 529.927 38.2471C529.125 38.2471 528.383 38.111 527.703 37.8389C527.023 37.5667 526.407 37.2087 525.855 36.7646L526.822 35.5615C527.288 35.9697 527.785 36.2848 528.315 36.5068C528.845 36.7217 529.397 36.8291 529.97 36.8291C530.765 36.8291 531.352 36.6751 531.731 36.3672C532.111 36.0521 532.301 35.6152 532.301 35.0566C532.301 34.8203 532.254 34.6055 532.161 34.4121C532.068 34.2188 531.914 34.0326 531.699 33.8535C531.492 33.6673 531.212 33.4847 530.861 33.3057C530.518 33.1195 530.088 32.9154 529.572 32.6934C528.992 32.4499 528.494 32.2135 528.079 31.9844C527.671 31.7552 527.334 31.5117 527.069 31.2539C526.804 30.9889 526.607 30.6917 526.479 30.3623C526.357 30.0257 526.296 29.6247 526.296 29.1592C526.296 28.7223 526.385 28.3213 526.564 27.9561C526.743 27.5908 526.994 27.2793 527.316 27.0215C527.639 26.7637 528.018 26.5632 528.455 26.4199C528.899 26.2767 529.382 26.2051 529.905 26.2051C530.7 26.2051 531.402 26.3197 532.011 26.5488C532.627 26.778 533.157 27.0752 533.601 27.4404Z" fill="white"/>
<line x1="595" y1="28" x2="699" y2="28" stroke="url(#paint5_linear_2524_67530)" stroke-width="4" stroke-linecap="round" stroke-dasharray="18 18"/>
<line x1="2" y1="106" x2="97" y2="106" stroke="url(#paint6_linear_2524_67530)" stroke-width="4" stroke-linecap="round" stroke-dasharray="18 18"/>
<rect x="100.5" y="79.5" width="292" height="57" rx="28.5" fill="url(#paint7_linear_2524_67530)" fill-opacity="0.5"/>
<rect x="100.5" y="79.5" width="292" height="57" rx="28.5" stroke="url(#paint8_linear_2524_67530)" stroke-width="3"/>
<path d="M152.558 111.445C152.558 112.964 152.124 114.102 151.258 114.861C150.398 115.62 149.16 116 147.541 116H142.02V100.596H147.659C148.268 100.596 148.826 100.674 149.335 100.832C149.851 100.982 150.291 101.219 150.656 101.541C151.029 101.856 151.319 102.257 151.526 102.744C151.734 103.224 151.838 103.793 151.838 104.452C151.838 104.875 151.781 105.254 151.666 105.591C151.559 105.927 151.405 106.225 151.204 106.482C151.011 106.74 150.778 106.962 150.506 107.148C150.234 107.335 149.937 107.485 149.614 107.6C150.13 107.736 150.57 107.925 150.936 108.169C151.308 108.405 151.609 108.685 151.838 109.007C152.074 109.322 152.253 109.684 152.375 110.092C152.497 110.5 152.558 110.951 152.558 111.445ZM150.119 104.517C150.119 104.166 150.065 103.847 149.958 103.561C149.858 103.267 149.704 103.02 149.496 102.819C149.288 102.612 149.027 102.451 148.712 102.336C148.397 102.221 148.024 102.164 147.595 102.164H143.738V106.955H147.455C147.935 106.955 148.343 106.891 148.68 106.762C149.016 106.633 149.292 106.461 149.507 106.246C149.722 106.024 149.876 105.766 149.969 105.473C150.069 105.172 150.119 104.853 150.119 104.517ZM150.85 111.531C150.85 111.051 150.771 110.625 150.613 110.253C150.463 109.873 150.244 109.555 149.958 109.297C149.679 109.039 149.335 108.842 148.927 108.706C148.526 108.57 148.075 108.502 147.573 108.502H143.738V114.442H147.659C148.239 114.442 148.73 114.374 149.131 114.238C149.539 114.095 149.868 113.898 150.119 113.647C150.377 113.397 150.563 113.092 150.678 112.734C150.792 112.376 150.85 111.975 150.85 111.531ZM162.043 116V114.593C161.842 114.815 161.617 115.026 161.366 115.227C161.123 115.427 160.851 115.603 160.55 115.753C160.256 115.903 159.934 116.021 159.583 116.107C159.232 116.201 158.853 116.247 158.444 116.247C157.993 116.247 157.546 116.186 157.102 116.064C156.658 115.943 156.26 115.739 155.909 115.452C155.565 115.159 155.283 114.775 155.061 114.303C154.846 113.83 154.738 113.243 154.738 112.541C154.738 111.896 154.86 111.341 155.104 110.876C155.354 110.41 155.684 110.027 156.092 109.727C156.5 109.426 156.969 109.204 157.499 109.061C158.036 108.917 158.591 108.846 159.164 108.846C159.751 108.846 160.292 108.91 160.786 109.039C161.28 109.168 161.699 109.326 162.043 109.512V108.147C162.043 107.281 161.839 106.64 161.431 106.225C161.022 105.802 160.392 105.591 159.54 105.591C158.931 105.591 158.373 105.67 157.864 105.827C157.356 105.985 156.865 106.2 156.393 106.472L155.78 105.129C156.289 104.857 156.872 104.635 157.531 104.463C158.19 104.291 158.896 104.205 159.647 104.205C160.271 104.205 160.833 104.277 161.334 104.42C161.835 104.556 162.258 104.774 162.602 105.075C162.952 105.376 163.221 105.763 163.407 106.235C163.601 106.708 163.697 107.277 163.697 107.943V116H162.043ZM162.043 110.833C161.857 110.726 161.663 110.632 161.463 110.554C161.262 110.468 161.044 110.396 160.808 110.339C160.571 110.282 160.31 110.239 160.023 110.21C159.744 110.181 159.429 110.167 159.078 110.167C158.226 110.167 157.56 110.364 157.08 110.758C156.607 111.145 156.371 111.703 156.371 112.434C156.371 112.863 156.428 113.236 156.543 113.551C156.658 113.859 156.815 114.113 157.016 114.313C157.223 114.514 157.47 114.664 157.757 114.765C158.05 114.858 158.373 114.904 158.724 114.904C159.096 114.904 159.443 114.861 159.766 114.775C160.095 114.682 160.399 114.557 160.679 114.399C160.958 114.242 161.212 114.059 161.441 113.852C161.671 113.637 161.871 113.408 162.043 113.164V110.833ZM174.525 116V109.243C174.525 107.997 174.303 107.084 173.859 106.504C173.415 105.924 172.728 105.634 171.797 105.634C171.396 105.634 171.02 105.705 170.669 105.849C170.325 105.985 170.024 106.2 169.767 106.493C169.509 106.787 169.305 107.163 169.154 107.621C169.011 108.072 168.939 108.613 168.939 109.243V116H167.285V104.452H168.939V105.859C169.104 105.616 169.294 105.394 169.509 105.193C169.724 104.993 169.964 104.821 170.229 104.678C170.501 104.527 170.794 104.413 171.109 104.334C171.424 104.248 171.765 104.205 172.13 104.205C172.739 104.205 173.29 104.298 173.784 104.484C174.285 104.663 174.712 104.946 175.062 105.333C175.413 105.72 175.686 106.214 175.879 106.815C176.072 107.417 176.169 108.133 176.169 108.964V116H174.525ZM186.385 116L183.463 109.931L181.465 112.681V116H179.811V100.886L181.465 99.9619V110.489L185.708 104.452H187.556L184.516 108.545L188.168 116H186.385ZM203.497 105.44L202.573 106.654C202.079 106.268 201.621 105.999 201.198 105.849C200.783 105.691 200.282 105.612 199.694 105.612C199.086 105.612 198.613 105.748 198.276 106.021C197.94 106.285 197.771 106.626 197.771 107.041C197.771 107.285 197.811 107.499 197.89 107.686C197.976 107.865 198.115 108.036 198.309 108.201C198.509 108.366 198.774 108.534 199.104 108.706C199.433 108.871 199.841 109.064 200.328 109.286C200.872 109.537 201.359 109.773 201.789 109.995C202.219 110.217 202.58 110.464 202.874 110.736C203.168 111.008 203.393 111.324 203.551 111.682C203.708 112.033 203.787 112.466 203.787 112.981C203.787 113.547 203.673 114.038 203.443 114.453C203.221 114.861 202.924 115.198 202.552 115.463C202.179 115.728 201.757 115.925 201.284 116.054C200.812 116.183 200.325 116.247 199.823 116.247C199.021 116.247 198.28 116.111 197.6 115.839C196.919 115.567 196.303 115.209 195.752 114.765L196.719 113.562C197.184 113.97 197.682 114.285 198.212 114.507C198.742 114.722 199.293 114.829 199.866 114.829C200.661 114.829 201.248 114.675 201.628 114.367C202.007 114.052 202.197 113.615 202.197 113.057C202.197 112.82 202.151 112.605 202.058 112.412C201.965 112.219 201.811 112.033 201.596 111.854C201.388 111.667 201.109 111.485 200.758 111.306C200.414 111.119 199.984 110.915 199.469 110.693C198.889 110.45 198.391 110.214 197.976 109.984C197.567 109.755 197.231 109.512 196.966 109.254C196.701 108.989 196.504 108.692 196.375 108.362C196.253 108.026 196.192 107.625 196.192 107.159C196.192 106.722 196.282 106.321 196.461 105.956C196.64 105.591 196.891 105.279 197.213 105.021C197.535 104.764 197.915 104.563 198.352 104.42C198.796 104.277 199.279 104.205 199.802 104.205C200.597 104.205 201.299 104.32 201.907 104.549C202.523 104.778 203.053 105.075 203.497 105.44ZM213.412 116V114.593C213.212 114.815 212.986 115.026 212.735 115.227C212.492 115.427 212.22 115.603 211.919 115.753C211.625 115.903 211.303 116.021 210.952 116.107C210.601 116.201 210.222 116.247 209.813 116.247C209.362 116.247 208.915 116.186 208.471 116.064C208.027 115.943 207.629 115.739 207.278 115.452C206.935 115.159 206.652 114.775 206.43 114.303C206.215 113.83 206.107 113.243 206.107 112.541C206.107 111.896 206.229 111.341 206.473 110.876C206.723 110.41 207.053 110.027 207.461 109.727C207.869 109.426 208.338 109.204 208.868 109.061C209.405 108.917 209.96 108.846 210.533 108.846C211.12 108.846 211.661 108.91 212.155 109.039C212.649 109.168 213.068 109.326 213.412 109.512V108.147C213.412 107.281 213.208 106.64 212.8 106.225C212.392 105.802 211.761 105.591 210.909 105.591C210.3 105.591 209.742 105.67 209.233 105.827C208.725 105.985 208.234 106.2 207.762 106.472L207.149 105.129C207.658 104.857 208.242 104.635 208.9 104.463C209.559 104.291 210.265 104.205 211.017 104.205C211.64 104.205 212.202 104.277 212.703 104.42C213.204 104.556 213.627 104.774 213.971 105.075C214.322 105.376 214.59 105.763 214.776 106.235C214.97 106.708 215.066 107.277 215.066 107.943V116H213.412ZM213.412 110.833C213.226 110.726 213.033 110.632 212.832 110.554C212.632 110.468 212.413 110.396 212.177 110.339C211.94 110.282 211.679 110.239 211.393 110.21C211.113 110.181 210.798 110.167 210.447 110.167C209.595 110.167 208.929 110.364 208.449 110.758C207.977 111.145 207.74 111.703 207.74 112.434C207.74 112.863 207.798 113.236 207.912 113.551C208.027 113.859 208.184 114.113 208.385 114.313C208.592 114.514 208.84 114.664 209.126 114.765C209.42 114.858 209.742 114.904 210.093 114.904C210.465 114.904 210.812 114.861 211.135 114.775C211.464 114.682 211.769 114.557 212.048 114.399C212.327 114.242 212.581 114.059 212.811 113.852C213.04 113.637 213.24 113.408 213.412 113.164V110.833ZM222.951 116H221.501L217.365 104.452H219.127L222.253 114.088L225.368 104.452H227.087L222.951 116ZM231.921 101.219C231.921 101.376 231.889 101.527 231.824 101.67C231.767 101.806 231.685 101.928 231.577 102.035C231.47 102.143 231.344 102.229 231.201 102.293C231.065 102.35 230.922 102.379 230.771 102.379C230.6 102.379 230.438 102.35 230.288 102.293C230.145 102.229 230.02 102.143 229.912 102.035C229.805 101.928 229.719 101.806 229.654 101.67C229.59 101.527 229.558 101.376 229.558 101.219C229.558 101.054 229.59 100.9 229.654 100.757C229.719 100.606 229.805 100.478 229.912 100.37C230.02 100.263 230.145 100.18 230.288 100.123C230.438 100.059 230.6 100.026 230.771 100.026C230.922 100.026 231.065 100.059 231.201 100.123C231.344 100.18 231.47 100.263 231.577 100.37C231.685 100.478 231.767 100.606 231.824 100.757C231.889 100.9 231.921 101.054 231.921 101.219ZM229.912 116V104.452H231.566V116H229.912ZM242.566 116V109.243C242.566 107.997 242.344 107.084 241.9 106.504C241.456 105.924 240.769 105.634 239.838 105.634C239.437 105.634 239.061 105.705 238.71 105.849C238.366 105.985 238.065 106.2 237.808 106.493C237.55 106.787 237.346 107.163 237.195 107.621C237.052 108.072 236.98 108.613 236.98 109.243V116H235.326V104.452H236.98V105.859C237.145 105.616 237.335 105.394 237.55 105.193C237.765 104.993 238.005 104.821 238.27 104.678C238.542 104.527 238.835 104.413 239.15 104.334C239.465 104.248 239.806 104.205 240.171 104.205C240.78 104.205 241.331 104.298 241.825 104.484C242.326 104.663 242.753 104.946 243.104 105.333C243.454 105.72 243.727 106.214 243.92 106.815C244.113 107.417 244.21 108.133 244.21 108.964V116H242.566ZM256.499 114.969C256.499 115.792 256.395 116.534 256.188 117.192C255.98 117.858 255.636 118.413 255.156 118.857C254.712 119.28 254.093 119.606 253.298 119.835C252.503 120.071 251.5 120.207 250.29 120.243L249.871 118.9C250.967 118.9 251.837 118.829 252.481 118.686C253.133 118.542 253.606 118.345 253.899 118.095C254.222 117.815 254.458 117.432 254.608 116.945C254.766 116.465 254.845 115.878 254.845 115.184V114.593C254.637 114.815 254.411 115.026 254.168 115.227C253.932 115.427 253.67 115.603 253.384 115.753C253.104 115.903 252.797 116.021 252.46 116.107C252.123 116.201 251.762 116.247 251.375 116.247C250.795 116.247 250.254 116.136 249.753 115.914C249.252 115.685 248.815 115.334 248.442 114.861C248.07 114.382 247.776 113.776 247.562 113.046C247.347 112.308 247.239 111.431 247.239 110.414C247.239 109.39 247.35 108.491 247.572 107.718C247.801 106.944 248.113 106.296 248.507 105.773C248.901 105.251 249.363 104.86 249.893 104.603C250.423 104.338 250.988 104.205 251.59 104.205C251.955 104.205 252.292 104.244 252.6 104.323C252.908 104.395 253.194 104.499 253.459 104.635C253.724 104.771 253.967 104.936 254.189 105.129C254.419 105.315 254.637 105.523 254.845 105.752V104.452H256.499V114.969ZM251.794 114.808C252.41 114.808 252.968 114.657 253.47 114.356C253.978 114.056 254.437 113.651 254.845 113.143V107.374C254.687 107.131 254.497 106.905 254.275 106.697C254.061 106.482 253.821 106.296 253.556 106.139C253.291 105.981 253.004 105.859 252.696 105.773C252.388 105.68 252.062 105.634 251.719 105.634C250.759 105.634 250.043 106.038 249.57 106.848C249.098 107.65 248.861 108.831 248.861 110.393C248.861 111.846 249.119 112.946 249.635 113.69C250.158 114.435 250.877 114.808 251.794 114.808ZM267.026 105.44L266.103 106.654C265.608 106.268 265.15 105.999 264.728 105.849C264.312 105.691 263.811 105.612 263.224 105.612C262.615 105.612 262.142 105.748 261.806 106.021C261.469 106.285 261.301 106.626 261.301 107.041C261.301 107.285 261.34 107.499 261.419 107.686C261.505 107.865 261.645 108.036 261.838 108.201C262.038 108.366 262.303 108.534 262.633 108.706C262.962 108.871 263.37 109.064 263.857 109.286C264.402 109.537 264.889 109.773 265.318 109.995C265.748 110.217 266.11 110.464 266.403 110.736C266.697 111.008 266.923 111.324 267.08 111.682C267.238 112.033 267.316 112.466 267.316 112.981C267.316 113.547 267.202 114.038 266.973 114.453C266.751 114.861 266.453 115.198 266.081 115.463C265.709 115.728 265.286 115.925 264.813 116.054C264.341 116.183 263.854 116.247 263.353 116.247C262.55 116.247 261.809 116.111 261.129 115.839C260.449 115.567 259.833 115.209 259.281 114.765L260.248 113.562C260.714 113.97 261.211 114.285 261.741 114.507C262.271 114.722 262.823 114.829 263.396 114.829C264.19 114.829 264.778 114.675 265.157 114.367C265.537 114.052 265.727 113.615 265.727 113.057C265.727 112.82 265.68 112.605 265.587 112.412C265.494 112.219 265.34 112.033 265.125 111.854C264.917 111.667 264.638 111.485 264.287 111.306C263.943 111.119 263.514 110.915 262.998 110.693C262.418 110.45 261.92 110.214 261.505 109.984C261.097 109.755 260.76 109.512 260.495 109.254C260.23 108.989 260.033 108.692 259.904 108.362C259.783 108.026 259.722 107.625 259.722 107.159C259.722 106.722 259.811 106.321 259.99 105.956C260.169 105.591 260.42 105.279 260.742 105.021C261.064 104.764 261.444 104.563 261.881 104.42C262.325 104.277 262.808 104.205 263.331 104.205C264.126 104.205 264.828 104.32 265.437 104.549C266.052 104.778 266.582 105.075 267.026 105.44ZM282.764 116V114.593C282.563 114.815 282.338 115.026 282.087 115.227C281.843 115.427 281.571 115.603 281.271 115.753C280.977 115.903 280.655 116.021 280.304 116.107C279.953 116.201 279.573 116.247 279.165 116.247C278.714 116.247 278.266 116.186 277.822 116.064C277.378 115.943 276.981 115.739 276.63 115.452C276.286 115.159 276.003 114.775 275.781 114.303C275.566 113.83 275.459 113.243 275.459 112.541C275.459 111.896 275.581 111.341 275.824 110.876C276.075 110.41 276.404 110.027 276.812 109.727C277.221 109.426 277.69 109.204 278.22 109.061C278.757 108.917 279.312 108.846 279.885 108.846C280.472 108.846 281.013 108.91 281.507 109.039C282.001 109.168 282.42 109.326 282.764 109.512V108.147C282.764 107.281 282.56 106.64 282.151 106.225C281.743 105.802 281.113 105.591 280.261 105.591C279.652 105.591 279.093 105.67 278.585 105.827C278.076 105.985 277.586 106.2 277.113 106.472L276.501 105.129C277.009 104.857 277.593 104.635 278.252 104.463C278.911 104.291 279.616 104.205 280.368 104.205C280.991 104.205 281.553 104.277 282.055 104.42C282.556 104.556 282.979 104.774 283.322 105.075C283.673 105.376 283.942 105.763 284.128 106.235C284.321 106.708 284.418 107.277 284.418 107.943V116H282.764ZM282.764 110.833C282.577 110.726 282.384 110.632 282.184 110.554C281.983 110.468 281.765 110.396 281.528 110.339C281.292 110.282 281.031 110.239 280.744 110.21C280.465 110.181 280.15 110.167 279.799 110.167C278.947 110.167 278.281 110.364 277.801 110.758C277.328 111.145 277.092 111.703 277.092 112.434C277.092 112.863 277.149 113.236 277.264 113.551C277.378 113.859 277.536 114.113 277.736 114.313C277.944 114.514 278.191 114.664 278.478 114.765C278.771 114.858 279.093 114.904 279.444 114.904C279.817 114.904 280.164 114.861 280.486 114.775C280.816 114.682 281.12 114.557 281.399 114.399C281.679 114.242 281.933 114.059 282.162 113.852C282.391 113.637 282.592 113.408 282.764 113.164V110.833ZM295.966 114.636C295.722 114.886 295.468 115.112 295.203 115.312C294.938 115.506 294.655 115.674 294.354 115.817C294.054 115.953 293.728 116.057 293.377 116.129C293.033 116.208 292.657 116.247 292.249 116.247C291.619 116.247 291.01 116.125 290.423 115.882C289.843 115.638 289.327 115.27 288.876 114.775C288.425 114.281 288.063 113.662 287.791 112.917C287.526 112.165 287.394 111.288 287.394 110.285C287.394 109.218 287.537 108.301 287.823 107.535C288.117 106.769 288.496 106.139 288.962 105.645C289.435 105.15 289.968 104.789 290.562 104.56C291.157 104.323 291.755 104.205 292.356 104.205C293.144 104.205 293.835 104.334 294.43 104.592C295.031 104.85 295.558 105.175 296.009 105.569L295.021 106.805C294.813 106.618 294.605 106.454 294.397 106.311C294.19 106.16 293.975 106.035 293.753 105.935C293.538 105.834 293.305 105.759 293.055 105.709C292.811 105.659 292.543 105.634 292.249 105.634C291.798 105.634 291.375 105.734 290.981 105.935C290.595 106.135 290.258 106.429 289.972 106.815C289.692 107.195 289.47 107.668 289.306 108.233C289.141 108.792 289.059 109.429 289.059 110.146C289.059 110.854 289.13 111.495 289.273 112.068C289.424 112.641 289.639 113.132 289.918 113.54C290.197 113.948 290.537 114.263 290.938 114.485C291.347 114.7 291.805 114.808 292.313 114.808C292.593 114.808 292.851 114.779 293.087 114.722C293.33 114.664 293.556 114.586 293.764 114.485C293.979 114.378 294.183 114.249 294.376 114.099C294.576 113.948 294.777 113.776 294.978 113.583L295.966 114.636ZM306.472 114.636C306.228 114.886 305.974 115.112 305.709 115.312C305.444 115.506 305.161 115.674 304.86 115.817C304.56 115.953 304.234 116.057 303.883 116.129C303.539 116.208 303.163 116.247 302.755 116.247C302.125 116.247 301.516 116.125 300.929 115.882C300.349 115.638 299.833 115.27 299.382 114.775C298.931 114.281 298.569 113.662 298.297 112.917C298.032 112.165 297.899 111.288 297.899 110.285C297.899 109.218 298.043 108.301 298.329 107.535C298.623 106.769 299.002 106.139 299.468 105.645C299.94 105.15 300.474 104.789 301.068 104.56C301.663 104.323 302.261 104.205 302.862 104.205C303.65 104.205 304.341 104.334 304.936 104.592C305.537 104.85 306.063 105.175 306.515 105.569L305.526 106.805C305.319 106.618 305.111 106.454 304.903 106.311C304.696 106.16 304.481 106.035 304.259 105.935C304.044 105.834 303.811 105.759 303.561 105.709C303.317 105.659 303.049 105.634 302.755 105.634C302.304 105.634 301.881 105.734 301.487 105.935C301.101 106.135 300.764 106.429 300.478 106.815C300.198 107.195 299.976 107.668 299.812 108.233C299.647 108.792 299.564 109.429 299.564 110.146C299.564 110.854 299.636 111.495 299.779 112.068C299.93 112.641 300.145 113.132 300.424 113.54C300.703 113.948 301.043 114.263 301.444 114.485C301.853 114.7 302.311 114.808 302.819 114.808C303.099 114.808 303.356 114.779 303.593 114.722C303.836 114.664 304.062 114.586 304.27 114.485C304.484 114.378 304.688 114.249 304.882 114.099C305.082 113.948 305.283 113.776 305.483 113.583L306.472 114.636ZM318.438 110.146C318.438 111.127 318.306 111.997 318.041 112.756C317.776 113.515 317.414 114.152 316.956 114.668C316.505 115.184 315.971 115.577 315.355 115.85C314.74 116.115 314.077 116.247 313.368 116.247C312.666 116.247 312.011 116.118 311.402 115.86C310.801 115.603 310.278 115.219 309.834 114.711C309.39 114.202 309.039 113.576 308.781 112.831C308.531 112.079 308.405 111.213 308.405 110.231C308.405 109.257 308.534 108.395 308.792 107.643C309.057 106.891 309.419 106.26 309.877 105.752C310.335 105.243 310.872 104.86 311.488 104.603C312.104 104.338 312.763 104.205 313.465 104.205C314.167 104.205 314.818 104.33 315.42 104.581C316.029 104.832 316.555 105.208 316.999 105.709C317.45 106.21 317.801 106.833 318.052 107.578C318.31 108.316 318.438 109.172 318.438 110.146ZM316.784 110.188C316.784 109.429 316.702 108.767 316.537 108.201C316.372 107.628 316.143 107.152 315.85 106.772C315.556 106.393 315.201 106.11 314.786 105.924C314.378 105.73 313.923 105.634 313.422 105.634C312.921 105.634 312.462 105.73 312.047 105.924C311.639 106.11 311.288 106.393 310.994 106.772C310.701 107.152 310.471 107.628 310.307 108.201C310.149 108.767 310.07 109.429 310.07 110.188C310.07 110.948 310.149 111.617 310.307 112.197C310.471 112.77 310.701 113.25 310.994 113.637C311.288 114.023 311.639 114.317 312.047 114.518C312.462 114.711 312.921 114.808 313.422 114.808C313.923 114.808 314.378 114.711 314.786 114.518C315.201 114.317 315.556 114.023 315.85 113.637C316.143 113.25 316.372 112.77 316.537 112.197C316.702 111.617 316.784 110.948 316.784 110.188ZM328.654 116V114.593C328.318 115.087 327.881 115.488 327.344 115.796C326.807 116.097 326.18 116.247 325.464 116.247C324.16 116.247 323.158 115.846 322.456 115.044C321.761 114.235 321.414 113.049 321.414 111.488V104.452H323.058V111.209C323.058 112.455 323.28 113.368 323.724 113.948C324.168 114.521 324.855 114.808 325.786 114.808C326.667 114.808 327.365 114.5 327.881 113.884C328.396 113.268 328.654 112.376 328.654 111.209V104.452H330.298V116H328.654ZM341.201 116V109.243C341.201 107.997 340.979 107.084 340.535 106.504C340.091 105.924 339.404 105.634 338.473 105.634C338.072 105.634 337.696 105.705 337.345 105.849C337.001 105.985 336.7 106.2 336.442 106.493C336.185 106.787 335.98 107.163 335.83 107.621C335.687 108.072 335.615 108.613 335.615 109.243V116H333.961V104.452H335.615V105.859C335.78 105.616 335.97 105.394 336.185 105.193C336.399 104.993 336.639 104.821 336.904 104.678C337.176 104.527 337.47 104.413 337.785 104.334C338.1 104.248 338.44 104.205 338.806 104.205C339.414 104.205 339.966 104.298 340.46 104.484C340.961 104.663 341.387 104.946 341.738 105.333C342.089 105.72 342.361 106.214 342.555 106.815C342.748 107.417 342.845 108.133 342.845 108.964V116H341.201ZM351.17 115.85C350.848 115.979 350.522 116.075 350.192 116.14C349.87 116.211 349.487 116.247 349.043 116.247C348.685 116.247 348.37 116.201 348.098 116.107C347.826 116.014 347.596 115.864 347.41 115.656C347.224 115.449 347.081 115.18 346.98 114.851C346.887 114.514 346.841 114.106 346.841 113.626V105.838H345.412V104.452H346.841V100.886L348.495 99.9619V104.452H351.353V105.838H348.495V113.357C348.495 113.615 348.513 113.834 348.549 114.013C348.592 114.185 348.656 114.328 348.742 114.442C348.835 114.55 348.953 114.629 349.097 114.679C349.247 114.722 349.433 114.743 349.655 114.743C349.992 114.743 350.282 114.718 350.525 114.668C350.769 114.611 351.023 114.528 351.288 114.421L351.17 115.85Z" fill="white"/>
<defs>
<linearGradient id="paint0_linear_2524_67530" x1="141.5" y1="0" x2="141.5" y2="60" gradientUnits="userSpaceOnUse">
<stop stop-color="#4BC74A"/>
<stop offset="1" stop-color="#256124"/>
</linearGradient>
<linearGradient id="paint1_linear_2524_67530" x1="141.5" y1="0" x2="141.5" y2="60" gradientUnits="userSpaceOnUse">
<stop stop-color="#4BC74A"/>
<stop offset="1" stop-color="#76FF75"/>
</linearGradient>
<linearGradient id="paint2_linear_2524_67530" x1="332" y1="30" x2="332" y2="31" gradientUnits="userSpaceOnUse">
<stop stop-color="#4BC74A"/>
<stop offset="1" stop-color="#76FF75"/>
</linearGradient>
<linearGradient id="paint3_linear_2524_67530" x1="479" y1="0" x2="479" y2="60" gradientUnits="userSpaceOnUse">
<stop stop-color="#4BC74A"/>
<stop offset="1" stop-color="#256124"/>
</linearGradient>
<linearGradient id="paint4_linear_2524_67530" x1="479" y1="0" x2="479" y2="60" gradientUnits="userSpaceOnUse">
<stop stop-color="#4BC74A"/>
<stop offset="1" stop-color="#76FF75"/>
</linearGradient>
<linearGradient id="paint5_linear_2524_67530" x1="647" y1="30" x2="647" y2="31" gradientUnits="userSpaceOnUse">
<stop stop-color="#4BC74A"/>
<stop offset="1" stop-color="#76FF75"/>
</linearGradient>
<linearGradient id="paint6_linear_2524_67530" x1="49.5" y1="108" x2="49.5" y2="109" gradientUnits="userSpaceOnUse">
<stop stop-color="#4BC74A"/>
<stop offset="1" stop-color="#76FF75"/>
</linearGradient>
<linearGradient id="paint7_linear_2524_67530" x1="246.5" y1="78" x2="246.5" y2="138" gradientUnits="userSpaceOnUse">
<stop stop-color="#4BC74A"/>
<stop offset="1" stop-color="#256124"/>
</linearGradient>
<linearGradient id="paint8_linear_2524_67530" x1="246.5" y1="78" x2="246.5" y2="138" gradientUnits="userSpaceOnUse">
<stop stop-color="#4BC74A"/>
<stop offset="1" stop-color="#76FF75"/>
</linearGradient>
</defs>
</svg>
