<svg width="32" height="33" viewBox="0 0 32 33" fill="none" xmlns="http://www.w3.org/2000/svg">
<g clip-path="url(#clip0_2524_54273)">
<path d="M28.6557 5.63557L26.2125 8.16512V12.786L26.613 13.3834H26.8345V28.1759C26.5672 28.627 26.1154 28.91 25.6374 28.9203C24.9697 28.9337 24.3528 28.4113 24.1887 27.698C24.1832 26.3128 24.1922 24.9076 24.2155 23.5207C24.2175 23.3888 24.2198 23.2622 24.2221 23.1405C24.2395 22.16 24.2511 21.5119 24.1922 21.0074C24.1269 20.4474 23.9698 20.0687 23.6666 19.7408C23.2507 19.291 22.646 19.0273 21.8657 18.9549V2.80728C21.8657 1.2593 20.5994 0 19.0433 0H5.26562C3.70948 0 2.44321 1.25942 2.44321 2.80728V32.2851H0.359333C0.160941 32.2851 0 32.445 0 32.6425C0 32.8399 0.160941 32.9999 0.359333 32.9999H24.1633C24.3616 32.9999 24.5226 32.8398 24.5226 32.6425C24.5226 32.4452 24.3616 32.2851 24.1633 32.2851H21.8659V19.6735C22.4301 19.7363 22.8571 19.921 23.1379 20.2247C23.53 20.6486 23.5377 21.2181 23.5037 23.128C23.5016 23.2499 23.4994 23.3766 23.4971 23.5086C23.4737 24.913 23.4646 26.3363 23.4704 27.7387V27.7745L23.4777 27.8098C23.5862 28.3294 23.8658 28.7994 24.2651 29.1333C24.6535 29.4579 25.13 29.6354 25.6113 29.6354C25.6251 29.6354 25.6392 29.6351 25.6531 29.635C26.4181 29.6184 27.1305 29.1583 27.5123 28.4343L27.5533 28.3564V13.3834H27.6745L28.3754 12.786V9.71876L29.2764 8.92206H30.0375L30.9987 7.96591L28.6557 5.63557Z" fill="white"/>
<path d="M29.9879 4.51562L28.9766 5.4617L31.0192 7.49329L32.0005 6.51726L29.9879 4.51562Z" fill="white"/>
<path d="M15.0274 12.7068H14.7072C14.5375 11.9162 13.8283 11.3203 12.9848 11.3203H11.3829C10.9121 11.3203 10.47 11.5025 10.1376 11.8332C9.89339 12.0759 9.72942 12.378 9.65983 12.7068H9.34022C8.32118 12.7068 7.49219 13.5314 7.49219 14.5446V27.0926C7.49219 28.1061 8.32118 28.9306 9.34022 28.9306H15.0274C16.0465 28.9306 16.8755 28.1061 16.8755 27.0926V14.5446C16.8755 13.5312 16.0465 12.7068 15.0274 12.7068ZM10.6458 12.3388C10.8426 12.1429 11.1042 12.0351 11.3829 12.0351H12.9848C13.4294 12.0351 13.8113 12.315 13.9603 12.7068H10.4066C10.4582 12.5703 10.5389 12.445 10.6458 12.3388ZM16.1568 27.0927C16.1568 27.712 15.6501 28.2158 15.0276 28.2158H9.34035C8.71772 28.2158 8.21111 27.7118 8.21111 27.0927V14.5448C8.21111 13.9255 8.71784 13.4217 9.34035 13.4217H15.0276C15.6502 13.4217 16.1568 13.9255 16.1568 14.5448V27.0927Z" fill="url(#paint0_linear_2524_54273)"/>
<path d="M13.0547 16.8125L9.73047 21.4732H11.8932L11.0522 24.2617L14.6567 19.6408L12.7343 19.8001L13.0547 16.8125Z" fill="url(#paint1_linear_2524_54273)"/>
<path d="M17.6607 2.95312H6.82008C5.90049 2.95312 5.15234 3.69723 5.15234 4.61185V7.00171C5.15234 7.91645 5.90049 8.66043 6.82008 8.66043H17.6607C18.5803 8.66043 19.3283 7.91645 19.3283 7.00171V4.61185C19.3283 3.69723 18.5803 2.95312 17.6607 2.95312Z" fill="url(#paint2_linear_2524_54273)"/>
</g>
<defs>
<linearGradient id="paint0_linear_2524_54273" x1="-2.20707" y1="20.1255" x2="28.903" y2="20.1255" gradientUnits="userSpaceOnUse">
<stop stop-color="#00A4D4"/>
<stop offset="1" stop-color="#00FFFF"/>
</linearGradient>
<linearGradient id="paint1_linear_2524_54273" x1="4.6383" y1="20.5371" x2="20.9713" y2="20.5371" gradientUnits="userSpaceOnUse">
<stop stop-color="#00A4D4"/>
<stop offset="1" stop-color="#00FFFF"/>
</linearGradient>
<linearGradient id="paint2_linear_2524_54273" x1="-9.50098" y1="5.80678" x2="37.499" y2="5.80678" gradientUnits="userSpaceOnUse">
<stop stop-color="#00A4D4"/>
<stop offset="1" stop-color="#00FFFF"/>
</linearGradient>
<clipPath id="clip0_2524_54273">
<rect width="32" height="33" fill="white"/>
</clipPath>
</defs>
</svg>
