<svg width="150" height="128" viewBox="0 0 150 128" fill="none" xmlns="http://www.w3.org/2000/svg">
<g opacity="0.2">
<path d="M15.8828 50.2229H134.081C133.87 48.9079 133.595 47.5929 133.299 46.3203H16.6652C16.3691 47.6141 16.0943 48.9079 15.8828 50.2229Z" fill="url(#paint0_linear_2304_73160)"/>
<path d="M74.9786 120.357C82.2312 120.357 89.1878 119.063 95.6369 116.688H54.3203C60.7483 119.063 67.726 120.357 74.9786 120.357Z" fill="url(#paint1_linear_2304_73160)"/>
<path d="M15.0781 58.0432H134.862C134.82 56.7282 134.736 55.4132 134.609 54.1406H15.353C15.2261 55.4344 15.1416 56.7282 15.0993 58.0432H15.0781Z" fill="url(#paint2_linear_2304_73160)"/>
<path d="M17.7188 42.3948H132.217C131.815 41.0798 131.35 39.7648 130.864 38.4922H19.072C18.5857 39.786 18.1205 41.0798 17.7188 42.3948Z" fill="url(#paint3_linear_2304_73160)"/>
<path d="M20.7633 34.5901H129.193C128.559 33.2539 127.882 31.9601 127.163 30.6875H22.7721C22.0532 31.9601 21.3765 33.2751 20.7422 34.5901H20.7633Z" fill="url(#paint4_linear_2304_73160)"/>
<path d="M22.4977 89.3323H127.417C128.115 88.0597 128.792 86.7447 129.384 85.4297H20.5312C21.1444 86.7659 21.7999 88.0597 22.4977 89.3323Z" fill="url(#paint5_linear_2304_73160)"/>
<path d="M45.8452 112.793H104.12C106.234 111.605 108.264 110.312 110.209 108.891H39.7344C41.6797 110.312 43.7096 111.627 45.824 112.793H45.8452Z" fill="url(#paint6_linear_2304_73160)"/>
<path d="M15.3084 65.8713H134.649C134.776 64.5775 134.86 63.2837 134.881 61.9688H15.0547C15.097 63.2837 15.1816 64.5775 15.2873 65.8713H15.3084Z" fill="url(#paint7_linear_2304_73160)"/>
<path d="M18.9024 81.5119H131.054C131.54 80.2182 131.984 78.9244 132.386 77.6094H17.5703C17.9721 78.9244 18.4161 80.2394 18.9024 81.5119Z" fill="url(#paint8_linear_2304_73160)"/>
<path d="M27.6583 97.1369H122.28C123.253 95.8644 124.184 94.5706 125.072 93.2344H24.8672C25.7553 94.5706 26.6856 95.8856 27.6583 97.1369Z" fill="url(#paint9_linear_2304_73160)"/>
<path d="M16.5369 73.6838H133.403C133.699 72.39 133.953 71.0962 134.165 69.7812H15.7969C16.0083 71.0962 16.2621 72.4112 16.5581 73.6838H16.5369Z" fill="url(#paint10_linear_2304_73160)"/>
<path d="M34.9306 104.965H115.026C116.401 103.714 117.712 102.42 118.981 101.062H30.9766C32.2241 102.42 33.5562 103.735 34.9306 104.965Z" fill="url(#paint11_linear_2304_73160)"/>
<path d="M74.9792 0.125C68.2341 0.125 61.7638 1.24911 55.6953 3.30644H94.242C88.1946 1.24911 81.7243 0.125 74.9792 0.125Z" fill="url(#paint12_linear_2304_73160)"/>
<path d="M40.4062 11.1369H109.528C107.519 9.7159 105.405 8.4009 103.227 7.23438H46.7285C44.5506 8.4009 42.4361 9.7159 40.4274 11.1369H40.4062Z" fill="url(#paint13_linear_2304_73160)"/>
<path d="M25.1797 26.7619H124.75C123.841 25.4257 122.889 24.1107 121.895 22.8594H28.0342C27.0404 24.132 26.0889 25.4257 25.1797 26.7619Z" fill="url(#paint14_linear_2304_73160)"/>
<path d="M31.4219 18.9416H118.517C117.227 17.5842 115.874 16.2692 114.478 15.0391H35.4816C34.065 16.2692 32.7117 17.5842 31.443 18.9416H31.4219Z" fill="url(#paint15_linear_2304_73160)"/>
</g>
<path d="M112.81 7.92746C117.42 10.5575 121.67 13.8449 125.476 17.6415C129.07 21.6077 132.2 26.0193 134.737 30.749C139.833 40.2085 142.518 50.9406 142.497 61.6938C142.497 72.4471 139.833 83.1792 134.737 92.6386C132.2 97.3684 129.07 101.78 125.455 105.746C121.628 109.5 117.399 112.83 112.789 115.46C116.997 112.236 120.845 108.609 124.144 104.558C127.654 100.698 130.699 96.414 133.172 91.8115C138.141 82.6065 140.742 72.1714 140.742 61.6938C140.742 51.2163 138.141 40.7811 133.172 31.5762C130.699 26.9737 127.675 22.6681 124.144 18.8292C120.824 14.7994 116.997 11.1513 112.789 7.90625L112.81 7.92746Z" fill="url(#paint16_linear_2304_73160)"/>
<path d="M118.789 16.8828C121.982 19.5976 124.858 22.7155 127.416 26.0666C129.848 29.5025 131.941 33.2142 133.633 37.0744C137.016 44.8159 138.75 53.2573 138.75 61.7199C138.75 70.1614 137.016 78.624 133.633 86.3655C131.941 90.2257 129.869 93.9373 127.416 97.3733C124.858 100.724 121.982 103.842 118.789 106.557C121.728 103.567 124.414 100.343 126.697 96.8643C129.108 93.4707 131.159 89.8227 132.829 86.0049C136.17 78.3695 137.883 70.0553 137.883 61.7199C137.883 53.3846 136.17 45.0704 132.829 37.4349C131.159 33.6172 129.108 29.9691 126.697 26.5756C124.414 23.0972 121.728 19.8734 118.789 16.8828Z" fill="url(#paint17_linear_2304_73160)"/>
<path d="M127.418 111.75C128.095 111.134 128.793 110.519 129.469 109.883C129.363 109.098 129.237 108.314 129.089 107.529L130.061 106.553C130.378 106.235 130.674 105.875 130.992 105.535C131.753 105.641 132.535 105.747 133.339 105.832C133.592 105.556 133.846 105.281 134.079 104.984L132.07 103.223L134.1 104.963C135.58 103.202 137.018 101.378 138.308 99.448C138.033 98.7057 137.758 97.9633 137.483 97.2422C137.737 96.8604 137.99 96.4787 138.223 96.0757L138.942 94.9091C139.449 94.1456 139.851 93.3184 140.295 92.5125C141.078 92.4276 141.881 92.3428 142.663 92.2155C143.15 91.1975 143.678 90.1794 144.144 89.1613L144.82 87.5918C145.032 87.0828 145.285 86.5526 145.455 86.0223C145.01 85.3648 144.588 84.7073 144.122 84.071C144.27 83.6469 144.44 83.2227 144.588 82.7773L145.01 81.4623C145.772 81.229 146.512 80.9956 147.273 80.7411C147.548 79.7655 147.802 78.7686 148.076 77.7718C147.569 77.1779 147.04 76.5841 146.491 75.9902L146.787 74.654L146.935 73.9753L147.04 73.2966C147.738 72.9572 148.457 72.6179 149.155 72.2573C149.218 71.7907 149.303 71.3453 149.366 70.8787L149.514 69.5C148.922 68.9698 148.33 68.4608 147.759 67.9517C147.844 67.0397 147.886 66.1277 147.95 65.2157L148.965 64.5794L149.937 63.9219V62.7978L146.575 62.7554H149.958C149.958 62.1827 149.979 61.5889 149.958 61.0162L149.895 59.277C149.874 58.1105 149.747 56.9652 149.662 55.8198C148.965 55.4169 148.309 55.0351 147.611 54.6745L147.231 51.9385C147.083 51.0265 146.892 50.1357 146.723 49.2236C147.273 48.6722 147.823 48.0783 148.33 47.4845L147.928 45.8301C147.78 45.2787 147.675 44.7272 147.506 44.1758L147.019 42.5426C146.85 41.9912 146.702 41.4609 146.512 40.9307C145.751 40.6974 144.989 40.4853 144.249 40.2732C144.101 39.849 143.953 39.4036 143.784 38.9794L143.277 37.7068C143.7 37.0493 144.122 36.3706 144.524 35.6919C144.122 34.7587 143.657 33.8255 143.234 32.9135C142.452 32.765 141.67 32.6589 140.887 32.5741C140.443 31.7681 140.042 30.941 139.576 30.1562C139.915 29.4351 140.232 28.7352 140.549 27.9928L139.83 26.8051L139.048 25.6598C138.265 25.6386 137.462 25.6173 136.701 25.5961C136.193 24.8326 135.622 24.1115 135.073 23.3691C135.326 22.6268 135.559 21.8632 135.77 21.0997L135.051 20.2301L133.254 21.7148H133.233L135.03 20.2089C134.671 19.7635 134.311 19.2969 133.931 18.8727L132.768 17.5789C132.007 16.7093 131.182 15.9033 130.357 15.0762C129.596 15.2034 128.814 15.3519 128.053 15.5216C127.947 15.4155 127.82 15.3095 127.693 15.2034C126.488 13.9521 125.219 12.7643 123.929 11.5978L121.984 9.96465C121.244 9.34958 120.483 8.75571 119.722 8.16184C116.571 6.01967 113.251 4.13201 109.805 2.5625V3.53814C112.934 5.29854 115.915 7.31345 118.685 9.58288C119.827 10.4313 120.927 11.3433 122.005 12.2553C122.005 12.2553 122.195 12.425 122.301 12.4886C126.213 15.8609 129.723 19.6787 132.725 23.8782C133.233 24.5569 133.698 25.2356 134.142 25.9355C134.607 26.6566 135.073 27.3353 135.495 28.0565C136.32 29.5199 137.187 30.941 137.906 32.4681C138.688 33.9527 139.323 35.501 139.999 37.0281L140.887 39.3824C141.204 40.1671 141.458 40.9519 141.712 41.7579C143.784 48.142 144.757 54.8654 144.82 61.5676C144.778 68.2699 143.805 74.9933 141.733 81.3774C141.268 82.9893 140.612 84.5377 140.042 86.1072C139.365 87.6343 138.731 89.2038 137.948 90.6884C136.468 93.7002 134.713 96.5635 132.768 99.2995C128.877 104.772 124.12 109.586 118.77 113.637C115.979 115.928 112.976 117.964 109.805 119.746V120.7C113.294 119.109 116.634 117.222 119.806 115.037C120.546 114.486 122.217 113.383 122.936 112.81C123.676 112.259 124.373 111.665 125.071 111.092C125.832 111.304 126.615 111.516 127.355 111.686L127.418 111.75Z" fill="url(#paint18_linear_2304_73160)"/>
<path d="M37.195 114.501C32.5855 111.871 28.3354 108.584 24.5294 104.787C20.9348 100.821 17.8054 96.4097 15.268 91.6799C10.1722 82.2205 7.48679 71.4884 7.50794 60.7351C7.50794 49.9818 10.1722 39.2498 15.268 29.7903C17.8054 25.0605 20.9348 20.6489 24.5505 16.6828C28.3777 12.9287 32.6066 9.59874 37.2161 6.96875C33.0084 10.1926 29.16 13.8195 25.8615 17.8705C22.3515 21.7306 19.3066 26.015 16.8327 30.6175C11.8637 39.8224 9.26294 50.2576 9.26294 60.7351C9.26294 71.2127 11.8637 81.6478 16.8327 90.8528C19.3066 95.4552 22.3303 99.7608 25.8615 103.6C29.1812 107.63 33.0084 111.278 37.2161 114.523L37.195 114.501Z" fill="url(#paint19_linear_2304_73160)"/>
<path d="M31.2105 105.557C28.0177 102.842 25.142 99.7244 22.5835 96.3733C20.1519 92.9373 18.0586 89.2257 16.367 85.3655C12.9839 77.624 11.25 69.1826 11.25 60.7199C11.25 52.2785 12.9839 43.8159 16.367 36.0744C18.0586 32.2142 20.1519 28.5025 22.5835 25.0666C25.142 21.7155 28.0177 18.5976 31.2105 15.8828C28.2714 18.8734 25.5861 22.0972 23.3024 25.5756C20.892 28.9691 18.8409 32.6172 17.1705 36.4349C13.8296 44.0704 12.1169 52.3846 12.1169 60.7199C12.1169 69.0553 13.8296 77.3695 17.1705 85.0049C18.8409 88.8227 20.892 92.4707 23.3024 95.8643C25.5861 99.3426 28.2714 102.566 31.2105 105.557Z" fill="url(#paint20_linear_2304_73160)"/>
<path d="M22.5597 10.6848C21.883 11.2999 21.1853 11.915 20.5086 12.5513C20.6144 13.336 20.7412 14.1208 20.8893 14.9055L19.9166 15.8812C19.5994 16.1993 19.3034 16.5599 18.9862 16.8992C18.2039 16.7932 17.4427 16.6872 16.6392 16.6023C16.3854 16.878 16.1317 17.1538 15.8991 17.4507L17.9079 19.2111L15.878 17.4719C14.3979 19.2323 12.96 21.0563 11.6702 22.9864C11.9451 23.7287 12.22 24.4711 12.4948 25.1922C12.2411 25.574 11.9874 25.9558 11.7548 26.3587L11.0359 27.5253C10.5284 28.31 10.1266 29.116 9.6826 29.9219C8.90025 30.0068 8.09675 30.0916 7.3144 30.2189C6.82807 31.2369 6.29946 32.255 5.83428 33.2731L5.15765 34.8426C4.9462 35.3516 4.69247 35.8819 4.52331 36.4121C4.96735 37.0908 5.39024 37.7271 5.85542 38.3846C5.70741 38.8088 5.53825 39.233 5.39024 39.6784L4.98849 40.9934C4.22728 41.2267 3.48722 41.46 2.72602 41.7145C2.45114 42.6901 2.1974 43.687 1.92252 44.6838C2.42999 45.2777 2.95861 45.8716 3.50837 46.4654L3.21234 47.8017L3.06433 48.4804L2.95861 49.1591C2.26083 49.4984 1.54192 49.8378 0.844144 50.1983C0.78071 50.665 0.696131 51.1104 0.632697 51.577L0.484685 52.9556C1.07673 53.4858 1.66878 53.9949 2.23969 54.5039C2.15511 55.4159 2.11282 56.3279 2.04939 57.2399L1.03445 57.8762L0.0617922 58.5337V59.6578L3.42379 59.7002H0.0406476C0.0406476 60.2729 0.019503 60.8668 0.0406476 61.4394L0.104081 63.1786C0.125226 64.3452 0.252094 65.4905 0.336672 66.6358C1.03445 67.0388 1.68993 67.4205 2.3877 67.7811L2.7683 70.5171C2.91632 71.4292 3.10662 72.32 3.27578 73.232C2.72602 73.7834 2.17626 74.3773 1.66878 74.9712L2.07053 76.6255C2.21854 77.177 2.32427 77.7284 2.49342 78.2799L2.97975 79.913C3.14891 80.4645 3.29692 80.9947 3.48722 81.5249C4.24843 81.7582 5.00964 81.9703 5.7497 82.1824C5.89771 82.6066 6.04572 83.052 6.21488 83.4762L6.72235 84.7488C6.29946 85.4063 5.87656 86.085 5.47482 86.7637C5.87656 87.6969 6.34175 88.6302 6.76464 89.5422C7.54699 89.6906 8.32934 89.7967 9.11169 89.8815C9.55573 90.6875 9.95748 91.5147 10.4227 92.2994C10.0843 93.0205 9.76718 93.7205 9.45001 94.4628L10.1689 95.6505L10.9513 96.7959C11.7336 96.8171 12.5371 96.8383 13.2983 96.8383C13.8058 97.6018 14.3767 98.3229 14.9265 99.0653C14.6727 99.8076 14.4401 100.571 14.2287 101.335L14.9476 102.204L16.7449 100.72H16.766L14.9688 102.226C15.3282 102.671 15.6877 103.138 16.0683 103.562L17.2312 104.856C17.9924 105.746 18.8171 106.531 19.6417 107.358C20.4029 107.231 21.1853 107.083 21.9465 106.913C22.0522 107.019 22.1791 107.125 22.3059 107.231C23.5112 108.482 24.7799 109.67 26.0697 110.837L28.015 112.47C28.7551 113.085 29.5163 113.679 30.2775 114.273C33.428 116.415 36.7477 118.302 40.1943 119.872V118.896C37.0649 117.136 34.0835 115.121 31.3136 112.852C30.1717 112.003 29.0722 111.112 27.9938 110.179C27.9938 110.179 27.8035 110.009 27.6978 109.946C23.7861 106.573 20.2761 102.756 17.2735 98.5563C16.766 97.8775 16.3009 97.1988 15.8568 96.4989C15.3916 95.7778 14.9265 95.0991 14.5036 94.378C13.6789 92.9145 12.812 91.4934 12.0931 89.9664C11.3107 88.4817 10.6764 86.9334 9.99977 85.4063L9.11169 83.052C8.79452 82.2673 8.54079 81.4825 8.28705 80.6766C6.21488 74.2925 5.24223 67.569 5.17879 60.8668C5.22108 54.1645 6.19373 47.4411 8.26591 41.057C8.73109 39.4451 9.38657 37.8968 9.95748 36.3273C10.6341 34.8002 11.2684 33.2306 12.0508 31.746C13.5309 28.7342 15.2859 25.8709 17.2312 23.1349C21.1218 17.6628 25.8794 12.8482 31.229 8.79718C34.0201 6.50654 37.0226 4.47041 40.1943 2.68881V1.73438C36.7054 3.3251 33.3646 5.21275 30.1929 7.39734C29.4528 7.94879 27.7824 9.05169 27.0635 9.62435C26.3234 10.1758 25.6256 10.7697 24.9279 11.3423C24.1667 11.1302 23.3843 10.9181 22.6443 10.7485L22.5597 10.6848Z" fill="url(#paint21_linear_2304_73160)"/>
<path d="M107.035 40.4243L101.791 45.8964V55.8861L102.658 57.1799H103.123V89.164C102.552 90.1396 101.579 90.7547 100.564 90.7759C99.1264 90.7971 97.8155 89.673 97.456 88.1247C97.456 85.1342 97.456 82.1012 97.5194 79.0894C97.5194 78.8137 97.5194 78.538 97.5194 78.2623C97.5617 76.1413 97.5829 74.7415 97.456 73.6598C97.308 72.4508 96.9697 71.6237 96.3353 70.9237C95.4473 69.9481 94.1574 69.3754 92.4659 69.227V34.316C92.4659 30.9648 89.7594 28.25 86.4185 28.25H56.8795C53.5386 28.25 50.8321 30.9648 50.8321 34.316V98.0508H46.3706C45.9477 98.0508 45.6094 98.3902 45.6094 98.8144C45.6094 99.2386 45.9477 99.5779 46.3706 99.5779H97.3926C97.8155 99.5779 98.1538 99.2386 98.1538 98.8144C98.1538 98.3902 97.8155 98.0508 97.3926 98.0508H92.4659V70.7753C93.6711 70.9025 94.5803 71.3055 95.1935 71.963C96.0393 72.875 96.0605 74.1052 95.9759 78.2411C95.9759 78.4956 95.9759 78.7713 95.9759 79.0682C95.9336 82.1012 95.9124 85.1766 95.9124 88.2096V88.2944V88.3792C96.145 89.5034 96.7371 90.5214 97.604 91.2425C98.4287 91.9425 99.4647 92.3242 100.48 92.3242C100.501 92.3242 100.543 92.3242 100.564 92.3242C102.214 92.2818 103.736 91.285 104.539 89.7367L104.624 89.567V57.2011H104.878L106.379 55.9073V49.2687L108.303 47.5507H109.931L111.982 45.4934L106.95 40.4455L107.035 40.4243Z" fill="#00FFFF"/>
<path d="M109.891 37.9844L107.734 40.0417L112.111 44.4321L114.205 42.3111L109.891 37.9844Z" fill="white"/>
<path d="M77.831 55.7171H77.1543C76.7949 53.9991 75.2725 52.7266 73.454 52.7266H70.0286C69.0136 52.7266 68.0621 53.1295 67.3644 53.8295C66.8358 54.3597 66.4974 55.0172 66.3494 55.7171H65.6728C63.4949 55.7171 61.7188 57.4987 61.7188 59.6833V86.8104C61.7188 88.995 63.4949 90.7766 65.6728 90.7766H77.8732C80.0511 90.7766 81.8273 88.995 81.8273 86.8104V59.6833C81.8273 57.4987 80.0511 55.7171 77.8732 55.7171H77.831ZM68.4427 54.9111C68.8656 54.487 69.4154 54.2537 70.0286 54.2537H73.454C74.4055 54.2537 75.2302 54.8687 75.5473 55.6959H67.9353C68.041 55.399 68.2101 55.1232 68.4427 54.8899V54.9111ZM80.2414 86.8104C80.2414 88.1466 79.1631 89.2283 77.831 89.2283H65.6305C64.2984 89.2283 63.22 88.1466 63.22 86.8104V59.6833C63.22 58.3471 64.2984 57.2654 65.6305 57.2654H77.831C79.1631 57.2654 80.2414 58.3471 80.2414 59.6833V86.8104Z" fill="white"/>
<path d="M73.6023 64.5859L66.4766 74.6605H71.1072L69.3099 80.684L77.0277 70.6943L72.9045 71.0337L73.6023 64.5859Z" fill="white"/>
<path d="M83.4833 34.6094H60.2453C58.2718 34.6094 56.6719 36.2142 56.6719 38.1938V43.3689C56.6719 45.3486 58.2718 46.9534 60.2453 46.9534H83.4833C85.4568 46.9534 87.0567 45.3486 87.0567 43.3689V38.1938C87.0567 36.2142 85.4568 34.6094 83.4833 34.6094Z" fill="white"/>
<defs>
<linearGradient id="paint0_linear_2304_73160" x1="15.8828" y1="48.2716" x2="134.081" y2="48.2716" gradientUnits="userSpaceOnUse">
<stop stop-color="#0071BC"/>
<stop offset="1" stop-color="#00FFFF"/>
</linearGradient>
<linearGradient id="paint1_linear_2304_73160" x1="54.3203" y1="118.533" x2="95.6158" y2="118.533" gradientUnits="userSpaceOnUse">
<stop stop-color="#0071BC"/>
<stop offset="1" stop-color="#00FFFF"/>
</linearGradient>
<linearGradient id="paint2_linear_2304_73160" x1="15.0781" y1="56.0919" x2="134.862" y2="56.0919" gradientUnits="userSpaceOnUse">
<stop stop-color="#0071BC"/>
<stop offset="1" stop-color="#00FFFF"/>
</linearGradient>
<linearGradient id="paint3_linear_2304_73160" x1="17.7188" y1="40.4435" x2="132.217" y2="40.4435" gradientUnits="userSpaceOnUse">
<stop stop-color="#0071BC"/>
<stop offset="1" stop-color="#00FFFF"/>
</linearGradient>
<linearGradient id="paint4_linear_2304_73160" x1="20.7633" y1="32.6176" x2="129.172" y2="32.6176" gradientUnits="userSpaceOnUse">
<stop stop-color="#0071BC"/>
<stop offset="1" stop-color="#00FFFF"/>
</linearGradient>
<linearGradient id="paint5_linear_2304_73160" x1="20.5312" y1="87.3598" x2="129.405" y2="87.3598" gradientUnits="userSpaceOnUse">
<stop stop-color="#0071BC"/>
<stop offset="1" stop-color="#00FFFF"/>
</linearGradient>
<linearGradient id="paint6_linear_2304_73160" x1="39.7344" y1="110.842" x2="110.209" y2="110.842" gradientUnits="userSpaceOnUse">
<stop stop-color="#0071BC"/>
<stop offset="1" stop-color="#00FFFF"/>
</linearGradient>
<linearGradient id="paint7_linear_2304_73160" x1="15.0547" y1="63.8988" x2="134.881" y2="63.8988" gradientUnits="userSpaceOnUse">
<stop stop-color="#0071BC"/>
<stop offset="1" stop-color="#00FFFF"/>
</linearGradient>
<linearGradient id="paint8_linear_2304_73160" x1="17.5703" y1="79.5607" x2="132.365" y2="79.5607" gradientUnits="userSpaceOnUse">
<stop stop-color="#0071BC"/>
<stop offset="1" stop-color="#00FFFF"/>
</linearGradient>
<linearGradient id="paint9_linear_2304_73160" x1="24.8672" y1="95.1857" x2="125.072" y2="95.1857" gradientUnits="userSpaceOnUse">
<stop stop-color="#0071BC"/>
<stop offset="1" stop-color="#00FFFF"/>
</linearGradient>
<linearGradient id="paint10_linear_2304_73160" x1="15.7969" y1="71.7325" x2="134.165" y2="71.7325" gradientUnits="userSpaceOnUse">
<stop stop-color="#0071BC"/>
<stop offset="1" stop-color="#00FFFF"/>
</linearGradient>
<linearGradient id="paint11_linear_2304_73160" x1="30.9766" y1="103.014" x2="118.981" y2="103.014" gradientUnits="userSpaceOnUse">
<stop stop-color="#0071BC"/>
<stop offset="1" stop-color="#00FFFF"/>
</linearGradient>
<linearGradient id="paint12_linear_2304_73160" x1="55.6953" y1="1.71572" x2="94.242" y2="1.71572" gradientUnits="userSpaceOnUse">
<stop stop-color="#0071BC"/>
<stop offset="1" stop-color="#00FFFF"/>
</linearGradient>
<linearGradient id="paint13_linear_2304_73160" x1="40.4062" y1="9.16445" x2="109.528" y2="9.16445" gradientUnits="userSpaceOnUse">
<stop stop-color="#0071BC"/>
<stop offset="1" stop-color="#00FFFF"/>
</linearGradient>
<linearGradient id="paint14_linear_2304_73160" x1="25.1797" y1="24.8107" x2="124.75" y2="24.8107" gradientUnits="userSpaceOnUse">
<stop stop-color="#0071BC"/>
<stop offset="1" stop-color="#00FFFF"/>
</linearGradient>
<linearGradient id="paint15_linear_2304_73160" x1="31.4219" y1="16.9903" x2="118.517" y2="16.9903" gradientUnits="userSpaceOnUse">
<stop stop-color="#0071BC"/>
<stop offset="1" stop-color="#00FFFF"/>
</linearGradient>
<linearGradient id="paint16_linear_2304_73160" x1="183.518" y1="61.6938" x2="113.36" y2="61.6938" gradientUnits="userSpaceOnUse">
<stop stop-color="#0071BC"/>
<stop offset="1" stop-color="#00FFFF"/>
</linearGradient>
<linearGradient id="paint17_linear_2304_73160" x1="183.513" y1="61.6987" x2="113.355" y2="61.6987" gradientUnits="userSpaceOnUse">
<stop stop-color="#0071BC"/>
<stop offset="1" stop-color="#00FFFF"/>
</linearGradient>
<linearGradient id="paint18_linear_2304_73160" x1="183.515" y1="61.7161" x2="113.357" y2="61.7161" gradientUnits="userSpaceOnUse">
<stop stop-color="#0071BC"/>
<stop offset="1" stop-color="#00FFFF"/>
</linearGradient>
<linearGradient id="paint19_linear_2304_73160" x1="-38.9891" y1="60.7351" x2="40.3878" y2="60.7351" gradientUnits="userSpaceOnUse">
<stop stop-color="#0071BC"/>
<stop offset="1" stop-color="#00FFFF"/>
</linearGradient>
<linearGradient id="paint20_linear_2304_73160" x1="-38.9896" y1="60.7411" x2="40.3873" y2="60.7411" gradientUnits="userSpaceOnUse">
<stop stop-color="#0071BC"/>
<stop offset="1" stop-color="#00FFFF"/>
</linearGradient>
<linearGradient id="paint21_linear_2304_73160" x1="-38.9923" y1="60.7183" x2="40.3846" y2="60.7183" gradientUnits="userSpaceOnUse">
<stop stop-color="#0071BC"/>
<stop offset="1" stop-color="#00FFFF"/>
</linearGradient>
</defs>
</svg>
