<?xml version="1.0" encoding="UTF-8"?>
<svg width="24" height="24" viewBox="0 0 24 24" fill="none" xmlns="http://www.w3.org/2000/svg">
<g clip-path="url(#clip0_3267_33184)">
<path fill-rule="evenodd" clip-rule="evenodd" d="M11.9996 9.74951C10.757 9.74951 9.74963 10.7569 9.74963 11.9995C9.74963 13.2421 10.757 14.2495 11.9996 14.2495C13.2423 14.2495 14.2496 13.2421 14.2496 11.9995C14.2496 10.7569 13.2423 9.74951 11.9996 9.74951ZM8.24963 11.9995C8.24963 9.92844 9.92856 8.24951 11.9996 8.24951C14.0707 8.24951 15.7496 9.92844 15.7496 11.9995C15.7496 14.0706 14.0707 15.7495 11.9996 15.7495C9.92856 15.7495 8.24963 14.0706 8.24963 11.9995Z" fill="#52D051"/>
<path fill-rule="evenodd" clip-rule="evenodd" d="M12.5303 0.46967L12 1L11.4697 0.46967C11.7626 0.176777 12.2374 0.176777 12.5303 0.46967ZM12.3292 8.66459L12.3299 8.66307L12.3361 8.65038C12.342 8.63828 12.3512 8.61899 12.3633 8.59299C12.3876 8.54098 12.4234 8.4623 12.4669 8.36081C12.554 8.15746 12.6712 7.86462 12.7885 7.51283C13.026 6.80026 13.25 5.88656 13.25 5C13.25 4.22544 12.8511 3.37867 12.376 2.66603C12.2476 2.47342 12.1188 2.29832 12 2.14608C11.8812 2.29832 11.7524 2.47342 11.624 2.66603C11.1489 3.37867 10.75 4.22544 10.75 5C10.75 5.88656 10.974 6.80026 11.2115 7.51283C11.3288 7.86462 11.446 8.15746 11.5331 8.36081C11.5766 8.4623 11.6124 8.54098 11.6367 8.59299C11.6488 8.61899 11.658 8.63828 11.6639 8.65038L11.6701 8.66307L11.6708 8.66459C11.6708 8.66459 11.6708 8.66459 11 9L10.3292 9.33541C10.5144 9.70589 10.9649 9.85606 11.3354 9.67082C11.7058 9.48562 11.8559 9.03503 11.6708 8.66459M11 9C10.3292 9.33541 10.3292 9.33541 10.3292 9.33541L10.3285 9.33399L10.3274 9.33183L10.3242 9.32533L10.3137 9.30372C10.3049 9.28555 10.2926 9.25992 10.2774 9.22732C10.247 9.16215 10.2046 9.06895 10.1544 8.95169C10.054 8.71754 9.92122 8.38538 9.78849 7.98717C9.52601 7.19974 9.25 6.11344 9.25 5C9.25 3.77456 9.85106 2.62133 10.376 1.83397C10.6465 1.4281 10.916 1.09135 11.1181 0.855656C11.2194 0.737417 11.3047 0.643583 11.3658 0.578105C11.3964 0.545341 11.421 0.519603 11.4386 0.501383L11.4597 0.479728L11.4661 0.473227L11.4683 0.471078L11.4697 0.46967C11.4697 0.46967 11.4697 0.46967 12 1C12.5303 0.46967 12.5303 0.46967 12.5303 0.46967L12.5317 0.471078L12.5339 0.473227L12.5403 0.479728L12.5614 0.501383C12.579 0.519603 12.6036 0.545341 12.6342 0.578105C12.6953 0.643583 12.7806 0.737417 12.8819 0.855656C13.084 1.09135 13.3535 1.4281 13.624 1.83397C14.1489 2.62133 14.75 3.77456 14.75 5C14.75 6.11344 14.474 7.19974 14.2115 7.98717C14.0788 8.38538 13.946 8.71754 13.8456 8.95169C13.7954 9.06895 13.753 9.16215 13.7226 9.22732C13.7074 9.25992 13.6951 9.28555 13.6863 9.30372L13.6758 9.32533L13.6726 9.33183L13.6715 9.33399L13.671 9.33512C13.671 9.33512 13.6708 9.33541 13 9L13.671 9.33512C13.4857 9.70561 13.0351 9.85606 12.6646 9.67082C12.2943 9.48569 12.1445 9.03494 12.3292 8.66459" fill="#52D051"/>
<path fill-rule="evenodd" clip-rule="evenodd" d="M0.46967 11.4697L1 12L0.46967 12.5303C0.176777 12.2374 0.176777 11.7626 0.46967 11.4697ZM8.66459 11.6708L8.66307 11.6701L8.65038 11.6639C8.63828 11.658 8.61899 11.6488 8.59299 11.6367C8.54098 11.6124 8.4623 11.5766 8.36081 11.5331C8.15746 11.446 7.86462 11.3288 7.51283 11.2115C6.80026 10.974 5.88656 10.75 5 10.75C4.22544 10.75 3.37867 11.1489 2.66603 11.624C2.47342 11.7524 2.29832 11.8812 2.14608 12C2.29832 12.1188 2.47342 12.2476 2.66603 12.376C3.37867 12.8511 4.22544 13.25 5 13.25C5.88656 13.25 6.80026 13.026 7.51283 12.7885C7.86462 12.6712 8.15746 12.554 8.36081 12.4669C8.4623 12.4234 8.54098 12.3876 8.59299 12.3633C8.61899 12.3512 8.63828 12.342 8.65038 12.3361L8.66307 12.3299L8.66459 12.3292C8.66459 12.3292 8.66459 12.3292 9 13L9.33541 13.6708C9.70589 13.4856 9.85606 13.0351 9.67082 12.6646C9.48562 12.2942 9.03503 12.1441 8.66459 12.3292M9 13C9.33541 13.6708 9.33541 13.6708 9.33541 13.6708L9.33399 13.6715L9.33183 13.6726L9.32533 13.6758L9.30372 13.6863C9.28555 13.6951 9.25992 13.7074 9.22732 13.7226C9.16215 13.753 9.06895 13.7954 8.95169 13.8456C8.71754 13.946 8.38538 14.0788 7.98717 14.2115C7.19974 14.474 6.11344 14.75 5 14.75C3.77456 14.75 2.62133 14.1489 1.83397 13.624C1.4281 13.3535 1.09135 13.084 0.855656 12.8819C0.737417 12.7806 0.643583 12.6953 0.578105 12.6342C0.545341 12.6036 0.519603 12.579 0.501383 12.5614L0.479728 12.5403L0.473227 12.5339L0.471078 12.5317L0.46967 12.5303C0.46967 12.5303 0.46967 12.5303 1 12C0.46967 11.4697 0.46967 11.4697 0.46967 11.4697L0.471078 11.4683L0.473227 11.4661L0.479728 11.4597L0.501383 11.4386C0.519603 11.421 0.545341 11.3964 0.578105 11.3658C0.643583 11.3047 0.737417 11.2194 0.855656 11.1181C1.09135 10.916 1.4281 10.6465 1.83397 10.376C2.62133 9.85106 3.77456 9.25 5 9.25C6.11344 9.25 7.19974 9.52601 7.98717 9.78849C8.38538 9.92122 8.71754 10.054 8.95169 10.1544C9.06895 10.2046 9.16215 10.247 9.22732 10.2774C9.25992 10.2926 9.28555 10.3049 9.30372 10.3137L9.32533 10.3242L9.33183 10.3274L9.33399 10.3285L9.33512 10.329C9.33512 10.329 9.33541 10.3292 9 11L9.33512 10.329C9.70561 10.5143 9.85606 10.9649 9.67082 11.3354C9.48569 11.7057 9.03494 11.8555 8.66459 11.6708" fill="#52D051"/>
<path fill-rule="evenodd" clip-rule="evenodd" d="M12.5303 23.5303L12 23L11.4697 23.5303C11.7626 23.8232 12.2374 23.8232 12.5303 23.5303ZM12.3292 15.3354L12.3299 15.3369L12.3361 15.3496C12.342 15.3617 12.3512 15.381 12.3633 15.407C12.3876 15.459 12.4234 15.5377 12.4669 15.6392C12.554 15.8425 12.6712 16.1354 12.7885 16.4872C13.026 17.1997 13.25 18.1134 13.25 19C13.25 19.7746 12.8511 20.6213 12.376 21.334C12.2476 21.5266 12.1188 21.7017 12 21.8539C11.8812 21.7017 11.7524 21.5266 11.624 21.334C11.1489 20.6213 10.75 19.7746 10.75 19C10.75 18.1134 10.974 17.1997 11.2115 16.4872C11.3288 16.1354 11.446 15.8425 11.5331 15.6392C11.5766 15.5377 11.6124 15.459 11.6367 15.407C11.6488 15.381 11.658 15.3617 11.6639 15.3496L11.6701 15.3369L11.6708 15.3354C11.6708 15.3354 11.6708 15.3354 11 15L10.3292 14.6646C10.5144 14.2941 10.9649 14.1439 11.3354 14.3292C11.7058 14.5144 11.8559 14.965 11.6708 15.3354M11 15C10.3292 14.6646 10.3292 14.6646 10.3292 14.6646L10.3285 14.666L10.3274 14.6682L10.3242 14.6747L10.3137 14.6963C10.3049 14.7144 10.2926 14.7401 10.2774 14.7727C10.247 14.8379 10.2046 14.931 10.1544 15.0483C10.054 15.2825 9.92122 15.6146 9.78849 16.0128C9.52601 16.8003 9.25 17.8866 9.25 19C9.25 20.2254 9.85106 21.3787 10.376 22.166C10.6465 22.5719 10.916 22.9086 11.1181 23.1443C11.2194 23.2626 11.3047 23.3564 11.3658 23.4219C11.3964 23.4547 11.421 23.4804 11.4386 23.4986L11.4597 23.5203L11.4661 23.5268L11.4683 23.5289L11.4697 23.5303C11.4697 23.5303 11.4697 23.5303 12 23C12.5303 23.5303 12.5303 23.5303 12.5303 23.5303L12.5317 23.5289L12.5339 23.5268L12.5403 23.5203L12.5614 23.4986C12.579 23.4804 12.6036 23.4547 12.6342 23.4219C12.6953 23.3564 12.7806 23.2626 12.8819 23.1443C13.084 22.9086 13.3535 22.5719 13.624 22.166C14.1489 21.3787 14.75 20.2254 14.75 19C14.75 17.8866 14.474 16.8003 14.2115 16.0128C14.0788 15.6146 13.946 15.2825 13.8456 15.0483C13.7954 14.931 13.753 14.8379 13.7226 14.7727C13.7074 14.7401 13.6951 14.7144 13.6863 14.6963L13.6758 14.6747L13.6726 14.6682L13.6715 14.666L13.671 14.6649C13.671 14.6649 13.6708 14.6646 13 15L13.671 14.6649C13.4857 14.2944 13.0351 14.1439 12.6646 14.3292C12.2943 14.5143 12.1445 14.9651 12.3292 15.3354" fill="#52D051"/>
<path fill-rule="evenodd" clip-rule="evenodd" d="M23.5303 11.4697L23 12L23.5303 12.5303C23.8232 12.2374 23.8232 11.7626 23.5303 11.4697ZM15.3354 11.6708L15.3369 11.6701L15.3496 11.6639C15.3617 11.658 15.381 11.6488 15.407 11.6367C15.459 11.6124 15.5377 11.5766 15.6392 11.5331C15.8425 11.446 16.1354 11.3288 16.4872 11.2115C17.1997 10.974 18.1134 10.75 19 10.75C19.7746 10.75 20.6213 11.1489 21.334 11.624C21.5266 11.7524 21.7017 11.8812 21.8539 12C21.7017 12.1188 21.5266 12.2476 21.334 12.376C20.6213 12.8511 19.7746 13.25 19 13.25C18.1134 13.25 17.1997 13.026 16.4872 12.7885C16.1354 12.6712 15.8425 12.554 15.6392 12.4669C15.5377 12.4234 15.459 12.3876 15.407 12.3633C15.381 12.3512 15.3617 12.342 15.3496 12.3361L15.3369 12.3299L15.3354 12.3292C15.3354 12.3292 15.3354 12.3292 15 13L14.6646 13.6708C14.2941 13.4856 14.1439 13.0351 14.3292 12.6646C14.5144 12.2942 14.965 12.1441 15.3354 12.3292M15 13C14.6646 13.6708 14.6646 13.6708 14.6646 13.6708L14.666 13.6715L14.6682 13.6726L14.6747 13.6758L14.6963 13.6863C14.7144 13.6951 14.7401 13.7074 14.7727 13.7226C14.8379 13.753 14.931 13.7954 15.0483 13.8456C15.2825 13.946 15.6146 14.0788 16.0128 14.2115C16.8003 14.474 17.8866 14.75 19 14.75C20.2254 14.75 21.3787 14.1489 22.166 13.624C22.5719 13.3535 22.9086 13.084 23.1443 12.8819C23.2626 12.7806 23.3564 12.6953 23.4219 12.6342C23.4547 12.6036 23.4804 12.579 23.4986 12.5614L23.5203 12.5403L23.5268 12.5339L23.5289 12.5317L23.5303 12.5303C23.5303 12.5303 23.5303 12.5303 23 12C23.5303 11.4697 23.5303 11.4697 23.5303 11.4697L23.5289 11.4683L23.5268 11.4661L23.5203 11.4597L23.4986 11.4386C23.4804 11.421 23.4547 11.3964 23.4219 11.3658C23.3564 11.3047 23.2626 11.2194 23.1443 11.1181C22.9086 10.916 22.5719 10.6465 22.166 10.376C21.3787 9.85106 20.2254 9.25 19 9.25C17.8866 9.25 16.8003 9.52601 16.0128 9.78849C15.6146 9.92122 15.2825 10.054 15.0483 10.1544C14.931 10.2046 14.8379 10.247 14.7727 10.2774C14.7401 10.2926 14.7144 10.3049 14.6963 10.3137L14.6747 10.3242L14.6682 10.3274L14.666 10.3285L14.6649 10.329C14.6649 10.329 14.6646 10.3292 15 11L14.6649 10.329C14.2944 10.5143 14.1439 10.9649 14.3292 11.3354C14.5143 11.7057 14.9651 11.8555 15.3354 11.6708" fill="#52D051"/>
</g>
<defs>
<clipPath id="clip0_3267_33184">
<rect width="24" height="24" fill="white"/>
</clipPath>
</defs>
</svg>
