<svg width="33" height="28" viewBox="0 0 33 28" fill="none" xmlns="http://www.w3.org/2000/svg">
<path d="M14.9922 10.6402C11.2112 10.3677 12.8612 6.90839 14.2211 7.47807C15.5892 8.04774 16.1365 7.04049 16.1365 7.04049C15.9458 6.63594 15.2327 6.19837 15.2327 6.19837C13.7816 5.90115 13.0437 6.49559 12.4715 6.76804C11.8994 7.04049 10.4483 8.2624 11.377 10.1778C12.3057 12.085 14.9342 12.1923 14.9342 12.1923C14.9342 12.1923 18.5991 12.1923 19.3122 13.4225C20.0253 14.6527 18.0021 15.0324 18.0021 15.0324C18.765 15.115 19.4532 15.792 19.4532 15.792C19.4532 15.792 20.9291 15.6021 20.8462 13.6702C20.7633 11.7382 18.765 10.9209 14.9922 10.6484V10.6402ZM14.8844 6.45431C15.1332 6.49559 15.3239 6.6442 15.3239 6.6442C15.3239 6.6442 15.1 6.72676 14.8513 6.68548C14.6025 6.6442 14.4118 6.49559 14.4118 6.49559C14.4118 6.49559 14.6357 6.41303 14.8844 6.45431Z" fill="white"/>
<path d="M20.579 6.76334C20.0069 6.49089 19.2689 5.88819 17.8179 6.19366C17.8179 6.19366 17.1048 6.63124 16.9141 7.03579C16.9141 7.03579 17.4613 8.04304 18.8295 7.47337C20.1976 6.90369 21.8394 10.363 18.0666 10.6355L20.1976 11.618C20.778 11.3207 21.3419 10.8666 21.6818 10.1649C22.6105 8.2577 21.1594 7.03579 20.5873 6.75508L20.579 6.76334ZM18.2407 6.68078C17.992 6.72206 17.7681 6.6395 17.7681 6.6395C17.7681 6.6395 17.9505 6.49089 18.2076 6.44961C18.4646 6.40832 18.6802 6.49089 18.6802 6.49089C18.6802 6.49089 18.4978 6.6395 18.2407 6.68078Z" fill="white"/>
<path d="M17.6705 18.6841C18.1349 18.6841 18.9723 19.3363 18.9723 19.3363C18.9723 19.3363 19.9176 18.6841 19.7932 17.1154C19.6689 15.5468 17.5793 15.1092 16.2941 15.1009C15.0089 15.0844 13.6822 14.5808 13.6076 13.8377C13.533 13.0864 14.7767 12.4342 14.7767 12.4342C14.188 12.492 13.0023 11.9141 13.0023 11.9141C12.6457 12.2938 12.3058 13.0286 12.2892 13.8047C12.2809 14.5808 12.6872 15.2495 13.8729 15.877C15.0669 16.5045 16.2112 16.1742 17.4052 16.3228C17.4052 16.3228 18.707 16.5127 18.7485 17.3631C18.7899 18.2135 17.6788 18.6759 17.6788 18.6759L17.6705 18.6841Z" fill="white"/>
<path d="M15.0519 16.5599C15.0519 16.5599 14.0817 16.9562 14.2973 17.7736C14.5129 18.5909 15.3669 18.7973 17.0999 18.8386C18.8329 18.8799 19.1397 20.6467 19.0734 20.9604C19.007 21.2742 19.007 22.1576 18.0701 22.5539C18.0701 22.5539 17.4399 22.1163 17.1248 22.1741C17.1248 22.1741 18.1115 21.654 18.1944 21.1421C18.2774 20.6219 17.9457 19.6973 16.3454 19.7385C14.7451 19.7798 13.8164 19.3175 13.4764 18.7561C13.2028 18.302 13.1365 16.6342 13.8164 16.1719L15.0519 16.5682V16.5599Z" fill="white"/>
<path d="M16.1796 22.9661C16.9839 22.9991 17.9208 23.2633 17.7467 24.0394C17.5726 24.8155 16.76 24.9723 16.76 24.9723L17.4897 25.2283C17.4897 25.2283 17.9125 24.9228 18.1696 24.5925C18.4266 24.2623 18.5593 23.4367 18.0452 22.8835C17.5145 22.3138 16.1132 22.2065 16.1132 22.2065C15.2758 22.1487 14.7865 21.546 14.8031 20.9598C14.8114 20.3736 15.3255 20.0434 15.3255 20.0434L14.3305 19.6719C14.3305 19.6719 13.3935 21.0919 14.3305 22.0414C15.2675 22.9908 16.1796 22.9578 16.1796 22.9578V22.9661Z" fill="white"/>
<path d="M14.9652 22.7583L15.7446 23.138C15.7446 23.138 14.8657 24.0545 15.9104 24.748C16.9469 25.4415 17.8507 25.4167 17.7015 26.8863C17.7015 26.8863 17.602 27.9101 16.6899 27.8771C16.6899 27.8771 17.3698 27.5799 17.3698 27.0432C17.3698 26.5066 17.5771 25.8213 15.7695 25.3094C13.9619 24.8058 14.9652 22.75 14.9652 22.75V22.7583Z" fill="white"/>
<path d="M15.7213 25.5L16.2023 25.7064C16.2023 25.7064 14.9502 26.6228 16.3847 27.8282C16.3847 27.8282 15.1326 27.4485 15.315 26.3999C15.315 26.3999 15.4145 25.7807 15.7213 25.5Z" fill="white"/>
<path d="M32.9266 4.91374C32.9266 4.91374 25.5967 4.27802 21.3098 1.07463C17.023 -2.13701 19.1788 2.80842 18.8886 3.48543C18.5984 4.16243 18.0263 4.73211 17.2469 4.56698C17.2469 4.56698 17.1805 3.74962 16.9981 3.5845C16.9981 3.5845 17.3878 3.23774 17.3464 2.7754L16.4674 2.75063L15.5802 2.7754C15.5388 3.23774 15.9285 3.5845 15.9285 3.5845C15.7544 3.74962 15.6797 4.56698 15.6797 4.56698C14.9003 4.73211 14.3282 4.15418 14.038 3.48543C13.7477 2.81668 15.9036 -2.13701 11.6168 1.07463C7.32992 4.28627 0 4.91374 0 4.91374C1.55885 6.4081 3.77275 6.34205 3.77275 6.34205L3.54888 6.68056C5.16577 7.22546 7.71134 7.15941 7.71134 7.15941L7.46259 7.44838C7.46259 7.44838 7.91034 7.67129 9.49407 7.71258C11.0778 7.75386 11.8323 6.83742 11.8323 6.83742C11.8323 6.83742 13.7809 5.59075 15.2983 6.11088C16.8157 6.63102 15.8953 7.80339 15.8953 7.80339L16.0031 10.5032H16.8903L16.9981 7.80339C16.9981 7.80339 16.0777 6.63102 17.5951 6.11088C19.1125 5.59075 21.0611 6.83742 21.0611 6.83742C21.0611 6.83742 21.8239 7.75386 23.3994 7.71258C24.9831 7.67129 25.4308 7.44838 25.4308 7.44838L25.1821 7.15941C25.1821 7.15941 27.7277 7.23372 29.3446 6.68056L29.1207 6.34205C29.1207 6.34205 31.3346 6.39985 32.8934 4.91374H32.9266Z" fill="white"/>
<path d="M17.7048 1.48798C17.7048 2.16498 17.1576 2.70989 16.4777 2.70989C15.7977 2.70989 15.2422 2.16498 15.2422 1.48798C15.2422 0.810974 15.7894 0.257812 16.4777 0.257812C17.1659 0.257812 17.7048 0.802718 17.7048 1.48798Z" fill="white"/>
</svg>
