<svg width="137" height="140" viewBox="0 0 137 140" fill="none" xmlns="http://www.w3.org/2000/svg">
<path d="M77.9351 137.553C76.4164 137.873 74.8976 137.873 73.3789 137.953C71.8602 137.953 70.3414 138.193 68.8227 138.113C65.7852 137.953 62.7478 137.953 59.7902 137.393C53.7952 136.673 47.9601 134.752 42.3647 132.432C36.7694 130.031 31.6536 126.67 26.9376 122.909C22.3814 118.988 18.065 114.667 14.6278 109.625C13.4288 108.185 12.6295 106.504 11.5904 104.904C11.1107 104.103 10.6311 103.303 10.1515 102.503L8.95255 100.022C7.35388 99.3821 5.67527 98.6619 4.07661 97.9417C3.27727 95.701 2.31807 93.4604 1.6786 91.1397C1.11907 88.8191 0.399667 86.4984 0 84.1777C1.27894 82.0171 2.6378 80.0165 3.99667 78.0959C5.43547 76.1754 7.03414 74.4149 8.55288 72.7344L9.91175 73.9347V74.6549V75.2151L8.31308 76.9756L6.87428 78.8161C7.19401 80.7367 7.35388 82.6573 7.83348 84.4978C8.31308 86.3383 8.71275 88.2589 9.35221 90.0994C8.39301 92.1 7.43381 94.2606 6.63448 96.5013C7.11408 96.7414 7.59368 96.9814 8.15321 97.2215C12.07 106.184 17.9051 114.186 25.179 120.668C30.6944 125.55 37.0092 129.551 43.8035 132.432C50.5979 135.313 57.9518 136.913 65.3056 137.393C66.6645 136.273 68.0234 135.072 69.2224 133.952C71.1408 133.952 72.9792 133.792 74.8976 133.712C76.816 133.712 78.6545 133.232 80.493 132.992C82.1716 134.192 83.8502 135.233 85.6887 136.193C83.1308 136.913 80.493 137.233 77.8552 137.633L77.9351 137.553Z" fill="#00CAF9"/>
<path d="M77.0547 135.795L77.4544 139.396L81.451 138.835L80.8116 135.234L77.0547 135.795Z" fill="#00CAF9"/>
<path d="M74.8203 136.041L75.0601 139.642L76.0992 139.562L75.7795 135.961L74.8203 136.041Z" fill="#00CAF9"/>
<path d="M73.4712 136.132L72.9922 136.156L73.1789 139.833L73.6578 139.808L73.4712 136.132Z" fill="#00CAF9"/>
<path d="M71.4609 136.195L71.5409 139.796H71.8606L71.7007 136.195H71.4609Z" fill="#00CAF9"/>
<path d="M85.7707 136.04L83.9322 135.56C83.2927 135.4 82.7332 135.24 82.0938 135L82.4135 136.761L82.7332 138.521C83.2928 138.121 83.7723 137.721 84.2519 137.241L85.6908 135.96L85.7707 136.04Z" fill="#00CAF9"/>
<path d="M9.50969 101.626L8.87023 100.266H8.71036L9.34983 101.706C8.95016 103.066 8.63043 104.347 8.39062 105.707L8.79029 106.427L9.50969 106.027L9.34983 105.787L8.87023 106.107L8.63043 105.707C8.87023 104.347 9.18996 103.066 9.58963 101.706L9.50969 101.626Z" fill="#00CAF9"/>
<path d="M10.7891 103.954C10.5493 103.474 10.2296 103.074 9.9898 102.594H9.82993C9.9898 103.154 10.3095 103.554 10.5493 103.954C10.2296 105.235 9.9898 106.595 9.75 107.955L10.1497 108.676L10.8691 108.195L10.7092 107.955L10.2296 108.275L9.9898 107.875C10.2296 106.515 10.4694 105.154 10.7891 103.874V103.954Z" fill="#00CAF9"/>
<path d="M12.1467 106.189L11.3474 104.828H11.1875L11.9069 106.189C11.6671 107.549 11.4273 108.909 11.1875 110.27L11.6671 110.91L12.3066 110.43L12.1467 110.27L11.6671 110.59L11.3474 110.19C11.5072 108.829 11.747 107.389 12.0668 106.108L12.1467 106.189Z" fill="#00CAF9"/>
<path d="M13.5061 108.431L12.7067 107.07H12.5469L13.3462 108.431C13.1863 109.791 13.0265 111.071 12.9465 112.512L13.4261 113.152L14.0656 112.672L13.9057 112.512L13.4261 112.912L13.1064 112.512C13.1863 111.152 13.3462 109.791 13.5061 108.431Z" fill="#00CAF9"/>
<path d="M15.1034 110.593L14.1442 109.312L13.9844 109.473L14.8636 110.673C14.7038 112.033 14.6238 113.394 14.5439 114.834L15.0235 115.474L15.663 114.914L15.5031 114.754L15.0235 115.154L14.7038 114.754C14.7837 113.314 14.9436 111.953 15.0235 110.593H15.1034Z" fill="#00CAF9"/>
<path d="M65.306 137.161C55.7939 136.601 46.3618 133.88 37.9688 129.398L39.5674 129.078C47.8805 133.4 57.1528 135.8 66.4251 136.28L65.306 137.241V137.161Z" fill="#00CAF9"/>
<path opacity="0.7" d="M39.0904 128.831C38.6108 128.911 38.0513 129.071 37.5717 129.151L35.0938 127.631L36.6125 127.391C37.4118 127.871 38.2112 128.431 39.0904 128.831Z" fill="#00CAF9"/>
<path opacity="0.4" d="M36.1343 127.154L34.6155 127.394L32.6172 126.113L34.2159 125.953L36.1343 127.154Z" fill="#00CAF9"/>
<path opacity="0.2" d="M33.7328 125.709C33.1733 125.709 32.6937 125.869 32.1341 125.869L30.6953 124.828H32.214C32.6936 125.068 33.1732 125.389 33.6528 125.709H33.7328Z" fill="#00CAF9"/>
<path opacity="0.15" d="M31.8998 124.431L30.3811 124.511L29.4219 123.791L31.0205 123.711L31.8998 124.431Z" fill="#00CAF9"/>
<path opacity="0.1" d="M30.6173 123.471H29.0187L28.5391 123.151L30.1377 123.071L30.6173 123.471Z" fill="#00CAF9"/>
<path d="M52.5223 117.794L51.8828 116.033L52.0427 115.953L52.6022 117.794H52.5223Z" fill="#00CAF9"/>
<path d="M52.9207 117.958L52.2812 116.117H52.4411L53.0006 117.958H52.9207Z" fill="#00CAF9"/>
<path d="M53.3192 118.106L52.6797 116.266H52.8396L53.3991 118.026L53.3192 118.106Z" fill="#00CAF9"/>
<path d="M53.7176 118.28L53.0781 116.439L53.238 116.359L53.7975 118.2L53.7176 118.28Z" fill="#00CAF9"/>
<path d="M54.1238 118.428L53.4844 116.588L53.6442 116.508L54.2837 118.348L54.1238 118.428Z" fill="#00CAF9"/>
<path d="M54.6022 118.592L53.8828 116.752L54.0427 116.672L54.6821 118.512L54.6022 118.592Z" fill="#00CAF9"/>
<path d="M55.0788 118.667H54.9988C54.759 118.187 54.5192 117.546 54.3594 116.906H54.4393C54.6791 117.546 54.839 118.187 55.0788 118.747V118.667Z" fill="#00CAF9"/>
<path d="M55.3991 118.831C55.1593 118.271 54.9195 117.71 54.6797 117.07H54.7596C54.9994 117.63 55.2392 118.191 55.479 118.751H55.3991V118.831Z" fill="#00CAF9"/>
<path d="M55.7975 118.917C55.5577 118.357 55.3179 117.796 55.0781 117.156H55.1581L55.8775 118.837H55.7975V118.917Z" fill="#00CAF9"/>
<path d="M56.2819 119.067L55.5625 117.307L55.6424 117.227L56.3618 118.987L56.2819 119.067Z" fill="#00CAF9"/>
<path d="M56.6803 119.153L55.9609 117.393L56.0409 117.312L56.7603 119.073L56.6803 119.153Z" fill="#00CAF9"/>
<path d="M57.0788 119.229L56.3594 117.469H56.4393L57.2386 119.149L57.0788 119.229Z" fill="#00CAF9"/>
<path d="M57.6371 119.307L57.5571 119.387L56.7578 117.627L56.8377 117.547L57.6371 119.307Z" fill="#00CAF9"/>
<path d="M57.9556 119.466L57.1562 117.705L57.2362 117.625L58.0355 119.386L57.9556 119.466Z" fill="#00CAF9"/>
<path d="M58.354 119.559L57.5547 117.799L57.6346 117.719L58.434 119.559H58.354Z" fill="#00CAF9"/>
<path d="M58.8384 119.716L58.0391 117.955L58.119 117.875L58.9183 119.636L58.8384 119.716Z" fill="#00CAF9"/>
<path d="M59.2368 119.794L58.4375 118.033L58.5174 117.953L59.3168 119.714L59.2368 119.794Z" fill="#00CAF9"/>
<path d="M59.6371 119.87C59.3173 119.31 59.0775 118.67 58.7578 118.109H58.8377C59.0775 118.59 59.3973 119.23 59.717 119.79H59.6371V119.87Z" fill="#00CAF9"/>
<path d="M60.1136 119.954C59.7939 119.394 59.5541 118.834 59.2344 118.273H59.3143C59.5541 118.834 59.8738 119.394 60.1936 119.954H60.1136Z" fill="#00CAF9"/>
<path d="M20.3906 71.9411L20.5505 75.142C20.5505 76.1823 20.8702 77.3026 20.9502 78.3429C21.19 80.5036 21.8294 82.5842 22.309 84.6648L22.7886 83.9446L21.9893 80.9037C21.7495 79.8634 21.6696 78.8231 21.5097 77.7828C21.11 75.7022 21.11 73.5415 20.9502 71.4609L20.3906 71.9411Z" fill="#00CAF9"/>
<path opacity="0.7" d="M22.8702 84.1875L22.3906 84.9077C22.4706 85.3078 22.6304 85.7079 22.7903 86.1881L23.19 85.4679C23.0301 85.0678 22.9502 84.6676 22.8702 84.1875Z" fill="#00CAF9"/>
<path opacity="0.4" d="M23.345 85.6172L22.9453 86.3374L23.265 87.3777L23.6647 86.6575L23.345 85.6172Z" fill="#00CAF9"/>
<path opacity="0.2" d="M23.7512 86.8203L23.3516 87.5405L23.6713 88.3408L23.991 87.5405L23.7512 86.8203Z" fill="#00CAF9"/>
<path opacity="0.15" d="M24.0697 87.7812L23.75 88.5015L23.9099 88.9816L24.3095 88.2614L24.0697 87.7812Z" fill="#00CAF9"/>
<path opacity="0.1" d="M24.384 88.5L23.9844 89.2202L24.0643 89.4603L24.464 88.7401L24.384 88.5Z" fill="#00CAF9"/>
<g opacity="0.35">
<path d="M27.2597 97.7072C27.2597 97.7072 27.2597 98.3474 27.0199 98.5074C26.7002 98.6675 26.3805 98.6675 26.2206 98.4274C26.0607 98.1873 26.2206 97.7872 26.4604 97.6272C26.7801 97.4671 27.0999 97.4671 27.2597 97.7072Z" fill="#00CAF9"/>
</g>
<path d="M26.8624 97.7109L27.0223 98.031L26.6226 98.3511L26.3828 97.951L26.8624 97.7109Z" fill="#00CAF9"/>
<path d="M26.3768 98.9062L26.4567 99.0663H26.3768L26.2969 98.9863L26.3768 98.9062Z" fill="#00CAF9"/>
<path d="M25.7153 97.7381L25.5781 97.8203L25.6192 97.889L25.7563 97.8068L25.7153 97.7381Z" fill="#00CAF9"/>
<path d="M27.7362 98.0312L27.8161 98.1913L27.6562 98.2713V98.1113L27.7362 98.0312Z" fill="#00CAF9"/>
<path d="M27.1766 96.9418L27.0391 97.0234L27.0798 97.0923L27.2173 97.0106L27.1766 96.9418Z" fill="#00CAF9"/>
<path d="M25.6562 97.8724L26.3757 98.9928L27.7345 98.1125L27.0951 96.9922L25.7362 97.8724H25.6562ZM26.3757 98.9928L25.7362 97.8724L27.0951 97.0722L27.7345 98.1925L26.4556 99.0728L26.3757 98.9928Z" fill="#00CAF9"/>
<g opacity="0.35">
<path d="M27.2579 97.781C27.2579 97.781 27.2579 97.9411 27.2579 98.0211C27.2579 98.1011 27.178 98.1811 27.098 98.2612C27.098 98.2612 26.9382 98.4212 26.8582 98.4212C26.8582 98.4212 26.6984 98.4212 26.6184 98.4212V98.2612H26.7783C26.9382 98.2612 27.0181 98.1011 27.098 97.9411C27.098 97.9411 27.098 97.781 27.098 97.701C27.098 97.541 26.8582 97.3809 26.6184 97.541C26.5385 97.541 26.4586 97.621 26.3786 97.781H26.2188C26.2188 97.781 26.4586 97.541 26.5385 97.4609C26.6984 97.4609 26.8582 97.4609 26.9382 97.4609C27.098 97.4609 27.178 97.621 27.178 97.701L27.2579 97.781Z" fill="#00CAF9"/>
<path d="M26.5385 98.4238V98.5838C26.5385 98.5838 26.2987 98.5838 26.2987 98.5038C26.2987 98.5038 26.2188 98.4238 26.2188 98.3438H26.3786C26.3786 98.3438 26.4585 98.5038 26.6184 98.5038L26.5385 98.4238Z" fill="#00CAF9"/>
</g>
<g opacity="0.35">
<path d="M25.9883 95.4621C25.9883 95.4621 25.9883 96.0222 25.6685 96.2623C25.3488 96.5024 24.9491 96.4223 24.7893 96.1023C24.6294 95.8622 24.7893 95.4621 25.109 95.302C25.4287 95.142 25.8284 95.222 25.9883 95.4621Z" fill="#00CAF9"/>
</g>
<path d="M25.503 95.5469L25.6629 95.867L25.2632 96.107L25.0234 95.787L25.503 95.5469Z" fill="#00CAF9"/>
<path d="M25.0252 96.6719L25.1052 96.7519L25.0252 96.8319L24.9453 96.7519L25.0252 96.6719Z" fill="#00CAF9"/>
<path d="M24.3864 95.5469V95.6269L24.3065 95.7069L24.2266 95.6269L24.3864 95.5469Z" fill="#00CAF9"/>
<path d="M26.4646 95.8672V95.9472L26.3846 96.0272L26.3047 95.9472L26.4646 95.8672Z" fill="#00CAF9"/>
<path d="M25.744 94.75L25.8239 94.91H25.744L25.6641 94.83L25.744 94.75Z" fill="#00CAF9"/>
<path d="M24.3065 95.6284L25.0259 96.7487L26.3848 95.9484L25.6654 94.8281L24.2266 95.6284H24.3065ZM25.0259 96.7487L24.3065 95.6284L25.6654 94.8281L26.3048 95.9484L24.946 96.7487H25.0259Z" fill="#00CAF9"/>
<g opacity="0.35">
<path d="M25.9045 95.6208C25.9045 95.6208 25.9045 95.7808 25.9045 95.8608C25.9045 95.9409 25.8246 96.0209 25.7446 96.1009C25.7446 96.1009 25.5848 96.2609 25.5048 96.2609C25.5048 96.2609 25.345 96.2609 25.265 96.2609V96.1009C25.265 96.1009 25.4249 96.1009 25.5048 96.1009C25.6647 96.1009 25.7446 95.9409 25.8246 95.7808C25.8246 95.7808 25.8246 95.6208 25.8246 95.5407C25.8246 95.3807 25.5848 95.2206 25.345 95.3007C25.265 95.3007 25.1052 95.3807 25.1052 95.4607H24.9453C24.9453 95.4607 25.1851 95.2206 25.265 95.1406C25.4249 95.1406 25.5848 95.1406 25.6647 95.1406C25.8246 95.1406 25.9045 95.3007 25.9045 95.3807V95.6208Z" fill="#00CAF9"/>
<path d="M25.1869 96.1816V96.3416C25.1869 96.3416 24.9471 96.3416 24.9471 96.2616C24.9471 96.2616 24.8672 96.1816 24.8672 96.1016H25.0271C25.0271 96.1016 25.107 96.2616 25.2669 96.2616L25.1869 96.1816Z" fill="#00CAF9"/>
</g>
<g opacity="0.35">
<path d="M24.7833 93.2263C24.7833 93.2263 24.7833 93.8665 24.4636 94.0266C24.1439 94.1866 23.7442 94.1066 23.6643 93.8665C23.5044 93.6265 23.6643 93.2263 23.984 93.0663C24.3037 92.9062 24.7034 93.0663 24.7833 93.2263Z" fill="#00CAF9"/>
</g>
<path d="M24.2999 93.2188L24.4598 93.6189L24.0601 93.7789L23.8203 93.4588L24.2999 93.2188Z" fill="#00CAF9"/>
<path d="M23.744 94.4219L23.8239 94.5019L23.744 94.5819L23.6641 94.4219H23.744Z" fill="#00CAF9"/>
<path d="M23.1815 93.2188L23.2614 93.2988L23.1016 93.3788V93.2188H23.1815Z" fill="#00CAF9"/>
<path d="M25.1815 93.6172L25.2614 93.7772H25.1016V93.6972L25.1815 93.6172Z" fill="#00CAF9"/>
<path d="M24.619 92.5L24.6989 92.58L24.5391 92.66V92.58L24.619 92.5Z" fill="#00CAF9"/>
<path d="M23.1797 93.3002L23.7392 94.5006L25.178 93.7804L24.6185 92.58L23.1797 93.3002ZM23.7392 94.4206L23.1797 93.2202L24.6185 92.5L25.178 93.6203L23.7392 94.3405V94.4206Z" fill="#00CAF9"/>
<g opacity="0.35">
<path d="M24.7074 93.3845C24.7074 93.3845 24.7074 93.5445 24.7074 93.6246C24.7074 93.7046 24.6275 93.7846 24.5475 93.8646C24.5475 93.8646 24.3877 93.9447 24.3077 94.0247C24.3077 94.0247 24.1479 94.0247 24.0679 94.0247V93.8646C24.0679 93.8646 24.2278 93.8646 24.3077 93.8646C24.4676 93.8646 24.5475 93.7046 24.6275 93.6246C24.6275 93.6246 24.6275 93.4645 24.6275 93.3845C24.6275 93.2244 24.3877 93.0644 24.1479 93.1444C24.0679 93.1444 23.9081 93.2244 23.9081 93.3045H23.8281C23.8281 93.3045 24.0679 93.0644 24.2278 92.9844C24.3877 92.9844 24.5475 92.9844 24.6275 92.9844C24.7873 92.9844 24.7873 93.1444 24.8673 93.3045L24.7074 93.3845Z" fill="#00CAF9"/>
<path d="M23.9838 93.8648V94.0249C23.9838 94.0249 23.744 94.0249 23.744 93.8648C23.744 93.8648 23.6641 93.7048 23.6641 93.6248H23.8239C23.8239 93.6248 23.9039 93.7848 24.0637 93.8648H23.9838Z" fill="#00CAF9"/>
</g>
<path d="M34.0523 103.469C37.5694 107.15 41.4861 110.511 45.9624 112.911C50.4387 115.392 55.2347 117.153 60.1905 118.193C61.7892 121.234 63.7875 124.595 66.2655 127.396C77.2164 128.116 88.2472 125.475 97.7593 120.114L97.9191 120.354C88.3271 125.795 77.2164 128.436 66.1856 127.716C63.7076 124.915 61.7892 121.474 60.1106 118.513C55.1547 117.473 50.2788 115.632 45.8025 113.232C41.3262 110.751 37.3296 107.47 33.8125 103.709L33.9724 103.549L34.0523 103.469Z" fill="#00CAF9"/>
<path d="M30.9413 95.9445C34.6981 101.866 39.9737 106.748 45.9687 110.349C46.0487 111.389 46.2085 112.349 46.3684 113.39C46.5283 114.43 46.7681 115.39 47.0079 116.35C54.042 119.871 61.8755 121.712 69.709 121.712V121.952C61.7156 121.952 53.8822 120.031 46.7681 116.51C46.5283 115.47 46.2885 114.51 46.1286 113.47C45.9688 112.429 45.8888 111.389 45.729 110.429C39.8139 106.828 34.6182 102.026 30.8613 96.1846L28.1436 97.9451C25.5857 94.1039 23.6673 89.8627 22.2285 85.5415C21.9088 84.4211 21.669 83.3008 21.3492 82.1805L20.9496 80.5L20.7098 78.8195C20.5499 77.6992 20.3101 76.5789 20.2302 75.3785L20.0703 71.9375H20.3101L20.47 75.2985C20.6298 76.4188 20.7897 77.5391 20.9496 78.6595L21.1894 80.3399C21.3492 80.9001 21.5091 81.4603 21.589 82.0204L22.4683 85.3014C23.9071 89.5426 25.7456 93.7838 28.3035 97.5449L31.0212 95.7844L30.9413 95.9445Z" fill="#00CAF9"/>
<path d="M35.7346 105.548L34.8553 105.708L32.6172 103.227L32.9369 101.547L35.255 104.028L35.0951 104.908C35.0951 104.908 35.5747 105.308 35.7346 105.548Z" fill="#00CAF9"/>
<path d="M82.0951 126.354C76.8994 127.314 71.5438 127.954 66.2682 127.474C65.309 126.274 64.4298 125.233 63.6304 123.953L63.3906 125.874C64.19 127.154 65.1492 128.194 66.1084 129.315L69.4656 129.475C69.4656 129.475 69.9452 128.995 70.185 128.674C72.1034 128.594 73.9418 128.514 75.8602 128.354L81.4556 127.474L82.0951 126.354Z" fill="#00CAF9"/>
<path d="M69.6297 122.107L69.1501 122.587L64.5939 122.347C64.5939 122.347 64.2742 121.947 64.1942 121.706L62.5156 121.466L63.0752 120.906C64.1143 121.146 65.1534 121.146 66.2725 121.226L66.6722 121.787L69.6297 121.947V122.107Z" fill="#00CAF9"/>
<path d="M50.1204 118.037C49.0014 117.637 47.9622 116.997 46.8432 116.517L46.5234 115.156L47.2428 115.476L47.4826 116.517C48.3619 116.917 49.1612 117.317 50.0405 117.717V118.037H50.1204Z" fill="#00CAF9"/>
<path d="M60.7555 119.554H60.116C59.8762 119.074 59.7164 118.674 59.4766 118.273C59.7164 118.273 59.8762 118.353 60.116 118.433L60.6756 119.554H60.7555Z" fill="#00CAF9"/>
<path d="M19.9868 75.2997H19.6671V74.3394L19.2674 74.0193L19.1875 72.0188L20.4664 70.8984L21.9852 72.0188H19.827L19.9868 75.2997Z" fill="#00CAF9"/>
<path d="M33.7358 100.349H33.0164C32.1372 99.0683 31.098 97.868 30.2188 96.5876L30.8582 96.1875C31.7375 97.6279 32.7766 98.9883 33.7358 100.429V100.349Z" fill="#00CAF9"/>
<path d="M97.125 120.279L97.3648 119.398L97.4447 119.639L97.3648 120.119L97.125 120.279Z" fill="#00CAF9"/>
<path d="M96.3984 120.676C96.5583 119.956 96.7182 119.236 96.878 118.516L97.0379 118.756C96.878 119.396 96.7981 120.036 96.6382 120.596H96.3984V120.676Z" fill="#00CAF9"/>
<path d="M95.5234 121.073C95.7632 120.272 96.003 119.472 96.1629 118.672H96.3228C96.1629 119.392 95.9231 120.192 95.7632 120.993H95.5234V121.073Z" fill="#00CAF9"/>
<path d="M94.7266 121.481L95.366 119.08L95.6058 119L94.9664 121.401L94.7266 121.481Z" fill="#00CAF9"/>
<path d="M93.9219 121.879L94.5613 119.478L94.8011 119.398L94.0817 121.799L93.9219 121.879Z" fill="#00CAF9"/>
<path d="M93.0469 122.278L93.7663 119.877L94.0061 119.797L93.2867 122.198L93.0469 122.278Z" fill="#00CAF9"/>
<path d="M92.2422 122.678L92.9616 120.277L93.2014 120.117L92.482 122.598L92.2422 122.678Z" fill="#00CAF9"/>
<path d="M91.4453 123.08C91.765 122.28 92.0048 121.48 92.2446 120.68H92.4844C92.2446 121.4 92.0048 122.2 91.6851 123H91.4453V123.08Z" fill="#00CAF9"/>
<path d="M90.5625 123.399C90.8822 122.599 91.202 121.878 91.4418 121.078H91.6816C91.4418 121.798 91.122 122.599 90.8822 123.319H90.6424L90.5625 123.399Z" fill="#00CAF9"/>
<path d="M89.6875 123.721L90.5668 121.4L90.8066 121.32L89.9273 123.641L89.6875 123.721Z" fill="#00CAF9"/>
<path d="M89.1268 123.803L89.0469 123.563L89.7663 121.643L89.9261 121.562L89.1268 123.803Z" fill="#00CAF9"/>
<path d="M89.128 121.875L88.8083 122.835L88.6484 122.595L88.8882 121.955L89.128 121.875Z" fill="#00CAF9"/>
<path d="M89.9232 115.957C84.0081 118.597 77.6934 120.118 71.2188 120.278L72.0181 119.317C78.3328 118.997 84.5676 117.477 90.2429 114.836L90.0031 115.957H89.9232Z" fill="#00CAF9"/>
<path opacity="0.7" d="M71.6961 119.312L70.8968 120.273C70.2573 120.273 69.5379 120.353 68.8984 120.273C69.2182 119.953 69.458 119.713 69.6978 119.393H71.6162L71.6961 119.312Z" fill="#00CAF9"/>
<path opacity="0.4" d="M69.3824 119.393L68.583 120.273L66.9844 120.193L67.8636 119.312L69.3824 119.393Z" fill="#00CAF9"/>
<path opacity="0.2" d="M67.4593 119.314L66.6599 120.115H65.4609L66.3402 119.234L67.4593 119.314Z" fill="#00CAF9"/>
<path opacity="0.15" d="M66.0224 119.234L65.1431 120.115C65.1431 120.115 64.5836 120.115 64.3438 120.115C64.6635 119.875 64.9832 119.554 65.223 119.314H66.0224V119.234Z" fill="#00CAF9"/>
<path opacity="0.1" d="M64.9039 119.156C64.9039 119.156 64.2645 119.716 64.0247 119.956H63.625L64.5043 119.156C64.6641 119.156 64.7441 119.156 64.9039 119.156Z" fill="#00CAF9"/>
<g opacity="0.35">
<path d="M15.107 92.0266L15.6665 90.9062L14.8672 91.2263L15.107 92.0266Z" fill="#00CAF9"/>
<path d="M15.7434 93.6266C16.223 92.5063 16.8625 91.386 17.422 90.2656L16.1431 90.7458L15.3438 92.4263C15.3438 92.4263 15.5836 93.2265 15.7434 93.6266Z" fill="#00CAF9"/>
<path d="M16.464 95.147L17.1834 93.3865C17.583 92.5063 18.0626 91.546 18.5422 90.5857L17.7429 90.2656C17.2633 91.1459 16.7837 92.1062 16.384 93.0664C16.2242 93.3865 16.1442 93.7066 15.9844 93.9467L16.5439 95.067L16.464 95.147Z" fill="#00CAF9"/>
<path d="M17.1845 96.6717C17.5842 95.7114 17.9839 94.6711 18.3036 93.7909C18.7033 92.9106 19.023 92.1104 19.5026 91.2301V90.9901L18.7832 90.75C18.3036 91.6303 17.824 92.5905 17.4243 93.5508L16.625 95.6314L17.1845 96.7517V96.6717Z" fill="#00CAF9"/>
<path d="M17.9874 98.2653C18.7068 96.3447 19.4262 94.5042 20.2255 92.7437C20.0657 92.4236 19.9058 92.0235 19.7459 91.7034C18.9466 93.4639 18.2272 95.2244 17.5078 97.145L18.0673 98.2653H17.9874Z" fill="#00CAF9"/>
<path d="M18.7801 99.7044C19.2597 97.7839 20.059 95.8633 20.8584 94.1028L20.3788 93.0625C19.5794 94.823 18.86 96.6635 18.1406 98.6641L18.7801 99.7044Z" fill="#00CAF9"/>
<path d="M19.6629 101.228C20.2224 99.2273 20.702 97.4668 21.5014 95.6262L21.0218 94.5859C20.2224 96.4265 19.503 98.267 19.0234 100.188L19.6629 101.228Z" fill="#00CAF9"/>
<path d="M20.6238 102.667C21.1034 100.667 21.663 98.7461 22.3024 96.9856C22.0626 96.6655 21.9028 96.3454 21.7429 95.9453C21.0235 97.7858 20.464 99.6264 19.9844 101.627L20.6238 102.667Z" fill="#00CAF9"/>
<path d="M21.5007 104.113C21.9003 102.192 22.4599 100.191 23.0993 98.3509L22.4599 97.3906C21.8204 99.2312 21.2609 101.152 20.7812 103.152C21.0211 103.552 21.2609 103.873 21.5007 104.193V104.113Z" fill="#00CAF9"/>
<path d="M22.5397 105.472C22.8594 103.471 23.2591 101.631 23.8986 99.7103L23.339 98.75C22.7795 100.591 22.14 102.591 21.8203 104.512L22.5397 105.552V105.472Z" fill="#00CAF9"/>
<path d="M23.5788 106.825C23.8985 104.825 24.2982 102.904 24.7778 100.984L24.1383 100.023C23.4988 101.944 23.1791 103.785 22.8594 105.785L23.5788 106.825Z" fill="#00CAF9"/>
<path d="M24.6196 108.195C24.8594 106.194 25.2591 104.193 25.6588 102.273L24.9394 101.312C24.5397 103.153 24.14 105.154 23.8203 107.154C24.0601 107.474 24.2999 107.874 24.6196 108.114V108.195Z" fill="#00CAF9"/>
<path d="M25.8168 109.476C25.8967 108.435 25.9766 107.475 26.1365 106.515C26.2964 105.475 26.4562 104.514 26.696 103.554L25.9766 102.594C25.577 104.434 25.1773 106.515 24.9375 108.515L25.8168 109.476Z" fill="#00CAF9"/>
<path d="M26.934 110.741C27.0938 108.661 27.2537 106.74 27.5734 104.82L26.854 103.859C26.4544 105.86 26.2146 107.781 26.0547 109.781L26.934 110.741Z" fill="#00CAF9"/>
<path d="M28.1371 112.03C28.217 109.95 28.4568 107.949 28.6966 106.029L27.8973 105.148C27.6575 107.069 27.4177 108.99 27.2578 111.07L28.1371 112.03Z" fill="#00CAF9"/>
<path d="M29.3342 113.146C29.3342 111.145 29.4941 109.145 29.6539 107.224L28.8546 106.344C28.6148 108.264 28.4549 110.265 28.375 112.345L29.3342 113.226V113.146Z" fill="#00CAF9"/>
<path d="M29.7344 113.31L30.6136 112.35C30.6136 110.99 30.6136 109.709 30.7735 108.349L29.9742 107.469C29.8942 108.429 29.8143 109.389 29.7344 110.35C29.7344 111.31 29.7344 112.27 29.7344 113.23V113.31Z" fill="#00CAF9"/>
<path d="M30.9375 112.031L31.8168 111.071V109.55C31.8168 109.55 31.2572 109.07 31.0174 108.75C30.9375 109.87 30.9375 110.911 30.9375 112.031Z" fill="#00CAF9"/>
<path d="M32.2109 110.677L32.6106 110.197L32.2109 109.797V110.677Z" fill="#00CAF9"/>
</g>
<path d="M67.3815 122.674L66.2624 121.234C65.543 121.234 64.7437 121.234 64.0243 121.074L63.7845 123.394C55.3915 122.434 47.3182 119.473 40.2841 114.832C40.1242 113.951 40.1242 112.911 40.0443 111.951C35.4081 108.67 31.3315 104.589 28.0543 99.8674C27.0951 99.8674 26.1359 99.7073 25.1766 99.5473C23.1783 96.3463 21.3398 92.9854 20.0609 89.3843L18.6221 88.8242L17.503 88.344L16.9435 88.104L15.5047 87.4638C13.906 86.6635 12.3074 85.7833 10.6288 84.823C11.508 83.3826 12.3873 82.0222 13.4264 80.7418C13.986 81.1419 14.5455 81.462 15.185 81.8621L17.1034 81.462H17.4231C18.4622 80.1016 19.5014 78.9013 20.6204 77.7009C20.5405 76.9007 20.3007 76.1005 20.3007 75.3002L19.1816 74.5L15.0251 74.8201L14.3057 75.5403H13.1067L12.3074 75.0602H11.588L11.2682 75.4603C10.1492 76.5806 9.26989 77.7809 8.39062 78.9813C8.71036 81.1419 8.95016 83.2225 9.58963 85.3031L10.389 88.424C10.6288 89.4643 11.1084 90.4246 11.4281 91.4649H11.508L12.6271 92.0251L13.1866 92.2652L14.6254 92.9053L15.185 93.1454C15.6646 93.3855 16.2241 93.5455 16.7037 93.7056C17.583 94.0257 18.4622 94.2657 19.3415 94.5058L20.8602 94.9059L21.4198 95.066H21.4997L21.9793 95.226C28.374 107.63 39.7245 117.312 52.9136 121.554C53.1534 122.274 53.4731 122.914 53.7928 123.554C55.5514 123.954 57.23 124.515 58.9885 124.835C60.747 125.075 62.5056 125.395 64.2641 125.635C65.3832 124.595 66.4223 123.474 67.3815 122.434V122.674Z" fill="#00CAF9"/>
<path d="M14.389 70.6562C13.6696 70.6562 12.9502 70.6562 12.6305 70.6562C12.4706 70.8163 12.1509 71.1364 11.3516 71.8566L11.5114 74.9775H12.3907L13.19 75.5377H14.0693L14.7887 74.7374L19.185 74.4173C17.5864 73.297 15.9877 72.0166 14.389 70.6562Z" fill="#00CAF9"/>
<path d="M53.9529 120.991L58.669 122.191C60.2676 122.511 61.8663 122.671 63.5449 122.992L63.7847 120.591C69.1403 121.151 74.4958 120.911 79.7714 119.951C84.9671 118.83 90.0029 116.83 94.639 114.189L92.8006 113.469L90.0029 114.829L88.5641 115.549L87.1253 116.11L84.1678 117.23L81.1303 118.03L82.3293 118.99C76.2543 120.591 69.8597 121.071 63.5449 120.351L63.2252 122.751L59.1486 122.111C57.7897 121.791 56.5108 121.391 55.1519 121.071L54.5924 119.791C53.3134 119.39 52.0345 118.83 50.7556 118.43C50.0362 118.83 49.2368 119.31 48.4375 119.631C50.196 120.351 52.0345 120.991 53.793 121.631V121.151L53.9529 120.991Z" fill="#00CAF9"/>
<path d="M123.254 30.0093C130.688 39.6121 135.164 51.3755 136.523 63.379C137.002 69.3808 137.082 75.5426 135.963 81.4643C135.644 84.5052 134.684 87.386 133.965 90.3469C133.485 91.7873 132.926 93.2277 132.446 94.6681L131.647 96.8288L130.688 98.9094C129.808 100.59 129.169 102.35 128.13 103.871C127.171 105.471 126.211 107.072 125.172 108.592C125.412 110.273 125.572 112.033 125.652 113.794C122.774 117.635 119.417 121.076 115.82 124.197C113.422 124.197 110.944 123.957 108.546 123.717C107.347 123.557 106.228 123.396 105.109 123.236C103.99 122.996 102.791 122.756 101.672 122.436L102.072 120.676L102.711 120.276C102.711 120.276 103.031 120.116 103.191 119.955C104.709 120.196 106.228 120.516 107.747 120.676C109.345 119.555 110.784 118.275 112.143 116.995C112.863 116.354 113.582 115.714 114.221 114.994L116.14 112.833C118.458 112.673 120.776 112.513 123.014 112.033L122.854 110.353C128.689 102.59 132.766 93.4678 134.764 83.865C137.562 69.3808 135.883 53.9363 129.089 40.7325C127.41 40.0923 125.812 39.5321 124.133 39.052C123.094 37.4515 122.215 35.771 121.096 34.2506C119.977 32.7301 118.858 31.2097 117.659 29.7693C117.738 27.8487 117.818 25.7681 117.818 23.6875C119.577 25.6881 121.415 27.5286 122.934 29.7693L123.254 30.0093Z" fill="#00CAF9"/>
<path d="M122.217 31.6897L125.174 29.5291C124.375 28.4888 123.575 27.3684 122.696 26.3281L119.898 28.6488C120.698 29.6091 121.417 30.6494 122.217 31.6897Z" fill="#00CAF9"/>
<path d="M123.575 33.5293L126.613 31.4487L125.973 30.6484L123.016 32.729L123.575 33.5293Z" fill="#00CAF9"/>
<path d="M124.617 35.051L127.654 33.0505L127.334 32.5703L124.297 34.5709L124.617 35.051Z" fill="#00CAF9"/>
<path d="M125.418 36.3325L128.455 34.4119L128.375 34.1719L125.258 36.0924L125.418 36.3325Z" fill="#00CAF9"/>
<path d="M118.141 24.0078L118.62 25.8483L119.02 27.6889L120.459 26.4885L121.818 25.2882L119.979 24.648L118.141 24.0078Z" fill="#00CAF9"/>
<path d="M126.448 107.315L125.648 108.595L125.808 108.755L126.608 107.555C127.887 107.235 129.245 106.835 130.524 106.355L130.924 105.634L130.205 105.234L130.045 105.474L130.604 105.795L130.365 106.195C129.006 106.595 127.727 106.995 126.448 107.395V107.315Z" fill="#00CAF9"/>
<path d="M127.807 105.075L127.008 106.435H127.168L127.887 105.315C129.166 104.915 130.525 104.515 131.804 104.034L132.203 103.314L131.484 102.914V103.154L131.884 103.394L131.644 103.794C130.365 104.274 129.006 104.675 127.727 105.075H127.807Z" fill="#00CAF9"/>
<path d="M129.167 102.836C128.927 103.316 128.607 103.717 128.367 104.197H128.527L129.246 103.076C130.525 102.596 131.724 102.116 133.003 101.556L133.403 100.836L132.684 100.516V100.756L133.083 100.996L132.843 101.396C131.565 101.956 130.286 102.436 129.087 102.916L129.167 102.836Z" fill="#00CAF9"/>
<path d="M130.28 100.434L129.641 101.794H129.8L130.44 100.594C131.719 100.114 132.998 99.5536 134.277 98.9934L134.597 98.2732L133.877 97.9531V98.1932L134.357 98.4333L134.117 98.8334C132.838 99.3935 131.559 99.9537 130.28 100.434Z" fill="#00CAF9"/>
<path d="M131.483 98.0333L130.844 99.3937H131.004L131.643 98.1933C132.922 97.7132 134.121 97.073 135.32 96.4328L135.64 95.6326L134.84 95.3125V95.5526L135.32 95.7926L135.16 96.2728C133.961 96.913 132.762 97.5532 131.483 98.0333Z" fill="#00CAF9"/>
<path d="M129.326 41.1283C133.562 49.6908 135.88 59.2136 136.2 68.7364L135.161 67.536C134.761 58.1733 132.283 48.9706 128.047 40.6482L129.406 41.1283H129.326Z" fill="#00CAF9"/>
<path opacity="0.7" d="M135.164 68.0938L136.203 69.2941C136.203 70.2544 136.203 71.2147 136.203 72.1749L135.244 70.9746C135.244 70.0143 135.244 69.054 135.164 68.0938Z" fill="#00CAF9"/>
<path opacity="0.4" d="M135.244 71.4531L136.203 72.7335L136.043 75.0542L135.164 73.7738L135.244 71.4531Z" fill="#00CAF9"/>
<path opacity="0.2" d="M135.08 74.2578L136.039 75.5382L135.959 77.2987L135 76.0183L135.08 74.2578Z" fill="#00CAF9"/>
<path opacity="0.15" d="M135.002 76.5019C135.322 76.902 135.641 77.3822 135.881 77.7823L135.721 78.9026L134.922 77.5422C134.922 77.5422 134.922 76.742 135.002 76.4219V76.5019Z" fill="#00CAF9"/>
<path opacity="0.1" d="M134.846 78.0938L135.645 79.4541L135.565 80.0143L134.766 78.7339L134.846 78.0938Z" fill="#00CAF9"/>
<path d="M119.025 61.9472L117.666 63.3876L117.586 63.3076L118.945 61.8672L119.025 61.9472Z" fill="#00CAF9"/>
<path d="M118.947 61.541L117.668 62.9814L117.508 62.9014L118.867 61.4609L118.947 61.541Z" fill="#00CAF9"/>
<path d="M118.867 61.0625L117.588 62.5029H117.508L118.787 61.0625H118.867Z" fill="#00CAF9"/>
<path d="M118.781 60.6581L117.502 62.0986H117.422L118.701 60.5781L118.781 60.6581Z" fill="#00CAF9"/>
<path d="M118.703 60.1816C118.303 60.6617 117.823 61.1419 117.424 61.622H117.344C117.743 61.0618 118.223 60.5817 118.623 60.1016H118.703V60.1816Z" fill="#00CAF9"/>
<path d="M118.623 59.7831C118.223 60.2633 117.903 60.7434 117.424 61.2236H117.344C117.823 60.6634 118.143 60.1833 118.543 59.7031H118.623V59.7831Z" fill="#00CAF9"/>
<path d="M118.387 59.3047L118.466 59.3847L117.347 60.8251H117.188L118.387 59.3047Z" fill="#00CAF9"/>
<path d="M118.388 58.9785L117.189 60.4189H117.109L118.308 58.8984L118.388 58.9785Z" fill="#00CAF9"/>
<path d="M118.302 58.5L117.103 60.0204L117.023 59.9404L118.143 58.5H118.302Z" fill="#00CAF9"/>
<path d="M118.146 58.0957L117.027 59.6161L116.867 59.5361L118.066 58.0156L118.146 58.0957Z" fill="#00CAF9"/>
<path d="M118.068 57.705L116.869 59.2255L116.789 59.1454L117.988 57.625L118.068 57.705Z" fill="#00CAF9"/>
<path d="M117.902 57.2188L116.783 58.8192L116.703 58.7392L117.822 57.2188H117.902Z" fill="#00CAF9"/>
<path d="M117.746 56.7344L117.826 56.8144L116.707 58.3348H116.547L117.746 56.7344Z" fill="#00CAF9"/>
<path d="M117.748 56.4238L116.549 57.9442H116.469L117.588 56.3438L117.748 56.4238Z" fill="#00CAF9"/>
<path d="M117.582 55.9375L116.463 57.538H116.383L117.502 55.9375H117.582Z" fill="#00CAF9"/>
<path d="M117.504 55.5391C117.184 56.0992 116.784 56.5794 116.385 57.1395H116.305C116.704 56.5794 117.104 56.0192 117.424 55.5391H117.504Z" fill="#00CAF9"/>
<path d="M117.346 55.1406C117.026 55.7008 116.706 56.1809 116.306 56.7411H116.227C116.626 56.1809 116.946 55.6208 117.266 55.1406H117.346Z" fill="#00CAF9"/>
<path d="M117.182 54.7344C116.862 55.2945 116.542 55.7747 116.142 56.3348H116.062L117.102 54.7344H117.182Z" fill="#00CAF9"/>
<path d="M117.025 54.3378L115.986 55.9383L115.906 55.8583L116.945 54.2578L117.025 54.3378Z" fill="#00CAF9"/>
<path d="M95.36 112.754C97.2784 111.714 98.8771 110.354 100.636 109.073C101.515 108.433 102.234 107.633 103.034 106.913C103.833 106.192 104.632 105.472 105.352 104.672H104.552C101.515 107.633 98.3176 110.434 94.6406 112.514L95.36 112.754Z" fill="#00CAF9"/>
<path opacity="0.7" d="M104.711 104.437H105.51L106.39 103.477H105.59L104.711 104.437Z" fill="#00CAF9"/>
<path opacity="0.4" d="M105.75 103.316H106.549L107.269 102.516L106.469 102.596L105.75 103.316Z" fill="#00CAF9"/>
<path opacity="0.2" d="M106.549 102.351H107.348C107.348 102.351 107.668 101.951 107.828 101.711C107.588 101.711 107.268 101.711 107.028 101.711L106.469 102.271L106.549 102.351Z" fill="#00CAF9"/>
<path opacity="0.15" d="M107.273 101.636L108.073 101.556L108.393 101.156L107.593 101.236L107.273 101.636Z" fill="#00CAF9"/>
<path opacity="0.1" d="M107.672 101.078L108.551 100.998L108.711 100.758L107.832 100.838L107.672 101.078Z" fill="#00CAF9"/>
<g opacity="0.35">
<path d="M114.219 93.9549C114.219 93.9549 114.699 93.6348 115.018 93.7948C115.338 93.9549 115.498 94.2749 115.338 94.595C115.178 94.8351 114.858 94.9151 114.539 94.7551C114.219 94.595 114.059 94.1949 114.219 93.9549Z" fill="#00CAF9"/>
</g>
<path d="M114.461 94.2732L114.621 93.9531L115.1 94.1132L114.941 94.5133L114.461 94.2732Z" fill="#00CAF9"/>
<path d="M115.664 94.0351L115.744 93.875L115.824 93.955V94.0351H115.664Z" fill="#00CAF9"/>
<path d="M115.102 95.2382L115.181 95.0781L115.261 95.1582V95.3182L115.102 95.2382Z" fill="#00CAF9"/>
<path d="M114.305 93.3085V93.1484L114.465 93.2285L114.385 93.3085H114.305Z" fill="#00CAF9"/>
<path d="M113.742 94.4316V94.3516L113.902 94.4316L113.822 94.5116L113.742 94.4316Z" fill="#00CAF9"/>
<path d="M115.181 95.2331L115.741 94.0327L114.302 93.3125L113.742 94.5129L115.181 95.3131V95.2331ZM115.741 94.0327L115.181 95.2331L113.822 94.5129L114.382 93.3925L115.82 94.1127L115.741 94.0327Z" fill="#00CAF9"/>
<g opacity="0.35">
<path d="M114.3 93.8632C114.3 93.8632 114.46 93.7831 114.54 93.7031C114.62 93.7031 114.7 93.7031 114.78 93.7031C114.86 93.7031 114.94 93.7031 115.02 93.8632C115.02 93.8632 115.1 93.9432 115.18 94.0232H115.02C115.02 94.0232 115.02 94.0232 114.94 93.9432C114.86 93.8632 114.7 93.7831 114.54 93.8632C114.54 93.8632 114.38 93.8632 114.38 93.9432C114.221 94.1032 114.3 94.3433 114.46 94.5034C114.54 94.5034 114.7 94.5834 114.78 94.5834V94.7434C114.78 94.7434 114.54 94.7434 114.38 94.5834C114.221 94.5034 114.141 94.3433 114.141 94.1833C114.141 94.0232 114.141 93.9432 114.221 93.8632H114.3Z" fill="#00CAF9"/>
<path d="M115.18 94.1875H115.34C115.34 94.1875 115.34 94.3475 115.34 94.4276C115.34 94.4276 115.34 94.5876 115.26 94.6676H115.18C115.18 94.6676 115.26 94.3475 115.18 94.2675V94.1875Z" fill="#00CAF9"/>
</g>
<g opacity="0.35">
<path d="M112.943 96.1111C112.943 96.1111 113.502 95.791 113.822 95.9511C114.142 96.1111 114.302 96.5112 114.142 96.7513C113.982 96.9914 113.582 97.0714 113.263 96.9113C112.943 96.7513 112.863 96.3512 112.943 96.1111Z" fill="#00CAF9"/>
</g>
<path d="M113.18 96.5076L113.419 96.1875L113.819 96.4276L113.579 96.7477L113.18 96.5076Z" fill="#00CAF9"/>
<path d="M114.461 96.3475L114.541 96.1875L114.621 96.2675L114.541 96.3475H114.461Z" fill="#00CAF9"/>
<path d="M113.742 97.4707L113.822 97.3906L113.902 97.4707V97.5507L113.742 97.4707Z" fill="#00CAF9"/>
<path d="M113.023 95.5488L113.103 95.4688H113.263L113.183 95.6288L113.023 95.5488Z" fill="#00CAF9"/>
<path d="M112.416 96.5566L112.375 96.625L112.512 96.708L112.553 96.6396L112.416 96.5566Z" fill="#00CAF9"/>
<path d="M113.822 97.4693L114.541 96.349L113.102 95.5488L112.383 96.6691L113.742 97.5493L113.822 97.4693ZM114.541 96.269L113.822 97.3893L112.463 96.5891L113.102 95.4688L114.461 96.269H114.541Z" fill="#00CAF9"/>
<g opacity="0.35">
<path d="M113.105 96.1113C113.105 96.1113 113.265 96.0312 113.345 96.0312C113.425 96.0312 113.505 96.0312 113.665 96.0312C113.745 96.0312 113.825 96.0313 113.905 96.1913C113.905 96.1913 113.984 96.2713 114.064 96.3513H113.905C113.905 96.3513 113.905 96.3513 113.825 96.2713C113.745 96.1913 113.585 96.1113 113.425 96.1113C113.425 96.1113 113.265 96.1113 113.265 96.1913C113.105 96.3513 113.105 96.5914 113.265 96.7515C113.345 96.7515 113.425 96.9115 113.585 96.9115V97.0716C113.585 97.0716 113.265 97.0715 113.185 96.9115C113.105 96.8315 113.025 96.6714 112.945 96.5114C112.945 96.3513 112.945 96.2713 113.105 96.1913V96.1113Z" fill="#00CAF9"/>
<path d="M113.906 96.4297H114.066C114.066 96.4297 114.066 96.5897 114.066 96.6698C114.066 96.6698 114.066 96.8298 113.986 96.8298H113.906C113.906 96.8298 113.986 96.5097 113.986 96.4297H113.906Z" fill="#00CAF9"/>
</g>
<g opacity="0.35">
<path d="M111.588 98.3568C111.588 98.3568 112.067 98.0367 112.387 98.2768C112.707 98.4368 112.787 98.8369 112.627 99.077C112.467 99.3171 112.067 99.3971 111.828 99.157C111.588 98.917 111.428 98.5969 111.588 98.3568Z" fill="#00CAF9"/>
</g>
<path d="M111.828 98.7595L112.068 98.3594L112.468 98.6795L112.228 98.9996L111.828 98.7595Z" fill="#00CAF9"/>
<path d="M113.109 98.5956L113.189 98.5156H113.269L113.189 98.6757L113.109 98.5956Z" fill="#00CAF9"/>
<path d="M112.391 99.7128L112.471 99.6328L112.55 99.7128L112.471 99.7929L112.391 99.7128Z" fill="#00CAF9"/>
<path d="M111.75 97.7128L111.83 97.6328L111.91 97.7128L111.83 97.7929L111.75 97.7128Z" fill="#00CAF9"/>
<path d="M111.109 98.83V98.75L111.269 98.83L111.189 98.91L111.109 98.83Z" fill="#00CAF9"/>
<path d="M112.468 99.7193C112.468 99.7193 112.948 98.9191 113.188 98.599L111.829 97.7188C111.829 97.7188 111.429 98.439 111.109 98.8391L112.468 99.7193ZM113.188 98.599L112.468 99.7193L111.189 98.8391L111.829 97.7188L113.188 98.599Z" fill="#00CAF9"/>
<g opacity="0.35">
<path d="M111.746 98.2675C111.746 98.2675 111.906 98.1875 111.986 98.1875C112.066 98.1875 112.145 98.1875 112.225 98.1875C112.305 98.1875 112.385 98.2675 112.465 98.3475C112.465 98.3475 112.545 98.5076 112.625 98.5076H112.465C112.465 98.5076 112.465 98.5076 112.385 98.4276C112.305 98.3475 112.145 98.2675 111.986 98.2675C111.986 98.2675 111.826 98.2675 111.826 98.3475C111.666 98.5076 111.666 98.7477 111.826 98.9077C111.906 98.9877 111.986 99.0678 112.145 99.0678V99.2278C112.145 99.2278 111.906 99.1478 111.746 99.0678C111.666 98.9877 111.586 98.8277 111.586 98.6676C111.586 98.5076 111.586 98.4276 111.746 98.3475V98.2675Z" fill="#00CAF9"/>
<path d="M112.547 98.6719H112.707C112.707 98.6719 112.707 98.8319 112.707 98.9119C112.707 98.9119 112.707 99.072 112.627 99.072H112.547C112.547 99.072 112.627 98.7519 112.627 98.6719H112.547Z" fill="#00CAF9"/>
</g>
<path d="M115.904 85.1535C117.343 80.2721 118.062 75.1506 118.062 70.0291C118.062 64.9077 117.023 59.8662 115.504 54.9848C116.463 53.4643 117.423 51.9439 118.302 50.2634C119.101 48.6629 119.821 46.9024 120.54 45.1419C118.062 40.2605 115.025 35.6992 111.188 31.778C107.431 27.8569 103.194 24.2558 98.3984 21.6151L98.5583 21.375C103.354 24.0958 107.591 27.6968 111.428 31.698C115.264 35.6191 118.302 40.3405 120.86 45.2219C120.14 47.0625 119.421 48.743 118.622 50.3434C117.742 52.0239 116.783 53.6244 115.824 55.0648C117.423 59.9462 118.382 64.9877 118.382 70.1092C118.382 75.2307 117.662 80.3521 116.224 85.2336H115.984L115.904 85.1535Z" fill="#00CAF9"/>
<path d="M110.867 91.5442C113.984 85.3024 115.743 78.4204 115.823 71.3783C117.502 70.178 118.94 68.8976 120.539 67.4572C120.059 59.6149 117.821 51.8526 113.825 45.0507L114.064 44.8906C118.141 51.6926 120.379 59.5349 120.859 67.4572C119.26 68.8976 117.901 70.178 116.143 71.3783C115.983 78.3404 114.304 85.2224 111.267 91.3841L114.144 92.8246L113.425 94.345L112.546 95.7854C111.906 96.7457 111.427 97.786 110.707 98.7463C109.348 100.587 107.989 102.507 106.391 104.108C104.952 105.868 103.113 107.309 101.435 108.909C99.5964 110.27 97.8379 111.79 95.8396 112.91L95.6797 112.67C97.678 111.63 99.3566 110.03 101.275 108.749C102.874 107.149 104.712 105.788 106.151 104.028C109.268 100.747 111.826 96.9057 113.905 92.9046L111.027 91.4642L110.867 91.5442Z" fill="#00CAF9"/>
<path d="M116.705 82.6641L117.185 83.3042C116.945 84.4246 116.705 85.4649 116.225 86.5052L114.547 87.0653C114.947 86.025 115.426 84.9847 115.586 83.8644L116.385 83.5443L116.625 82.6641H116.705Z" fill="#00CAF9"/>
<path d="M111.586 32.0938C113.424 34.0143 114.943 36.1749 116.542 38.3356C117.341 39.3759 117.901 40.5762 118.62 41.6965L119.659 43.377C119.979 43.9372 120.219 44.5774 120.538 45.1375C119.979 46.578 119.419 47.9384 118.78 49.2187L120.538 48.4985C121.098 47.2181 121.658 45.8578 122.217 44.4173C121.737 43.377 121.258 42.4167 120.618 41.4565L119.579 41.2164C118.62 39.6159 117.661 37.9354 116.462 36.495C115.343 34.9746 114.224 33.4541 112.865 32.0938H111.586Z" fill="#00CAF9"/>
<path d="M114.066 44.9725H114.786C115.585 46.3329 116.144 47.8534 116.864 49.1338L116.544 49.7739C116.784 50.2541 117.024 50.8142 117.184 51.2944L116.384 51.0543C115.985 50.094 115.505 49.1338 115.025 48.1735L115.345 47.5333L114.706 46.1729L113.906 44.8925V44.8125L114.066 44.9725Z" fill="#00CAF9"/>
<path d="M120.298 63.8594C120.298 64.4195 120.537 65.0597 120.537 65.6199V67.4604L119.578 68.4207V67.6205L120.298 66.9003V65.4598L120.058 64.0994L120.298 63.8594Z" fill="#00CAF9"/>
<path d="M116.305 53.9375L116.545 54.4977L115.826 55.618L115.586 55.0578L116.305 53.9375Z" fill="#00CAF9"/>
<path d="M98.3969 111.393L98.5568 111.633L97.7575 112.193C97.7575 112.193 97.7575 112.513 97.7575 112.673L95.9989 113.713L94.3203 113.073L94.5601 111.312L95.6792 113.153C96.6384 112.593 97.5976 112.113 98.3969 111.393Z" fill="#00CAF9"/>
<path d="M113.182 86.9062L113.581 87.5464C113.102 89.0669 112.302 90.4273 111.663 91.8677L111.023 91.5476C111.823 90.0272 112.622 88.5867 113.182 86.9863V86.9062Z" fill="#00CAF9"/>
<path d="M98.7134 22.0897L97.9141 22.3298L98.0739 22.0897L98.5535 21.9297L98.7134 22.0897Z" fill="#00CAF9"/>
<path d="M99.5158 22.5663L97.4375 23.2065L97.5174 22.9664L99.3559 22.4062L99.5158 22.5663Z" fill="#00CAF9"/>
<path d="M100.317 23.0507L97.8396 23.7709L97.6797 23.6108L100.078 22.8906L100.317 23.0507Z" fill="#00CAF9"/>
<path d="M101.114 23.455L98.6364 24.1752L98.4766 24.0952L100.875 23.375L101.114 23.455Z" fill="#00CAF9"/>
<path d="M101.833 24.0116C101.034 24.1717 100.234 24.4117 99.3552 24.6518H99.1953C99.9946 24.3317 100.874 24.0116 101.673 23.8516L101.833 24.0116Z" fill="#00CAF9"/>
<path d="M102.55 24.5663C101.751 24.7263 100.951 24.8864 100.152 25.1265H99.9922C100.792 24.7263 101.591 24.6463 102.39 24.4062L102.55 24.5663Z" fill="#00CAF9"/>
<path d="M103.269 25.129L100.871 25.6092L100.711 25.5292L103.109 24.969L103.269 25.129Z" fill="#00CAF9"/>
<path d="M104.069 25.6913L101.591 26.1714L101.352 26.0114L103.829 25.5312L104.069 25.6913Z" fill="#00CAF9"/>
<path d="M104.788 26.1738L102.31 26.6539L102.07 26.5739L104.548 26.0938L104.788 26.1738Z" fill="#00CAF9"/>
<path d="M105.515 26.7285L102.957 27.2086L102.797 27.0486L105.355 26.6484L105.515 26.7285Z" fill="#00CAF9"/>
<path d="M105.834 27.2128L105.674 27.3729C105.034 27.3729 104.315 27.613 103.675 27.693L103.516 27.5329C104.315 27.3729 105.114 27.2128 105.834 27.1328V27.2128Z" fill="#00CAF9"/>
<path d="M104.234 28.1679C104.234 28.1679 104.874 28.0878 105.194 28.0078L105.034 28.1679C105.034 28.1679 104.634 28.1679 104.394 28.2479L104.234 28.0878V28.1679Z" fill="#00CAF9"/>
<path d="M98.5566 30.4141C103.752 34.1752 108.308 38.9766 111.666 44.4982L110.467 44.2581C107.03 38.9766 102.633 34.3352 97.4375 30.7342L98.5566 30.4141Z" fill="#00CAF9"/>
<path opacity="0.7" d="M110.703 44.5781L111.902 44.8182L112.941 46.4987L111.742 46.2586L110.703 44.5781Z" fill="#00CAF9"/>
<path opacity="0.4" d="M111.906 46.5781L113.105 46.8182C113.345 47.2983 113.585 47.7785 113.825 48.2586L112.706 47.9385C112.546 47.4584 112.226 47.0583 111.906 46.5781Z" fill="#00CAF9"/>
<path opacity="0.2" d="M112.781 48.1719L113.98 48.572L114.46 49.6123L113.261 49.2922L112.781 48.1719Z" fill="#00CAF9"/>
<path opacity="0.15" d="M113.422 49.5312L114.621 49.9314L114.941 50.6516L113.822 50.2515L113.422 49.5312Z" fill="#00CAF9"/>
<path opacity="0.1" d="M113.906 50.5781L115.105 50.9782L115.265 51.2983L114.146 50.8982L113.906 50.5781Z" fill="#00CAF9"/>
<g opacity="0.35">
<path d="M115.34 107.312L114.141 107.393L114.86 107.953L115.34 107.312Z" fill="#00CAF9"/>
<path d="M116.378 105.953C115.179 106.113 113.98 106.193 112.781 106.273L113.82 107.153L115.659 106.993L116.378 105.953Z" fill="#00CAF9"/>
<path d="M117.425 104.516L115.506 104.756C114.467 104.836 113.508 104.916 112.469 104.996L112.629 105.876C113.588 105.876 114.627 105.716 115.666 105.636H116.625L117.345 104.516H117.425Z" fill="#00CAF9"/>
<path d="M118.38 103.156C117.34 103.316 116.301 103.476 115.262 103.556C114.303 103.636 113.344 103.716 112.465 103.796L112.305 104.037L112.465 104.677C113.424 104.677 114.463 104.517 115.502 104.437L117.74 104.197C117.74 104.197 118.22 103.556 118.46 103.156H118.38Z" fill="#00CAF9"/>
<path d="M119.258 101.711C118.298 101.951 117.339 102.111 116.38 102.271C115.341 102.431 114.382 102.511 113.423 102.591L112.703 103.551C114.622 103.391 116.7 103.231 118.618 102.831L119.258 101.791V101.711Z" fill="#00CAF9"/>
<path d="M120.14 100.195C118.142 100.595 116.224 100.996 114.305 101.236L113.586 102.196C115.584 102.036 117.503 101.716 119.421 101.316L120.061 100.275L120.14 100.195Z" fill="#00CAF9"/>
<path d="M121.098 98.75C119.099 99.2301 117.101 99.6303 115.263 99.9503L114.703 100.911C116.622 100.671 118.54 100.27 120.538 99.7903L121.178 98.75H121.098Z" fill="#00CAF9"/>
<path d="M121.817 97.2344C119.978 97.8746 117.98 98.2747 115.981 98.5948L115.422 99.555C117.34 99.235 119.339 98.8348 121.257 98.3547L121.817 97.2344Z" fill="#00CAF9"/>
<path d="M122.535 95.625C120.537 96.2652 118.778 96.8254 116.78 97.1454L116.141 98.1057C117.1 97.9457 118.059 97.7056 119.098 97.5456C120.057 97.3055 121.017 96.9854 121.976 96.7453L122.535 95.625Z" fill="#00CAF9"/>
<path d="M123.336 94.1094C121.418 94.7496 119.5 95.3097 117.661 95.7899C117.501 96.11 117.341 96.5101 117.102 96.8302C119.02 96.4301 120.858 95.8699 122.777 95.2297L123.336 94.1094Z" fill="#00CAF9"/>
<path d="M123.975 92.5097C122.217 93.3099 120.138 93.8701 118.3 94.3502L117.82 95.3905C119.659 94.9104 121.577 94.3502 123.576 93.63C123.735 93.2299 123.895 92.8298 124.055 92.4297L123.975 92.5097Z" fill="#00CAF9"/>
<path d="M124.536 90.9081C122.697 91.7084 120.939 92.4286 118.941 92.9087L118.461 93.949C120.299 93.3889 122.298 92.8287 124.136 92.0285L124.536 90.8281V90.9081Z" fill="#00CAF9"/>
<path d="M125.175 89.3125C123.336 90.1127 121.498 90.913 119.659 91.5531C119.579 91.9533 119.34 92.2734 119.18 92.5935C121.098 92.0333 122.857 91.3131 124.695 90.5129L125.095 89.3125H125.175Z" fill="#00CAF9"/>
<path d="M125.657 87.7109C123.899 88.5912 121.98 89.3914 120.142 90.0316L119.742 91.1519C121.501 90.5118 123.419 89.7915 125.258 88.9113C125.417 88.5112 125.577 88.1111 125.657 87.7109Z" fill="#00CAF9"/>
<path d="M126.132 86.0312C125.253 86.5114 124.373 86.9915 123.494 87.3916C122.615 87.7918 121.656 88.1919 120.697 88.512L120.297 89.6323C122.055 88.9121 124.054 88.1919 125.732 87.2316L126.052 86.0312H126.132Z" fill="#00CAF9"/>
<path d="M126.535 84.3516C124.776 85.3118 123.018 86.2721 121.259 87.0724L120.859 88.1927C122.778 87.4725 124.456 86.5922 126.215 85.6319L126.535 84.4316V84.3516Z" fill="#00CAF9"/>
<path d="M126.53 83.9451L125.251 83.625C124.052 84.2652 122.853 84.9054 121.734 85.4655L121.414 86.5859C123.093 85.7856 124.771 84.9054 126.53 83.9451Z" fill="#00CAF9"/>
<path d="M124.778 83.5467L123.499 83.2266L122.14 83.9468L121.82 85.0671C122.78 84.587 123.819 84.1068 124.778 83.5467Z" fill="#00CAF9"/>
<path d="M123.018 83.1444L122.379 82.9844L122.219 83.5445L123.018 83.1444Z" fill="#00CAF9"/>
</g>
<path d="M115.742 46.5781L115.023 48.2586L115.982 50.2592L118.14 49.2989C121.577 56.9811 122.936 65.5436 122.457 73.9461C121.737 74.5062 120.938 75.0664 120.218 75.6266C119.579 81.3082 118.06 86.8298 115.742 92.0313C116.142 92.9116 116.542 93.7918 116.941 94.6721L116.302 95.9525L115.582 97.1528L114.144 99.5535C113.104 101.154 111.905 102.594 110.786 104.195C110.866 104.755 110.946 105.235 111.026 105.715L111.186 106.836V107.396L111.426 108.996C111.586 110.837 111.746 112.757 111.666 114.598C109.987 114.598 108.308 114.358 106.71 114.198V112.117L105.431 110.677L105.191 110.437C103.592 110.197 102.074 110.037 100.475 109.556L98.4766 110.997V112.437L100.715 115.878L101.674 116.118L102.393 117.079L102.233 118.119L102.633 118.759H103.113C104.552 119.159 106.07 119.399 107.669 119.559C111.106 116.919 114.144 113.878 116.941 110.677C116.941 110.197 116.941 109.797 116.861 109.396V108.756L116.542 107.156V106.596L116.142 104.995C115.982 104.115 115.822 103.155 115.582 102.354C115.502 101.874 115.343 101.314 115.183 100.834L115.023 100.274L114.863 99.6335C122.377 87.9501 125.094 73.3059 122.217 59.6219L123.496 57.8614C122.696 54.3404 121.497 50.9794 120.059 47.6984C118.62 47.2983 117.181 46.8982 115.742 46.5781Z" fill="#00CAF9"/>
<path d="M97.1953 118.519C97.515 119.159 97.9147 119.8 98.0746 120.04C98.2345 120.04 98.7141 120.2 99.7532 120.52C100.632 119.96 101.592 119.48 102.391 118.839L101.911 118.119L102.071 117.079L101.592 116.359L100.632 116.119L98.1545 112.438C97.9947 114.358 97.6749 116.359 97.2752 118.359L97.1953 118.519Z" fill="#00CAF9"/>
<path d="M121.017 59.0602C120.537 57.4597 120.297 55.8593 119.738 54.3388C119.178 52.8184 118.619 51.2179 117.979 49.7775L115.741 50.7378C113.663 45.7763 110.626 41.295 107.108 37.2939C103.591 33.2927 99.4348 29.7717 94.7188 27.2109L94.9585 29.2115C96.797 30.1718 98.3957 31.6122 100.074 32.8126C100.954 33.4528 101.673 34.173 102.392 34.8932C103.192 35.6134 103.991 36.2536 104.63 37.0538L104.87 35.4533C109.347 39.9346 112.944 45.2962 115.422 51.0579L117.58 50.0976C118.539 52.6583 119.578 55.2191 120.138 57.9399L119.258 59.1402C119.658 60.4206 119.738 61.861 119.978 63.2214C120.697 63.7015 121.496 64.1017 122.216 64.6618C121.896 62.7413 121.736 60.8207 121.257 58.9802L120.777 59.1402L121.017 59.0602Z" fill="#00CAF9"/>
<path d="M7.58912 44.4131C12.4651 33.2899 20.0587 23.367 29.8906 16.2449C32.2886 14.3244 34.9264 12.964 37.5642 11.3635C40.2819 10.0832 42.9197 8.56271 45.8772 7.60243C51.4726 5.36178 57.5475 4.16143 63.5425 3.52124L69.1379 3.20115C70.9763 3.20115 72.8148 3.3612 74.7332 3.44122L76.8115 1.76073L78.9697 0.320312C81.3677 0.720429 83.7657 0.960499 86.0038 1.60068C88.3219 2.24087 90.64 2.72101 92.8781 3.60127C94.0771 5.84192 95.1962 7.8425 96.0754 10.0832C96.9547 12.3238 97.7541 14.4844 98.4735 16.6451L96.7149 17.2052L95.9955 16.8851L95.5159 16.6451C95.0363 15.2046 94.4768 13.6842 93.9172 12.1638L88.4818 10.1632L82.8864 8.72276C81.6075 6.8022 80.2486 5.04169 78.7299 3.20115L77.371 4.16143C67.6991 3.0411 57.7873 4.00138 48.595 7.12229C34.5267 11.6836 22.2969 21.2864 14.0637 33.53C14.3835 35.2905 14.7831 37.051 15.1828 38.7315C14.1437 40.3319 13.4243 42.0124 12.545 43.7729C12.1453 44.6532 11.6657 45.4534 11.346 46.3337L10.3868 48.9745C8.62825 49.8547 6.70985 50.735 5.03125 51.8553C5.67072 49.2946 6.78979 46.8138 7.66905 44.3331L7.58912 44.4131Z" fill="#00CAF9"/>
<path d="M9.59288 44.5654L6.23568 43.125C5.67614 44.3253 5.27648 45.6857 4.79688 46.8861L8.23401 48.1665C8.71361 46.9661 9.03335 45.7658 9.59288 44.5654Z" fill="#00CAF9"/>
<path d="M7.268 40.9049L6.82031 41.8438L10.1385 43.4297L10.5862 42.4908L7.268 40.9049Z" fill="#00CAF9"/>
<path d="M11.3452 40.8836L8.06793 39.2031L7.82812 39.6833L11.1054 41.2837L11.3452 40.8836Z" fill="#00CAF9"/>
<path d="M11.9882 39.4461L8.79087 37.7656L8.71094 37.9257L11.9083 39.6862L11.9882 39.4461Z" fill="#00CAF9"/>
<path d="M4.95378 52.0111C5.43338 51.531 5.83304 51.0508 6.31264 50.6507L7.75145 49.3703L5.99291 48.8102L4.23438 48.25L4.47418 50.1706C4.55411 50.8107 4.71398 51.4509 4.87384 52.0911L4.95378 52.0111Z" fill="#00CAF9"/>
<path d="M72.8957 3.12091H74.4144V2.96086H72.9756C72.0164 1.92056 71.0572 0.960279 70.0181 0C69.7783 0 69.4586 0 69.2188 0V0.800233H69.4586V0.24007C69.4586 0.24007 69.7783 0.24007 69.9382 0.24007C70.9773 1.20035 71.9365 2.16063 72.8957 3.12091Z" fill="#00CAF9"/>
<path d="M70.2587 2.95896H71.7774V2.79892H70.3386C69.3794 1.75861 68.3403 0.958381 67.2212 0.078125H66.4219V0.958381H66.6617V0.318195H67.1413C68.1804 1.19845 69.2195 1.99868 70.2587 2.95896Z" fill="#00CAF9"/>
<path d="M67.6199 3.03709H69.1386V2.71699H67.6998C66.6607 1.91676 65.6215 1.03651 64.5025 0.15625H63.7031V1.03651H63.9429V0.39632H64.4225C65.5416 1.19655 66.5807 2.07681 67.6199 2.95706V3.03709Z" fill="#00CAF9"/>
<path d="M65.067 3.19925H66.5857V2.87916H65.1469C64.1078 2.07893 62.9887 1.19867 61.8696 0.398438L61.0703 0.558484V1.35872H61.39V0.798554H61.7897C62.9088 1.51876 64.0278 2.47904 65.067 3.27928V3.19925Z" fill="#00CAF9"/>
<path d="M62.4282 3.35572C62.9078 3.2757 63.4673 3.35572 63.9469 3.2757V3.03563C63.4673 3.03563 62.9877 3.03563 62.5081 3.11565C61.389 2.31542 60.27 1.59521 59.1509 0.875L58.3516 1.03505L58.5114 1.83528H58.7512L58.6713 1.19509H59.1509C60.3499 1.83528 61.469 2.63551 62.5081 3.43574L62.4282 3.35572Z" fill="#00CAF9"/>
<path d="M14.2266 33.6076C19.5022 25.6853 26.6162 18.9633 34.6895 13.9219L34.2099 15.4423C26.2965 20.4838 19.5821 27.2057 14.5463 35.128L14.2266 33.6876V33.6076Z" fill="#00CAF9"/>
<path opacity="0.7" d="M34.6094 15.1171L35.1689 13.6767L37.6468 12.1562L37.0873 13.6767L34.6094 15.1171Z" fill="#00CAF9"/>
<path opacity="0.4" d="M37.4844 13.3576C37.6442 12.8775 37.884 12.3173 38.0439 11.8372L40.1222 10.7969L39.4827 12.2373C38.7633 12.5574 38.1238 12.8775 37.4844 13.3576Z" fill="#00CAF9"/>
<path opacity="0.2" d="M39.9688 12.0825L40.6082 10.6421L42.2069 9.92188L41.5674 11.3623L39.9688 12.0825Z" fill="#00CAF9"/>
<path opacity="0.15" d="M41.9609 11.1237L42.6803 9.68327L43.7195 9.20312L43.0001 10.6435L41.9609 11.1237Z" fill="#00CAF9"/>
<path opacity="0.1" d="M43.4862 10.3973C43.726 9.9172 43.9658 9.43706 44.2056 9.03694L44.7651 8.79688L43.9658 10.1573L43.4062 10.3973H43.4862Z" fill="#00CAF9"/>
<path d="M37.4062 32.25C38.0457 32.33 38.6852 32.4901 39.3247 32.6501C38.6852 32.6501 38.0457 32.41 37.4062 32.33V32.25Z" fill="#00CAF9"/>
<path d="M37.0859 32.4922C37.7254 32.5722 38.2849 32.6522 38.9244 32.8923C38.2849 32.8923 37.7254 32.7323 37.0859 32.6522V32.4922Z" fill="#00CAF9"/>
<path d="M36.7656 32.8125L38.6041 33.1326V33.2926L36.7656 32.8925V32.8125Z" fill="#00CAF9"/>
<path d="M36.4453 33.1328L38.2838 33.4529V33.5329L36.4453 33.2128V33.1328Z" fill="#00CAF9"/>
<path d="M36.125 33.375L37.9635 33.6951V33.8551L36.125 33.535V33.375Z" fill="#00CAF9"/>
<path d="M35.8125 33.6953L37.651 34.0154V34.0954L35.8125 33.7753V33.6953Z" fill="#00CAF9"/>
<path d="M35.4922 34.0957V34.0156L37.3307 34.3357V34.4157L35.4922 34.0957Z" fill="#00CAF9"/>
<path d="M35.0938 34.2498L37.0122 34.5698V34.7299L35.1737 34.4098L35.0938 34.2498Z" fill="#00CAF9"/>
<path d="M34.7656 34.5781L36.684 34.8982L36.764 34.9782L34.7656 34.7382V34.5781Z" fill="#00CAF9"/>
<path d="M34.4531 34.8906L36.3715 35.1307L36.4515 35.2907L34.4531 34.9706V34.8906Z" fill="#00CAF9"/>
<path d="M34.1328 35.2109L36.0512 35.451C35.4117 35.451 34.7723 35.371 34.1328 35.291V35.2109Z" fill="#00CAF9"/>
<path d="M33.8906 35.5312C34.5301 35.5312 35.1696 35.6913 35.809 35.7713C35.1696 35.7713 34.5301 35.6913 33.8906 35.6913V35.5312Z" fill="#00CAF9"/>
<path d="M33.25 36.1719L35.1684 36.3319V36.4119L33.25 36.2519V36.1719Z" fill="#00CAF9"/>
<path d="M32.9297 36.5L34.8481 36.66V36.7401L33.0096 36.58L32.9297 36.5Z" fill="#00CAF9"/>
<path d="M32.6875 36.8125L34.6059 36.9725V37.0526L32.6875 36.8925V36.8125Z" fill="#00CAF9"/>
<path d="M32.375 37.1328L34.2934 37.2929V37.3729L32.375 37.2128V37.1328Z" fill="#00CAF9"/>
<path d="M32.0547 37.4531L33.9731 37.6132L34.053 37.6932L32.1346 37.6132L32.0547 37.4531Z" fill="#00CAF9"/>
<path d="M31.8125 37.7734L33.7309 37.9335V38.0135L31.8125 37.9335V37.7734Z" fill="#00CAF9"/>
<path d="M93.201 27.2879L90.3234 25.9275L88.8845 25.2073L87.3658 24.6471L84.3283 23.5268L81.2109 22.7266L81.6106 23.4468C85.7671 24.327 89.604 26.0875 93.3608 28.0881V27.2879H93.201Z" fill="#00CAF9"/>
<path opacity="0.7" d="M81.3661 23.3684L80.9664 22.6482L79.6875 22.3281L80.0872 23.0483L81.3661 23.3684Z" fill="#00CAF9"/>
<path opacity="0.4" d="M79.845 23.0443C79.845 23.0443 79.6053 22.5642 79.4454 22.3241L78.4062 22.1641L78.8059 22.8042C78.8059 22.8042 79.5253 22.8843 79.845 22.9643V23.0443Z" fill="#00CAF9"/>
<path opacity="0.2" d="M78.6461 22.8002L78.1665 22.08L77.3672 22L77.8468 22.6402L78.6461 22.8002Z" fill="#00CAF9"/>
<path opacity="0.15" d="M77.6076 22.644L77.128 21.9238L76.6484 21.8438L77.128 22.564L77.6076 22.644Z" fill="#00CAF9"/>
<path opacity="0.1" d="M76.8913 22.4858L76.4117 21.8456L76.1719 21.7656L76.6515 22.4858H76.8913Z" fill="#00CAF9"/>
<g opacity="0.35">
<path d="M67.4658 20.4854C67.4658 20.4854 66.9062 20.2453 66.9062 19.8452C66.9062 19.4451 67.1461 19.205 67.3859 19.125C67.7056 19.125 67.9454 19.3651 67.9454 19.7652C67.9454 20.1653 67.7056 20.4054 67.4658 20.4854Z" fill="#00CAF9"/>
</g>
<path d="M67.6262 20.0912H67.2266V19.611L67.6262 19.531V20.0912Z" fill="#00CAF9"/>
<path d="M66.8239 19.129H66.6641V18.969H66.8239V19.129Z" fill="#00CAF9"/>
<path d="M68.1034 19.0507H68.0234V18.8906H68.1034V19.0507Z" fill="#00CAF9"/>
<path d="M66.9021 20.7304H66.7422V20.5703H66.9021V20.7304Z" fill="#00CAF9"/>
<path d="M68.1833 20.6522H68.1034L68.0234 20.4922H68.1833V20.6522Z" fill="#00CAF9"/>
<path d="M68.1029 18.969H66.744L66.8239 20.6495H68.1029V18.969ZM66.744 19.049H68.0229V20.5695H66.744L66.6641 19.049H66.744Z" fill="#00CAF9"/>
<g opacity="0.35">
<path d="M67.384 20.4134C67.384 20.4134 67.2242 20.4134 67.1442 20.2534C67.1442 20.2534 67.0643 20.0933 66.9844 20.0133C66.9844 19.9333 66.9844 19.7732 66.9844 19.6932C66.9844 19.6132 66.9844 19.5331 66.9844 19.4531H67.0643C67.0643 19.4531 67.0643 19.6132 67.0643 19.6932C67.0643 19.8532 67.0643 20.0133 67.1442 20.0933C67.1442 20.0933 67.2242 20.1733 67.3041 20.1733C67.464 20.1733 67.7038 20.0933 67.7038 19.8532C67.7038 19.7732 67.7038 19.6132 67.7038 19.5331H67.7837C67.7837 19.5331 67.8636 19.7732 67.7837 19.8532C67.7837 20.0133 67.7038 20.1733 67.5439 20.2534C67.464 20.3334 67.3041 20.3334 67.2242 20.3334L67.384 20.4134Z" fill="#00CAF9"/>
<path d="M67.2206 19.5291H67.1406L67.3005 19.2891C67.3005 19.2891 67.4604 19.2891 67.5403 19.2891V19.4491C67.5403 19.4491 67.3005 19.4491 67.2206 19.5291Z" fill="#00CAF9"/>
</g>
<g opacity="0.35">
<path d="M70.0283 20.4054C70.0283 20.4054 69.4688 20.0853 69.4688 19.7652C69.4688 19.3651 69.7085 19.125 70.0283 19.125C70.348 19.125 70.5878 19.4451 70.5878 19.8452C70.5878 20.2453 70.348 20.4854 70.0283 20.4854V20.4054Z" fill="#00CAF9"/>
</g>
<path d="M70.2669 20.0055L69.8672 19.9255V19.4453H70.2669V20.0055Z" fill="#00CAF9"/>
<path d="M69.4646 18.9647H69.3047V18.8847L69.4646 18.8047V18.9647Z" fill="#00CAF9"/>
<path d="M70.744 19.0507H70.6641V18.8906H70.744V19.0507Z" fill="#00CAF9"/>
<path d="M69.4646 20.5663H69.3047V20.4863L69.4646 20.4062V20.5663Z" fill="#00CAF9"/>
<path d="M70.7458 20.6444H70.5859V20.4844H70.7458V20.6444Z" fill="#00CAF9"/>
<path d="M70.7417 18.9706C70.2621 18.9706 69.8624 18.8906 69.3828 18.9706V20.5711C69.8624 20.5711 70.2621 20.5711 70.6617 20.5711V18.9706H70.7417ZM69.3828 18.8906C69.7825 18.8906 70.2621 18.8906 70.6617 18.8906V20.4911C70.1821 20.4911 69.7825 20.4911 69.3828 20.4911V18.8906Z" fill="#00CAF9"/>
<g opacity="0.35">
<path d="M69.5469 20.3272C69.8666 19.8471 70.2663 19.447 70.586 19.0469C70.1863 19.447 69.8666 19.8471 69.5469 20.3272Z" fill="#00CAF9"/>
</g>
<g opacity="0.35">
<path d="M70.586 20.4073C70.2663 19.9271 69.8666 19.447 69.5469 19.0469C69.9465 19.447 70.2663 19.9271 70.586 20.4073Z" fill="#00CAF9"/>
</g>
<g opacity="0.35">
<path d="M69.9465 20.3197C69.9465 20.3197 69.7867 20.2396 69.7067 20.1596C69.7067 20.1596 69.6268 19.9996 69.5469 19.9195C69.5469 19.8395 69.5469 19.6795 69.5469 19.5994C69.5469 19.5194 69.5469 19.4394 69.6268 19.3594H69.7067C69.7067 19.3594 69.7067 19.5194 69.7067 19.5994C69.7067 19.7595 69.7067 19.9195 69.7867 19.9996C69.7867 19.9996 69.8666 20.0796 69.9465 20.1596C70.1064 20.1596 70.3462 20.1596 70.3462 19.8395C70.3462 19.7595 70.3462 19.5994 70.3462 19.5194H70.4261C70.4261 19.5194 70.5061 19.7595 70.4261 19.9195C70.4261 20.0796 70.3462 20.1596 70.1863 20.2396C70.1064 20.2396 69.9465 20.3197 69.7867 20.2396L69.9465 20.3197Z" fill="#00CAF9"/>
<path d="M69.7891 19.3651V19.205C69.7891 19.205 69.7891 19.125 69.869 19.125C69.869 19.125 70.0289 19.125 70.1088 19.125V19.285C70.1088 19.285 69.869 19.285 69.7891 19.285V19.3651Z" fill="#00CAF9"/>
</g>
<g opacity="0.35">
<path d="M72.5812 20.4856C72.5812 20.4856 72.1016 20.1655 72.1016 19.7654C72.1016 19.3653 72.3414 19.1252 72.6611 19.1252C72.9808 19.1252 73.2206 19.4453 73.1407 19.8455C73.1407 20.2456 72.821 20.4856 72.5812 20.4856Z" fill="#00CAF9"/>
</g>
<path d="M72.8215 20.0898H72.4219V19.6096H72.8215V20.0898Z" fill="#00CAF9"/>
<path d="M72.0174 19.1293H71.9375V18.9692H72.0174V19.1293Z" fill="#00CAF9"/>
<path d="M73.3768 19.1271H73.2969V19.0471H73.3768V19.1271Z" fill="#00CAF9"/>
<path d="M71.9393 20.7306H71.8594V20.5706H72.0192L71.9393 20.7306Z" fill="#00CAF9"/>
<path d="M73.3005 20.7287H73.1406V20.6487H73.3005V20.7287Z" fill="#00CAF9"/>
<path d="M73.3763 19.0471H72.0174V20.5676H73.2964L73.3763 19.0471ZM72.0174 19.0471H73.2964L73.2164 20.6476H71.9375V19.0471H72.0174Z" fill="#00CAF9"/>
<g opacity="0.35">
<path d="M72.4994 20.4056C72.4994 20.4056 72.3395 20.3256 72.2596 20.2455C72.2596 20.2455 72.1797 20.0855 72.1797 20.0055C72.1797 19.9255 72.1797 19.7654 72.1797 19.6854C72.1797 19.6854 72.1797 19.5253 72.2596 19.4453H72.3396C72.3396 19.4453 72.3396 19.6054 72.3396 19.6854C72.3396 19.8454 72.3396 20.0055 72.3396 20.0855C72.3396 20.0855 72.4195 20.1655 72.4994 20.2455C72.6593 20.2455 72.8991 20.2455 72.979 19.9255C72.979 19.8454 72.979 19.6854 72.979 19.6054H73.059C73.059 19.6054 73.059 19.8454 73.059 20.0055C73.059 20.1655 72.8991 20.2455 72.8192 20.3256C72.7392 20.3256 72.5794 20.4056 72.4195 20.3256L72.4994 20.4056Z" fill="#00CAF9"/>
<path d="M72.4219 19.5213V19.3613C72.4219 19.3613 72.4219 19.2812 72.5817 19.2812C72.5817 19.2812 72.7416 19.2812 72.8215 19.2812V19.4413C72.8215 19.4413 72.5817 19.4413 72.5018 19.4413L72.4219 19.5213Z" fill="#00CAF9"/>
</g>
<path d="M58.99 23.3651C53.9542 24.4054 49.2381 26.486 44.8418 29.0467C40.4455 31.6075 36.4488 34.8884 33.1715 38.8096C31.333 38.6495 29.5745 38.7295 27.736 38.8096C25.8976 38.9696 23.9792 39.0496 22.0608 39.3697C19.0233 43.931 16.7852 48.9725 15.1066 54.174C13.5878 59.4556 12.7885 64.8971 12.7086 70.3387H12.4688C12.5487 64.8171 13.348 59.3755 14.9467 54.014C16.6253 48.8125 18.9434 43.691 21.9808 39.1297C23.8193 38.8096 25.8176 38.6495 27.6561 38.5695C28.6153 38.5695 29.4946 38.4895 30.3738 38.4895C31.2531 38.4895 32.2123 38.4895 33.0916 38.5695C33.9708 37.6092 34.7702 36.6489 35.7294 35.7687L38.5271 33.2079C40.6053 31.6875 42.6037 30.087 44.8418 28.8067C49.2381 26.2459 53.9542 24.1653 58.99 23.125V23.3651Z" fill="#00CAF9"/>
<path d="M67.0648 24.4885C60.1106 24.8886 53.2363 26.7291 47.1614 30.1701C45.3229 29.3699 43.4045 28.6497 41.4062 28.0095C34.8516 32.3308 29.4162 38.3325 25.4195 45.0545L25.1797 44.8944C29.1764 38.0924 34.6918 32.0107 41.3262 27.6894C43.3246 28.3296 45.3229 29.0498 47.0815 29.85C53.1564 26.409 59.9507 24.5685 66.825 24.1684L66.6651 20.9675C71.3013 20.5673 75.8575 21.1275 80.3338 22.0078C84.81 22.968 89.1264 24.7286 93.203 26.8092L93.0432 27.0492C88.9666 24.9686 84.81 23.2881 80.3338 22.3279C75.9374 21.4476 71.3812 20.8874 66.825 21.2876L66.9849 24.4885H67.0648Z" fill="#00CAF9"/>
<path d="M56.4297 23.8427L56.7494 23.0424C57.8685 22.8024 58.9076 22.4022 60.0267 22.2422L61.3056 23.4425C60.1866 23.5226 59.0675 23.8427 58.0284 24.1627L57.3889 23.6026L56.5096 23.8427H56.4297Z" fill="#00CAF9"/>
<path d="M15.1827 53.6102C16.9413 48.5688 19.1794 43.7674 22.1369 39.3661C23.5757 39.126 25.1744 38.966 26.6132 38.886L25.0945 37.7656C23.6557 37.9257 22.1369 38.0057 20.6981 38.3258L18.9396 41.2066L19.2593 42.1669C18.3001 43.7674 17.5807 45.5279 16.7015 47.2084C15.9021 48.8889 15.3426 50.7294 14.7031 52.4899L15.2627 53.6102H15.1827Z" fill="#00CAF9"/>
<path d="M25.1773 44.9667L24.9375 44.3265C25.7368 43.0461 26.4562 41.6857 27.4154 40.4854H28.2148L29.2539 39.125L29.4138 39.9252C28.7743 40.8055 28.1348 41.6057 27.4954 42.486H26.8559L25.3372 45.0467V44.9667H25.1773Z" fill="#00CAF9"/>
<path d="M38.4453 30.0903C39.4045 29.3701 40.3637 28.5699 41.4028 27.9297L42.7617 28.4098L42.1223 28.8099C42.1223 28.8099 41.4028 28.5699 41.0831 28.4898L38.845 30.1703H38.5252L38.4453 30.0903Z" fill="#00CAF9"/>
<path d="M31.8125 38.5739L32.2122 38.0938L33.571 38.1738L33.0914 38.6539L31.8125 38.5739Z" fill="#00CAF9"/>
<path d="M90.4844 25.367L90.5643 25.0469L91.4436 25.527L91.9232 25.2869L93.7616 26.1672L94.0014 27.9277L92.4028 28.6479L93.362 26.7274L90.4844 25.367Z" fill="#00CAF9"/>
<path d="M61.9453 24.8097L62.265 24.1695L64.5831 23.7694C65.3824 23.6894 66.1818 23.7694 66.9012 23.6094V24.3296C66.1019 24.3296 65.2226 24.3296 64.4233 24.3296L61.9453 24.6497V24.8097Z" fill="#00CAF9"/>
<path d="M13.0312 69.7812L13.5908 70.3414H13.351L13.0312 69.9413V69.7812Z" fill="#00CAF9"/>
<path d="M13.0312 68.8203L14.6299 70.3408H14.3901L13.0312 69.0604V68.8203Z" fill="#00CAF9"/>
<path d="M13.1094 67.9375L14.8679 69.698V69.8581L13.1094 68.1776V67.9375Z" fill="#00CAF9"/>
<path d="M13.1893 66.9844L14.9478 68.7449V68.985L13.1094 67.2244L13.1893 66.9844Z" fill="#00CAF9"/>
<path d="M13.1875 66.1016L14.946 67.8621V68.1021L13.1875 66.3416V66.1016Z" fill="#00CAF9"/>
<path d="M13.2734 65.1406L15.032 66.9812V67.2212L13.2734 65.3807V65.1406Z" fill="#00CAF9"/>
<path d="M13.3516 64.2576C13.8312 64.8978 14.4706 65.5379 15.1101 66.0981V66.3382C14.5506 65.778 13.8312 65.1378 13.3516 64.4976V64.2576Z" fill="#00CAF9"/>
<path d="M13.5096 63.3748C14.0692 64.0149 14.5488 64.6551 15.1083 65.2153V65.4554C14.4688 64.8152 13.9892 64.255 13.4297 63.6148V63.3748H13.5096Z" fill="#00CAF9"/>
<path d="M13.5938 62.4141L15.2724 64.3346L15.1924 64.5747L13.5938 62.6541V62.4141Z" fill="#00CAF9"/>
<path d="M13.75 61.5391L15.3487 63.4596V63.6997L13.75 61.7791V61.5391Z" fill="#00CAF9"/>
<path d="M13.9922 60.9766L14.232 61.0566L15.5109 62.577V62.8171L13.9922 60.9766Z" fill="#00CAF9"/>
<path d="M15.5926 61.939L14.9531 61.2188H15.1929L15.6725 61.6989L15.5926 61.939Z" fill="#00CAF9"/>
<path d="M20.3047 65.6944C20.9442 59.2926 22.8626 52.9707 25.9 47.2891L26.3796 48.4894C23.502 54.091 21.7435 60.2528 21.184 66.5747L20.3047 65.7744V65.6944Z" fill="#00CAF9"/>
<path opacity="0.7" d="M26.5403 48.0918C26.5403 48.0918 26.2206 47.2915 26.1406 46.8914L27.1798 45.2109L27.4995 46.4113C27.1798 46.9715 26.7801 47.5316 26.5403 48.0918Z" fill="#00CAF9"/>
<path opacity="0.4" d="M27.6557 46.0901L27.3359 44.9698L28.1353 43.6094L28.455 44.8097L27.6557 46.0901Z" fill="#00CAF9"/>
<path opacity="0.2" d="M28.6166 44.4888L28.2969 43.2884C28.2969 43.2884 28.6965 42.6482 28.9363 42.3281C29.0163 42.7282 29.0962 43.1284 29.1761 43.5285L28.6166 44.5688V44.4888Z" fill="#00CAF9"/>
<path opacity="0.15" d="M29.4195 43.2136L29.1797 42.0933L29.6593 41.4531L29.8991 42.6535L29.4195 43.2136Z" fill="#00CAF9"/>
<path opacity="0.1" d="M30.1382 42.3329L29.8984 41.1326L30.1382 40.8125L30.378 42.0128L30.1382 42.3329Z" fill="#00CAF9"/>
<g opacity="0.35">
<path d="M78.4922 12.8047L79.1317 13.765L79.2915 12.8847L78.4922 12.8047Z" fill="#00CAF9"/>
<path d="M76.7344 12.4844C77.4538 13.5247 78.1732 14.485 78.8126 15.5253L79.0524 14.2449L78.0133 12.7244L76.8143 12.5644L76.7344 12.4844Z" fill="#00CAF9"/>
<path d="M75.0547 12.3203C75.4544 12.8005 75.854 13.2806 76.1738 13.8408C76.8132 14.721 77.3728 15.5212 77.9323 16.4015L78.6517 15.8413C78.0922 14.9611 77.5326 14.1608 76.8932 13.2806L76.3336 12.4804C75.934 12.4804 75.5343 12.3203 75.0547 12.3203Z" fill="#00CAF9"/>
<path d="M73.3786 12.2422C74.0181 13.0424 74.7375 13.8427 75.297 14.6429C75.8566 15.4431 76.4161 16.2434 76.8957 17.0436H77.1355L77.6151 16.6435C77.0556 15.7632 76.496 14.963 75.8566 14.0827C75.4569 13.4425 74.9773 12.8824 74.4977 12.3222H73.2188L73.3786 12.2422Z" fill="#00CAF9"/>
<path d="M71.619 12.1562C72.9779 13.6767 74.1769 15.1971 75.2959 16.7976L76.415 16.9576C75.3759 15.2772 74.0969 13.7567 72.818 12.2363H71.5391L71.619 12.1562Z" fill="#00CAF9"/>
<path d="M69.9393 12.0781C71.2982 13.5986 72.5771 15.199 73.7761 16.7195H74.8952C73.7761 15.2791 72.4972 13.6786 71.1383 12.1581H69.8594L69.9393 12.0781Z" fill="#00CAF9"/>
<path d="M68.1815 12.0798C69.6203 13.4402 70.8992 15.0406 72.0982 16.5611H73.2173C72.0183 15.1207 70.7394 13.5202 69.3805 11.9998H68.1016L68.1815 12.0798Z" fill="#00CAF9"/>
<path d="M66.5018 12.1581C67.9406 13.5986 69.2995 14.8789 70.5784 16.4794H71.6975C71.058 15.7592 70.4185 15.039 69.7791 14.2388C69.1396 13.5185 68.4202 12.7983 67.7008 12.0781H66.4219L66.5018 12.1581Z" fill="#00CAF9"/>
<path d="M64.8203 12.3203C66.339 13.6807 67.6979 15.1211 69.0568 16.5615C69.4565 16.5615 69.8561 16.5615 70.1759 16.5615C68.8969 15.0411 67.538 13.7607 66.0992 12.3203H64.8203Z" fill="#00CAF9"/>
<path d="M63.0643 12.4003C64.583 13.6807 66.0218 15.2011 67.3807 16.5615H68.4998C67.2209 15.1211 65.782 13.6807 64.2633 12.3203C63.8636 12.3203 63.464 12.3203 62.9844 12.4804L63.0643 12.4003Z" fill="#00CAF9"/>
<path d="M61.3828 12.7225C62.1821 13.3627 62.9015 14.0029 63.7009 14.6431C64.4203 15.2833 65.1397 16.0035 65.8591 16.7237H66.9782C65.6193 15.2833 64.1805 13.7628 62.5818 12.5625L61.3828 12.7225Z" fill="#00CAF9"/>
<path d="M59.7031 12.9588C61.3018 14.2392 62.8205 15.4395 64.2593 16.7199H65.3784C63.9396 15.1995 62.5008 13.9991 60.9021 12.7188L59.7031 12.8788V12.9588Z" fill="#00CAF9"/>
<path d="M58.0312 13.2069C59.7099 14.4073 61.2286 15.6876 62.6674 16.968L63.7865 16.808C62.3477 15.5276 60.8289 14.2472 59.2303 13.0469L58.0312 13.2069Z" fill="#00CAF9"/>
<path d="M56.3516 13.5994C58.0302 14.6397 59.6288 15.9201 61.1476 17.2005L62.2666 17.0404C60.8278 15.7601 59.2292 14.4797 57.5506 13.3594L56.3516 13.6795V13.5994Z" fill="#00CAF9"/>
<path d="M54.6719 14.0857C56.4304 15.206 57.9491 16.1663 59.5478 17.4467L60.6669 17.2866C59.9475 16.6465 59.1481 16.0063 58.3488 15.4461C57.5495 14.8859 56.7501 14.3258 55.8709 13.7656L54.6719 14.0857Z" fill="#00CAF9"/>
<path d="M52.9922 14.4842C54.7507 15.5245 56.4293 16.6448 57.9481 17.7651C58.3477 17.6851 58.6675 17.525 59.0671 17.525C57.5484 16.3247 55.9497 15.2844 54.1912 14.1641L52.9922 14.4842Z" fill="#00CAF9"/>
<path d="M52.6719 14.6406L53.0715 15.921C54.2705 16.6412 55.3896 17.3614 56.4287 18.1616L57.5478 17.8416C56.0291 16.7212 54.4304 15.6809 52.6719 14.6406Z" fill="#00CAF9"/>
<path d="M53.2344 16.4062L53.634 17.6866L54.913 18.5669L56.032 18.2468C55.1528 17.6066 54.1936 17.0464 53.2344 16.4062Z" fill="#00CAF9"/>
<path d="M53.7109 18.1641L53.9507 18.8042L54.5103 18.6442L53.7109 18.1641Z" fill="#00CAF9"/>
</g>
<path d="M25.7423 42.7369L27.5008 42.4968C27.9005 41.8566 28.3801 41.2965 28.8597 40.7363L27.0212 39.3759C31.9771 32.5739 38.5316 26.8923 46.1253 23.2112C47.0046 23.6113 47.8838 24.0114 48.6832 24.4116C53.8788 22.0909 59.3942 20.6505 65.0695 20.0903C65.6291 19.2901 66.1886 18.5699 66.7481 17.7696L69.6257 17.6096L72.5033 17.7696C73.4625 17.7696 74.4217 17.7696 75.3809 17.9297L78.1786 18.3298L79.3776 17.2895L80.3368 16.5693L80.8164 16.1692L82.0953 15.2889C83.6141 14.2486 85.1328 13.2883 86.8114 12.328C87.6108 13.6884 88.3302 15.3689 88.9696 16.8094L87.1312 17.7696L86.4917 19.6102V19.9303C86.9713 21.4507 87.5308 22.9711 88.0104 24.4116C88.8098 24.6516 89.5292 24.9717 90.2486 25.3718L91.5275 24.7317L93.286 20.9706L92.9663 19.9303L93.4459 18.8099L94.4051 18.4098L94.7248 17.7696L94.565 17.2895C94.0854 15.8491 93.6058 14.3286 92.9663 12.9682C88.9696 11.3678 84.8131 10.1674 80.5766 9.36719H80.4967L79.5375 10.1674L79.0579 10.5675L77.7789 11.5278L77.2993 11.9279L76.1003 12.8882C75.3809 13.4484 74.7415 14.1686 74.0221 14.8088L72.903 15.9291L72.5033 16.3292L72.1037 16.8094C58.1952 16.0891 44.2069 21.1306 33.8955 30.4133L31.7373 30.1732C29.0995 32.654 26.7814 35.2947 24.7031 38.2556L25.1827 40.4162L25.8222 42.5768L25.7423 42.7369Z" fill="#00CAF9"/>
<path d="M97.1987 22.8132C97.5984 22.173 97.9181 21.5329 98.078 21.2928C98.078 21.1327 97.9181 20.6526 97.6783 19.5323C96.799 19.0521 95.8398 18.572 94.8806 18.1719L94.481 18.9721L93.5218 19.3722L93.1221 20.1725L93.4418 21.2128L91.5234 25.2139C93.282 24.4137 95.2004 23.5334 97.1188 22.9733L97.1987 22.8132Z" fill="#00CAF9"/>
<path d="M33.9716 32.009C33.412 32.5691 32.6926 33.0493 32.213 33.6895L30.5344 35.53C29.9749 36.1702 29.4154 36.7303 28.8558 37.3705L27.417 39.3711L29.3354 40.8115C26.218 45.1328 23.5003 49.8542 21.9016 54.9757C20.303 60.0971 19.4237 65.3787 19.3438 70.7402L21.0224 69.4599L21.1822 66.339C21.1822 65.2987 21.502 64.2584 21.5819 63.2181C21.8217 61.1374 22.3812 59.1369 22.9408 57.0563L21.502 57.6964C23.1006 51.6147 25.9782 45.853 29.7351 40.8115L27.8167 39.3711C28.616 38.2508 29.4154 37.1305 30.3746 36.1702C31.3338 35.2099 32.1331 34.0896 33.1722 33.1293L34.691 33.2893C35.7301 32.4091 36.6893 31.3688 37.8084 30.5686C37.8084 29.6883 37.8084 28.8881 37.9682 28.0078L35.6502 29.7683L33.492 31.6889L33.8117 32.009H33.9716Z" fill="#00CAF9"/>
<g clip-path="url(#clip0_2304_73278)">
<g opacity="0.2">
<path d="M33.2812 64.1689H105.178C105.049 63.3749 104.882 62.5809 104.702 61.8125H33.7571C33.5771 62.5937 33.4099 63.3749 33.2812 64.1689Z" fill="url(#paint0_linear_2304_73278)"/>
<path d="M69.2298 106.52C73.6414 106.52 77.8728 105.739 81.7956 104.305H56.6641C60.574 105.739 64.8183 106.52 69.2298 106.52Z" fill="url(#paint1_linear_2304_73278)"/>
<path d="M32.7969 68.8954H105.658C105.632 68.1014 105.581 67.3074 105.503 66.5391H32.9641C32.8869 67.3203 32.8355 68.1014 32.8097 68.8954H32.7969Z" fill="url(#paint2_linear_2304_73278)"/>
<path d="M34.3984 59.4501H104.044C103.8 58.6561 103.517 57.8621 103.221 57.0938H35.2216C34.9258 57.8749 34.6428 58.6561 34.3984 59.4501Z" fill="url(#paint3_linear_2304_73278)"/>
<path d="M36.255 54.7314H102.209C101.823 53.9246 101.412 53.1434 100.975 52.375H37.4769C37.0396 53.1434 36.628 53.9374 36.2422 54.7314H36.255Z" fill="url(#paint4_linear_2304_73278)"/>
<path d="M37.3055 87.7861H101.125C101.549 87.0177 101.961 86.2237 102.321 85.4297H36.1094C36.4824 86.2365 36.8811 87.0177 37.3055 87.7861Z" fill="url(#paint5_linear_2304_73278)"/>
<path d="M51.5061 101.95H86.9526C88.2388 101.233 89.4735 100.452 90.6568 99.5938H47.7891C48.9723 100.452 50.207 101.246 51.4932 101.95H51.5061Z" fill="url(#paint6_linear_2304_73278)"/>
<path d="M32.9356 73.622H105.526C105.604 72.8408 105.655 72.0596 105.668 71.2656H32.7812C32.807 72.0596 32.8584 72.8408 32.9227 73.622H32.9356Z" fill="url(#paint7_linear_2304_73278)"/>
<path d="M35.1228 83.0595H103.341C103.637 82.2783 103.907 81.4971 104.151 80.7031H34.3125C34.5569 81.4971 34.827 82.2911 35.1228 83.0595Z" fill="url(#paint8_linear_2304_73278)"/>
<path d="M40.4477 92.497H98.0034C98.595 91.7286 99.1609 90.9474 99.7011 90.1406H38.75C39.2902 90.9474 39.8561 91.7414 40.4477 92.497Z" fill="url(#paint9_linear_2304_73278)"/>
<path d="M33.6845 78.3329H104.771C104.951 77.5517 105.105 76.7706 105.234 75.9766H33.2344C33.363 76.7706 33.5173 77.5646 33.6974 78.3329H33.6845Z" fill="url(#paint10_linear_2304_73278)"/>
<path d="M44.8739 97.2238H93.5936C94.4296 96.4682 95.227 95.687 95.9987 94.8674H42.4688C43.2276 95.687 44.0379 96.481 44.8739 97.2238Z" fill="url(#paint11_linear_2304_73278)"/>
<path d="M69.2298 33.9219C65.1269 33.9219 61.1913 34.6006 57.5 35.8428H80.9467C77.2683 34.6006 73.3326 33.9219 69.2298 33.9219Z" fill="url(#paint12_linear_2304_73278)"/>
<path d="M48.2031 40.5673H90.2477C89.0258 39.7093 87.7397 38.9153 86.4149 38.2109H52.0487C50.724 38.9153 49.4378 39.7093 48.216 40.5673H48.2031Z" fill="url(#paint13_linear_2304_73278)"/>
<path d="M38.9453 50.0048H99.5106C98.9575 49.198 98.3788 48.404 97.7743 47.6484H40.6816C40.0771 48.4168 39.4984 49.198 38.9453 50.0048Z" fill="url(#paint14_linear_2304_73278)"/>
<path d="M42.7344 45.2782H95.7113C94.9267 44.4586 94.1036 43.6646 93.2547 42.9219H45.2038C44.3421 43.6646 43.5189 44.4586 42.7472 45.2782H42.7344Z" fill="url(#paint15_linear_2304_73278)"/>
</g>
<path d="M92.2394 38.63C95.0433 40.218 97.6284 42.203 99.9435 44.4953C102.13 46.8901 104.034 49.5538 105.577 52.4096C108.677 58.1213 110.31 64.6013 110.297 71.0941C110.297 77.5869 108.677 84.067 105.577 89.7786C104.034 92.6344 102.13 95.2981 99.9307 97.6929C97.6027 99.9597 95.0304 101.97 92.2266 103.558C94.786 101.612 97.1268 99.4218 99.1332 96.9758C101.268 94.645 103.12 92.0581 104.625 89.2791C107.648 83.7212 109.23 77.4205 109.23 71.0941C109.23 64.7678 107.648 58.467 104.625 52.9091C103.12 50.1301 101.281 47.5304 99.1332 45.2125C97.114 42.7793 94.786 40.5766 92.2266 38.6172L92.2394 38.63Z" fill="url(#paint16_linear_2304_73278)"/>
<path d="M95.8828 44.0312C97.8249 45.6705 99.5741 47.553 101.13 49.5764C102.609 51.651 103.883 53.8921 104.912 56.2229C106.97 60.8972 108.024 65.9942 108.024 71.1039C108.024 76.2008 106.97 81.3106 104.912 85.9849C103.883 88.3156 102.622 90.5567 101.13 92.6314C99.5741 94.6548 97.8249 96.5373 95.8828 98.1765C97.6706 96.3708 99.304 94.4243 100.693 92.324C102.159 90.275 103.407 88.0723 104.423 85.7672C106.455 81.1569 107.497 76.1368 107.497 71.1039C107.497 66.071 106.455 61.0509 104.423 56.4406C103.407 54.1355 102.159 51.9328 100.693 49.8838C99.304 47.7835 97.6706 45.8369 95.8828 44.0312Z" fill="url(#paint17_linear_2304_73278)"/>
<path d="M101.128 101.318C101.539 100.946 101.964 100.575 102.375 100.191C102.311 99.717 102.234 99.2431 102.144 98.7693L102.735 98.1802C102.928 97.9881 103.108 97.7704 103.301 97.5655C103.764 97.6295 104.24 97.6936 104.729 97.7448C104.883 97.5783 105.038 97.4118 105.179 97.2325L103.957 96.1696L105.192 97.2197C106.092 96.1568 106.967 95.0555 107.752 93.8901C107.584 93.4419 107.417 92.9936 107.25 92.5582C107.404 92.3277 107.559 92.0972 107.7 91.8539L108.137 91.1495C108.446 90.6885 108.69 90.189 108.96 89.7024C109.436 89.6512 109.925 89.5999 110.401 89.5231C110.697 88.9084 111.018 88.2937 111.301 87.679L111.713 86.7313C111.841 86.424 111.996 86.1038 112.099 85.7837C111.829 85.3867 111.571 84.9897 111.288 84.6055C111.378 84.3493 111.481 84.0932 111.571 83.8243L111.829 83.0303C112.292 82.8894 112.742 82.7485 113.205 82.5949C113.372 82.0058 113.526 81.4039 113.694 80.802C113.385 80.4434 113.063 80.0848 112.729 79.7262L112.909 78.9194L112.999 78.5096L113.063 78.0998C113.488 77.8949 113.925 77.69 114.349 77.4723C114.388 77.1906 114.44 76.9216 114.478 76.6399L114.568 75.8075C114.208 75.4873 113.848 75.18 113.501 74.8726C113.552 74.322 113.578 73.7713 113.616 73.2206L114.234 72.8364L114.825 72.4394V71.7607L112.78 71.7351H114.838C114.838 71.3893 114.851 71.0307 114.838 70.685L114.8 69.6348C114.787 68.9305 114.71 68.2389 114.658 67.5474C114.234 67.3041 113.835 67.0736 113.411 66.8559L113.179 65.2038C113.089 64.6532 112.973 64.1153 112.87 63.5646C113.205 63.2317 113.539 62.8731 113.848 62.5145L113.604 61.5156C113.513 61.1826 113.449 60.8497 113.346 60.5167L113.05 59.5306C112.948 59.1976 112.858 58.8775 112.742 58.5573C112.279 58.4165 111.816 58.2884 111.366 58.1603C111.276 57.9042 111.186 57.6353 111.083 57.3791L110.774 56.6108C111.031 56.2138 111.288 55.804 111.533 55.3942C111.288 54.8307 111.005 54.2672 110.748 53.7165C110.272 53.6269 109.796 53.5629 109.321 53.5116C109.051 53.025 108.806 52.5255 108.523 52.0517C108.729 51.6163 108.922 51.1937 109.115 50.7455L108.678 50.0283L108.202 49.3368C107.726 49.3239 107.237 49.3111 106.774 49.2983C106.465 48.8373 106.118 48.4019 105.784 47.9537C105.938 47.5054 106.079 47.0444 106.208 46.5834L105.771 46.0583L104.678 46.9548H104.665L105.758 46.0455C105.539 45.7766 105.321 45.4948 105.089 45.2387L104.382 44.4575C103.919 43.9325 103.417 43.4458 102.916 42.9464C102.453 43.0232 101.977 43.1129 101.514 43.2153C101.449 43.1513 101.372 43.0872 101.295 43.0232C100.562 42.2676 99.7902 41.5505 99.0056 40.8461L97.8223 39.86C97.3722 39.4887 96.9092 39.1301 96.4461 38.7715C94.5298 37.4781 92.5105 36.3383 90.4141 35.3906V35.9797C92.3176 37.0426 94.1311 38.2592 95.8159 39.6295C96.5105 40.1418 97.1793 40.6925 97.8352 41.2431C97.8352 41.2431 97.951 41.3456 98.0153 41.384C100.395 43.4202 102.53 45.7254 104.356 48.261C104.665 48.6708 104.948 49.0806 105.218 49.5032C105.501 49.9387 105.784 50.3485 106.041 50.7839C106.543 51.6675 107.07 52.5255 107.507 53.4476C107.983 54.344 108.369 55.2789 108.78 56.201L109.321 57.6225C109.514 58.0963 109.668 58.5701 109.822 59.0568C111.083 62.9115 111.674 66.9711 111.713 71.0179C111.687 75.0647 111.096 79.1243 109.835 82.9791C109.552 83.9523 109.153 84.8872 108.806 85.8349C108.395 86.7569 108.009 87.7046 107.533 88.6011C106.633 90.4196 105.565 92.1484 104.382 93.8004C102.015 97.1045 99.1214 100.012 95.8674 102.458C94.1696 103.841 92.3433 105.07 90.4141 106.146V106.722C92.5362 105.762 94.5684 104.622 96.4976 103.303C96.9478 102.97 97.9638 102.304 98.4011 101.958C98.8513 101.625 99.2757 101.267 99.7001 100.921C100.163 101.049 100.639 101.177 101.089 101.279L101.128 101.318Z" fill="url(#paint18_linear_2304_73278)"/>
<path d="M46.2453 102.983C43.4414 101.395 40.8562 99.41 38.5412 97.1176C36.3547 94.7228 34.4512 92.0591 32.9078 89.2033C29.8081 83.4916 28.1747 77.0116 28.1876 70.5188C28.1876 64.026 29.8081 57.546 32.9078 51.8343C34.4512 48.9785 36.3547 46.3148 38.554 43.92C40.882 41.6533 43.4543 39.6427 46.2581 38.0547C43.6987 40.0013 41.3579 42.1911 39.3514 44.6372C37.2164 46.9679 35.3643 49.5548 33.8595 52.3338C30.8371 57.8917 29.2551 64.1925 29.2551 70.5188C29.2551 76.8451 30.8371 83.1459 33.8595 88.7038C35.3643 91.4828 37.2036 94.0825 39.3514 96.4005C41.3707 98.8337 43.6987 101.036 46.2581 102.996L46.2453 102.983Z" fill="url(#paint19_linear_2304_73278)"/>
<path d="M42.6023 97.5828C40.6602 95.9436 38.911 94.061 37.3548 92.0376C35.8757 89.963 34.6024 87.7219 33.5734 85.3911C31.5156 80.7168 30.4609 75.6199 30.4609 70.5101C30.4609 65.4132 31.5156 60.3035 33.5734 55.6292C34.6024 53.2984 35.8757 51.0573 37.3548 48.9827C38.911 46.9592 40.6602 45.0767 42.6023 43.4375C40.8145 45.2432 39.1811 47.1898 37.792 49.29C36.3258 51.339 35.0783 53.5417 34.0622 55.8469C32.0301 60.4572 30.9883 65.4772 30.9883 70.5101C30.9883 75.543 32.0301 80.5631 34.0622 85.1734C35.0783 87.4786 36.3258 89.6813 37.792 91.7303C39.1811 93.8305 40.8145 95.7771 42.6023 97.5828Z" fill="url(#paint20_linear_2304_73278)"/>
<path d="M37.3439 40.2949C36.9324 40.6663 36.5079 41.0377 36.0964 41.4219C36.1607 41.8957 36.2378 42.3695 36.3279 42.8434L35.7362 43.4325C35.5433 43.6246 35.3633 43.8423 35.1703 44.0472C34.6945 43.9831 34.2314 43.9191 33.7427 43.8679C33.5884 44.0344 33.434 44.2008 33.2925 44.3801L34.5144 45.4431L33.2797 44.3929C32.3794 45.4559 31.5048 46.5572 30.7202 47.7226C30.8874 48.1708 31.0546 48.619 31.2218 49.0545C31.0675 49.285 30.9131 49.5155 30.7717 49.7588L30.3344 50.4632C30.0257 50.937 29.7813 51.4236 29.5112 51.9103C29.0354 51.9615 28.5466 52.0127 28.0707 52.0896C27.7749 52.7043 27.4534 53.319 27.1704 53.9337L26.7588 54.8814C26.6302 55.1887 26.4759 55.5089 26.373 55.829C26.6431 56.2388 26.9003 56.623 27.1833 57.02C27.0932 57.2761 26.9904 57.5323 26.9003 57.8012L26.656 58.5952C26.1929 58.7361 25.7428 58.8769 25.2798 59.0306C25.1126 59.6197 24.9582 60.2216 24.791 60.8235C25.0997 61.1821 25.4212 61.5407 25.7556 61.8992L25.5756 62.706L25.4855 63.1158L25.4212 63.5256C24.9968 63.7306 24.5595 63.9355 24.1351 64.1532C24.0965 64.4349 24.0451 64.7038 24.0065 64.9856L23.9164 65.818C24.2766 66.1381 24.6367 66.4455 24.9839 66.7529C24.9325 67.3035 24.9068 67.8542 24.8682 68.4049L24.2508 68.7891L23.6592 69.1861V69.8648L25.7042 69.8904H23.6463C23.6463 70.2362 23.6335 70.5948 23.6463 70.9405L23.6849 71.9907C23.6978 72.695 23.775 73.3865 23.8264 74.0781C24.2508 74.3214 24.6495 74.5519 25.074 74.7696L25.3055 76.4217C25.3955 76.9723 25.5113 77.5102 25.6142 78.0609C25.2798 78.3938 24.9454 78.7524 24.6367 79.111L24.8811 80.1099C24.9711 80.4429 25.0354 80.7758 25.1383 81.1088L25.4341 82.0949C25.537 82.4278 25.627 82.748 25.7428 83.0682C26.2058 83.209 26.6688 83.3371 27.119 83.4652C27.209 83.7213 27.299 83.9902 27.4019 84.2463L27.7106 85.0147C27.4534 85.4117 27.1961 85.8215 26.9518 86.2313C27.1961 86.7948 27.4791 87.3583 27.7363 87.909C28.2122 87.9986 28.6881 88.0626 29.164 88.1139C29.4341 88.6005 29.6784 89.1 29.9614 89.5738C29.7556 90.0092 29.5627 90.4318 29.3698 90.88L29.807 91.5972L30.2829 92.2887C30.7588 92.3015 31.2475 92.3143 31.7106 92.3143C32.0192 92.7754 32.3665 93.2108 32.7009 93.659C32.5466 94.1072 32.4051 94.5683 32.2765 95.0293L32.7138 95.5544L33.807 94.6579H33.8199L32.7266 95.5672C32.9453 95.8361 33.1639 96.1178 33.3954 96.374L34.1028 97.1552C34.5658 97.693 35.0674 98.1669 35.569 98.6663C36.0321 98.5895 36.5079 98.4998 36.971 98.3974C37.0353 98.4614 37.1124 98.5254 37.1896 98.5895C37.9227 99.345 38.6944 100.062 39.479 100.767L40.6622 101.753C41.1124 102.124 41.5754 102.483 42.0384 102.841C43.9548 104.135 45.9741 105.274 48.0705 106.222V105.633C46.167 104.57 44.3535 103.353 42.6686 101.983C41.9741 101.471 41.3053 100.933 40.6494 100.37C40.6494 100.37 40.5336 100.267 40.4693 100.229C38.0899 98.1925 35.9549 95.8873 34.1285 93.3517C33.8199 92.9419 33.5369 92.5321 33.2668 92.1094C32.9839 91.674 32.7009 91.2642 32.4437 90.8288C31.9421 89.9452 31.4147 89.0871 30.9775 88.1651C30.5016 87.2686 30.1157 86.3338 29.7042 85.4117L29.164 83.9902C28.971 83.5164 28.8167 83.0425 28.6624 82.5559C27.4019 78.7012 26.8103 74.6416 26.7717 70.5948C26.7974 66.548 27.3891 62.4883 28.6495 58.6336C28.9325 57.6603 29.3312 56.7255 29.6784 55.7778C30.09 54.8557 30.4758 53.9081 30.9517 53.0116C31.852 51.1931 32.9196 49.4643 34.1028 47.8122C36.4694 44.5082 39.3632 41.6012 42.6172 39.1551C44.3149 37.7721 46.1413 36.5426 48.0705 35.4669V34.8906C45.9483 35.8511 43.9162 36.9909 41.987 38.3099C41.5368 38.6429 40.5208 39.3088 40.0835 39.6546C39.6333 39.9876 39.2089 40.3461 38.7844 40.6919C38.3214 40.5638 37.8455 40.4358 37.3954 40.3333L37.3439 40.2949Z" fill="url(#paint21_linear_2304_73278)"/>
<path d="M66.5851 67.3595C60.7202 66.9369 63.2797 61.571 65.389 62.4547C67.5112 63.3383 68.36 61.7759 68.36 61.7759C68.0642 61.1484 66.9581 60.4697 66.9581 60.4697C64.7073 60.0086 63.5627 60.9307 62.6752 61.3533C61.7878 61.7759 59.537 63.6713 60.9775 66.6423C62.418 69.6006 66.4951 69.7671 66.4951 69.7671C66.4951 69.7671 72.1799 69.7671 73.286 71.6752C74.3921 73.5834 71.2539 74.1725 71.2539 74.1725C72.4372 74.3005 73.5047 75.3507 73.5047 75.3507C73.5047 75.3507 75.794 75.0561 75.6654 72.0594C75.5368 69.0627 72.4372 67.7949 66.5851 67.3723V67.3595ZM66.4179 60.8667C66.8038 60.9307 67.0996 61.1612 67.0996 61.1612C67.0996 61.1612 66.7523 61.2893 66.3665 61.2252C65.9806 61.1612 65.6848 60.9307 65.6848 60.9307C65.6848 60.9307 66.0321 60.8026 66.4179 60.8667Z" fill="#00FFFF"/>
<path d="M75.2551 61.3503C74.3677 60.9277 73.223 59.9928 70.9722 60.4667C70.9722 60.4667 69.8661 61.1454 69.5703 61.7729C69.5703 61.7729 70.4192 63.3353 72.5413 62.4517C74.6635 61.568 77.2101 66.9339 71.3581 67.3565L74.6635 68.8805C75.5638 68.4194 76.4384 67.7151 76.9657 66.6265C78.4062 63.6683 76.1555 61.7729 75.268 61.3375L75.2551 61.3503ZM71.6282 61.2223C71.2423 61.2863 70.8951 61.1582 70.8951 61.1582C70.8951 61.1582 71.178 60.9277 71.5767 60.8637C71.9754 60.7996 72.3098 60.9277 72.3098 60.9277C72.3098 60.9277 72.0269 61.1582 71.6282 61.2223Z" fill="#00FFFF"/>
<path d="M70.738 79.845C71.4582 79.845 72.7573 80.8567 72.7573 80.8567C72.7573 80.8567 74.2235 79.845 74.0306 77.4118C73.8376 74.9786 70.5965 74.2998 68.603 74.287C66.6094 74.2614 64.5516 73.4802 64.4358 72.3276C64.3201 71.1623 66.2493 70.1506 66.2493 70.1506C65.3361 70.2402 63.4969 69.3438 63.4969 69.3438C62.9439 69.9328 62.4165 71.0726 62.3908 72.2764C62.378 73.4802 63.0082 74.5175 64.8474 75.4908C66.6995 76.4641 68.4744 75.9518 70.3264 76.1823C70.3264 76.1823 72.3457 76.4769 72.41 77.7959C72.4743 79.115 70.7509 79.8322 70.7509 79.8322L70.738 79.845Z" fill="#00FFFF"/>
<path d="M66.6683 76.5394C66.6683 76.5394 65.1635 77.1541 65.4979 78.4219C65.8323 79.6898 67.1571 80.0099 69.8451 80.074C72.5332 80.138 73.0091 82.8785 72.9062 83.3652C72.8033 83.8518 72.8033 85.2221 71.3499 85.8368C71.3499 85.8368 70.3725 85.1581 69.8837 85.2477C69.8837 85.2477 71.4142 84.4409 71.5429 83.6469C71.6715 82.8401 71.157 81.4058 68.6747 81.4698C66.1924 81.5339 64.7519 80.8167 64.2246 79.9459C63.8002 79.2415 63.6973 76.6547 64.7519 75.9375L66.6683 76.5522V76.5394Z" fill="#00FFFF"/>
<path d="M68.4203 86.4769C69.6679 86.5281 71.1213 86.938 70.8512 88.1418C70.5811 89.3456 69.3206 89.5889 69.3206 89.5889L70.4525 89.9859C70.4525 89.9859 71.1084 89.512 71.5071 88.9998C71.9058 88.4875 72.1116 87.2069 71.3142 86.3489C70.491 85.4652 68.3174 85.2987 68.3174 85.2987C67.0184 85.2091 66.2596 84.2742 66.2853 83.365C66.2982 82.4557 67.0956 81.9435 67.0956 81.9435L65.5522 81.3672C65.5522 81.3672 64.0988 83.5699 65.5522 85.0426C67.0055 86.5153 68.4203 86.4641 68.4203 86.4641V86.4769Z" fill="#00FFFF"/>
<path d="M66.5401 86.1534L67.7491 86.7425C67.7491 86.7425 66.3858 88.164 68.0063 89.2398C69.614 90.3155 71.0159 90.2771 70.7844 92.5566C70.7844 92.5566 70.6301 94.1446 69.2153 94.0934C69.2153 94.0934 70.27 93.6323 70.27 92.7999C70.27 91.9675 70.5915 90.9046 67.7877 90.1106C64.9838 89.3294 66.5401 86.1406 66.5401 86.1406V86.1534Z" fill="#00FFFF"/>
<path d="M67.7131 90.4062L68.459 90.7264C68.459 90.7264 66.5169 92.1479 68.742 94.0176C68.742 94.0176 66.7999 93.4286 67.0829 91.8021C67.0829 91.8021 67.2372 90.8417 67.7131 90.4062Z" fill="#00FFFF"/>
<path d="M94.4015 58.4812C94.4015 58.4812 83.0319 57.4951 76.3824 52.5263C69.733 47.5446 73.077 55.2156 72.6268 56.2657C72.1767 57.3158 71.2892 58.1995 70.0802 57.9434C70.0802 57.9434 69.9774 56.6755 69.6944 56.4194C69.6944 56.4194 70.2989 55.8815 70.2346 55.1644L68.8713 55.126L67.4951 55.1644C67.4308 55.8815 68.0353 56.4194 68.0353 56.4194C67.7652 56.6755 67.6494 57.9434 67.6494 57.9434C66.4404 58.1995 65.553 57.303 65.1028 56.2657C64.6527 55.2284 67.9967 47.5446 61.3472 52.5263C54.6978 57.5079 43.3281 58.4812 43.3281 58.4812C45.7461 60.7992 49.1802 60.6967 49.1802 60.6967L48.8329 61.2218C51.3409 62.067 55.2894 61.9646 55.2894 61.9646L54.9036 62.4128C54.9036 62.4128 55.5981 62.7585 58.0547 62.8226C60.5112 62.8866 61.6816 61.4651 61.6816 61.4651C61.6816 61.4651 64.7041 59.5313 67.0578 60.3381C69.4114 61.1449 67.9838 62.9634 67.9838 62.9634L68.151 67.1511H69.5272L69.6944 62.9634C69.6944 62.9634 68.2668 61.1449 70.6204 60.3381C72.9741 59.5313 75.9966 61.4651 75.9966 61.4651C75.9966 61.4651 77.1799 62.8866 79.6236 62.8226C82.0801 62.7585 82.7747 62.4128 82.7747 62.4128L82.3888 61.9646C82.3888 61.9646 86.3373 62.0798 88.8453 61.2218L88.4981 60.6967C88.4981 60.6967 91.9321 60.7864 94.3501 58.4812H94.4015Z" fill="#00FFFF"/>
<path d="M70.7886 53.166C70.7886 54.2161 69.9398 55.0613 68.8851 55.0613C67.8305 55.0613 66.9688 54.2161 66.9688 53.166C66.9688 52.1158 67.8176 51.2578 68.8851 51.2578C69.9526 51.2578 70.7886 52.103 70.7886 53.166Z" fill="#00FFFF"/>
</g>
<defs>
<linearGradient id="paint0_linear_2304_73278" x1="33.2812" y1="62.9907" x2="105.178" y2="62.9907" gradientUnits="userSpaceOnUse">
<stop stop-color="#0071BC"/>
<stop offset="1" stop-color="#00FFFF"/>
</linearGradient>
<linearGradient id="paint1_linear_2304_73278" x1="56.6641" y1="105.419" x2="81.7828" y2="105.419" gradientUnits="userSpaceOnUse">
<stop stop-color="#0071BC"/>
<stop offset="1" stop-color="#00FFFF"/>
</linearGradient>
<linearGradient id="paint2_linear_2304_73278" x1="32.7969" y1="67.7172" x2="105.658" y2="67.7172" gradientUnits="userSpaceOnUse">
<stop stop-color="#0071BC"/>
<stop offset="1" stop-color="#00FFFF"/>
</linearGradient>
<linearGradient id="paint3_linear_2304_73278" x1="34.3984" y1="58.2719" x2="104.044" y2="58.2719" gradientUnits="userSpaceOnUse">
<stop stop-color="#0071BC"/>
<stop offset="1" stop-color="#00FFFF"/>
</linearGradient>
<linearGradient id="paint4_linear_2304_73278" x1="36.255" y1="53.5404" x2="102.196" y2="53.5404" gradientUnits="userSpaceOnUse">
<stop stop-color="#0071BC"/>
<stop offset="1" stop-color="#00FFFF"/>
</linearGradient>
<linearGradient id="paint5_linear_2304_73278" x1="36.1094" y1="86.5951" x2="102.334" y2="86.5951" gradientUnits="userSpaceOnUse">
<stop stop-color="#0071BC"/>
<stop offset="1" stop-color="#00FFFF"/>
</linearGradient>
<linearGradient id="paint6_linear_2304_73278" x1="47.7891" y1="100.772" x2="90.6568" y2="100.772" gradientUnits="userSpaceOnUse">
<stop stop-color="#0071BC"/>
<stop offset="1" stop-color="#00FFFF"/>
</linearGradient>
<linearGradient id="paint7_linear_2304_73278" x1="32.7812" y1="72.431" x2="105.668" y2="72.431" gradientUnits="userSpaceOnUse">
<stop stop-color="#0071BC"/>
<stop offset="1" stop-color="#00FFFF"/>
</linearGradient>
<linearGradient id="paint8_linear_2304_73278" x1="34.3125" y1="81.8813" x2="104.138" y2="81.8813" gradientUnits="userSpaceOnUse">
<stop stop-color="#0071BC"/>
<stop offset="1" stop-color="#00FFFF"/>
</linearGradient>
<linearGradient id="paint9_linear_2304_73278" x1="38.75" y1="91.3188" x2="99.7011" y2="91.3188" gradientUnits="userSpaceOnUse">
<stop stop-color="#0071BC"/>
<stop offset="1" stop-color="#00FFFF"/>
</linearGradient>
<linearGradient id="paint10_linear_2304_73278" x1="33.2344" y1="77.1547" x2="105.234" y2="77.1547" gradientUnits="userSpaceOnUse">
<stop stop-color="#0071BC"/>
<stop offset="1" stop-color="#00FFFF"/>
</linearGradient>
<linearGradient id="paint11_linear_2304_73278" x1="42.4688" y1="96.0456" x2="95.9987" y2="96.0456" gradientUnits="userSpaceOnUse">
<stop stop-color="#0071BC"/>
<stop offset="1" stop-color="#00FFFF"/>
</linearGradient>
<linearGradient id="paint12_linear_2304_73278" x1="57.5" y1="34.8824" x2="80.9467" y2="34.8824" gradientUnits="userSpaceOnUse">
<stop stop-color="#0071BC"/>
<stop offset="1" stop-color="#00FFFF"/>
</linearGradient>
<linearGradient id="paint13_linear_2304_73278" x1="48.2031" y1="39.3763" x2="90.2477" y2="39.3763" gradientUnits="userSpaceOnUse">
<stop stop-color="#0071BC"/>
<stop offset="1" stop-color="#00FFFF"/>
</linearGradient>
<linearGradient id="paint14_linear_2304_73278" x1="38.9453" y1="48.8266" x2="99.5106" y2="48.8266" gradientUnits="userSpaceOnUse">
<stop stop-color="#0071BC"/>
<stop offset="1" stop-color="#00FFFF"/>
</linearGradient>
<linearGradient id="paint15_linear_2304_73278" x1="42.7344" y1="44.1001" x2="95.7113" y2="44.1001" gradientUnits="userSpaceOnUse">
<stop stop-color="#0071BC"/>
<stop offset="1" stop-color="#00FFFF"/>
</linearGradient>
<linearGradient id="paint16_linear_2304_73278" x1="135.249" y1="71.0941" x2="92.5738" y2="71.0941" gradientUnits="userSpaceOnUse">
<stop stop-color="#0071BC"/>
<stop offset="1" stop-color="#00FFFF"/>
</linearGradient>
<linearGradient id="paint17_linear_2304_73278" x1="135.252" y1="71.0911" x2="92.5774" y2="71.0911" gradientUnits="userSpaceOnUse">
<stop stop-color="#0071BC"/>
<stop offset="1" stop-color="#00FFFF"/>
</linearGradient>
<linearGradient id="paint18_linear_2304_73278" x1="135.25" y1="71.1076" x2="92.5748" y2="71.1076" gradientUnits="userSpaceOnUse">
<stop stop-color="#0071BC"/>
<stop offset="1" stop-color="#00FFFF"/>
</linearGradient>
<linearGradient id="paint19_linear_2304_73278" x1="-0.0950789" y1="70.5188" x2="48.1874" y2="70.5188" gradientUnits="userSpaceOnUse">
<stop stop-color="#0071BC"/>
<stop offset="1" stop-color="#00FFFF"/>
</linearGradient>
<linearGradient id="paint20_linear_2304_73278" x1="-0.0982156" y1="70.5229" x2="48.1842" y2="70.5229" gradientUnits="userSpaceOnUse">
<stop stop-color="#0071BC"/>
<stop offset="1" stop-color="#00FFFF"/>
</linearGradient>
<linearGradient id="paint21_linear_2304_73278" x1="-0.0961654" y1="70.5051" x2="48.1863" y2="70.5051" gradientUnits="userSpaceOnUse">
<stop stop-color="#0071BC"/>
<stop offset="1" stop-color="#00FFFF"/>
</linearGradient>
<clipPath id="clip0_2304_73278">
<rect width="91.2402" height="77.2864" fill="white" transform="translate(23.6172 33.8438)"/>
</clipPath>
</defs>
</svg>
