<svg width="152" height="42" viewBox="0 0 152 42" fill="none" xmlns="http://www.w3.org/2000/svg">
<path fill-rule="evenodd" clip-rule="evenodd" d="M22.183 3.47682C22.183 2.75612 21.5987 2.17188 20.878 2.17188C10.548 2.17188 2.17383 10.546 2.17383 20.8761C2.17383 31.2061 10.548 39.5803 20.878 39.5803C31.2081 39.5803 39.5823 31.2061 39.5823 20.8761C39.5823 20.1554 38.998 19.5711 38.2773 19.5711C37.5566 19.5711 36.9724 20.1554 36.9724 20.8761C36.9724 29.7647 29.7667 36.9704 20.878 36.9704C11.9894 36.9704 4.78372 29.7647 4.78372 20.8761C4.78372 11.9874 11.9894 4.78176 20.878 4.78176C21.5987 4.78176 22.183 4.19752 22.183 3.47682Z" fill="#188CE5"/>
<path fill-rule="evenodd" clip-rule="evenodd" d="M30.4476 2.17188C31.1683 2.17188 31.7526 2.75612 31.7526 3.47682C31.7526 6.09593 32.3162 7.63273 33.2313 8.54176C34.148 9.45253 35.6871 10.0015 38.2773 10.0015C38.998 10.0015 39.5823 10.5858 39.5823 11.3065C39.5823 12.0272 38.998 12.6114 38.2773 12.6114C35.6958 12.6114 34.1542 13.1732 33.2343 14.0931C32.3143 15.0131 31.7526 16.5547 31.7526 19.1362C31.7526 19.8569 31.1683 20.4411 30.4476 20.4411C29.7269 20.4411 29.1427 19.8569 29.1427 19.1362C29.1427 16.5568 28.5778 15.0146 27.6555 14.0939C26.7328 13.1727 25.1901 12.6114 22.618 12.6114C21.8973 12.6114 21.313 12.0272 21.313 11.3065C21.313 10.5858 21.8973 10.0015 22.618 10.0015C25.1988 10.0015 26.7391 9.453 27.6585 8.54101C28.5758 7.63118 29.1427 6.09376 29.1427 3.47682C29.1427 2.75612 29.7269 2.17188 30.4476 2.17188ZM30.4453 9.19545C30.1768 9.63119 29.8619 10.0315 29.4964 10.394C29.1388 10.7488 28.7455 11.0545 28.3191 11.3157C28.7468 11.5801 29.1411 11.8892 29.4995 12.2469C29.8636 12.6104 30.1774 13.0111 30.4453 13.4465C30.7124 13.0115 31.0255 12.611 31.3888 12.2477C31.7469 11.8896 32.1411 11.5803 32.569 11.3157C32.1425 11.0544 31.7493 10.7484 31.3918 10.3933C31.0271 10.0309 30.7131 9.63084 30.4453 9.19545Z" fill="#2DB757"/>
<path fill-rule="evenodd" clip-rule="evenodd" d="M68.2423 13.9153C68.2423 14.636 67.6581 15.2202 66.9374 15.2202L59.9779 15.2204C59.2572 15.2204 58.6729 14.6362 58.6729 13.9155C58.6729 13.1948 59.2571 12.6105 59.9778 12.6105L63.7869 12.6104L58.185 7.00897C57.6753 6.49937 57.6753 5.67313 58.1849 5.1635C58.6945 4.65386 59.5207 4.65383 60.0304 5.16342L65.6324 10.765L65.6324 6.95616C65.6324 6.23546 66.2166 5.65122 66.9373 5.65121C67.658 5.65121 68.2423 6.23545 68.2423 6.95615L68.2423 13.9153Z" fill="#2DB757"/>
<path fill-rule="evenodd" clip-rule="evenodd" d="M73.8441 20.8226C74.3537 20.313 75.18 20.313 75.6896 20.8226L81.7793 26.9124C82.2889 27.422 82.2889 28.2482 81.7793 28.7578C81.2697 29.2674 80.4435 29.2674 79.9338 28.7578L73.8441 22.6681C73.3345 22.1585 73.3345 21.3322 73.8441 20.8226Z" fill="#2DB757"/>
<path fill-rule="evenodd" clip-rule="evenodd" d="M79.9866 16.9606C73.4725 16.9606 68.2421 22.1164 68.2421 28.4151C68.2421 30.183 68.6519 31.8546 69.3835 33.3476C69.4099 33.4015 69.4985 33.4899 69.6752 33.4899H90.298C90.4747 33.4899 90.5633 33.4015 90.5897 33.3476C91.3214 31.8546 91.7311 30.183 91.7311 28.4151C91.7311 22.1164 86.5007 16.9606 79.9866 16.9606ZM65.6322 28.4151C65.6322 20.62 72.0867 14.3507 79.9866 14.3507C87.8865 14.3507 94.341 20.62 94.341 28.4151C94.341 30.5913 93.8356 32.6549 92.9333 34.4961C92.4184 35.5468 91.3514 36.0997 90.298 36.0997H69.6752C68.6218 36.0997 67.5548 35.5468 67.0399 34.4961C66.1376 32.6549 65.6322 30.5913 65.6322 28.4151Z" fill="#2DB757"/>
<path fill-rule="evenodd" clip-rule="evenodd" d="M130.682 14.4914C131.327 14.1691 132.11 14.4304 132.433 15.075L136.485 23.1802L140.538 15.075C140.86 14.4304 141.644 14.1691 142.289 14.4914C142.933 14.8137 143.195 15.5975 142.872 16.2422L137.653 26.6817C137.431 27.1238 136.98 27.4031 136.485 27.4031C135.991 27.4031 135.539 27.1238 135.318 26.6817L130.098 16.2422C129.776 15.5975 130.037 14.8137 130.682 14.4914Z" fill="#188CE5"/>
<path fill-rule="evenodd" clip-rule="evenodd" d="M119.033 27.0209C118.789 26.7761 118.651 26.4442 118.651 26.0981V15.6586C118.651 14.9379 119.235 14.3536 119.956 14.3536H126.916C127.636 14.3536 128.221 14.9379 128.221 15.6586C128.221 16.3793 127.636 16.9635 126.916 16.9635H121.261V24.7932H126.916C127.636 24.7932 128.221 25.3774 128.221 26.0981C128.221 26.8188 127.636 27.4031 126.916 27.4031H119.956C119.61 27.4031 119.278 27.2656 119.033 27.0209Z" fill="#188CE5"/>
<path fill-rule="evenodd" clip-rule="evenodd" d="M118.651 20.8783C118.651 20.1576 119.235 19.5734 119.956 19.5734H125.176C125.897 19.5734 126.481 20.1576 126.481 20.8783C126.481 21.599 125.897 22.1833 125.176 22.1833H119.956C119.235 22.1833 118.651 21.599 118.651 20.8783Z" fill="#188CE5"/>
<path fill-rule="evenodd" clip-rule="evenodd" d="M123.436 6.52395C118.391 6.52395 114.301 10.6137 114.301 15.6586V26.0981C114.301 31.143 118.391 35.2327 123.436 35.2327H137.355C142.4 35.2327 146.49 31.143 146.49 26.0981V15.6586C146.49 10.6137 142.4 6.52395 137.355 6.52395H123.436ZM111.691 15.6586C111.691 9.17226 116.95 3.91406 123.436 3.91406H137.355C143.842 3.91406 149.1 9.17226 149.1 15.6586V26.0981C149.1 32.5844 143.842 37.8426 137.355 37.8426H123.436C116.95 37.8426 111.691 32.5844 111.691 26.0981V15.6586Z" fill="#188CE5"/>
</svg>
