<svg width="118" height="50" viewBox="0 0 118 50" fill="none" xmlns="http://www.w3.org/2000/svg">
<path fill-rule="evenodd" clip-rule="evenodd" d="M10.3442 36.9203C9.51229 36.6907 9.024 35.8303 9.25353 34.9985C9.88182 32.7214 10.7073 30.5423 11.7133 28.4792C12.0915 27.7036 13.0269 27.3814 13.8025 27.7596C14.5782 28.1378 14.9004 29.0732 14.5222 29.8489C13.6011 31.7379 12.8435 33.7366 12.266 35.8297C12.0364 36.6615 11.176 37.1498 10.3442 36.9203ZM22.6943 17.1526C22.188 16.4537 22.3441 15.4768 23.0429 14.9705C24.7459 13.7368 26.564 12.6452 28.4832 11.7094C29.2588 11.3312 30.1942 11.6534 30.5724 12.429C30.9506 13.2047 30.6284 14.1401 29.8528 14.5183C28.0955 15.3751 26.4325 16.3738 24.8763 17.5012C24.1775 18.0075 23.2006 17.8514 22.6943 17.1526Z" fill="#188CE5"/>
<path fill-rule="evenodd" clip-rule="evenodd" d="M9.3763 36.9766C11.3898 36.9766 13.0221 38.6089 13.0221 40.6224C13.0221 42.6359 11.3898 44.2682 9.3763 44.2682C7.36276 44.2682 5.73047 42.6359 5.73047 40.6224C5.73047 38.6089 7.36276 36.9766 9.3763 36.9766ZM16.1471 40.6224C16.1471 36.883 13.1157 33.8516 9.3763 33.8516C5.63687 33.8516 2.60547 36.883 2.60547 40.6224C2.60547 44.3618 5.63687 47.3932 9.3763 47.3932C13.1157 47.3932 16.1471 44.3618 16.1471 40.6224Z" fill="#188CE5"/>
<path fill-rule="evenodd" clip-rule="evenodd" d="M19.793 16.1432C21.8065 16.1432 23.4388 17.7755 23.4388 19.7891C23.4388 21.8026 21.8065 23.4349 19.793 23.4349C17.7794 23.4349 16.1471 21.8026 16.1471 19.7891C16.1471 17.7755 17.7794 16.1432 19.793 16.1432ZM26.5638 19.7891C26.5638 16.0496 23.5324 13.0182 19.793 13.0182C16.0535 13.0182 13.0221 16.0496 13.0221 19.7891C13.0221 23.5285 16.0535 26.5599 19.793 26.5599C23.5324 26.5599 26.5638 23.5285 26.5638 19.7891Z" fill="#188CE5"/>
<path fill-rule="evenodd" clip-rule="evenodd" d="M40.6263 5.72656C42.6398 5.72656 44.2721 7.35886 44.2721 9.3724C44.2721 11.3859 42.6398 13.0182 40.6263 13.0182C38.6128 13.0182 36.9805 11.3859 36.9805 9.3724C36.9805 7.35886 38.6128 5.72656 40.6263 5.72656ZM47.3971 9.3724C47.3971 5.63297 44.3657 2.60156 40.6263 2.60156C36.8869 2.60156 33.8555 5.63297 33.8555 9.3724C33.8555 13.1118 36.8869 16.1432 40.6263 16.1432C44.3657 16.1432 47.3971 13.1118 47.3971 9.3724Z" fill="#FF9831"/>
<path d="M115 25C115 27.8891 114.431 30.7499 113.325 33.419C112.22 36.0882 110.599 38.5135 108.556 40.5563C106.513 42.5992 104.088 44.2197 101.419 45.3253C98.7499 46.431 95.8891 47 93 47C90.1109 47 87.2501 46.431 84.581 45.3253C81.9118 44.2197 79.4865 42.5992 77.4436 40.5563C75.4008 38.5135 73.7803 36.0882 72.6746 33.419C71.569 30.7499 71 27.8891 71 25C71 22.1109 71.569 19.2501 72.6747 16.581C73.7803 13.9118 75.4008 11.4865 77.4437 9.44365C79.4865 7.40076 81.9118 5.78025 84.581 4.67465C87.2501 3.56905 90.1109 3 93 3C95.8891 3 98.7499 3.56905 101.419 4.67465C104.088 5.78026 106.513 7.40076 108.556 9.44365C110.599 11.4865 112.22 13.9118 113.325 16.581C114.431 19.2501 115 22.1109 115 25L115 25Z" stroke="#DEDEE2" stroke-width="6" stroke-linejoin="round"/>
<path d="M93 3C97.6459 3 102.173 4.47081 105.931 7.20163C109.69 9.93244 112.488 13.7831 113.923 18.2016C115.359 22.6202 115.359 27.3798 113.923 31.7984C112.488 36.2169 109.69 40.0676 105.931 42.7984" stroke="#2DB757" stroke-width="6" stroke-linecap="round"/>
</svg>
