<svg width="1690" height="804" viewBox="0 0 1690 804" fill="none" xmlns="http://www.w3.org/2000/svg">
<path d="M0.674852 307.373C0.674852 307.373 3.37427 302.183 6.74853 302.183C10.1228 302.183 12.8222 304.49 12.8222 307.373C12.8222 309.68 10.7976 311.987 7.42338 312.564V432.514L25.6444 439.434V430.207L16.8713 426.17V278.539L31.7181 265.852V195.497L22.2701 187.423V84.196L7.42338 96.8826V195.497L22.945 206.454V225.484C22.945 225.484 28.3438 227.791 28.3438 230.674C28.3438 233.558 25.6444 235.864 22.2701 235.864C18.8959 235.864 16.1965 233.558 16.1965 230.674C16.1965 228.368 18.221 226.061 21.5953 225.484V207.03L6.07368 196.073V96.3064L22.945 81.8893V70.9323L113.375 1.73005H164.664L168.038 6.34353H204.48L207.855 1.73005H253.07L269.941 12.1104L284.788 4.61348H473.072C473.072 2.30674 475.771 0 479.145 0C482.52 0 485.219 2.30674 485.219 5.19016C485.219 8.07356 482.52 10.3804 479.145 10.3804C476.446 10.3804 473.747 8.65026 473.072 5.76685H284.788L271.291 13.2638L252.395 25.3742H122.823L103.252 40.368H93.1297L41.8409 79.5825V145.325L48.5894 151.092V188L37.1169 197.803V266.429L51.9637 279.116V291.226L41.8409 296.416V470.575L51.9637 475.765V495.373L37.1169 510.366V588.796L47.2397 598.022V634.93L40.4912 640.697V706.439L91.78 745.654H101.903L121.474 760.648H251.045L269.941 772.181L251.045 783.715H205.83L202.456 779.102H166.014L162.639 783.715H111.351L33.7426 724.316V745.654L108.651 802.169H287.487L313.807 786.598H496.017C496.017 783.138 499.391 780.832 502.765 780.832C506.814 780.832 510.189 783.715 510.189 787.175C510.189 790.635 506.814 793.519 502.765 793.519C498.716 793.519 496.017 791.212 495.342 787.752H313.807L287.487 803.322H107.976L32.3929 746.23V723.163L20.9204 713.936V597.446L31.0432 588.219V509.213L16.1965 493.643V480.379L24.9696 476.342V441.164L5.39882 433.667V312.564C5.39882 312.564 0 310.257 0 307.373H0.674852Z" fill="#FFE600"/>
<path d="M1690 307.373C1690 307.373 1687.52 302.183 1684.42 302.183C1681.31 302.183 1678.83 304.49 1678.83 307.373C1678.83 309.68 1680.69 311.987 1683.8 312.564V432.514L1667.04 439.434V430.207L1675.11 426.17V278.539L1661.45 265.852V195.497L1670.14 187.423V84.196L1683.8 96.8826V195.497L1669.52 206.454V225.484C1669.52 225.484 1664.56 227.791 1664.56 230.674C1664.56 233.558 1667.04 235.864 1670.14 235.864C1673.25 235.864 1675.73 233.558 1675.73 230.674C1675.73 228.368 1673.87 226.061 1670.76 225.484V207.03L1685.04 196.073V96.3064L1669.52 81.8893V70.9323L1585.74 1.73005H1538.57L1535.47 6.34353H1501.96L1498.86 1.73005H1457.27L1441.76 12.1104L1428.11 4.61348H1254.96C1254.96 2.30674 1252.47 0 1249.37 0C1246.27 0 1243.79 2.30674 1243.79 5.19016C1243.79 8.07356 1246.27 10.3804 1249.37 10.3804C1251.85 10.3804 1254.34 8.65026 1254.96 5.76685H1428.11L1440.52 13.2638H1439.9L1457.27 25.3742H1576.43L1594.43 40.368H1603.74L1650.9 79.5825V145.325L1644.7 151.092V188L1655.25 197.803V266.429L1641.59 279.116V291.226L1650.9 296.416V470.575L1641.59 475.765V495.373L1655.25 510.366V588.796L1645.94 598.022V634.93L1652.14 640.697V706.439L1604.98 745.654H1595.67L1577.67 760.648H1458.52L1441.14 772.181L1458.52 783.715H1500.1L1503.2 779.102H1536.71L1539.82 783.715H1586.98L1658.35 724.316V745.654L1589.46 802.169H1425L1400.8 786.598H1233.24C1233.24 783.138 1230.13 780.832 1227.03 780.832C1223.31 780.832 1220.2 783.715 1220.2 787.175C1220.2 790.635 1223.31 793.519 1227.03 793.519C1230.75 793.519 1233.24 791.212 1233.86 787.752H1400.8L1425 803.322H1590.08L1659.59 746.23V723.163L1670.14 713.936V597.446L1660.83 588.219V509.213L1674.49 493.643V480.379L1666.42 476.342V441.164L1684.42 433.667V312.564C1684.42 312.564 1689.38 310.257 1689.38 307.373H1690Z" fill="#FFE600"/>
</svg>
