<svg width="98" height="40" viewBox="0 0 98 40" fill="none" xmlns="http://www.w3.org/2000/svg">
<rect x="0.5" y="0.5" width="97" height="39" rx="19.5" fill="url(#paint0_linear_2524_56398)" fill-opacity="0.1"/>
<rect x="0.5" y="0.5" width="97" height="39" rx="19.5" stroke="url(#paint1_linear_2524_56398)"/>
<path d="M56.6632 25.2978C56.1196 25.3604 41.8677 25.3584 41.3912 25.2983C41.4195 25.1447 41.4455 24.9919 41.4761 24.8402C41.7881 23.2982 41.3656 21.9841 40.1662 20.9742C37.945 19.1042 34.4818 20.2126 33.8335 23.1811C33.7581 23.5263 33.7857 23.8937 33.765 24.251C33.7609 24.3205 33.7531 24.3897 33.7473 24.4551C33.5556 24.5518 33.3807 24.4823 33.2093 24.4538C32.8909 24.401 32.5772 24.3099 32.2571 24.2793C31.4397 24.2013 30.7451 23.3742 30.7001 22.5919C30.6693 22.0555 30.669 21.5156 30.6921 20.979C30.7009 20.7737 30.7896 20.5616 30.8822 20.3722C31.0035 20.1229 31.0652 19.8696 31.064 19.5959C31.0622 19.2552 31.063 18.9143 31.0647 18.5736C31.0655 18.4302 31.0632 18.286 31.0769 18.1438C31.1277 17.6188 31.4068 17.2799 31.9241 17.167C32.4669 17.0486 33.0153 16.9524 33.5642 16.865C34.3321 16.7428 35.0638 16.5112 35.7666 16.1837C36.9534 15.6306 38.14 15.0779 39.327 14.5256C40.9176 13.7854 42.586 13.3056 44.3275 13.1094C47.7276 12.726 50.9391 13.3485 53.9369 15.0041C55.1303 15.6632 56.3057 16.3547 57.4827 17.0425C57.7711 17.211 58.0591 17.2789 58.3961 17.2832C59.1311 17.2928 59.8666 17.3428 60.5998 17.4016C61.7454 17.4936 62.8834 17.6438 63.9981 17.935C64.8183 18.1491 65.6052 18.4438 66.3186 18.9115C66.7869 19.2183 67.1168 19.6262 67.2574 20.1759C67.3436 20.5128 67.3451 20.8537 67.2756 21.1891C67.0893 22.0873 66.7517 22.9381 66.4304 23.7934C66.3169 24.0957 66.0911 24.3056 65.7794 24.3897C65.3141 24.5152 64.8426 24.6174 64.3291 24.7402C64.316 24.5793 64.2919 24.4631 64.2995 24.3493C64.3385 23.7697 64.2808 23.204 64.0844 22.6545C63.5372 21.1242 61.9937 19.9098 60.035 20.0769C58.5516 20.2037 57.0005 21.2439 56.5697 23.1409C56.4372 23.724 56.4514 24.3157 56.5932 24.901C56.622 25.0202 56.6364 25.143 56.6632 25.297V25.2978Z" fill="#70CDDD"/>
<path d="M60.3723 26.9964C58.9433 27.0434 57.3555 25.8792 57.3477 23.9458C57.3404 22.1438 58.8821 20.9385 60.3566 20.9221C61.954 20.9044 63.4351 22.219 63.4402 23.9857C63.4445 25.5062 62.172 27.03 60.3723 26.9964Z" fill="#70CDDD"/>
<path d="M37.6954 26.9964C36.0965 27.0464 34.6207 25.7496 34.6172 23.9428C34.6139 22.2167 36.095 20.9372 37.6292 20.922C39.2468 20.9061 40.7102 22.247 40.7084 23.9887C40.7069 25.5943 39.356 27.0224 37.6952 26.9961L37.6954 26.9964Z" fill="#70CDDD"/>
<path d="M48.9655 21.5811C48.2568 22.3977 47.5534 23.2192 46.8559 24.0453C46.7954 24.117 46.737 24.1905 46.6801 24.265C46.5944 24.3773 46.4169 24.2821 46.4627 24.1485C46.7926 23.1879 47.4611 21.4265 47.9433 20.3025H45.348C45.2418 20.3025 45.1839 20.1788 45.2521 20.0974C45.9199 19.302 48.4146 16.4105 49.4097 15.3001C49.5012 15.1981 49.6666 15.2966 49.6206 15.4256L48.4085 18.8126C48.7645 18.8126 49.0517 18.8052 49.3384 18.8141C49.8605 18.8302 50.3824 18.853 50.9045 18.8742C51.0046 18.8782 51.0597 18.9921 51.0003 19.0727C50.6344 19.5692 49.5536 20.903 48.9655 21.5808V21.5811Z" fill="white"/>
<defs>
<linearGradient id="paint0_linear_2524_56398" x1="0" y1="20" x2="97.9682" y2="20" gradientUnits="userSpaceOnUse">
<stop stop-color="#81ECF2"/>
<stop offset="1" stop-color="#60B3D8"/>
</linearGradient>
<linearGradient id="paint1_linear_2524_56398" x1="0" y1="20" x2="97.9682" y2="20" gradientUnits="userSpaceOnUse">
<stop stop-color="#81ECF2"/>
<stop offset="1" stop-color="#60B3D8"/>
</linearGradient>
</defs>
</svg>
