<svg width="98" height="40" viewBox="0 0 98 40" fill="none" xmlns="http://www.w3.org/2000/svg">
<rect x="0.5" y="0.5" width="97" height="39" rx="19.5" fill="url(#paint0_linear_2524_56465)" fill-opacity="0.1"/>
<rect x="0.5" y="0.5" width="97" height="39" rx="19.5" stroke="url(#paint1_linear_2524_56465)"/>
<path fill-rule="evenodd" clip-rule="evenodd" d="M46.1144 23.6981H44.956C44.7083 23.6981 44.4825 23.8005 44.3149 23.9687C44.1547 24.1296 44.0527 24.3636 44.0527 24.6123C44.0527 24.8609 44.1547 25.0876 44.3149 25.2558C44.4825 25.4167 44.7083 25.5191 44.956 25.5191H58.1787C58.4774 25.5191 58.7324 25.7678 58.7324 26.075C58.7324 26.3821 58.4847 26.6308 58.1787 26.6308H44.956C44.4024 26.6308 43.8997 26.4041 43.5354 26.0384C43.1712 25.6727 42.9453 25.1681 42.9453 24.6123C42.9453 24.0564 43.1712 23.5518 43.5354 23.1861C43.6666 23.0545 43.8195 22.9375 43.9798 22.8497V22.5938H46.2528V23.6981H46.1144Z" fill="#70CDDD"/>
<path fill-rule="evenodd" clip-rule="evenodd" d="M56.0095 27.5C56.2717 27.5 56.534 27.5585 56.7671 27.6536C57.0075 27.756 57.2261 27.9022 57.4082 28.0851C57.5903 28.2679 57.7361 28.4873 57.838 28.7287C57.9328 28.9627 57.991 29.2187 57.991 29.4893C57.991 29.7599 57.94 30.0085 57.838 30.2499C57.7361 30.4912 57.5903 30.7106 57.4082 30.8934C57.2261 31.0763 57.0075 31.2299 56.7671 31.3249C56.534 31.42 56.279 31.4712 56.0095 31.4712C55.7399 31.4712 55.4922 31.42 55.2518 31.3249C55.0114 31.2225 54.7928 31.0763 54.6107 30.8934C54.4286 30.7106 54.2756 30.4912 54.1809 30.2499C54.0862 30.0085 54.0352 29.7599 54.0352 29.4893C54.0352 29.2187 54.0862 28.9627 54.1809 28.7287C54.2829 28.4873 54.4286 28.2679 54.6107 28.0851C54.7928 27.9022 55.0114 27.7487 55.2518 27.6536C55.4922 27.5585 55.7472 27.5 56.0095 27.5ZM56.3446 28.6702C56.2426 28.6336 56.1333 28.6043 56.0022 28.6043C55.871 28.6043 55.7618 28.6263 55.6598 28.6702C55.5578 28.714 55.4558 28.7872 55.3756 28.8603C55.2955 28.9407 55.2299 29.0431 55.1862 29.1528C55.1498 29.2552 55.1207 29.3722 55.1207 29.4966C55.1207 29.6209 55.1425 29.7306 55.1862 29.833C55.2299 29.9427 55.2955 30.0378 55.3756 30.1255C55.4558 30.206 55.5578 30.2718 55.667 30.3157C55.769 30.3596 55.8856 30.3815 56.0095 30.3815C56.1333 30.3815 56.2499 30.3596 56.3519 30.3157C56.4611 30.2718 56.5558 30.1987 56.636 30.1182C56.7161 30.0378 56.7817 29.9354 56.8254 29.833C56.8618 29.7306 56.891 29.6136 56.891 29.4893C56.891 29.3649 56.8691 29.2479 56.8254 29.1455C56.7817 29.0431 56.7088 28.9407 56.636 28.8603C56.5558 28.7799 56.4539 28.714 56.3519 28.6702H56.3446Z" fill="#70CDDD"/>
<path fill-rule="evenodd" clip-rule="evenodd" d="M45.6105 27.5C45.8728 27.5 46.1277 27.5585 46.3682 27.6536C46.6086 27.756 46.8271 27.9022 47.0092 28.0851C47.1914 28.2752 47.3371 28.4946 47.4391 28.736C47.5338 28.97 47.5921 29.226 47.5921 29.4966C47.5921 29.7672 47.5411 30.0158 47.4391 30.2572C47.3371 30.4985 47.1914 30.7179 47.0092 30.9008C46.8271 31.0836 46.6086 31.2372 46.3682 31.3322C46.1277 31.4273 45.8728 31.4785 45.6105 31.4785C45.3482 31.4785 45.086 31.4273 44.8528 31.3322C44.6124 31.2299 44.3939 31.0836 44.2117 30.9008C44.0296 30.7179 43.8766 30.4985 43.7819 30.2572C43.6872 30.0158 43.6289 29.7672 43.6289 29.4966C43.6289 29.226 43.6799 28.97 43.7819 28.736C43.8766 28.4946 44.0296 28.2752 44.2117 28.0924C44.3939 27.9096 44.6124 27.7633 44.8528 27.6609C45.086 27.5658 45.3482 27.5073 45.6105 27.5073V27.5ZM45.9529 28.6702C45.8509 28.6336 45.7343 28.6043 45.6105 28.6043C45.4866 28.6043 45.3701 28.6263 45.2681 28.6702C45.1588 28.714 45.0641 28.7872 44.984 28.8603C44.9038 28.9407 44.8383 29.0431 44.7945 29.1528C44.7508 29.2552 44.729 29.3722 44.729 29.4966C44.729 29.6209 44.7508 29.7306 44.7945 29.833C44.8383 29.9427 44.9038 30.0378 44.984 30.1255C45.0641 30.206 45.1588 30.2718 45.2681 30.3157C45.3701 30.3596 45.4794 30.3815 45.6105 30.3815C45.7416 30.3815 45.8436 30.3596 45.9456 30.3157C46.0549 30.2718 46.1496 30.1987 46.237 30.1182C46.3172 30.0378 46.3827 29.9354 46.4264 29.833C46.4701 29.7306 46.492 29.6136 46.492 29.4893C46.492 29.3649 46.4701 29.2479 46.4264 29.1455C46.3827 29.0431 46.3172 28.9407 46.237 28.8603C46.1569 28.7799 46.0549 28.714 45.9529 28.6628V28.6702Z" fill="#70CDDD"/>
<path fill-rule="evenodd" clip-rule="evenodd" d="M51.0983 13.1797H60.1975C60.2412 13.1797 60.2922 13.1797 60.3432 13.1943C60.5108 13.2236 60.6565 13.304 60.773 13.421C60.9115 13.56 60.9989 13.7428 60.9989 13.9549C60.9989 13.9915 60.9989 14.0354 60.9843 14.0866C60.4816 16.7925 59.979 19.4912 59.4836 22.1899C59.4034 22.5994 59.2286 22.9797 58.9517 23.2576C58.6749 23.5282 58.3179 23.7037 57.8881 23.7037H45.2628C44.833 23.7037 44.4687 23.5282 44.1992 23.2576C43.9296 22.9797 43.7475 22.6067 43.6746 22.1899C43.2375 19.8349 42.8004 17.48 42.3633 15.1251H43.4779C43.9005 17.4142 44.323 19.7033 44.7528 21.9924C44.7893 22.1825 44.8694 22.3581 44.986 22.4751C45.0588 22.5482 45.1535 22.5994 45.2701 22.5994H57.8954C58.0119 22.5994 58.1066 22.5555 58.1795 22.4751C58.2961 22.3581 58.3762 22.1825 58.4126 21.9924C58.8862 19.4254 59.367 16.8584 59.8405 14.2913H44.0972V13.187H51.1055L51.0983 13.1797Z" fill="#70CDDD"/>
<path fill-rule="evenodd" clip-rule="evenodd" d="M43.5348 15.478C43.1924 13.6643 42.8573 11.8432 42.5222 10.0295C42.4421 9.61996 42.2672 9.23966 41.9904 8.96175C41.7135 8.68383 41.3566 8.51562 40.9267 8.51562H37.5537C37.255 8.51562 37 8.76428 37 9.07145C37 9.37861 37.2477 9.62727 37.5537 9.62727H40.9267C41.0433 9.62727 41.138 9.67115 41.2109 9.7516C41.3274 9.86861 41.4076 10.0441 41.444 10.2343C41.7645 11.9822 42.0924 13.7374 42.4202 15.4853H43.5348V15.478Z" fill="#70CDDD"/>
<path fill-rule="evenodd" clip-rule="evenodd" d="M43.1513 13.1797H52.6877C52.9937 13.1797 53.2414 13.4283 53.2414 13.7355C53.2414 14.0354 52.9937 14.2913 52.6877 14.2913H43.1513C42.8526 14.2913 42.5977 14.0427 42.5977 13.7355C42.5977 13.4283 42.8454 13.1797 43.1513 13.1797Z" fill="#70CDDD"/>
<path fill-rule="evenodd" clip-rule="evenodd" d="M54.0945 14.0553C53.9633 15.8909 53.6428 21.0981 53.5116 22.9338C53.4898 23.2336 53.2275 23.4677 52.9215 23.4457C52.6228 23.4238 52.3897 23.1605 52.4116 22.8533C52.5427 21.0177 52.8633 15.8178 52.9944 13.9821C53.0162 13.6823 53.2785 13.4482 53.5845 13.4702C53.8832 13.4921 54.1163 13.7554 54.0945 14.0553Z" fill="#70CDDD"/>
<path fill-rule="evenodd" clip-rule="evenodd" d="M57.8936 14.2862C57.5439 16.1218 56.6842 21.0584 56.3345 22.8868C56.2835 23.1866 55.9921 23.3841 55.6934 23.3256C55.3947 23.2671 55.198 22.9745 55.2563 22.682C55.606 20.8463 56.4657 15.9098 56.8154 14.0741C56.8736 13.7742 57.1578 13.5768 57.4565 13.6353C57.7552 13.6938 57.9519 13.9863 57.9009 14.2862H57.8936Z" fill="#70CDDD"/>
<path fill-rule="evenodd" clip-rule="evenodd" d="M49.0288 14.0553C49.1599 15.8909 49.4805 21.0981 49.6116 22.9338C49.6335 23.2336 49.903 23.4677 50.2017 23.4457C50.5077 23.4238 50.7335 23.1605 50.7117 22.8533C50.5806 21.0177 50.26 15.8178 50.1289 13.9821C50.107 13.6823 49.8375 13.4482 49.5388 13.4702C49.2328 13.4921 49.0069 13.7554 49.0288 14.0553Z" fill="#70CDDD"/>
<path fill-rule="evenodd" clip-rule="evenodd" d="M45.2251 14.2862C45.5748 16.1218 46.4344 21.0584 46.7768 22.8868C46.8351 23.1866 47.1265 23.3841 47.4179 23.3256C47.7166 23.2671 47.9133 22.9745 47.855 22.682C47.5054 20.8463 46.6457 15.9098 46.3033 14.0741C46.245 13.7742 45.9536 13.5768 45.6622 13.6353C45.3635 13.6938 45.1668 13.9863 45.2251 14.2862Z" fill="#70CDDD"/>
<path d="M60.1618 16.3984H43.1289V17.5101H60.1618V16.3984Z" fill="#70CDDD"/>
<path d="M59.5772 19.3672H43.5352V20.4715H59.5772V19.3672Z" fill="#70CDDD"/>
<defs>
<linearGradient id="paint0_linear_2524_56465" x1="0" y1="20" x2="97.9682" y2="20" gradientUnits="userSpaceOnUse">
<stop stop-color="#81ECF2"/>
<stop offset="1" stop-color="#60B3D8"/>
</linearGradient>
<linearGradient id="paint1_linear_2524_56465" x1="0" y1="20" x2="97.9682" y2="20" gradientUnits="userSpaceOnUse">
<stop stop-color="#81ECF2"/>
<stop offset="1" stop-color="#60B3D8"/>
</linearGradient>
</defs>
</svg>
