<svg width="98" height="40" viewBox="0 0 98 40" fill="none" xmlns="http://www.w3.org/2000/svg">
<rect x="0.5" y="0.5" width="97" height="39" rx="19.5" fill="url(#paint0_linear_2524_56458)" fill-opacity="0.1"/>
<rect x="0.5" y="0.5" width="97" height="39" rx="19.5" stroke="url(#paint1_linear_2524_56458)"/>
<path d="M52.0337 31.1083C52.6799 31.1083 53.2027 30.5855 53.2262 29.9453H39.375C39.3985 30.5914 39.9213 31.1083 40.5674 31.1083H52.0396H52.0337Z" fill="#70CDDD"/>
<path d="M57.433 19.3591C56.3933 18.7953 54.2903 18.7953 53.6089 20.575C53.6089 20.5574 53.6089 20.5339 53.6089 20.5104V19.0009C53.6089 18.807 53.4503 18.6484 53.2565 18.6484H39.3524C39.1586 18.6484 39 18.807 39 19.0009V20.5104C39 23.3885 39.4523 26.7364 42.5068 29.0976C42.7888 29.315 43.1354 29.4207 43.4878 29.4207H49.127C49.4794 29.4207 49.8319 29.315 50.108 29.0976C50.9303 28.4574 51.5647 27.7467 52.0523 26.9949C53.9085 26.4662 57.433 25.7027 58.6372 23.3062C59.6005 21.3856 58.4433 19.8995 57.4447 19.3591H57.433ZM57.3272 22.9773C56.3169 24.4516 54.073 25.1094 52.8394 25.4266C53.2036 24.4868 53.4033 23.5177 53.5032 22.5544L53.5208 22.5662C53.8321 22.6719 54.1963 22.3488 54.3138 21.9435C54.7309 20.4928 55.7941 20.064 56.7986 20.528C57.5563 20.8745 58.0321 21.9435 57.3214 22.9773H57.3272Z" fill="#70CDDD"/>
<path d="M47.839 13.2376C47.7509 13.3492 47.6451 13.4549 47.5218 13.5724C47.3926 13.6898 47.2633 13.8132 47.1517 13.96C46.1649 15.2698 47.0988 16.9614 47.1047 16.9673C47.1282 17.0261 47.187 17.0613 47.2457 17.0613C47.2575 17.0613 47.2751 17.0613 47.2868 17.0613C47.3632 17.0378 47.4102 16.9673 47.3926 16.8792C47.3926 16.8616 46.8463 15.0878 47.9682 14.0599C48.0798 13.96 48.2208 13.8249 48.3442 13.6605C48.4675 13.5077 48.5733 13.3433 48.6555 13.1729C48.7495 12.985 48.8141 12.7912 48.8493 12.5973C49.0021 11.6634 48.4088 10.6825 48.3912 10.6473C48.3618 10.5768 48.2854 10.5416 48.2091 10.5592C48.1327 10.5827 48.0857 10.6532 48.1033 10.7413C48.1033 10.753 48.4969 11.9806 48.0681 12.8734C48.0093 12.9967 47.933 13.1142 47.8331 13.2376H47.839Z" fill="#70CDDD"/>
<path d="M45.5705 12.2249C45.4589 12.4129 45.312 12.5832 45.1652 12.7594C45.0007 12.9474 44.8362 13.153 44.6952 13.382C44.5484 13.617 44.4309 13.8578 44.3487 14.1104C44.2606 14.3629 44.2136 14.639 44.2077 14.9268C44.1959 15.4261 44.3428 15.9371 44.6306 16.407C44.6776 16.4833 44.7246 16.5597 44.7716 16.6302L45.0183 16.9943C45.0477 17.0354 45.0947 17.0589 45.1417 17.0589C45.1652 17.0589 45.1887 17.0589 45.2122 17.0413C45.2826 17.0061 45.312 16.9297 45.2885 16.8592L45.1475 16.4422C45.1358 16.4128 45.124 16.3776 45.1123 16.3365C44.9772 15.9723 44.707 15.2205 44.9889 14.3218C45.0536 14.1221 45.1475 13.9283 45.2709 13.7345C45.3825 13.5465 45.5294 13.3762 45.6762 13.2C45.8407 13.012 46.0052 12.8064 46.1461 12.5774C46.293 12.3424 46.4105 12.1016 46.4927 11.849C46.5808 11.5965 46.6278 11.3204 46.6337 11.0326C46.6454 10.5333 46.4986 10.0223 46.2108 9.55243C46.1638 9.47607 46.1168 9.39972 46.0698 9.32923L45.8231 8.96507C45.7819 8.90046 45.6997 8.88284 45.6292 8.9122C45.5587 8.94745 45.5294 9.0238 45.5529 9.09429L45.7115 9.57005C45.8231 9.89898 46.1226 10.7741 45.8466 11.6317C45.7819 11.8314 45.688 12.0252 45.5646 12.2191L45.5705 12.2249Z" fill="#70CDDD"/>
<defs>
<linearGradient id="paint0_linear_2524_56458" x1="0" y1="20" x2="97.9682" y2="20" gradientUnits="userSpaceOnUse">
<stop stop-color="#81ECF2"/>
<stop offset="1" stop-color="#60B3D8"/>
</linearGradient>
<linearGradient id="paint1_linear_2524_56458" x1="0" y1="20" x2="97.9682" y2="20" gradientUnits="userSpaceOnUse">
<stop stop-color="#81ECF2"/>
<stop offset="1" stop-color="#60B3D8"/>
</linearGradient>
</defs>
</svg>
