<svg width="98" height="40" viewBox="0 0 98 40" fill="none" xmlns="http://www.w3.org/2000/svg">
<rect x="0.5" y="0.5" width="97" height="39" rx="19.5" fill="url(#paint0_linear_2524_56407)" fill-opacity="0.1"/>
<rect x="0.5" y="0.5" width="97" height="39" rx="19.5" stroke="url(#paint1_linear_2524_56407)"/>
<g opacity="0.2">
<path d="M39.5352 17.7715H58.4542C58.4203 17.5589 58.3763 17.3463 58.3289 17.1406H39.6604C39.613 17.3498 39.569 17.5589 39.5352 17.7715Z" fill="url(#paint2_linear_2524_56407)"/>
<path d="M48.998 29.1166C50.1589 29.1166 51.2723 28.9075 52.3046 28.5234H45.6914C46.7203 28.9075 47.8371 29.1166 48.998 29.1166Z" fill="url(#paint3_linear_2524_56407)"/>
<path d="M39.4102 19.0371H58.583C58.5762 18.8245 58.5627 18.612 58.5424 18.4062H39.4542C39.4338 18.6154 39.4203 18.8245 39.4135 19.0371H39.4102Z" fill="url(#paint4_linear_2524_56407)"/>
<path d="M39.832 16.5137H58.1588C58.0944 16.3011 58.02 16.0885 57.9421 15.8828H40.0486C39.9708 16.092 39.8963 16.3011 39.832 16.5137Z" fill="url(#paint5_linear_2524_56407)"/>
<path d="M40.3198 15.2481H57.6752C57.5736 15.0321 57.4653 14.8229 57.3503 14.6172H40.6413C40.5262 14.8229 40.4179 15.0355 40.3164 15.2481H40.3198Z" fill="url(#paint6_linear_2524_56407)"/>
<path d="M40.596 24.0996H57.3896C57.5013 23.8939 57.6096 23.6813 57.7043 23.4688H40.2812C40.3794 23.6848 40.4843 23.8939 40.596 24.0996Z" fill="url(#paint7_linear_2524_56407)"/>
<path d="M44.3336 27.8887H53.6611C53.9995 27.6967 54.3244 27.4875 54.6358 27.2578H43.3555C43.6668 27.4875 43.9917 27.7001 44.3302 27.8887H44.3336Z" fill="url(#paint8_linear_2524_56407)"/>
<path d="M39.4469 20.3028H58.5486C58.5689 20.0936 58.5825 19.8845 58.5858 19.6719H39.4062C39.413 19.8845 39.4266 20.0936 39.4435 20.3028H39.4469Z" fill="url(#paint9_linear_2524_56407)"/>
<path d="M40.0179 22.834H57.969C58.0468 22.6249 58.1179 22.4157 58.1822 22.2031H39.8047C39.869 22.4157 39.9401 22.6283 40.0179 22.834Z" fill="url(#paint10_linear_2524_56407)"/>
<path d="M41.4233 25.3574H56.5687C56.7243 25.1517 56.8733 24.9426 57.0154 24.7266H40.9766C41.1187 24.9426 41.2676 25.1551 41.4233 25.3574Z" fill="url(#paint11_linear_2524_56407)"/>
<path d="M39.6419 21.5684H58.3477C58.3951 21.3592 58.4357 21.1501 58.4695 20.9375H39.5234C39.5573 21.1501 39.5979 21.3627 39.6453 21.5684H39.6419Z" fill="url(#paint12_linear_2524_56407)"/>
<path d="M42.586 26.6231H55.4063C55.6262 26.4208 55.8361 26.2116 56.0392 25.9922H41.9531C42.1528 26.2116 42.366 26.4242 42.586 26.6231Z" fill="url(#paint13_linear_2524_56407)"/>
<path d="M48.9968 9.67969C47.9171 9.67969 46.8815 9.86141 45.9102 10.194H52.08C51.112 9.86141 50.0764 9.67969 48.9968 9.67969Z" fill="url(#paint14_linear_2524_56407)"/>
<path d="M43.4648 11.4512H54.5286C54.207 11.2215 53.8686 11.0089 53.52 10.8203H44.4768C44.1282 11.0089 43.7897 11.2215 43.4682 11.4512H43.4648Z" fill="url(#paint15_linear_2524_56407)"/>
<path d="M41.0273 13.9824H56.9647C56.8191 13.7664 56.6668 13.5539 56.5078 13.3516H41.4842C41.3252 13.5573 41.1729 13.7664 41.0273 13.9824Z" fill="url(#paint16_linear_2524_56407)"/>
<path d="M42.0234 12.7168H55.9639C55.7575 12.4974 55.5409 12.2848 55.3175 12.0859H42.6732C42.4465 12.2848 42.2299 12.4974 42.0268 12.7168H42.0234Z" fill="url(#paint17_linear_2524_56407)"/>
</g>
<path d="M55.0503 10.9331C55.7881 11.3583 56.4683 11.8897 57.0775 12.5035C57.6529 13.1446 58.1538 13.8578 58.5599 14.6224C59.3756 16.1516 59.8054 17.8865 59.802 19.6248C59.802 21.3632 59.3756 23.0981 58.5599 24.6273C58.1538 25.3919 57.6529 26.105 57.0742 26.7462C56.4616 27.3531 55.7847 27.8914 55.0469 28.3165C55.7204 27.7954 56.3363 27.2091 56.8643 26.5542C57.4261 25.9302 57.9135 25.2376 58.3095 24.4936C59.1048 23.0055 59.5211 21.3186 59.5211 19.6248C59.5211 17.9311 59.1048 16.2441 58.3095 14.7561C57.9135 14.0121 57.4295 13.3161 56.8643 12.6955C56.333 12.044 55.7204 11.4543 55.0469 10.9297L55.0503 10.9331Z" fill="url(#paint18_linear_2524_56407)"/>
<path d="M56.0078 12.375C56.5189 12.8139 56.9791 13.3179 57.3887 13.8596C57.7779 14.4151 58.1129 15.0151 58.3837 15.6391C58.9252 16.8906 59.2027 18.2552 59.2027 19.6232C59.2027 20.9879 58.9252 22.3559 58.3837 23.6074C58.1129 24.2314 57.7813 24.8314 57.3887 25.3869C56.9791 25.9286 56.5189 26.4326 56.0078 26.8715C56.4782 26.388 56.9081 25.8669 57.2736 25.3046C57.6594 24.756 57.9877 24.1662 58.2551 23.5491C58.7898 22.3148 59.064 20.9707 59.064 19.6232C59.064 18.2758 58.7898 16.9317 58.2551 15.6974C57.9877 15.0802 57.6594 14.4905 57.2736 13.9419C56.9081 13.3796 56.4782 12.8584 56.0078 12.375Z" fill="url(#paint19_linear_2524_56407)"/>
<path d="M57.3895 27.7134C57.4978 27.6139 57.6095 27.5145 57.7178 27.4116C57.7009 27.2848 57.6806 27.1579 57.6569 27.0311L57.8126 26.8733C57.8634 26.8219 57.9108 26.7636 57.9615 26.7088C58.0834 26.7259 58.2086 26.7431 58.3372 26.7568C58.3778 26.7122 58.4184 26.6676 58.4556 26.6196L58.1341 26.335L58.459 26.6162C58.6959 26.3316 58.9261 26.0367 59.1325 25.7247C59.0885 25.6047 59.0445 25.4847 59.0005 25.3681C59.0412 25.3064 59.0818 25.2447 59.119 25.1796L59.2341 24.991C59.3153 24.8676 59.3796 24.7338 59.4507 24.6036C59.5759 24.5898 59.7045 24.5761 59.8297 24.5556C59.9076 24.391 59.9922 24.2264 60.0666 24.0618L60.1749 23.8081C60.2088 23.7258 60.2494 23.6401 60.2765 23.5544C60.2054 23.4481 60.1377 23.3418 60.0633 23.2389C60.0869 23.1704 60.114 23.1018 60.1377 23.0298L60.2054 22.8172C60.3272 22.7795 60.4457 22.7418 60.5675 22.7006C60.6115 22.5429 60.6521 22.3818 60.6961 22.2206C60.6149 22.1246 60.5303 22.0286 60.4423 21.9326L60.4897 21.7166L60.5134 21.6069L60.5303 21.4972C60.642 21.4423 60.7571 21.3874 60.8687 21.3292C60.8789 21.2537 60.8924 21.1817 60.9026 21.1063L60.9263 20.8834C60.8315 20.7977 60.7368 20.7154 60.6454 20.6331C60.6589 20.4857 60.6657 20.3383 60.6758 20.1908L60.8383 20.088L60.994 19.9817V19.8L60.4558 19.7931H60.9974C60.9974 19.7005 61.0007 19.6045 60.9974 19.512L60.9872 19.2308C60.9838 19.0422 60.9635 18.8571 60.95 18.6719C60.8383 18.6068 60.7334 18.5451 60.6217 18.4868L60.5608 18.0445C60.5371 17.897 60.5066 17.753 60.4795 17.6056C60.5675 17.5165 60.6555 17.4205 60.7368 17.3245L60.6725 17.057C60.6488 16.9679 60.6318 16.8787 60.6048 16.7896L60.5269 16.5256C60.4998 16.4364 60.4762 16.3507 60.4457 16.265C60.3239 16.2273 60.202 16.193 60.0836 16.1587C60.0599 16.0901 60.0362 16.0181 60.0091 15.9496L59.9279 15.7438C59.9956 15.6375 60.0633 15.5278 60.1276 15.4181C60.0633 15.2672 59.9888 15.1164 59.9211 14.9689C59.7959 14.9449 59.6707 14.9278 59.5454 14.9141C59.4744 14.7838 59.4101 14.6501 59.3356 14.5232C59.3898 14.4066 59.4405 14.2935 59.4913 14.1735L59.3762 13.9815L59.251 13.7963C59.1258 13.7929 58.9972 13.7895 58.8753 13.7861C58.7941 13.6626 58.7027 13.546 58.6147 13.426C58.6553 13.306 58.6926 13.1826 58.7264 13.0592L58.6113 12.9186L58.3237 13.1586H58.3203L58.6079 12.9152C58.5504 12.8432 58.4929 12.7677 58.432 12.6992L58.2458 12.49C58.124 12.3494 57.992 12.2191 57.86 12.0854C57.7381 12.106 57.6129 12.13 57.4911 12.1574C57.4742 12.1403 57.4539 12.1231 57.4335 12.106C57.2406 11.9037 57.0376 11.7117 56.8311 11.5231L56.5197 11.2591C56.4013 11.1597 56.2795 11.0637 56.1576 10.9677C55.6533 10.6214 55.122 10.3162 54.5703 10.0625V10.2202C55.0712 10.5048 55.5484 10.8305 55.9918 11.1974C56.1745 11.3345 56.3505 11.482 56.5231 11.6294C56.5231 11.6294 56.5536 11.6568 56.5705 11.6671C57.1966 12.2123 57.7585 12.8294 58.239 13.5083C58.3203 13.618 58.3947 13.7278 58.4658 13.8409C58.5403 13.9575 58.6147 14.0672 58.6824 14.1838C58.8144 14.4204 58.9532 14.6501 59.0682 14.8969C59.1935 15.137 59.295 15.3872 59.4033 15.6341L59.5454 16.0147C59.5962 16.1416 59.6368 16.2684 59.6774 16.3987C60.0091 17.4307 60.1648 18.5176 60.1749 19.6011C60.1682 20.6846 60.0125 21.7715 59.6808 22.8035C59.6064 23.0641 59.5014 23.3144 59.4101 23.5681C59.3018 23.815 59.2002 24.0687 59.075 24.3087C58.8381 24.7956 58.5572 25.2584 58.2458 25.7007C57.6231 26.5853 56.8616 27.3636 56.0053 28.0185C55.5586 28.3888 55.078 28.718 54.5703 29.006V29.1603C55.1287 28.9031 55.6635 28.598 56.1712 28.2448C56.2896 28.1557 56.557 27.9774 56.672 27.8848C56.7905 27.7957 56.9022 27.6997 57.0139 27.6071C57.1357 27.6414 57.2609 27.6757 57.3794 27.7031L57.3895 27.7134Z" fill="url(#paint20_linear_2524_56407)"/>
<path d="M42.9471 28.1647C42.2093 27.7395 41.529 27.2081 40.9198 26.5943C40.3444 25.9532 39.8436 25.24 39.4374 24.4754C38.6218 22.9462 38.1919 21.2113 38.1953 19.473C38.1953 17.7346 38.6218 15.9997 39.4374 14.4705C39.8436 13.7059 40.3444 12.9928 40.9232 12.3516C41.5358 11.7447 42.2127 11.2064 42.9505 10.7812C42.277 11.3024 41.661 11.8887 41.133 12.5436C40.5712 13.1676 40.0838 13.8602 39.6879 14.6042C38.8925 16.0923 38.4762 17.7792 38.4762 19.473C38.4762 21.1667 38.8925 22.8536 39.6879 24.3417C40.0838 25.0857 40.5678 25.7817 41.133 26.4023C41.6644 27.0538 42.277 27.6435 42.9505 28.1681L42.9471 28.1647Z" fill="url(#paint21_linear_2524_56407)"/>
<path d="M41.9918 26.723C41.4807 26.2842 41.0204 25.7802 40.6109 25.2384C40.2217 24.683 39.8867 24.083 39.6159 23.4589C39.0744 22.2075 38.7969 20.8428 38.7969 19.4748C38.7969 18.1102 39.0744 16.7421 39.6159 15.4907C39.8867 14.8666 40.2217 14.2666 40.6109 13.7112C41.0204 13.1695 41.4807 12.6654 41.9918 12.2266C41.5213 12.71 41.0915 13.2312 40.726 13.7935C40.3402 14.3421 40.0119 14.9318 39.7445 15.549C39.2098 16.7833 38.9356 18.1273 38.9356 19.4748C38.9356 20.8223 39.2098 22.1663 39.7445 23.4006C40.0119 24.0178 40.3402 24.6075 40.726 25.1561C41.0915 25.7184 41.5213 26.2396 41.9918 26.723Z" fill="url(#paint22_linear_2524_56407)"/>
<path d="M40.6059 11.3844C40.4976 11.4838 40.3859 11.5833 40.2776 11.6861C40.2946 11.813 40.3149 11.9399 40.3386 12.0667L40.1829 12.2244C40.1321 12.2759 40.0847 12.3342 40.034 12.389C39.9087 12.3719 39.7869 12.3547 39.6583 12.341C39.6177 12.3856 39.5771 12.4302 39.5398 12.4782L39.8614 12.7627L39.5364 12.4816C39.2995 12.7662 39.0694 13.061 38.8629 13.373C38.9069 13.493 38.9509 13.6131 38.9949 13.7296C38.9543 13.7913 38.9137 13.8531 38.8765 13.9182L38.7614 14.1068C38.6802 14.2336 38.6159 14.3639 38.5448 14.4942C38.4196 14.5079 38.291 14.5217 38.1658 14.5422C38.0879 14.7068 38.0033 14.8714 37.9288 15.036L37.8205 15.2897C37.7867 15.372 37.7461 15.4577 37.719 15.5434C37.7901 15.6531 37.8578 15.756 37.9322 15.8623C37.9085 15.9308 37.8815 15.9994 37.8578 16.0714L37.7935 16.284C37.6716 16.3217 37.5532 16.3594 37.4313 16.4006C37.3873 16.5583 37.3467 16.7194 37.3027 16.8806C37.3839 16.9766 37.4686 17.0726 37.5566 17.1686L37.5092 17.3846L37.4855 17.4943L37.4686 17.604C37.3569 17.6589 37.2418 17.7138 37.1301 17.772C37.12 17.8475 37.1064 17.9195 37.0963 17.9949L37.0726 18.2178C37.1673 18.3035 37.2621 18.3858 37.3535 18.4681C37.3399 18.6155 37.3332 18.7629 37.323 18.9104L37.1606 19.0132L37.0049 19.1195V19.3012L37.543 19.3081H37.0015C37.0015 19.4007 36.9981 19.4967 37.0015 19.5892L37.0117 19.8704C37.015 20.059 37.0353 20.2441 37.0489 20.4293C37.1606 20.4944 37.2655 20.5561 37.3772 20.6144L37.4381 21.0567C37.4618 21.2042 37.4922 21.3482 37.5193 21.4956C37.4313 21.5847 37.3433 21.6807 37.2621 21.7767L37.3264 22.0442C37.3501 22.1333 37.367 22.2225 37.3941 22.3116L37.4719 22.5756C37.499 22.6648 37.5227 22.7505 37.5532 22.8362C37.675 22.8739 37.7968 22.9082 37.9153 22.9425C37.939 23.0111 37.9627 23.0831 37.9898 23.1517L38.071 23.3574C38.0033 23.4637 37.9356 23.5734 37.8713 23.6831C37.9356 23.834 38.0101 23.9848 38.0778 24.1323C38.203 24.1563 38.3282 24.1734 38.4534 24.1871C38.5245 24.3174 38.5888 24.4511 38.6633 24.578C38.6091 24.6946 38.5583 24.8077 38.5076 24.9277L38.6226 25.1197L38.7479 25.3049C38.8731 25.3083 39.0017 25.3117 39.1235 25.3117C39.2048 25.4352 39.2962 25.5517 39.3841 25.6717C39.3435 25.7917 39.3063 25.9152 39.2725 26.0386L39.3875 26.1792L39.6752 25.9392H39.6786L39.3909 26.1826C39.4485 26.2546 39.506 26.33 39.5669 26.3986L39.7531 26.6078C39.8749 26.7518 40.0069 26.8786 40.1389 27.0124C40.2607 26.9918 40.3859 26.9678 40.5078 26.9403C40.5247 26.9575 40.545 26.9746 40.5653 26.9918C40.7582 27.1941 40.9613 27.3861 41.1677 27.5747L41.4791 27.8387C41.5976 27.9381 41.7194 28.0341 41.8412 28.1301C42.3455 28.4764 42.8769 28.7816 43.4285 29.0353V28.8776C42.9277 28.593 42.4504 28.2672 42.0071 27.9004C41.8243 27.7632 41.6483 27.6192 41.4757 27.4684C41.4757 27.4684 41.4453 27.4409 41.4283 27.4307C40.8022 26.8855 40.2404 26.2683 39.7598 25.5894C39.6786 25.4797 39.6041 25.37 39.5331 25.2569C39.4586 25.1403 39.3841 25.0306 39.3165 24.914C39.1845 24.6774 39.0457 24.4477 38.9306 24.2008C38.8054 23.9608 38.7039 23.7105 38.5956 23.4637L38.4534 23.0831C38.4027 22.9562 38.362 22.8294 38.3214 22.6991C37.9898 21.667 37.8341 20.5801 37.8239 19.4967C37.8307 18.4132 37.9864 17.3263 38.318 16.2943C38.3925 16.0337 38.4974 15.7834 38.5888 15.5297C38.6971 15.2828 38.7986 15.0291 38.9239 14.7891C39.1608 14.3022 39.4417 13.8393 39.7531 13.397C40.3758 12.5124 41.1373 11.7341 41.9935 11.0793C42.4403 10.709 42.9209 10.3798 43.4285 10.0918V9.9375C42.8701 10.1947 42.3354 10.4998 41.8277 10.853C41.7093 10.9421 41.4419 11.1204 41.3268 11.213C41.2084 11.3021 41.0967 11.3981 40.985 11.4907C40.8631 11.4564 40.7379 11.4221 40.6195 11.3947L40.6059 11.3844Z" fill="url(#paint23_linear_2524_56407)"/>
<path style="mix-blend-mode:color-dodge" d="M48.9023 30.3449C54.5415 30.3449 59.1131 25.7136 59.1131 20.0006C59.1131 14.2876 54.5415 9.65625 48.9023 9.65625C43.263 9.65625 38.6914 14.2876 38.6914 20.0006C38.6914 25.7136 43.263 30.3449 48.9023 30.3449Z" fill="url(#paint24_radial_2524_56407)"/>
<path d="M48.2984 18.6362C46.7551 18.523 47.4286 17.0864 47.9837 17.323C48.5421 17.5596 48.7655 17.1413 48.7655 17.1413C48.6876 16.9732 48.3966 16.7915 48.3966 16.7915C47.8043 16.6681 47.5031 16.915 47.2696 17.0281C47.036 17.1413 46.4438 17.6487 46.8228 18.4442C47.2019 19.2362 48.2747 19.2807 48.2747 19.2807C48.2747 19.2807 49.7707 19.2808 50.0617 19.7916C50.3528 20.3025 49.527 20.4602 49.527 20.4602C49.8383 20.4945 50.1192 20.7757 50.1192 20.7757C50.1192 20.7757 50.7217 20.6968 50.6878 19.8945C50.654 19.0922 49.8383 18.7527 48.2984 18.6396V18.6362ZM48.2544 16.8978C48.356 16.915 48.4338 16.9767 48.4338 16.9767C48.4338 16.9767 48.3424 17.011 48.2409 16.9938C48.1394 16.9767 48.0615 16.915 48.0615 16.915C48.0615 16.915 48.1529 16.8807 48.2544 16.8978Z" fill="#00FFFF"/>
<path d="M50.578 17.0216C50.3444 16.9084 50.0432 16.6581 49.4509 16.785C49.4509 16.785 49.1599 16.9667 49.082 17.1347C49.082 17.1347 49.3054 17.553 49.8638 17.3165C50.4223 17.0799 51.0924 18.5165 49.5525 18.6296L50.4223 19.0377C50.6592 18.9142 50.8893 18.7256 51.0281 18.4342C51.4071 17.6422 50.8149 17.1347 50.5813 17.0182L50.578 17.0216ZM49.6235 16.9873C49.522 17.0044 49.4306 16.9702 49.4306 16.9702C49.4306 16.9702 49.5051 16.9084 49.61 16.8913C49.7149 16.8742 49.8029 16.9084 49.8029 16.9084C49.8029 16.9084 49.7285 16.9702 49.6235 16.9873Z" fill="#00FFFF"/>
<path d="M49.3919 21.9678C49.5814 21.9678 49.9232 22.2386 49.9232 22.2386C49.9232 22.2386 50.309 21.9678 50.2583 21.3163C50.2075 20.6649 49.3546 20.4832 48.83 20.4797C48.3055 20.4729 47.7639 20.2637 47.7335 19.9551C47.703 19.6431 48.2107 19.3723 48.2107 19.3723C47.9704 19.3963 47.4864 19.1562 47.4864 19.1562C47.3409 19.314 47.2021 19.6191 47.1954 19.9414C47.192 20.2637 47.3578 20.5414 47.8418 20.802C48.3291 21.0626 48.7962 20.9255 49.2836 20.9872C49.2836 20.9872 49.8149 21.066 49.8318 21.4192C49.8488 21.7723 49.3952 21.9643 49.3952 21.9643L49.3919 21.9678Z" fill="#00FFFF"/>
<path d="M48.3204 21.083C48.3204 21.083 47.9244 21.2476 48.0124 21.587C48.1004 21.9265 48.449 22.0122 49.1563 22.0293C49.8637 22.0465 49.9889 22.7802 49.9618 22.9105C49.9347 23.0408 49.9347 23.4077 49.5523 23.5722C49.5523 23.5722 49.2951 23.3905 49.1665 23.4145C49.1665 23.4145 49.5692 23.1985 49.6031 22.9859C49.6369 22.7699 49.5015 22.3859 48.8483 22.4031C48.1951 22.4202 47.8161 22.2282 47.6773 21.9951C47.5656 21.8065 47.5386 21.1139 47.8161 20.9219L48.3204 21.0865V21.083Z" fill="#00FFFF"/>
<path d="M48.7802 23.743C49.1085 23.7568 49.4909 23.8665 49.4198 24.1888C49.3488 24.5111 49.0171 24.5762 49.0171 24.5762L49.3149 24.6825C49.3149 24.6825 49.4875 24.5556 49.5924 24.4185C49.6974 24.2813 49.7515 23.9385 49.5417 23.7088C49.3251 23.4722 48.7531 23.4276 48.7531 23.4276C48.4113 23.4036 48.2116 23.1533 48.2184 22.9099C48.2217 22.6664 48.4316 22.5293 48.4316 22.5293L48.0254 22.375C48.0254 22.375 47.643 22.9647 48.0254 23.359C48.4079 23.7533 48.7802 23.7396 48.7802 23.7396V23.743Z" fill="#00FFFF"/>
<path d="M48.2891 23.6597L48.6073 23.8174C48.6073 23.8174 48.2485 24.198 48.6749 24.486C49.098 24.774 49.4669 24.7637 49.406 25.374C49.406 25.374 49.3654 25.7992 48.9931 25.7855C48.9931 25.7855 49.2706 25.662 49.2706 25.4392C49.2706 25.2163 49.3552 24.9317 48.6174 24.7191C47.8796 24.51 48.2891 23.6562 48.2891 23.6562V23.6597Z" fill="#00FFFF"/>
<path d="M48.5951 24.7969L48.7914 24.8826C48.7914 24.8826 48.2804 25.2632 48.8659 25.7638C48.8659 25.7638 48.3548 25.606 48.4293 25.1706C48.4293 25.1706 48.4699 24.9135 48.5951 24.7969Z" fill="#00FFFF"/>
<path d="M55.6193 16.2516C55.6193 16.2516 52.6274 15.9875 50.8777 14.6572C49.1279 13.3235 50.0079 15.3772 49.8894 15.6584C49.771 15.9395 49.5375 16.1761 49.2193 16.1076C49.2193 16.1076 49.1922 15.7681 49.1178 15.6995C49.1178 15.6995 49.2769 15.5555 49.2599 15.3635L48.9012 15.3532L48.539 15.3635C48.5221 15.5555 48.6812 15.6995 48.6812 15.6995C48.6101 15.7681 48.5797 16.1076 48.5797 16.1076C48.2615 16.1761 48.028 15.9361 47.9095 15.6584C47.7911 15.3807 48.671 13.3235 46.9213 14.6572C45.1715 15.991 42.1797 16.2516 42.1797 16.2516C42.816 16.8721 43.7196 16.8447 43.7196 16.8447L43.6282 16.9853C44.2882 17.2116 45.3272 17.1842 45.3272 17.1842L45.2257 17.3042C45.2257 17.3042 45.4084 17.3967 46.0549 17.4139C46.7013 17.431 47.0093 17.0504 47.0093 17.0504C47.0093 17.0504 47.8046 16.5327 48.424 16.7487C49.0433 16.9647 48.6677 17.4516 48.6677 17.4516L48.7116 18.5728H49.0738L49.1178 17.4516C49.1178 17.4516 48.7421 16.9647 49.3615 16.7487C49.9808 16.5327 50.7762 17.0504 50.7762 17.0504C50.7762 17.0504 51.0875 17.431 51.7306 17.4139C52.377 17.3967 52.5598 17.3042 52.5598 17.3042L52.4582 17.1842C52.4582 17.1842 53.4972 17.215 54.1572 16.9853L54.0658 16.8447C54.0658 16.8447 54.9695 16.8687 55.6057 16.2516H55.6193Z" fill="#00FFFF"/>
<path d="M49.4036 14.8312C49.4036 15.1123 49.1802 15.3386 48.9027 15.3386C48.6252 15.3386 48.3984 15.1123 48.3984 14.8312C48.3984 14.55 48.6218 14.3203 48.9027 14.3203C49.1836 14.3203 49.4036 14.5466 49.4036 14.8312Z" fill="#00FFFF"/>
<defs>
<linearGradient id="paint0_linear_2524_56407" x1="0" y1="20" x2="97.9682" y2="20" gradientUnits="userSpaceOnUse">
<stop stop-color="#81ECF2"/>
<stop offset="1" stop-color="#60B3D8"/>
</linearGradient>
<linearGradient id="paint1_linear_2524_56407" x1="0" y1="20" x2="97.9682" y2="20" gradientUnits="userSpaceOnUse">
<stop stop-color="#81ECF2"/>
<stop offset="1" stop-color="#60B3D8"/>
</linearGradient>
<linearGradient id="paint2_linear_2524_56407" x1="39.5352" y1="17.4561" x2="58.4542" y2="17.4561" gradientUnits="userSpaceOnUse">
<stop stop-color="#0071BC"/>
<stop offset="1" stop-color="#00FFFF"/>
</linearGradient>
<linearGradient id="paint3_linear_2524_56407" x1="45.6914" y1="28.8217" x2="52.3012" y2="28.8217" gradientUnits="userSpaceOnUse">
<stop stop-color="#0071BC"/>
<stop offset="1" stop-color="#00FFFF"/>
</linearGradient>
<linearGradient id="paint4_linear_2524_56407" x1="39.4102" y1="18.7217" x2="58.583" y2="18.7217" gradientUnits="userSpaceOnUse">
<stop stop-color="#0071BC"/>
<stop offset="1" stop-color="#00FFFF"/>
</linearGradient>
<linearGradient id="paint5_linear_2524_56407" x1="39.832" y1="16.1983" x2="58.1588" y2="16.1983" gradientUnits="userSpaceOnUse">
<stop stop-color="#0071BC"/>
<stop offset="1" stop-color="#00FFFF"/>
</linearGradient>
<linearGradient id="paint6_linear_2524_56407" x1="40.3198" y1="14.9292" x2="57.6718" y2="14.9292" gradientUnits="userSpaceOnUse">
<stop stop-color="#0071BC"/>
<stop offset="1" stop-color="#00FFFF"/>
</linearGradient>
<linearGradient id="paint7_linear_2524_56407" x1="40.2812" y1="23.7808" x2="57.7077" y2="23.7808" gradientUnits="userSpaceOnUse">
<stop stop-color="#0071BC"/>
<stop offset="1" stop-color="#00FFFF"/>
</linearGradient>
<linearGradient id="paint8_linear_2524_56407" x1="43.3555" y1="27.5733" x2="54.6358" y2="27.5733" gradientUnits="userSpaceOnUse">
<stop stop-color="#0071BC"/>
<stop offset="1" stop-color="#00FFFF"/>
</linearGradient>
<linearGradient id="paint9_linear_2524_56407" x1="39.4062" y1="19.9839" x2="58.5858" y2="19.9839" gradientUnits="userSpaceOnUse">
<stop stop-color="#0071BC"/>
<stop offset="1" stop-color="#00FFFF"/>
</linearGradient>
<linearGradient id="paint10_linear_2524_56407" x1="39.8047" y1="22.5186" x2="58.1788" y2="22.5186" gradientUnits="userSpaceOnUse">
<stop stop-color="#0071BC"/>
<stop offset="1" stop-color="#00FFFF"/>
</linearGradient>
<linearGradient id="paint11_linear_2524_56407" x1="40.9766" y1="25.042" x2="57.0154" y2="25.042" gradientUnits="userSpaceOnUse">
<stop stop-color="#0071BC"/>
<stop offset="1" stop-color="#00FFFF"/>
</linearGradient>
<linearGradient id="paint12_linear_2524_56407" x1="39.5234" y1="21.2529" x2="58.4695" y2="21.2529" gradientUnits="userSpaceOnUse">
<stop stop-color="#0071BC"/>
<stop offset="1" stop-color="#00FFFF"/>
</linearGradient>
<linearGradient id="paint13_linear_2524_56407" x1="41.9531" y1="26.3076" x2="56.0392" y2="26.3076" gradientUnits="userSpaceOnUse">
<stop stop-color="#0071BC"/>
<stop offset="1" stop-color="#00FFFF"/>
</linearGradient>
<linearGradient id="paint14_linear_2524_56407" x1="45.9102" y1="9.93684" x2="52.08" y2="9.93684" gradientUnits="userSpaceOnUse">
<stop stop-color="#0071BC"/>
<stop offset="1" stop-color="#00FFFF"/>
</linearGradient>
<linearGradient id="paint15_linear_2524_56407" x1="43.4648" y1="11.1323" x2="54.5286" y2="11.1323" gradientUnits="userSpaceOnUse">
<stop stop-color="#0071BC"/>
<stop offset="1" stop-color="#00FFFF"/>
</linearGradient>
<linearGradient id="paint16_linear_2524_56407" x1="41.0273" y1="13.667" x2="56.9647" y2="13.667" gradientUnits="userSpaceOnUse">
<stop stop-color="#0071BC"/>
<stop offset="1" stop-color="#00FFFF"/>
</linearGradient>
<linearGradient id="paint17_linear_2524_56407" x1="42.0234" y1="12.4014" x2="55.9639" y2="12.4014" gradientUnits="userSpaceOnUse">
<stop stop-color="#0071BC"/>
<stop offset="1" stop-color="#00FFFF"/>
</linearGradient>
<linearGradient id="paint18_linear_2524_56407" x1="66.3678" y1="19.6248" x2="55.1383" y2="19.6248" gradientUnits="userSpaceOnUse">
<stop stop-color="#0071BC"/>
<stop offset="1" stop-color="#00FFFF"/>
</linearGradient>
<linearGradient id="paint19_linear_2524_56407" x1="66.3676" y1="19.6198" x2="55.138" y2="19.6198" gradientUnits="userSpaceOnUse">
<stop stop-color="#0071BC"/>
<stop offset="1" stop-color="#00FFFF"/>
</linearGradient>
<linearGradient id="paint20_linear_2524_56407" x1="66.3685" y1="19.6251" x2="55.1389" y2="19.6251" gradientUnits="userSpaceOnUse">
<stop stop-color="#0071BC"/>
<stop offset="1" stop-color="#00FFFF"/>
</linearGradient>
<linearGradient id="paint21_linear_2524_56407" x1="30.753" y1="19.473" x2="43.4581" y2="19.473" gradientUnits="userSpaceOnUse">
<stop stop-color="#0071BC"/>
<stop offset="1" stop-color="#00FFFF"/>
</linearGradient>
<linearGradient id="paint22_linear_2524_56407" x1="30.7555" y1="19.4782" x2="43.4606" y2="19.4782" gradientUnits="userSpaceOnUse">
<stop stop-color="#0071BC"/>
<stop offset="1" stop-color="#00FFFF"/>
</linearGradient>
<linearGradient id="paint23_linear_2524_56407" x1="30.7538" y1="19.4727" x2="43.459" y2="19.4727" gradientUnits="userSpaceOnUse">
<stop stop-color="#0071BC"/>
<stop offset="1" stop-color="#00FFFF"/>
</linearGradient>
<radialGradient id="paint24_radial_2524_56407" cx="0" cy="0" r="1" gradientUnits="userSpaceOnUse" gradientTransform="translate(49.5993 20.6413) scale(10.1963 10.3296)">
<stop offset="0.02" stop-color="#BCBCBC"/>
<stop offset="0.88"/>
</radialGradient>
</defs>
</svg>
