<svg width="98" height="40" viewBox="0 0 98 40" fill="none" xmlns="http://www.w3.org/2000/svg">
<rect x="0.5" y="0.5" width="97" height="39" rx="19.5" fill="url(#paint0_linear_2524_56450)" fill-opacity="0.1"/>
<rect x="0.5" y="0.5" width="97" height="39" rx="19.5" stroke="url(#paint1_linear_2524_56450)"/>
<path d="M57.3682 12.7551L55.7507 14.4429V17.5242L56.0181 17.9233H56.1616V27.7886C55.9855 28.0896 55.6855 28.2793 55.3724 28.2858C54.929 28.2924 54.5246 27.9456 54.4137 27.4681C54.4137 26.5457 54.4137 25.6101 54.4333 24.6812C54.4333 24.5961 54.4333 24.5111 54.4333 24.426C54.4463 23.7718 54.4529 23.3401 54.4137 23.0064C54.3681 22.6335 54.2637 22.3784 54.0681 22.1625C53.7941 21.8616 53.3963 21.6849 52.8745 21.6392V10.871C52.8745 9.83738 52.0397 9 51.0093 9H41.8981C40.8676 9 40.0328 9.83738 40.0328 10.871V30.5297H38.6567C38.5262 30.5297 38.4219 30.6344 38.4219 30.7652C38.4219 30.8961 38.5262 31.0008 38.6567 31.0008H54.3942C54.5246 31.0008 54.6289 30.8961 54.6289 30.7652C54.6289 30.6344 54.5246 30.5297 54.3942 30.5297H52.8745V22.1167C53.2463 22.156 53.5267 22.2803 53.7159 22.4831C53.9767 22.7644 53.9833 23.1438 53.9572 24.4195C53.9572 24.498 53.9572 24.5831 53.9572 24.6746C53.9441 25.6101 53.9376 26.5587 53.9376 27.4942V27.5204V27.5466C54.0094 27.8933 54.192 28.2073 54.4594 28.4298C54.7137 28.6456 55.0333 28.7634 55.3464 28.7634C55.3529 28.7634 55.3659 28.7634 55.3724 28.7634C55.8812 28.7503 56.3507 28.4428 56.5986 27.9653L56.6247 27.9129V17.9298H56.7029L57.166 17.5308V15.4831L57.7595 14.9532H58.2617L58.8943 14.3186L57.3421 12.7617L57.3682 12.7551Z" fill="#70CDDD"/>
<path d="M58.2473 12L57.582 12.6346L58.9321 13.9888L59.5777 13.3346L58.2473 12Z" fill="white"/>
<path d="M48.3604 17.4693H48.1517C48.0408 16.9394 47.5712 16.5469 47.0103 16.5469H45.9538C45.6407 16.5469 45.3472 16.6712 45.132 16.8871C44.9689 17.0506 44.8646 17.2534 44.8189 17.4693H44.6102C43.9385 17.4693 43.3906 18.0188 43.3906 18.6927V27.0599C43.3906 27.7337 43.9385 28.2832 44.6102 28.2832H48.3734C49.0452 28.2832 49.593 27.7337 49.593 27.0599V18.6927C49.593 18.0188 49.0452 17.4693 48.3734 17.4693H48.3604ZM45.4646 17.2207C45.595 17.0899 45.7646 17.0179 45.9538 17.0179H47.0103C47.3038 17.0179 47.5582 17.2076 47.656 17.4628H45.3081C45.3407 17.3712 45.3929 17.2861 45.4646 17.2142V17.2207ZM49.1039 27.0599C49.1039 27.472 48.7712 27.8057 48.3604 27.8057H44.5972C44.1863 27.8057 43.8537 27.472 43.8537 27.0599V18.6927C43.8537 18.2805 44.1863 17.9469 44.5972 17.9469H48.3604C48.7712 17.9469 49.1039 18.2805 49.1039 18.6927V27.0599Z" fill="white"/>
<path d="M47.0573 20.2109L44.8594 23.3184H46.2877L45.7333 25.1763L48.1138 22.095L46.8421 22.1997L47.0573 20.2109Z" fill="white"/>
<path d="M50.1019 10.9609H42.9342C42.3255 10.9609 41.832 11.4559 41.832 12.0665V13.6628C41.832 14.2734 42.3255 14.7684 42.9342 14.7684H50.1019C50.7106 14.7684 51.2041 14.2734 51.2041 13.6628V12.0665C51.2041 11.4559 50.7106 10.9609 50.1019 10.9609Z" fill="white"/>
<defs>
<linearGradient id="paint0_linear_2524_56450" x1="0" y1="20" x2="97.9682" y2="20" gradientUnits="userSpaceOnUse">
<stop stop-color="#81ECF2"/>
<stop offset="1" stop-color="#60B3D8"/>
</linearGradient>
<linearGradient id="paint1_linear_2524_56450" x1="0" y1="20" x2="97.9682" y2="20" gradientUnits="userSpaceOnUse">
<stop stop-color="#81ECF2"/>
<stop offset="1" stop-color="#60B3D8"/>
</linearGradient>
</defs>
</svg>
